<svg width="681" height="462" viewBox="0 0 681 462" fill="none" xmlns="http://www.w3.org/2000/svg">
<g id="undraw_researching_22gp 1" clip-path="url(#clip0)">
<path id="Vector" d="M714.027 94.8079H376.906V104.697H714.027V94.8079Z" fill="#E6E6E6"/>
<g id="book2">
<path id="Vector_2" d="M617.835 12.1007H596.259V97.5048H617.835V12.1007Z" fill="#E6E6E6"/>
<path id="Vector_3" d="M617.835 25.5856H596.259V35.4745H617.835V25.5856Z" fill="#CCCCCC"/>
<path id="Vector_4" d="M617.835 68.7371H596.259V78.626H617.835V68.7371Z" fill="#CCCCCC"/>
</g>
<g id="book1">
<path id="Vector_5" d="M584.572 12.1007H562.997V97.5048H584.572V12.1007Z" fill="#E6E6E6"/>
<path id="Vector_6" d="M584.572 25.5856H562.997V35.4745H584.572V25.5856Z" fill="#CCCCCC"/>
<path id="Vector_7" d="M584.572 68.7371H562.997V78.626H584.572V68.7371Z" fill="#CCCCCC"/>
</g>
<g id="book3">
<path id="Vector_8" d="M636.425 11.7476L617.089 21.3206L654.982 97.858L674.318 88.2851L636.425 11.7476Z" fill="#E6E6E6"/>
<path id="Vector_9" d="M642.408 23.8325L623.072 33.4055L627.46 42.2677L646.796 32.6947L642.408 23.8325Z" fill="#CCCCCC"/>
<path id="Vector_10" d="M661.554 62.504L642.218 72.077L646.606 80.9392L665.942 71.3663L661.554 62.504Z" fill="#CCCCCC"/>
</g>
<g id="leftimage">
<path id="Vector_11" d="M490.178 12.1007H404.774V97.5048H490.178V12.1007Z" fill="#E6E6E6"/>
<path id="Vector_12" d="M473.097 29.1815H421.855V80.424H473.097V29.1815Z" fill="#CCCCCC"/>
<path id="Vector_13" d="M436.688 46.382L447.554 65.201L458.419 84.02H436.688H414.958L425.823 65.201L436.688 46.382Z" fill="#E6E6E6"/>
<path id="Vector_14" d="M455.567 49.978L466.432 68.797L477.298 87.616H455.567H433.837L444.702 68.797L455.567 49.978Z" fill="#E6E6E6"/>
<path id="Vector_15" d="M463.209 44.4644C466.684 44.4644 469.502 41.6469 469.502 38.1714C469.502 34.696 466.684 31.8785 463.209 31.8785C459.733 31.8785 456.916 34.696 456.916 38.1714C456.916 41.6469 459.733 44.4644 463.209 44.4644Z" fill="#E6E6E6"/>
</g>
<path id="Vector_16" d="M376.906 240.444L714.027 240.444V230.555L376.906 230.555V240.444Z" fill="#E6E6E6"/>
<g id="book5">
<path id="Vector_17" d="M473.097 233.252H494.673V147.848H473.097V233.252Z" fill="#E6E6E6"/>
<path id="Vector_18" d="M473.097 171.222H494.673V161.333H473.097V171.222Z" fill="#CCCCCC"/>
<path id="Vector_19" d="M473.097 214.374H494.673V204.485H473.097V214.374Z" fill="#CCCCCC"/>
</g>
<g id="book6">
<path id="Vector_20" d="M506.36 233.252H527.936V147.848H506.36V233.252Z" fill="#E6E6E6"/>
<path id="Vector_21" d="M506.36 171.222H527.936V161.333H506.36V171.222Z" fill="#CCCCCC"/>
<path id="Vector_22" d="M506.36 214.374H527.936V204.485H506.36V214.374Z" fill="#CCCCCC"/>
</g>
<g id="book4">
<path id="Vector_23" d="M416.614 224.033L435.95 233.606L473.843 157.068L454.507 147.495L416.614 224.033Z" fill="#E6E6E6"/>
<path id="Vector_24" d="M444.137 168.442L463.472 178.015L467.86 169.153L448.524 159.58L444.137 168.442Z" fill="#CCCCCC"/>
<path id="Vector_25" d="M424.991 207.114L444.326 216.687L448.714 207.825L429.378 198.252L424.991 207.114Z" fill="#CCCCCC"/>
</g>
<g id="rightlowerblocks">
<path id="Vector_26" d="M600.754 233.252H686.158V147.848H600.754V233.252Z" fill="#E6E6E6"/>
<path id="Vector_27" d="M617.835 216.172H669.077V164.929H617.835V216.172Z" fill="#CCCCCC"/>
<path id="Vector_28" d="M654.244 182.129L643.379 200.948L632.514 219.768H654.244H675.975L665.109 200.948L654.244 182.129Z" fill="#E6E6E6"/>
<path id="Vector_29" d="M635.365 185.725L624.5 204.544L613.635 223.364H635.365H657.096L646.231 204.544L635.365 185.725Z" fill="#E6E6E6"/>
<path id="Vector_30" d="M627.724 180.212C631.199 180.212 634.017 177.395 634.017 173.919C634.017 170.444 631.199 167.626 627.724 167.626C624.248 167.626 621.431 170.444 621.431 173.919C621.431 177.395 624.248 180.212 627.724 180.212Z" fill="#E6E6E6"/>
</g>
<path id="Vector_31" d="M309.129 466.916C528.458 466.916 706.259 454.288 706.259 438.711C706.259 423.134 528.458 410.506 309.129 410.506C89.8009 410.506 -88 423.134 -88 438.711C-88 454.288 89.8009 466.916 309.129 466.916Z" fill="#E6E6E6"/>
<path id="Vector_32" d="M619.387 454.506C554.632 442.981 483.819 444.897 409.54 454.506C443.395 425.925 472.615 397.343 438.759 368.762C504.798 382.386 514.048 381.007 587.511 368.762C570.472 397.343 602.348 425.925 619.387 454.506Z" fill="#F3AC30" fill-opacity="0.53"/>
<path id="Vector_33" d="M603.592 442.312C548.585 433.113 488.432 434.642 425.335 442.312C454.094 419.498 478.915 396.684 450.156 373.87C506.253 384.745 514.111 383.644 576.515 373.87C562.041 396.684 589.118 419.498 603.592 442.312Z" fill="#F3AC30"/>
<path id="Vector_34" d="M245.386 167.377C245.386 167.377 130.308 179.787 110.001 177.531C89.6929 175.274 80.6672 173.018 80.6672 173.018C80.6672 173.018 67.1287 191.069 73.898 198.967C77.6891 203.518 82.2766 207.341 87.4365 210.249C87.4365 210.249 99.8468 206.864 108.872 210.249C117.898 213.634 209.283 228.3 225.078 214.762C240.873 201.223 245.386 167.377 245.386 167.377Z" fill="#2F2E41"/>
<path id="Vector_35" d="M582.64 405.553C598.827 405.553 611.949 392.431 611.949 376.244C611.949 360.057 598.827 346.935 582.64 346.935C566.453 346.935 553.331 360.057 553.331 376.244C553.331 392.431 566.453 405.553 582.64 405.553Z" fill="#2F2E41"/>
<path id="Vector_36" d="M449.591 342.249L469.899 345.634L480.053 374.967L450.72 393.019L416.873 342.249H448.463H449.591Z" fill="#A0616A"/>
<path id="Vector_37" d="M507.13 387.378C533.3 387.378 554.515 366.163 554.515 339.993C554.515 313.823 533.3 292.608 507.13 292.608C480.96 292.608 459.745 313.823 459.745 339.993C459.745 366.163 480.96 387.378 507.13 387.378Z" fill="#A0616A"/>
<path id="Vector_38" d="M253.283 418.967C253.283 418.967 177.693 397.531 164.155 302.762V293.736C164.155 293.736 149.198 319.975 143.847 325.326C137.642 331.531 115.642 387.378 116.77 393.019C117.898 398.66 116.77 400.916 116.77 400.916L84.0518 397.532V387.378C84.0518 387.378 101.539 334.916 102.667 322.506C103.795 310.095 146.103 223.787 146.103 223.787C146.103 223.787 161.898 191.069 188.975 223.787C216.052 256.505 218.309 279.07 218.309 279.07L253.283 346.762L253.283 418.967Z" fill="#2F2E41"/>
<path id="Vector_39" d="M84.0518 169.633L47.9492 157.223C47.9492 157.223 14.1029 132.402 22.0003 157.223C29.8978 182.044 66.0005 236.198 76.1544 230.557C86.3082 224.916 98.5199 210.913 95.7987 208.889C93.0775 206.864 75.0262 192.198 84.0518 169.633Z" fill="#2F2E41"/>
<path id="Vector_40" d="M88.4157 380.717L59.2719 394.95C59.2719 394.95 24.0282 400.372 43.6834 410.538C63.3385 420.705 117.56 431.549 120.271 422.06C122.982 412.572 121.906 396.824 119.055 397.243C116.204 397.661 96.5488 399.694 88.4157 380.717Z" fill="#2F2E41"/>
<path id="Vector_41" d="M219.437 147.069L200.257 251.993L332.258 236.198L355.95 141.428L219.437 147.069Z" fill="#3F3D56"/>
<path id="Vector_42" d="M238.616 344.506C238.616 344.506 223.95 407.685 248.77 421.224C273.591 434.762 447.335 437.019 460.873 412.198C474.412 387.378 467.643 387.378 467.643 387.378L431.54 346.762L460.873 344.506C460.873 344.506 460.873 335.48 450.72 334.352C440.566 333.224 408.976 321.941 381.899 329.839C354.822 337.736 339.027 314.044 339.027 314.044L238.616 344.506Z" fill="#575A89"/>
<path id="Vector_43" d="M223.386 151.018L207.591 244.659L327.745 230.557L350.873 145.377L223.386 151.018Z" fill="white"/>
<path id="Vector_44" d="M204.77 253.121L200.257 251.993L198.001 256.505L234.104 356.916L237.499 355.618L238.616 349.019L204.77 253.121Z" fill="#B3B3B3"/>
<path id="Vector_45" d="M200.257 250.864L236.36 355.788L372.873 335.48L332.258 236.198L200.257 250.864Z" fill="#D0CDE1"/>
<path id="Vector_46" d="M218.309 247.48V253.121L318.719 241.839L317.591 236.198L218.309 247.48Z" fill="#3F3D56"/>
<path id="Vector_47" d="M220.565 258.762L236.36 302.762L339.027 290.352L320.976 248.608L220.565 258.762Z" fill="#3F3D56"/>
<path id="righthand" d="M349.181 320.813L345.796 311.788C345.796 311.788 319.847 266.659 306.309 275.685C292.77 284.711 334.514 328.711 334.514 328.711H348.053L349.181 320.813Z" fill="#A0616A"/>
<path id="lefthand" d="M263.437 327.583L260.052 314.044C260.052 314.044 251.027 272.3 266.822 274.557C282.617 276.813 287.129 316.3 287.129 316.3L286.001 325.326L263.437 327.583Z" fill="#A0616A"/>
<path id="Vector_48" d="M290.514 321.942C290.514 321.942 261.181 317.429 260.052 324.198C258.924 330.967 253.283 432.506 281.488 435.891C309.694 439.275 449.591 453.942 434.925 418.967C420.258 383.993 397.694 388.506 397.694 388.506L301.796 398.66L290.514 321.942Z" fill="#575A89"/>
<path id="Vector_49" d="M379.078 334.916L349.181 314.044L329.437 329.275L354.258 356.352L379.078 334.916Z" fill="#575A89"/>
<path id="Vector_50" opacity="0.2" d="M298.976 355.224L303.488 398.096L381.335 393.583L313.642 392.455L298.976 355.224Z" fill="black"/>
<path id="Vector_51" d="M240.309 183.736L310.258 181.301L317.027 155.531L244.822 157.71L240.309 183.736Z" fill="#F3AC30"/>
<path id="Vector_52" d="M530.521 405.013C561.675 405.013 586.931 379.757 586.931 348.603C586.931 317.448 561.675 292.192 530.521 292.192C499.366 292.192 474.11 317.448 474.11 348.603C474.11 379.757 499.366 405.013 530.521 405.013Z" fill="#2F2E41"/>
<path id="Vector_53" d="M222.258 198.403L328.309 195.018L329.437 190.505L223.386 194.239L222.258 198.403Z" fill="#E6E6E6"/>
<path id="Vector_54" d="M220.001 209.685L326.053 206.3L327.181 201.787L221.129 205.521L220.001 209.685Z" fill="#E6E6E6"/>
<path id="Vector_55" d="M218.873 218.71L324.924 215.326L326.053 210.813L220.001 214.546L218.873 218.71Z" fill="#E6E6E6"/>
</g>
<defs>
<clipPath id="clip0">
<rect width="681" height="462" fill="white"/>
</clipPath>
</defs>
</svg>
