<svg width="615" height="418" viewBox="0 0 615 418" fill="none" xmlns="http://www.w3.org/2000/svg">
<g id="undraw_medical_research_qg4d 1">
<path id="Vector" d="M188.235 193.848H109.071V282.815H188.235V193.848Z" fill="#CCCCCC"/>
<path id="Vector_2" d="M68.7697 416.628H28.4681L24.15 381.909H73.0877L68.7697 416.628Z" fill="#E6E6E6"/>
<path id="Vector_3" d="M149.697 391.48L148.337 410.167C148.275 411.012 148.394 411.862 148.686 412.658C148.978 413.453 149.436 414.177 150.028 414.781C150.621 415.384 151.336 415.853 152.124 416.156C152.912 416.459 153.756 416.59 154.598 416.538L164.148 415.957C164.59 415.93 165.021 415.805 165.411 415.592C165.8 415.379 166.137 415.082 166.4 414.722C166.662 414.363 166.842 413.95 166.927 413.513C167.013 413.076 167.001 412.625 166.894 412.193L161.593 390.882L149.697 391.48Z" fill="#E6E6E6"/>
<path id="Vector_4" d="M229.577 402.53C240.817 405.173 248.846 408.929 254.12 414.012C255.998 415.809 258.456 416.867 261.046 416.996C264.354 417.171 267.059 416.798 269.091 415.886H269.092C269.612 415.655 270.062 415.288 270.394 414.824C270.726 414.36 270.929 413.815 270.981 413.245C271.042 412.666 270.949 412.082 270.71 411.552C270.471 411.022 270.095 410.566 269.622 410.231L242.965 391.168L231.643 395.721L229.001 398.376C228.715 398.663 228.5 399.013 228.371 399.399C228.242 399.784 228.205 400.194 228.26 400.597C228.316 400.999 228.464 401.384 228.693 401.719C228.921 402.054 229.224 402.332 229.577 402.53H229.577Z" fill="#E6E6E6"/>
<path id="Vector_5" d="M194.988 97.4262L118.794 96.7171C118.986 85.5632 121.568 74.6103 127.212 64.8091C130.919 58.372 130.838 51.3665 129.945 45.4646C128.567 36.3566 131.772 27.0378 138.896 21.24C144.34 16.8015 151.21 14.5167 158.214 14.816L159.693 14.8779C164.512 15.0792 169.204 16.4941 173.337 18.9927C177.471 21.4913 180.913 24.9935 183.349 29.1777C185.825 33.6446 186.823 38.7869 186.2 43.8615C185.717 48.6363 186.873 53.4597 189.576 58.3291C194.239 69.0215 195.249 82.7038 194.988 97.4262Z" fill="#2F2E41"/>
<path id="Vector_6" d="M245.966 392.163L231.012 396.083L158.193 236.64L162.744 392.163H147.79C131.811 318.993 102.961 234.548 115.932 207.887L193.302 203.313L245.966 392.163Z" fill="#F3AC30"/>
<path id="Vector_7" d="M157.543 70.6613C168.674 70.6613 177.698 61.5918 177.698 50.4041C177.698 39.2163 168.674 30.1469 157.543 30.1469C146.411 30.1469 137.387 39.2163 137.387 50.4041C137.387 61.5918 146.411 70.6613 157.543 70.6613Z" fill="#FFB9B9"/>
<path id="Vector_8" d="M175.097 87.6512L141.939 85.6908C145.188 78.1945 146.486 70.976 145.189 64.1267H169.896C169.84 69.3856 172.444 78.4826 175.097 87.6512Z" fill="#FFB9B9"/>
<path id="Vector_9" d="M195.902 209.194L123.084 214.422L130.561 84.7107L143.239 81.1165L157.543 84.3837L171.846 77.1955L180.948 80.4634L195.902 209.194Z" fill="#F3AC30"/>
<path id="Vector_10" d="M135.437 302.639L85.6989 291.203C100.489 241.911 127.133 129.144 118.532 88.9581L144.539 77.1958L135.437 302.639Z" fill="#E6E6E6"/>
<path id="Vector_11" d="M111.381 160.185L92.5257 148.423L108.606 101.09C110.399 96.2055 113.834 92.1046 118.317 89.4961L123.734 86.3442L120.483 134.047L111.381 160.185Z" fill="#E6E6E6"/>
<path id="Vector_12" d="M239.139 291.857C223.44 300.985 184.2 306.074 166.97 299.698C165.702 255.162 163.216 129.185 171.196 75.8889L199.804 87.6512L197.203 122.938C183.526 153.124 223.24 258.261 239.139 291.857Z" fill="#E6E6E6"/>
<path id="Vector_13" d="M236.863 154.304L219.308 148.423L195.902 121.631L199.804 87.6509L238.814 142.542L236.863 154.304Z" fill="#E6E6E6"/>
<path id="Vector_14" d="M181.847 179.739C182.135 181.005 182.91 182.106 184.003 182.799C185.097 183.492 186.419 183.722 187.681 183.436L202.582 180.045L200.428 170.485L185.527 173.876C184.265 174.163 183.169 174.942 182.479 176.042C181.789 177.141 181.562 178.471 181.847 179.739V179.739Z" fill="#FFB9B9"/>
<path id="Vector_15" d="M175.097 45.1763C163.902 40.5497 152.845 40.2149 141.939 44.5229L137.387 28.1864H178.998L175.097 45.1763Z" fill="#2F2E41"/>
<path id="Vector_16" d="M195.252 168.68L203.705 184.363C217.921 180.378 230.242 167.814 242.065 152.997L238.814 142.542L218.658 147.769L195.252 168.68Z" fill="#E6E6E6"/>
<g id="rightscope">
<path id="Vector_17" d="M189.076 136.334H186.475C186.475 99.3649 178.902 73.6018 171.521 73.6018L170.871 70.988C177.49 70.988 181.71 81.7103 184.084 90.7056C187.303 102.9 189.076 119.105 189.076 136.334Z" fill="#3F3D56"/>
<path id="Vector_18" d="M187.775 143.522C191.366 143.522 194.277 140.596 194.277 136.987C194.277 133.378 191.366 130.453 187.775 130.453C184.185 130.453 181.274 133.378 181.274 136.987C181.274 140.596 184.185 143.522 187.775 143.522Z" fill="#3F3D56"/>
</g>
<g id="leftscope">
<path id="Vector_19" d="M129.26 127.185H126.66C126.66 93.3278 134.285 72.2949 145.514 72.2949L144.864 74.9087C137.097 74.9087 129.26 91.0732 129.26 127.185Z" fill="#3F3D56"/>
<path id="Vector_20" d="M118.858 142.868H116.257C116.257 133.5 121.507 125.878 127.96 125.878V128.492C122.941 128.492 118.858 134.941 118.858 142.868Z" fill="#3F3D56"/>
<path id="Vector_21" d="M139.663 142.868H137.062C137.062 134.941 132.979 128.492 127.96 128.492V125.878C134.413 125.878 139.663 133.5 139.663 142.868Z" fill="#3F3D56"/>
<path id="Vector_22" d="M138.363 146.136C139.799 146.136 140.963 144.965 140.963 143.522C140.963 142.078 139.799 140.908 138.363 140.908C136.926 140.908 135.762 142.078 135.762 143.522C135.762 144.965 136.926 146.136 138.363 146.136Z" fill="#3F3D56"/>
<path id="Vector_23" d="M117.557 146.136C118.994 146.136 120.158 144.965 120.158 143.522C120.158 142.078 118.994 140.908 117.557 140.908C116.121 140.908 114.957 142.078 114.957 143.522C114.957 144.965 116.121 146.136 117.557 146.136Z" fill="#3F3D56"/>
</g>
<path id="Vector_24" d="M85.0486 119.486L101.275 122.398L138.363 175.4L118.659 170.74L85.0486 119.486Z" fill="#F3AC30"/>
<path id="Vector_25" d="M82.1706 118.837C81.9233 118.841 81.6816 118.911 81.4707 119.041C81.2598 119.171 81.0875 119.355 80.9718 119.575C80.856 119.795 80.8011 120.041 80.8128 120.29C80.8245 120.538 80.9023 120.778 81.0382 120.986L115.706 173.851C115.899 174.147 116.198 174.357 116.541 174.438L132.67 178.252C132.942 178.316 133.227 178.296 133.488 178.194C133.748 178.091 133.971 177.912 134.127 177.679C134.284 177.447 134.366 177.172 134.364 176.891C134.361 176.61 134.274 176.337 134.113 176.107L96.0502 121.713C95.947 121.565 95.8157 121.438 95.6639 121.341C95.512 121.244 95.3427 121.178 95.1654 121.147L82.4306 118.861C82.3448 118.845 82.2578 118.837 82.1706 118.837V118.837Z" fill="#3F3D56"/>
<path id="Vector_26" d="M103.796 156.635L104.76 166.389L119.964 164.872C121.251 164.744 122.434 164.107 123.254 163.102C124.074 162.096 124.462 160.805 124.335 159.511C124.207 158.218 123.573 157.028 122.573 156.205C121.573 155.381 120.288 154.99 119.001 155.118L103.796 156.635Z" fill="#FFB9B9"/>
<path id="Vector_27" d="M90.5755 155.505C90.5976 158.831 91.9266 162.014 94.2731 164.359C96.6195 166.704 99.7931 168.023 103.102 168.026H105.602L107.422 152.782L92.3527 147.33L90.5755 155.505Z" fill="#E6E6E6"/>
<path id="Vector_28" d="M615 0H318.495V156.959H615V0Z" fill="#E6E6E6"/>
<path id="Vector_29" d="M327.131 148.279H606.364V8.67975H327.131V148.279Z" fill="white"/>
<path id="Vector_30" d="M448.036 28.9325H348.722V128.75H448.036V28.9325Z" fill="#3F3D56"/>
<path id="Vector_31" d="M424.287 74.5011C425.877 74.5011 427.166 73.2058 427.166 71.6079C427.166 70.01 425.877 68.7146 424.287 68.7146C422.697 68.7146 421.408 70.01 421.408 71.6079C421.408 73.2058 422.697 74.5011 424.287 74.5011Z" fill="#F3AC30"/>
<path id="Vector_32" d="M413.492 64.3748C415.082 64.3748 416.371 63.0794 416.371 61.4815C416.371 59.8836 415.082 58.5883 413.492 58.5883C411.902 58.5883 410.613 59.8836 410.613 61.4815C410.613 63.0794 411.902 64.3748 413.492 64.3748Z" fill="#F3AC30"/>
<path id="Vector_33" d="M412.053 71.6079C410.993 71.6081 409.955 71.9038 409.053 72.4621C408.259 71.2615 407.325 70.1602 406.272 69.1813C406.284 69.0269 406.295 68.8722 406.295 68.7147C406.296 67.5793 405.964 66.4689 405.341 65.5218C404.718 64.5746 403.832 63.8328 402.792 63.3888C401.753 62.9447 400.606 62.8181 399.495 63.0247C398.384 63.2313 397.359 63.762 396.546 64.5506C395.004 64.3307 393.44 64.317 391.895 64.5098C391.896 64.4645 391.902 64.4204 391.902 64.3748C391.903 63.4063 391.662 62.4529 391.202 61.6021C390.741 60.7513 390.076 60.0303 389.266 59.5052C388.456 58.9802 387.528 58.6677 386.567 58.5967C385.606 58.5256 384.642 58.6981 383.765 59.0984C382.887 59.4987 382.124 60.114 381.544 60.8878C380.965 61.6617 380.588 62.5694 380.448 63.5277C380.308 64.486 380.41 65.4642 380.744 66.3727C381.078 67.2813 381.633 68.091 382.359 68.7278C381.396 69.5576 380.521 70.487 379.751 71.5007C379.04 70.9063 378.198 70.4927 377.294 70.2949C376.391 70.097 375.454 70.1207 374.562 70.364C373.669 70.6072 372.848 71.0629 372.168 71.6924C371.488 72.3219 370.969 73.1068 370.655 73.9806C370.34 74.8544 370.24 75.7915 370.362 76.7125C370.484 77.6336 370.825 78.5115 371.356 79.2721C371.888 80.0327 372.593 80.6535 373.413 81.0821C374.234 81.5107 375.145 81.7344 376.069 81.7343L376.087 81.7334C376.078 81.9739 376.069 82.2147 376.069 82.4576C376.069 83.9135 376.244 85.3641 376.59 86.7779C374.879 87.425 373.359 88.4985 372.174 89.8975C370.989 91.2965 370.177 92.9753 369.814 94.7762C369.451 96.5771 369.55 98.4411 370.1 100.193C370.65 101.946 371.635 103.528 372.961 104.794C374.286 106.059 375.91 106.964 377.68 107.426C379.45 107.887 381.307 107.889 383.077 107.432C384.848 106.974 386.474 106.072 387.803 104.81C389.131 103.548 390.119 101.967 390.673 100.216C394.678 100.989 398.825 100.371 402.434 98.4623C402.803 99.3342 403.378 100.102 404.111 100.698C404.844 101.294 405.711 101.7 406.636 101.881C407.561 102.062 408.516 102.011 409.418 101.734C410.319 101.457 411.139 100.962 411.805 100.292C412.472 99.6222 412.965 98.7981 413.24 97.8922C413.516 96.9863 413.566 96.0262 413.386 95.0963C413.207 94.1663 412.802 93.295 412.209 92.5586C411.616 91.8223 410.852 91.2436 409.985 90.8733C411.232 88.4951 411.932 85.8662 412.034 83.18L412.053 83.1809C413.58 83.1809 415.044 82.5713 416.124 81.4861C417.203 80.4009 417.81 78.9291 417.81 77.3944C417.81 75.8598 417.203 74.3879 416.124 73.3028C415.044 72.2176 413.58 71.6079 412.053 71.6079V71.6079Z" fill="#F3AC30"/>
<path id="Vector_34" d="M410.613 26.7626H381.826V31.1024H410.613V26.7626Z" fill="#E6E6E6"/>
<path id="Vector_35" d="M574.698 28.9325H475.384V128.75H574.698V28.9325Z" fill="#3F3D56"/>
<path id="Vector_36" d="M543.896 96.6345C544.612 96.6345 545.192 96.0516 545.192 95.3325C545.192 94.6135 544.612 94.0306 543.896 94.0306C543.181 94.0306 542.601 94.6135 542.601 95.3325C542.601 96.0516 543.181 96.6345 543.896 96.6345Z" fill="#F3AC30"/>
<path id="Vector_37" d="M539.039 92.0776C539.754 92.0776 540.334 91.4947 540.334 90.7757C540.334 90.0566 539.754 89.4737 539.039 89.4737C538.323 89.4737 537.743 90.0566 537.743 90.7757C537.743 91.4947 538.323 92.0776 539.039 92.0776Z" fill="#F3AC30"/>
<path id="Vector_38" d="M538.391 95.3325C537.914 95.3326 537.447 95.4657 537.041 95.7169C536.684 95.1766 536.264 94.681 535.79 94.2406C535.795 94.1711 535.8 94.1015 535.8 94.0306C535.801 93.5197 535.651 93.0199 535.371 92.5937C535.091 92.1675 534.692 91.8337 534.224 91.6339C533.756 91.4341 533.24 91.3771 532.74 91.4701C532.24 91.5631 531.779 91.8019 531.413 92.1567C530.719 92.0578 530.015 92.0516 529.32 92.1384C529.321 92.118 529.323 92.0981 529.323 92.0776C529.324 91.6418 529.215 91.2128 529.008 90.8299C528.801 90.4471 528.501 90.1226 528.137 89.8863C527.773 89.65 527.355 89.5095 526.922 89.4775C526.49 89.4455 526.056 89.5231 525.661 89.7033C525.267 89.8834 524.923 90.1603 524.662 90.5085C524.402 90.8567 524.232 91.2652 524.169 91.6964C524.106 92.1277 524.152 92.5679 524.302 92.9767C524.452 93.3855 524.702 93.7499 525.029 94.0365C524.595 94.4099 524.202 94.8281 523.855 95.2843C523.535 95.0168 523.156 94.8307 522.75 94.7417C522.343 94.6526 521.921 94.6633 521.52 94.7728C521.118 94.8822 520.749 95.0873 520.443 95.3706C520.137 95.6539 519.903 96.007 519.762 96.4002C519.62 96.7935 519.575 97.2151 519.63 97.6296C519.685 98.0441 519.839 98.4391 520.078 98.7814C520.317 99.1237 520.634 99.403 521.003 99.5959C521.372 99.7888 521.782 99.8894 522.198 99.8894L522.207 99.889C522.202 99.9972 522.198 100.106 522.198 100.215C522.198 100.87 522.277 101.523 522.433 102.159C521.663 102.45 520.979 102.933 520.446 103.563C519.912 104.192 519.547 104.948 519.384 105.758C519.22 106.569 519.265 107.407 519.512 108.196C519.76 108.984 520.203 109.697 520.8 110.266C521.396 110.835 522.127 111.243 522.923 111.451C523.72 111.658 524.555 111.659 525.352 111.453C526.149 111.247 526.881 110.841 527.478 110.273C528.076 109.705 528.521 108.994 528.77 108.206C530.572 108.554 532.439 108.276 534.063 107.417C534.228 107.809 534.488 108.155 534.817 108.423C535.147 108.691 535.537 108.874 535.953 108.955C536.37 109.037 536.8 109.014 537.205 108.889C537.611 108.765 537.98 108.542 538.28 108.24C538.58 107.939 538.801 107.568 538.925 107.16C539.049 106.753 539.072 106.321 538.991 105.902C538.91 105.484 538.728 105.092 538.462 104.76C538.195 104.429 537.851 104.169 537.46 104.002C538.022 102.932 538.337 101.749 538.383 100.54L538.391 100.54C539.078 100.54 539.737 100.266 540.223 99.7777C540.709 99.2894 540.982 98.6271 540.982 97.9365C540.982 97.2459 540.709 96.5835 540.223 96.0952C539.737 95.6069 539.078 95.3325 538.391 95.3325V95.3325Z" fill="#F3AC30"/>
<path id="Vector_39" d="M554.06 71.9274C554.775 71.9274 555.355 71.3445 555.355 70.6254C555.355 69.9064 554.775 69.3235 554.06 69.3235C553.344 69.3235 552.764 69.9064 552.764 70.6254C552.764 71.3445 553.344 71.9274 554.06 71.9274Z" fill="#F3AC30"/>
<path id="Vector_40" d="M557.107 65.9926C557.822 65.9926 558.402 65.4097 558.402 64.6906C558.402 63.9716 557.822 63.3887 557.107 63.3887C556.391 63.3887 555.812 63.9716 555.812 64.6906C555.812 65.4097 556.391 65.9926 557.107 65.9926Z" fill="#F3AC30"/>
<path id="Vector_41" d="M552.567 65.2993C552.438 64.8382 552.184 64.4222 551.833 64.0977C552.254 63.6054 552.614 63.0646 552.908 62.4866C552.976 62.4732 553.044 62.4591 553.112 62.4399C553.601 62.3018 554.039 62.0219 554.371 61.6352C554.704 61.2485 554.915 60.772 554.98 60.2652C555.044 59.7585 554.959 59.2438 554.734 58.7855C554.51 58.3271 554.156 57.9453 553.717 57.6877C553.624 56.9897 553.439 56.3072 553.167 55.658C553.187 55.6529 553.207 55.65 553.226 55.6445C553.644 55.5268 554.025 55.3058 554.336 55.0015C554.646 54.6972 554.876 54.3195 555.003 53.9029C555.131 53.4863 555.152 53.0442 555.066 52.6172C554.979 52.1901 554.787 51.7917 554.508 51.4585C554.228 51.1253 553.87 50.868 553.466 50.7101C553.061 50.5522 552.624 50.4988 552.194 50.5548C551.764 50.6108 551.355 50.7744 551.004 51.0306C550.653 51.2868 550.372 51.6274 550.186 52.0212C549.711 51.7029 549.204 51.4356 548.673 51.224C548.843 50.8421 548.918 50.4248 548.893 50.0074C548.868 49.59 548.744 49.1848 548.53 48.826C548.316 48.4673 548.02 48.1655 547.665 47.9463C547.311 47.727 546.91 47.5967 546.495 47.5665C546.08 47.5362 545.664 47.6068 545.282 47.7723C544.9 47.9378 544.563 48.1934 544.3 48.5174C544.037 48.8414 543.855 49.2242 543.771 49.6336C543.686 50.043 543.701 50.4669 543.814 50.8694L543.816 50.8772C543.711 50.9024 543.606 50.928 543.502 50.9576C542.874 51.1353 542.271 51.3883 541.703 51.7113C541.216 51.0453 540.568 50.5148 539.82 50.1695C539.073 49.8242 538.25 49.6754 537.43 49.7371C536.609 49.7989 535.818 50.0691 535.13 50.5224C534.442 50.9758 533.88 51.5974 533.496 52.3289C533.113 53.0605 532.921 53.8779 532.938 54.7046C532.955 55.5313 533.18 56.3401 533.594 57.055C534.007 57.77 534.594 58.3678 535.3 58.7922C536.006 59.2166 536.808 59.4538 537.63 59.4815C537.785 61.3193 538.558 63.0494 539.82 64.3877C539.49 64.6545 539.229 64.9988 539.061 65.3904C538.894 65.7821 538.825 66.2091 538.86 66.6339C538.895 67.0587 539.033 67.4685 539.262 67.8271C539.492 68.1857 539.805 68.4822 540.175 68.6907C540.545 68.8991 540.96 69.013 541.384 69.0225C541.808 69.032 542.228 68.9367 542.607 68.745C542.986 68.5534 543.312 68.2711 543.557 67.9231C543.802 67.5751 543.958 67.172 544.012 66.7491C545.189 67.0018 546.408 66.986 547.578 66.7029L547.58 66.711C547.672 67.0403 547.827 67.3483 548.038 67.6171C548.248 67.886 548.509 68.1105 548.806 68.2779C549.103 68.4453 549.43 68.5523 549.768 68.5927C550.106 68.6331 550.448 68.6061 550.776 68.5134C551.104 68.4207 551.41 68.2639 551.677 68.0522C551.945 67.8404 552.168 67.5778 552.334 67.2793C552.501 66.9808 552.607 66.6523 552.647 66.3126C552.687 65.9728 552.66 65.6285 552.567 65.2993V65.2993Z" fill="#F3AC30"/>
<path id="Vector_42" d="M503.886 54.235C504.602 54.235 505.182 53.6521 505.182 52.9331C505.182 52.214 504.602 51.6311 503.886 51.6311C503.171 51.6311 502.591 52.214 502.591 52.9331C502.591 53.6521 503.171 54.235 503.886 54.235Z" fill="#F3AC30"/>
<path id="Vector_43" d="M497.263 54.7683C497.978 54.7683 498.558 54.1854 498.558 53.4664C498.558 52.7473 497.978 52.1644 497.263 52.1644C496.547 52.1644 495.967 52.7473 495.967 53.4664C495.967 54.1854 496.547 54.7683 497.263 54.7683Z" fill="#F3AC30"/>
<path id="Vector_44" d="M500.175 57.0196C499.853 57.3734 499.636 57.81 499.547 58.2806C498.909 58.1816 498.261 58.1593 497.618 58.2142C497.571 58.1632 497.523 58.1126 497.471 58.0648C497.096 57.72 496.628 57.4939 496.126 57.4146C495.624 57.3354 495.109 57.4064 494.647 57.6189C494.185 57.8315 493.795 58.1761 493.526 58.6098C493.258 59.0435 493.122 59.5471 493.136 60.0578C492.596 60.506 492.117 61.0243 491.712 61.5989C491.697 61.5848 491.684 61.5695 491.669 61.5557C491.349 61.2614 490.961 61.0526 490.54 60.9483C490.119 60.844 489.678 60.8476 489.259 60.9587C488.84 61.0699 488.455 61.285 488.14 61.5845C487.825 61.8839 487.589 62.2581 487.455 62.6726C487.322 63.0872 487.293 63.5289 487.373 63.9573C487.453 64.3856 487.639 64.7869 487.914 65.1244C488.188 65.4619 488.542 65.7247 488.944 65.8888C489.346 66.0529 489.782 66.1131 490.213 66.0637C490.195 66.6374 490.237 67.2114 490.339 67.7763C489.926 67.8333 489.534 67.9893 489.195 68.2309C488.855 68.4726 488.578 68.7929 488.388 69.1648C488.198 69.5366 488.1 69.949 488.101 70.3672C488.103 70.7853 488.205 71.1968 488.399 71.567C488.592 71.9371 488.872 72.2549 489.213 72.4936C489.555 72.7322 489.949 72.8847 490.361 72.9381C490.774 72.9914 491.193 72.9441 491.584 72.8002C491.974 72.6562 492.325 72.4198 492.605 72.111L492.611 72.1046C492.687 72.1808 492.764 72.2568 492.845 72.3305C493.326 72.7721 493.859 73.1538 494.431 73.4673C494.126 74.2352 494.02 75.0684 494.123 75.8887C494.226 76.7091 494.535 77.4897 495.02 78.1572C495.505 78.8248 496.152 79.3575 496.898 79.7053C497.644 80.0531 498.466 80.2046 499.287 80.1455C500.108 80.0865 500.9 79.8189 501.589 79.3679C502.279 78.9168 502.843 78.2971 503.229 77.5668C503.615 76.8366 503.81 76.0197 503.795 75.193C503.781 74.3663 503.558 73.5568 503.147 72.8404C504.618 71.7375 505.672 70.1645 506.136 68.38C506.536 68.5214 506.965 68.562 507.384 68.4982C507.803 68.4343 508.201 68.268 508.541 68.0137C508.882 67.7595 509.155 67.4251 509.337 67.04C509.519 66.6549 509.604 66.2308 509.584 65.8049C509.565 65.3791 509.442 64.9645 509.226 64.5976C509.01 64.2307 508.708 63.9226 508.346 63.7005C507.984 63.4784 507.573 63.349 507.15 63.3237C506.726 63.2984 506.303 63.3779 505.917 63.5554C505.509 62.4174 504.853 61.3858 503.995 60.5366L504.001 60.5308C504.231 60.2784 504.409 59.9829 504.526 59.6612C504.642 59.3394 504.694 58.9979 504.679 58.6559C504.663 58.314 504.581 57.9785 504.437 57.6685C504.292 57.3585 504.089 57.0802 503.837 56.8494C503.586 56.6187 503.291 56.44 502.971 56.3236C502.651 56.2073 502.311 56.1555 501.971 56.1713C501.631 56.1871 501.297 56.2702 500.989 56.4157C500.68 56.5613 500.404 56.7665 500.175 57.0196V57.0196Z" fill="#F3AC30"/>
<path id="Vector_45" d="M537.275 26.7626H508.489V31.1024H537.275V26.7626Z" fill="#E6E6E6"/>
<path id="Vector_46" d="M18.1187 369.065C28.4962 383.033 50.0376 384.503 50.0376 384.503C50.0376 384.503 54.754 363.327 44.3766 349.359C33.9992 335.391 12.4577 333.921 12.4577 333.921C12.4577 333.921 7.74134 355.097 18.1187 369.065Z" fill="#408040"/>
<path id="Vector_47" d="M70.9834 374.316C64.1357 383.533 49.9211 384.503 49.9211 384.503C49.9211 384.503 46.8089 370.529 53.6567 361.312C60.5044 352.095 74.719 351.125 74.719 351.125C74.719 351.125 77.8312 365.099 70.9834 374.316Z" fill="#408040"/>
<path id="Vector_48" d="M373.91 416.379H0V418H373.91V416.379Z" fill="#3F3D56"/>
</g>
</svg>
