<svg width="583" height="642" viewBox="0 0 583 642" fill="none" xmlns="http://www.w3.org/2000/svg">
<g id="undraw_medicine_b1ol 1" clip-path="url(#clip0)">
<path id="Vector" opacity="0.1" d="M452.189 250.554H419.243V260.604H452.189V250.554Z" fill="#F3AC30"/>
<path id="Vector_2" opacity="0.1" d="M452.189 264.87H419.243V294.193H452.189V264.87Z" fill="#F3AC30"/>
<path id="Vector_3" opacity="0.1" d="M452.189 341.028H419.243V384.677H452.189V341.028Z" fill="#F3AC30"/>
<path id="Vector_4" opacity="0.1" d="M561.045 278.268H533.25V306.681H561.045V278.268Z" fill="#F3AC30"/>
<path id="Vector_5" d="M581.482 329.989C581.564 329.882 581.667 329.793 581.785 329.729C581.853 329.684 581.933 329.661 582.014 329.661C582.096 329.661 582.175 329.684 582.244 329.729C582.31 329.811 582.366 329.902 582.41 329.999C582.475 330.109 582.563 330.203 582.667 330.274C582.772 330.345 582.891 330.391 583.016 330.408L582.869 331.407L581.482 329.989Z" fill="#727A9C"/>
<path id="heart" d="M465.313 160H464.665C438.899 160 416.112 173.937 403.004 194.503C389.897 173.937 367.11 160 341.344 160H340.696C321.359 160.188 302.876 168.17 289.264 182.21C275.652 196.25 268.01 215.215 268 234.982C268 259.529 278.517 294.358 299.025 323.018C338.097 377.629 403.004 425.407 403.004 425.407C403.004 425.407 467.912 377.637 506.975 323.018C527.491 294.358 538 259.529 538 234.982C537.99 215.216 530.349 196.253 516.739 182.213C503.128 168.173 484.648 160.191 465.313 160ZM456.048 327.22C453.113 327.208 450.251 326.29 447.836 324.586C445.421 322.881 443.567 320.47 442.517 317.669H427.113C426.098 317.663 425.111 317.333 424.289 316.725C423.467 316.118 422.851 315.263 422.527 314.28L417.796 299.707L402.823 353.188C402.531 354.217 401.921 355.122 401.083 355.767C400.246 356.411 399.226 356.761 398.177 356.762H397.875C396.781 356.708 395.739 356.272 394.921 355.527C394.104 354.781 393.562 353.772 393.385 352.667L377.955 257.799L366.678 313.936C366.419 315.002 365.819 315.949 364.972 316.626C364.125 317.303 363.081 317.67 362.007 317.669H340.307C339.657 317.698 339.008 317.591 338.399 317.356C337.789 317.121 337.233 316.762 336.763 316.302C336.293 315.841 335.919 315.288 335.664 314.676C335.408 314.064 335.276 313.405 335.276 312.74C335.276 312.074 335.408 311.416 335.664 310.804C335.919 310.191 336.293 309.638 336.763 309.178C337.233 308.717 337.789 308.359 338.399 308.124C339.008 307.889 339.657 307.782 340.307 307.81H358.207L374.181 232.334C374.444 231.218 375.077 230.23 375.973 229.538C376.869 228.847 377.972 228.495 379.094 228.543C380.216 228.591 381.286 229.036 382.123 229.801C382.959 230.567 383.51 231.606 383.68 232.74L399.438 329.515L412.857 281.666C413.136 280.658 413.727 279.77 414.541 279.133C415.354 278.497 416.348 278.147 417.373 278.135H417.467C418.482 278.135 419.471 278.463 420.293 279.072C421.115 279.681 421.727 280.539 422.044 281.525L430.601 307.837H442.327C443.161 305.247 444.678 302.944 446.711 301.181C448.745 299.417 451.215 298.263 453.85 297.844C456.485 297.425 459.182 297.759 461.643 298.808C464.104 299.857 466.234 301.581 467.797 303.789C469.361 305.998 470.297 308.604 470.502 311.322C470.708 314.04 470.174 316.763 468.962 319.19C467.749 321.618 465.903 323.656 463.629 325.079C461.355 326.502 458.74 327.255 456.073 327.255L456.048 327.22Z" fill="#E31B23"/>
<path id="Vector_6" d="M230.388 226.933C230.388 226.933 226.538 226.384 226.538 220.649C226.538 214.914 223.782 204.204 223.782 204.204C223.782 204.155 221.397 185.552 218.103 182.595C214.81 179.638 210.578 162.274 210.578 162.274C210.578 162.274 209.855 152.853 208.379 150.825C206.903 148.797 204.909 143.832 201.967 136.748C199.026 129.665 186.76 124.76 186.76 124.76C186.76 124.76 164.584 111.612 158.3 107.326C157.729 106.974 157.195 106.562 156.707 106.097C155.612 104.629 150.843 104.599 150.843 104.599C150.344 101.382 149.865 97.6853 149.709 94.3384C149.709 93.9788 149.709 93.6191 149.66 93.2595C156.668 89.0253 161.946 82.3493 164.526 74.4573C164.643 74.0776 164.741 73.678 164.848 73.2984C165.268 73.157 165.654 72.9276 165.982 72.6248C166.311 72.322 166.573 71.9526 166.754 71.54C167.321 70.2513 167.33 68.7427 168.034 67.5438C168.855 66.1252 170.419 65.3659 171.65 64.2969C174.758 61.5994 175.56 57.0537 175.413 52.9177C175.315 49.5708 174.788 46.194 174.993 42.8672L175.051 42.028C175.11 41.5284 175.179 41.0289 175.266 40.5494C175.745 38.0717 176.791 35.7339 177.378 33.2762C177.964 30.8186 178.023 28.0512 176.654 25.9332C174.651 22.8261 170.478 22.2067 166.812 21.887C162.659 21.5274 158.945 21.9969 156.287 18.4703C155.042 16.627 153.643 14.8987 152.104 13.3051C151.556 12.7856 146.239 9.46877 146.239 9.24898C141.05 6.79222 135.169 6.33108 129.674 7.95021C126.917 8.76943 124.318 10.1082 121.523 10.7775C115.492 12.2362 108.553 10.6577 103.432 14.1843C100.578 16.1824 98.8678 19.3594 97.265 22.4565C95.9619 25.0074 94.6392 27.555 93.297 30.0992C91.1371 34.2853 88.938 38.5413 88.0291 43.1769C87.838 44.1856 87.7204 45.2074 87.6773 46.234V46.2839C87.6773 46.6536 87.6773 47.0232 87.6773 47.3929V47.8624C87.6773 48.2121 87.6773 48.5518 87.7359 48.8615C87.7945 49.1712 87.7848 49.2711 87.8141 49.4809C87.8434 49.6907 87.8923 50.1603 87.9509 50.48C88.0096 50.7997 88.1268 51.3591 88.2441 51.7987C88.293 51.9885 88.3614 52.1684 88.42 52.3482C88.5178 52.6879 88.635 53.0175 88.7621 53.3472C88.8305 53.5171 88.8989 53.6969 88.9771 53.8668C89.1237 54.2164 89.2997 54.5561 89.4756 54.8658C89.5538 55.0057 89.6124 55.1356 89.6906 55.2654C89.9633 55.73 90.2635 56.1771 90.5897 56.6042C92.6812 59.2716 95.7599 60.97 98.0371 63.4677C98.0371 63.5676 98.0371 63.6675 98.0371 63.7574C98.0371 64.0371 98.0371 64.3069 98.0371 64.5866C98.1579 70.1569 99.6083 75.6126 102.262 80.4792C104.916 85.3458 108.693 89.4759 113.264 92.5102C113.264 92.8898 113.313 93.2795 113.332 93.6591C113.523 96.6246 113.487 99.6009 113.225 102.561C112.827 102.082 112.329 101.7 111.767 101.444C111.206 101.188 110.595 101.064 109.98 101.082C109.56 101.061 109.139 101.098 108.729 101.192L108.641 101.122V101.212C106.491 101.751 103.842 104.039 101.311 110.543C101.311 110.543 93.6097 119.415 87.7457 119.045C81.8816 118.675 67.0359 128.276 67.0359 128.276C67.0359 128.276 52.5517 137.887 49.4437 147.678C47.7065 153.23 45.6238 158.662 43.2083 163.943L25.3034 201.657L22 231.579C22 231.579 23.8276 244.886 23.466 246.914C23.1044 248.942 30.9818 267.235 30.9818 267.235C30.9818 267.235 57.0083 313.981 67.6418 316.378L68.4041 315.829C68.8591 316.072 69.3416 316.256 69.8408 316.378L72.03 314.8C72.1615 316.559 72.1058 318.328 71.8639 320.075C70.3979 324.69 72.4112 354.812 74.9718 360.716C77.5325 366.621 76.6236 444.038 76.6236 444.038L76.2619 450.871C76.2619 450.871 76.2619 451.091 76.3499 451.47L76.2619 453.089L76.5258 453.229C76.7998 455.396 76.7106 457.596 76.2619 459.733C75.3432 462.73 74.9718 471.202 74.9718 471.202C74.9718 471.202 67.6516 519.037 71.1211 528.647C74.5907 538.258 77.5423 548.788 77.5423 548.788C77.5423 548.788 81.2073 560.777 77.7182 562.825C74.2291 564.873 64.3091 568.31 66.3517 573.305C68.2086 577.921 75.2553 590.289 76.301 592.097L76.2131 593.047L74.7764 608.961C75.009 611.063 75.5665 613.113 76.4281 615.036C78.0016 618.503 81.0607 622.099 86.8758 621.709C87.8532 621.64 88.9869 621.52 90.0815 621.37C100.725 619.911 113.831 615.056 113.831 615.056C113.15 614.614 112.527 614.087 111.974 613.487C111.451 612.969 111.036 612.348 110.756 611.661C110.475 610.974 110.334 610.235 110.342 609.491C110.498 606.594 105.191 592.787 103.872 589.39C103.667 588.9 103.559 588.621 103.559 588.621C103.559 588.621 115.659 575.693 113.645 564.234C113.645 564.234 100.256 556.241 104.663 551.856C109.071 547.47 116.949 534.872 116.949 534.872C116.949 534.872 117.31 487.766 116.949 480.733C116.571 475.851 116.798 470.94 117.623 466.117C117.77 465.387 117.945 464.678 118.131 463.979C124.227 464.909 130.381 465.386 136.544 465.407C138.792 465.407 141.079 465.407 143.386 465.267C143.386 465.933 143.415 466.653 143.474 467.425C143.982 479.094 144.93 499.555 145.702 507.158C146.797 518.057 152.846 547.43 152.846 547.43C152.846 547.43 141.304 555.003 154.86 573.665C154.86 573.665 154.86 580.428 153.96 581.408C153.001 584.608 152.227 587.864 151.644 591.158C151.077 594.675 150.843 598.232 151.761 600.08C153.96 604.496 167.155 604.136 167.155 604.136L167.477 604.076C169.968 603.813 172.485 604.058 174.883 604.797C177.28 605.536 179.51 606.755 181.443 608.382C186.457 612.498 205.486 610.69 215.787 609.381C219.823 608.862 222.521 608.382 222.521 608.382C222.652 607.915 222.698 607.427 222.658 606.943C222.55 604.356 220.566 598.681 207.118 593.616C207.118 593.616 194.471 584.924 194.647 577.351H194.383H192.917C193.983 577.291 194.667 577.351 194.667 577.351C194.667 577.351 189.712 558.869 191.735 557.37C193.758 555.872 187.698 535.391 187.698 535.391C187.698 535.391 184.229 501.024 184.043 498.616C184.051 496.55 184.357 494.496 184.952 492.522L184.043 473.68C184.043 473.68 183.867 467.415 184.043 465.377C184.013 463.608 183.873 461.843 183.623 460.092C183.535 459.393 183.447 458.664 183.349 457.944C188.089 456.716 191.168 455.577 191.168 455.577L190.62 389.989C194.647 381.996 195.39 364.463 195.37 352.025C195.37 344.032 195.019 338.118 195.019 338.118L200.521 328.936C200.521 328.936 201.791 317.947 199.778 315.539C198.889 314.45 199.29 313.321 200.023 312.392C200.403 312.084 200.805 311.803 201.225 311.553C201.225 311.553 201.166 311.463 201.098 311.333C201.482 311.005 201.89 310.708 202.319 310.444C202.319 310.444 200.365 307.347 202.114 306.038C203.756 307.177 205.222 308.036 206.336 308.736C206.258 309.465 206.18 309.884 206.18 309.884L206.649 308.885C207.724 309.505 208.379 309.884 208.379 309.884C208.379 309.884 216.999 292.331 216.813 289.744C216.628 287.156 222.677 276.256 222.677 276.256C222.677 276.256 223.41 270.532 226.714 268.134C230.017 265.736 229.274 248.363 229.274 248.363C229.274 248.363 230.193 239.311 232.392 235.615C234.591 231.918 230.388 226.933 230.388 226.933ZM65.4525 219.23L65.6187 223.416C64.6414 221.808 63.9377 220.649 63.9377 220.649L65.4525 219.23Z" fill="url(#paint0_linear)"/>
<g id="doctor">
<path id="Vector_7" d="M29.8187 201.587L27.1212 203.785L23.8862 233.567C23.8862 233.567 25.6845 246.794 25.3229 248.822C24.9613 250.85 32.7019 269.033 32.7019 269.033C32.7019 269.033 58.23 315.529 68.6582 317.927L103.901 292.191L94.548 280.063C94.548 280.063 91.313 278.774 90.5018 280.063C90.5018 280.063 73.154 249.552 71.3557 247.344C69.5574 245.136 69.919 240.73 69.919 240.73C69.919 240.73 67.2215 237.793 68.1207 235.035C69.0198 232.278 62.9017 222.717 62.9017 222.717L68.4725 217.392L29.8187 201.587Z" fill="white"/>
<g id="doc">
<path id="Vector_8" opacity="0.1" d="M138.303 629.182C190.899 629.182 233.535 622.182 233.535 613.547C233.535 604.912 190.899 597.912 138.303 597.912C85.7083 597.912 43.0714 604.912 43.0714 613.547C43.0714 622.182 85.7083 629.182 138.303 629.182Z" fill="#F3AC30"/>
<path id="Vector_9" d="M113.958 615.116C113.958 615.116 98.3205 620.99 87.5697 621.729C81.8621 622.119 78.8616 618.542 77.3174 615.096C76.4739 613.18 75.9297 611.14 75.7048 609.051L77.1024 593.216L77.8452 584.784L100.686 578.72L103.921 588.83L104.224 589.6C105.523 592.977 110.733 606.714 110.576 609.581C110.57 610.315 110.709 611.043 110.984 611.721C111.259 612.399 111.666 613.014 112.179 613.527C112.704 614.132 113.301 614.666 113.958 615.116Z" fill="white"/>
<path id="Vector_10" d="M220.771 607.063C220.811 607.544 220.764 608.028 220.635 608.492C220.635 608.492 187.19 614.196 180.349 608.492C178.42 606.825 176.171 605.589 173.748 604.863C171.324 604.137 168.779 603.937 166.275 604.276C166.275 604.276 153.335 604.636 151.175 600.28C150.276 598.451 150.51 594.905 151.068 591.408C151.636 588.132 152.393 584.892 153.335 581.707L153.853 581.288L156.932 578.76L192.976 577.671H193.25C193.074 585.204 205.486 593.846 205.486 593.846C218.67 598.841 220.615 604.486 220.771 607.063Z" fill="white"/>
<path id="Vector_11" opacity="0.1" d="M220.771 607.063C220.806 607.545 220.756 608.028 220.625 608.492C220.625 608.492 187.19 614.196 180.349 608.492C178.421 606.827 176.174 605.591 173.752 604.865C171.33 604.139 168.787 603.939 166.285 604.276C166.285 604.276 153.335 604.636 151.185 600.28C150.286 598.441 150.51 594.905 151.068 591.408C156.052 591.918 163.92 593.186 167.008 596.214C171.68 600.819 179.596 605.415 184.453 605.774C188.255 606.024 210.998 606.764 220.771 607.063Z" fill="black"/>
<path id="Vector_12" d="M137.16 141.714C124.259 136.588 107.664 119.655 111.808 111.742C112.728 109.745 113.275 107.59 113.42 105.388C113.687 102.398 113.726 99.3923 113.538 96.3965C113.247 91.4902 112.669 86.6061 111.808 81.7704C111.808 81.7704 152.084 82.6995 149.738 88.7637C149.054 90.5421 148.947 93.6291 149.132 97.0858C149.318 100.543 149.807 104.449 150.315 107.756C151.019 112.291 151.722 115.748 151.722 115.748C151.722 115.748 149.259 119.275 147.813 119.465C146.367 119.655 155.671 149.017 137.16 141.714Z" fill="#CF6F80"/>
<path id="Vector_13" d="M119.177 461.821C118.522 463.476 118.024 465.193 117.691 466.946C116.876 471.747 116.65 476.633 117.017 481.492C117.379 488.485 117.017 535.351 117.017 535.351C117.017 535.351 109.286 547.849 104.976 552.255C100.666 556.661 113.772 564.573 113.772 564.573C115.727 575.963 103.882 588.83 103.882 588.83C91.8407 573.945 77.2784 592.507 77.2784 592.507C77.2784 592.507 69.3619 578.52 67.3877 573.525C65.4135 568.53 75.1185 565.073 78.5294 563.045C81.9403 561.017 78.3632 549.058 78.3632 549.058C78.3632 549.058 75.4801 538.578 72.0594 529.017C68.6387 519.456 75.8319 471.861 75.8319 471.861C75.8319 471.861 76.2033 463.409 77.0927 460.462C77.5414 458.335 77.6307 456.146 77.3566 453.988C77.2979 453.259 77.2295 452.649 77.1806 452.24C77.1318 451.83 77.0927 451.64 77.0927 451.64L77.2295 451.401L82.1162 442.089C82.1162 442.089 121.523 455.956 119.177 461.821Z" fill="#F3AC30" fill-opacity="0.75"/>
<path id="Vector_14" d="M193.259 577.621C193.259 577.621 184.463 577.431 179.772 581.617C175.081 585.803 152.406 582.537 153.384 581.617C154.361 580.698 154.283 573.895 154.283 573.895C140.981 555.332 152.328 547.799 152.328 547.799C152.328 547.799 146.386 518.577 145.311 507.737C144.558 500.164 143.63 479.814 143.132 468.195C142.917 463.199 142.789 459.763 142.789 459.763L153.657 457.525L155.055 457.235L181.267 451.86C181.267 451.86 181.991 456.855 182.479 460.942C182.723 462.686 182.86 464.445 182.89 466.207C182.714 468.205 182.89 474.459 182.89 474.459L183.779 493.211C183.198 495.178 182.898 497.221 182.89 499.275C183.066 501.663 186.477 535.851 186.477 535.851C186.477 535.851 192.409 556.251 190.386 557.72C188.363 559.189 193.259 577.621 193.259 577.621Z" fill="#F3AC30" fill-opacity="0.75"/>
<path id="Vector_15" d="M165.307 66.6846C165.315 70.2847 164.761 73.8631 163.665 77.2846C161.217 84.951 156.196 91.4857 149.49 95.7338C142.784 99.982 134.824 101.67 127.018 100.499C119.213 99.329 112.063 95.3755 106.833 89.3375C101.603 83.2996 98.6293 75.5661 98.4377 67.5039C98.4377 67.2241 98.4377 66.9644 98.4377 66.6846C98.3618 62.1465 99.1707 57.6384 100.817 53.4232C102.464 49.208 104.915 45.3701 108.027 42.1334C111.14 38.8967 114.852 36.326 118.947 34.5712C123.042 32.8163 127.437 31.9126 131.877 31.9126C136.318 31.9126 140.713 32.8163 144.808 34.5712C148.903 36.326 152.615 38.8967 155.728 42.1334C158.84 45.3701 161.291 49.208 162.938 53.4232C164.584 57.6384 165.393 62.1465 165.317 66.6846H165.307Z" fill="#CF6F80"/>
<path id="Vector_16" d="M182.831 207.282L168.083 460.542L148.849 461.831L99.0437 314.98L107.214 140.635L108.934 103.8L131.081 122.392L142.017 131.553L150.569 109.304L166.47 123.471L182.831 207.282Z" fill="#F3AC30" fill-opacity="0.75"/>
<path id="Vector_17" d="M153.882 464.778C113.811 471.771 77.1024 451.72 77.1024 451.72L77.464 444.927C77.464 444.927 78.3729 367.91 75.8416 362.005C73.3103 356.101 71.3556 326.159 72.7923 321.563C74.229 316.968 67.5831 248.053 67.5831 248.053L66.4982 220.079L27.131 203.725L44.7231 166.24C47.0941 160.983 49.1375 155.577 50.8413 150.056C53.8906 140.325 68.1011 130.764 68.1011 130.764C68.1011 130.764 82.6635 121.213 88.4102 121.573C94.157 121.932 101.712 113.121 101.712 113.121C107.292 98.6044 113.44 105.178 113.44 105.178C113.44 105.868 112.853 106.177 113.166 107.326C117.467 122.782 143.698 173.613 144.177 174.503L147.412 254.087L150.647 354.802L153.882 464.778Z" fill="white"/>
<path id="Vector_18" d="M144.168 174.563C139.848 172.724 117.017 146.079 117.017 146.079V140.015C116.186 138.017 111.251 139.236 107.244 140.635L108.973 103.799L110.928 105.458C115.219 120.903 143.689 173.683 144.168 174.563Z" fill="white"/>
<path id="Vector_19" d="M77.1024 305.239C77.64 305.239 104.966 302.302 104.966 302.302C104.966 302.302 121.503 335.57 120.428 343.653C119.353 351.735 117.369 358.908 110.723 357.639C104.077 356.371 74.9034 358.638 74.9034 358.638L77.1024 305.239Z" fill="white"/>
<path id="Vector_20" d="M97.695 289.624C97.695 289.624 122.774 303.401 123.311 307.607C123.849 311.813 110.547 305.768 107.674 305.039C105.782 304.573 103.857 304.266 101.917 304.12L82.7515 304.649L97.695 289.624Z" fill="#CF6F80"/>
<path id="Vector_21" d="M136.085 177.39C137.542 177.39 138.724 176.182 138.724 174.692C138.724 173.203 137.542 171.995 136.085 171.995C134.627 171.995 133.446 173.203 133.446 174.692C133.446 176.182 134.627 177.39 136.085 177.39Z" fill="#3F3D56"/>
<path id="Vector_22" d="M140.942 294.149C142.4 294.149 143.581 292.942 143.581 291.452C143.581 289.962 142.4 288.754 140.942 288.754C139.485 288.754 138.303 289.962 138.303 291.452C138.303 292.942 139.485 294.149 140.942 294.149Z" fill="#3F3D56"/>
<path id="Vector_23" d="M138.714 235.775C140.171 235.775 141.353 234.567 141.353 233.077C141.353 231.587 140.171 230.38 138.714 230.38C137.257 230.38 136.075 231.587 136.075 233.077C136.075 234.567 137.257 235.775 138.714 235.775Z" fill="#3F3D56"/>
<path id="Vector_24" d="M200.628 303.56C200.628 303.56 202.417 306.318 200.628 307.607C198.84 308.895 200.795 312.013 200.795 312.013C200.795 312.013 196.338 314.73 198.293 317.148C200.247 319.565 199.016 330.485 199.016 330.485L193.621 339.616C193.621 339.616 193.943 345.501 193.973 353.453C193.973 365.862 193.259 383.305 189.311 391.258L189.848 456.506C189.848 456.506 170.927 463.559 155.133 461.411L152.797 356.71C152.797 356.71 156.218 297.336 157.479 285.947C158.218 280.034 158.515 274.073 158.368 268.114C158.368 268.114 157.831 250.291 156.032 242.019C156.032 242.019 154.078 206.183 153.872 196.262C153.785 191.517 154.039 177.67 154.303 164.502C154.605 150.106 154.948 136.529 154.948 136.529L150.237 107.286C150.237 107.286 154.948 107.286 156.032 108.775C156.509 109.24 157.034 109.652 157.596 110.004C163.753 114.26 185.519 127.347 185.519 127.347C185.519 127.347 197.55 132.243 200.433 139.256C203.316 146.269 205.32 151.245 206.727 153.243C208.134 155.241 208.877 164.632 208.877 164.632C208.877 164.632 213.021 181.916 216.256 184.843C219.491 187.77 221.827 206.352 221.827 206.352L193.24 229.331C193.24 229.331 190.728 267.555 190.181 269.033C189.633 270.512 200.628 303.56 200.628 303.56Z" fill="white"/>
<path id="Vector_25" d="M165.307 142.803L167.897 150.495L154.312 164.482C154.615 150.086 154.957 136.509 154.957 136.509L150.237 107.266C150.237 107.266 154.957 107.266 156.032 108.755C156.512 109.217 157.036 109.629 157.596 109.984L169.158 144.041L165.307 142.803Z" fill="white"/>
<path id="Vector_26" d="M145.721 12.406C140.643 9.96393 134.866 9.50207 129.478 11.1072C126.771 11.9264 124.22 13.2552 121.474 13.9245C115.61 15.3732 108.768 13.8047 103.735 17.3113C100.94 19.3094 99.2587 22.4665 97.695 25.5336L93.7856 33.1464C91.655 37.3124 89.5049 41.5484 88.6155 46.1341C87.7261 50.7197 88.2637 55.8549 91.1077 59.5414C93.1797 62.2288 96.2388 63.9172 98.4866 66.4449C99.8333 67.9823 100.855 69.7875 101.487 71.7473C102.12 73.7071 102.349 75.7793 102.161 77.8341C104.712 76.835 104.957 73.3183 105.015 70.521C105.124 65.5724 105.961 60.6687 107.498 55.9748C108.39 52.8783 109.904 50.0064 111.945 47.5427C112.975 46.3223 114.248 45.34 115.679 44.6613C117.109 43.9827 118.665 43.6231 120.242 43.6065C124.152 43.7463 127.66 46.5037 131.531 46.174C134.463 45.9243 137.062 43.8762 140.014 43.4766C142.616 43.2249 145.217 43.9767 147.305 45.5846C149.371 47.1873 151.181 49.1084 152.67 51.2792C158.007 58.4624 162.336 66.8844 162.59 75.8959C163.695 76.7251 165.288 75.6461 165.835 74.3674C166.382 73.0886 166.402 71.59 167.096 70.3711C167.897 68.9625 169.432 68.2132 170.634 67.1542C173.683 64.4667 174.446 59.941 174.328 55.8349C174.211 51.7288 173.429 47.5627 174.191 43.5265C174.651 41.0489 175.687 38.7311 176.254 36.2834C176.82 33.8357 176.889 31.0883 175.55 28.9803C173.595 25.8832 169.481 25.2738 165.894 24.9841C161.818 24.6244 158.173 25.084 155.573 21.5773C154.353 19.7474 152.979 18.0292 151.468 16.4422C150.95 15.9227 145.721 12.6258 145.721 12.406Z" fill="#512E4E"/>
<path id="Vector_27" d="M198.293 317.148C200.247 319.575 199.016 330.485 199.016 330.485L193.621 339.616C193.621 339.616 193.943 345.501 193.973 353.453L184.737 356.401C183.934 356.656 183.083 356.711 182.256 356.562C181.428 356.413 180.647 356.064 179.977 355.544C179.308 355.024 178.77 354.348 178.408 353.573C178.046 352.797 177.87 351.944 177.896 351.086L179.469 299.364L200.638 307.637C198.83 308.915 200.804 312.042 200.804 312.042C200.804 312.042 196.338 314.73 198.293 317.148Z" fill="white"/>
<path id="Vector_28" d="M205.3 292.571C205.3 292.571 203.863 301.952 200.267 302.501C196.67 303.051 195.058 317.677 191.471 317.158C187.884 316.638 190.259 303.56 190.386 301.023C190.513 298.485 186.477 287.975 189.497 285.587C192.517 283.2 202.075 285.587 202.075 285.587L205.3 292.571Z" fill="#CF6F80"/>
<path id="Vector_29" d="M215.885 204.344L221.807 206.342C221.807 206.342 224.515 217.002 224.515 222.697C224.515 228.392 228.287 228.951 228.287 228.951C228.287 228.951 232.421 233.946 230.242 237.583C228.062 241.219 227.193 250.271 227.193 250.271C227.193 250.271 227.906 267.545 224.671 269.932C221.436 272.32 220.713 278.025 220.713 278.025C220.713 278.025 214.78 288.864 214.966 291.442C215.152 294.02 206.688 311.473 206.688 311.473C206.688 311.473 210.832 289.784 186.731 280.412C186.731 280.412 186.555 273.049 188.353 271.031C190.151 269.013 192.956 268.094 191.197 257.894C189.438 247.693 190.689 235.505 190.689 233.057C190.689 230.61 196.084 215.344 196.084 215.344L215.885 204.344Z" fill="white"/>
</g>
</g>
</g>
<defs>
<linearGradient id="paint0_linear" x1="127.504" y1="621.759" x2="127.504" y2="7.0011" gradientUnits="userSpaceOnUse">
<stop stop-color="#808080" stop-opacity="0.25"/>
<stop offset="0.54" stop-color="#808080" stop-opacity="0.12"/>
<stop offset="1" stop-color="#808080" stop-opacity="0.1"/>
</linearGradient>
<clipPath id="clip0">
<rect width="583" height="642" fill="white"/>
</clipPath>
</defs>
</svg>
