<svg width="509" height="347" viewBox="0 0 509 347" fill="none" xmlns="http://www.w3.org/2000/svg">
<g clip-path="url(#clip0)">
<path opacity="0.1" d="M499.745 246.195C499.78 231.106 496.827 216.228 491.134 202.816C485.442 189.404 477.177 177.851 467.038 169.133C467.318 165.873 467.462 162.599 467.468 159.321C467.468 107.497 433.353 65.5002 391.294 65.5002C378.339 65.4834 365.601 69.5427 354.322 77.2828C324.541 53.4773 285.666 39.0706 243.138 39.0706C173.962 39.0706 114.417 77.2043 88.0103 131.888C86.5428 131.783 85.0667 131.726 83.5776 131.726C41.5142 131.726 7.40377 173.738 7.40377 225.563C7.37429 243.868 11.7285 261.789 19.9359 277.141V277.141C19.9359 323.769 56.168 361.569 100.844 361.569H424.966C460.057 361.569 488.504 331.888 488.504 295.275C495.885 280.476 499.773 263.497 499.745 246.195V246.195Z" fill="#F3AC30"/>
<path opacity="0.1" d="M303.336 267.002C312.841 266.343 324.633 258.506 333.803 255.04C344.655 250.948 355.55 247.011 366.489 243.23C404.568 230.059 443.055 218.836 481.951 209.561C485.581 208.693 489.217 207.846 492.858 207.02C487.186 192.121 478.398 179.292 467.372 169.812C467.654 166.551 467.798 163.273 467.802 159.994C467.802 108.163 433.727 66.145 391.678 66.145C378.732 66.1283 366.004 70.19 354.735 77.9343C324.973 54.1361 286.129 39.7328 243.628 39.7328C183.237 39.7328 130.221 68.8165 100.181 112.612L241.366 141.607L327.958 159.382C229.242 162.963 130.221 166.524 31.7898 158.117C18.7963 173.4 10.5723 193.694 8.52339 215.531C6.47442 237.368 10.7276 259.392 20.5562 277.84V277.84C20.5562 279.716 20.6207 281.578 20.7368 283.423C23.2442 284.296 25.6655 285.143 27.8374 285.697C62.7051 294.651 97.7966 302.145 133.112 308.178C107.088 327.684 75.3953 330.444 45.3759 338.705C59.9125 353.291 79.653 362.231 101.406 362.231H425.306C460.379 362.231 488.807 332.551 488.807 295.934C494.07 285.384 497.577 273.68 499.129 261.486C434.23 269.103 368.523 262.49 303.336 267.002Z" fill="#F3AC30"/>
<g opacity="0.1">
<path opacity="0.1" d="M401.888 29.846L401.117 29.9056L401.03 29.9718C401.319 29.9592 401.606 29.917 401.888 29.846V29.846Z" fill="black"/>
<path opacity="0.1" d="M416.004 43.5935C415.875 44.9101 415.611 46.2072 415.214 47.4609C414.959 48.2218 414.753 49.0006 414.597 49.7918C414.474 50.56 414.462 51.3414 414.351 52.1096C414.214 53.1056 413.893 54.0623 413.407 54.9232C412.92 55.7841 412.278 56.5319 411.519 57.1226C411.303 57.3119 411.033 57.4169 410.754 57.4206C410.273 57.361 409.976 56.7583 409.797 56.2153C408.816 53.1758 409.051 49.4607 407.243 47.037C406.421 46.0593 405.427 45.265 404.319 44.6994C403.867 44.3865 403.358 44.1811 402.826 44.0968C402.043 44.142 401.291 44.4372 400.666 44.9444C399.364 45.882 397.919 46.5678 396.397 46.9708C395.637 47.164 394.847 47.1727 394.084 46.9962C393.321 46.8198 392.604 46.4627 391.986 45.951C391.134 45.1961 390.511 44.0637 389.567 43.4743C388.623 42.885 387.636 42.9181 386.704 42.5141C386.122 42.2473 385.604 41.8433 385.187 41.332C384.771 40.8207 384.467 40.2153 384.298 39.5607C384.276 39.4781 384.26 39.394 384.249 39.309C384.095 40.0482 384.112 40.8167 384.298 41.5473C384.467 42.2019 384.771 42.8073 385.187 43.3186C385.604 43.8299 386.122 44.234 386.704 44.5008C387.636 44.9047 388.685 44.9113 389.567 45.461C390.449 46.0106 391.134 47.1827 391.986 47.9377C392.604 48.4493 393.321 48.8064 394.084 48.9829C394.847 49.1593 395.637 49.1506 396.397 48.9575C397.919 48.5544 399.364 47.8686 400.666 46.9311C401.291 46.4238 402.043 46.1286 402.826 46.0834C403.358 46.1677 403.867 46.3732 404.319 46.6861C405.413 47.2627 406.392 48.0635 407.2 49.0435C409.008 51.4672 408.773 55.1823 409.754 58.2218C409.933 58.7715 410.229 59.3675 410.711 59.4271C411.007 59.4287 411.294 59.3158 411.519 59.1092C412.282 58.5169 412.926 57.7662 413.413 56.9017C413.901 56.0372 414.222 55.0764 414.357 54.0764C414.468 53.3082 414.48 52.5268 414.604 51.7586C414.759 50.9674 414.966 50.1886 415.221 49.4276C415.822 47.6442 416.1 45.7539 416.041 43.8584C416.029 43.7789 416.017 43.6862 416.004 43.5935Z" fill="black"/>
</g>
<path d="M376.968 96.7296L376.549 102.776C376.487 103.597 375.025 123.145 364.24 145.992C354.986 165.587 336.977 191.108 302.975 205.452C300.322 206.578 297.569 207.628 294.714 208.604L291.531 197.876C299.523 195.176 307.222 191.562 314.494 187.095C331.825 176.354 345.299 161.024 354.696 141.297C359.681 130.793 363.234 119.575 365.246 107.987H326.562V96.7296H376.968Z" fill="#F3AC30"/>
<path opacity="0.1" d="M298.811 205.458C332.806 191.115 350.821 165.6 360.07 146.005C370.854 123.159 372.323 103.623 372.378 102.789L372.798 96.7428H377.117L376.697 102.789C376.641 103.61 375.173 123.159 364.388 146.005C355.134 165.6 337.125 191.115 303.13 205.458C300.477 206.584 297.721 207.637 294.862 208.617L294.443 207.207C295.932 206.637 297.388 206.054 298.811 205.458Z" fill="white"/>
<path d="M230.747 197.876L227.563 208.604C224.704 207.624 221.949 206.571 219.296 205.445C185.301 191.102 167.285 165.587 158.037 145.992C147.252 123.145 145.784 103.61 145.728 102.776L145.309 96.7296H195.69V107.987H157C159.023 119.577 162.586 130.795 167.581 141.297C176.978 161.024 190.446 176.354 207.777 187.089C215.05 191.56 222.751 195.177 230.747 197.876V197.876Z" fill="#F3AC30"/>
<path opacity="0.1" d="M223.454 205.458C189.459 191.115 171.444 165.6 162.195 146.005C151.411 123.159 149.942 103.623 149.887 102.789L149.467 96.7428H145.148L145.568 102.789C145.623 103.61 147.092 123.159 157.876 146.005C167.131 165.6 185.14 191.115 219.135 205.458C221.788 206.584 224.544 207.637 227.403 208.617L227.822 207.207C226.337 206.637 224.881 206.054 223.454 205.458Z" fill="white"/>
<path d="M319.337 301.579V362.284H202.934V301.579L206.635 296.281C244.357 281.911 252.001 244.436 253.525 229.609C253.752 227.56 253.882 225.501 253.914 223.438H268.308C268.34 225.501 268.47 227.56 268.696 229.609C270.245 244.436 277.889 281.924 315.586 296.281L319.337 301.579Z" fill="#F3AC30"/>
<path opacity="0.1" d="M319.337 301.579H202.934V309.194H319.337V301.579Z" fill="black"/>
<path opacity="0.1" d="M212.805 296.281C250.527 281.911 258.171 244.436 259.695 229.609C259.922 227.56 260.051 225.501 260.084 223.438H253.914C253.882 225.501 253.752 227.56 253.525 229.609C251.977 244.436 244.332 281.924 206.635 296.281L202.934 301.579V362.284H209.103V301.579L212.805 296.281Z" fill="white"/>
<path opacity="0.1" d="M185.251 96.7296H195.69V107.987H186.177C185.802 104.279 185.494 100.526 185.251 96.7296Z" fill="black"/>
<path opacity="0.1" d="M230.747 197.876L227.563 208.604C224.704 207.624 221.949 206.571 219.296 205.445C214.932 199.725 211.075 193.579 207.777 187.089C215.05 191.56 222.751 195.177 230.747 197.876Z" fill="black"/>
<path opacity="0.1" d="M291.524 197.876C299.517 195.176 307.216 191.562 314.488 187.095C311.188 193.587 307.332 199.734 302.969 205.458C300.316 206.584 297.562 207.635 294.708 208.611L291.524 197.876Z" fill="black"/>
<path opacity="0.1" d="M337.014 96.7296C336.771 100.526 336.462 104.279 336.088 107.987H326.581V96.7296H337.014Z" fill="black"/>
<path opacity="0.1" d="M268.721 229.609C263.711 230.651 258.56 230.651 253.55 229.609C253.777 227.56 253.906 225.501 253.939 223.438H268.332C268.365 225.501 268.494 227.56 268.721 229.609V229.609Z" fill="black"/>
<path d="M186.485 78.0816C186.751 161.56 220.067 229.066 261.139 229.066C302.21 229.066 335.52 161.56 335.792 78.0816H186.485Z" fill="#F3AC30"/>
<path opacity="0.1" d="M199.75 78.0816H186.485C186.751 161.56 220.067 229.066 261.139 229.066C263.361 229.062 265.579 228.86 267.771 228.464C229.803 221.656 200.003 157.017 199.75 78.0816Z" fill="white"/>
<path d="M300.723 324.816H221.548V346.669H300.723V324.816Z" fill="#3F3D56"/>
<path opacity="0.1" d="M225.249 327.796H300.723V324.816H221.548V346.669H225.249V327.796Z" fill="white"/>
<path opacity="0.1" d="M386.901 16.6279C386.901 16.6279 334.959 13.2639 341.067 52.3345C341.067 52.3345 339.833 59.2414 345.682 62.3737C345.682 62.3737 345.774 59.4798 351.012 60.4665C352.877 60.7983 354.772 60.8961 356.657 60.7579C359.205 60.569 361.626 59.4951 363.555 57.6984V57.6984C363.555 57.6984 378.159 51.222 383.835 25.6076C383.835 25.6076 388.037 20.0185 387.87 18.5815L379.103 22.6011C379.103 22.6011 382.101 29.3888 379.72 35.0309C379.72 35.0309 379.436 22.8461 377.752 23.111C377.412 23.1706 373.198 25.4619 373.198 25.4619C373.198 25.4619 378.35 37.2824 374.463 45.8779C374.463 45.8779 375.938 31.3092 371.588 26.3161L365.418 30.1835C365.418 30.1835 371.44 42.3947 367.356 52.361C367.356 52.361 368.405 37.0771 364.117 31.1238L358.527 35.8057C358.527 35.8057 364.184 47.8447 360.736 56.1091C360.736 56.1091 360.285 38.3154 357.318 36.9712C357.318 36.9712 352.425 41.6066 351.679 43.5006C351.679 43.5006 355.553 52.2418 353.147 56.8508C353.147 56.8508 351.672 44.9972 350.463 44.931C350.463 44.931 345.589 52.7848 345.083 58.1752C345.083 58.1752 345.293 50.1691 349.285 44.1893C349.285 44.1893 344.571 45.0568 341.819 48.3347C341.819 48.3347 342.578 42.7854 350.488 42.302C350.488 42.302 354.517 36.3421 355.59 35.9778C355.59 35.9778 347.73 35.2759 342.961 37.5406C342.961 37.5406 347.156 32.3025 357.034 34.6865L362.556 29.8457C362.556 29.8457 352.203 28.3293 347.81 30.0047C347.81 30.0047 352.863 25.3692 364.043 28.7465L370.052 24.8924C370.052 24.8924 361.223 22.8528 355.966 23.5679C355.966 23.5679 361.519 20.3562 371.816 23.8395L376.135 21.7667C376.135 21.7667 369.669 20.4026 367.775 20.184C365.881 19.9655 365.782 19.4092 365.782 19.4092C369.879 18.6761 374.084 19.1781 377.931 20.8595C377.931 20.8595 387.062 17.2438 386.901 16.6279Z" fill="#F3AC30"/>
<path opacity="0.1" d="M339.896 19.2372C339.896 19.2372 316.451 17.7141 319.197 35.3687C319.197 35.3687 318.648 38.4944 321.276 39.9115C321.276 39.9115 321.319 38.5871 323.688 39.044C324.53 39.196 325.385 39.2405 326.237 39.1764C327.388 39.0924 328.482 38.6064 329.352 37.7924V37.7924C329.352 37.7924 335.954 34.872 338.52 23.2965C338.52 23.2965 340.414 20.7669 340.34 20.1179L336.38 21.9324C336.38 21.9324 337.737 25.0051 336.669 27.5546C336.669 27.5546 336.54 22.045 335.781 22.1774C335.627 22.1774 333.72 23.2369 333.72 23.2369C333.72 23.2369 336.053 28.581 334.294 32.4682C334.294 32.4682 334.96 25.8858 332.992 23.6277L330.204 25.3759C330.204 25.3759 332.931 30.8921 331.08 35.3952C331.08 35.3952 331.555 28.4883 329.618 25.7997L327.094 27.9387C327.094 27.9387 329.648 33.3821 328.094 37.1103C328.094 37.1103 327.89 29.0711 326.545 28.4684C326.545 28.4684 324.336 30.561 323.997 31.4219C323.997 31.4219 325.749 35.3952 324.663 37.4481C324.663 37.4481 323.997 32.0907 323.429 32.0709C323.429 32.0709 321.233 35.6203 320.998 38.0308C321.108 35.7812 321.763 33.6014 322.899 31.7067C321.628 31.9651 320.455 32.6165 319.524 33.5807C319.524 33.5807 319.869 31.0776 323.442 30.8524C323.442 30.8524 325.293 28.1638 325.749 27.9983C325.749 27.9983 322.195 27.6804 320.042 28.7068C320.042 28.7068 321.936 26.3361 326.403 27.3824L328.871 25.1971C328.871 25.1971 324.194 24.5349 322.208 25.2699C322.208 25.2699 324.49 23.1773 329.543 24.7004L332.258 22.9588C332.258 22.9588 328.273 22.0317 325.891 22.3694C325.891 22.3694 328.402 20.9126 333.054 22.4886L334.998 21.5549C334.998 21.5549 332.073 20.9324 331.215 20.8397C330.358 20.747 330.315 20.4888 330.315 20.4888C332.167 20.1581 334.068 20.3874 335.806 21.151C335.806 21.151 339.97 19.5153 339.896 19.2372Z" fill="#F3AC30"/>
</g>
<defs>
<clipPath id="clip0">
<rect width="509" height="347" fill="white"/>
</clipPath>
</defs>
</svg>
