<svg width="595" height="698" viewBox="0 0 595 698" fill="none" xmlns="http://www.w3.org/2000/svg">
<g id="bioanime">
<g id="page3">
<path id="Vector" d="M545.878 698L100.159 661.604L149.281 56.4564L595 92.8521L545.878 698Z" fill="url(#paint0_linear)"/>
<path id="Vector_2" d="M540.534 689.361L106.823 653.935L154.624 65.0953L588.336 100.512L540.534 689.361Z" fill="#F3AC30"/>
</g>
<g id="page2">
<path id="Vector_3" d="M566.17 596.246L127.005 680.858L12.8121 84.6121L451.977 0L566.17 596.246Z" fill="url(#paint1_linear)"/>
<path id="Vector_4" d="M558.714 589.357L131.384 671.694L20.2678 91.5015L447.598 9.17372L558.714 589.357Z" fill="#E0E0E0"/>
</g>
<g id="page1">
<path id="Vector_5" d="M513.088 45.0346H65.8939V652.186H513.088V45.0346Z" fill="url(#paint2_linear)"/>
<path id="Vector_6" d="M507.071 53.2112H71.9203V644H507.071V53.2112Z" fill="white"/>
</g>
<path id="Vector_7" d="M218.557 155.146C219.031 194.679 251.375 226.342 290.793 225.853C330.21 225.363 361.799 192.938 361.307 153.397C361.154 138.701 356.463 124.409 347.873 112.459C339.282 100.509 327.207 91.4798 313.287 86.5973L313.506 105.035C313.603 111.447 311.145 117.635 306.669 122.244C302.193 126.854 296.065 129.509 289.627 129.629V129.629C283.2 129.665 277.019 127.166 272.435 122.679C267.852 118.191 265.239 112.079 265.167 105.679L264.948 87.2409C251.154 92.4543 239.304 101.766 231.006 113.913C222.707 126.061 218.361 140.456 218.557 155.146Z" fill="url(#paint3_linear)"/>
<g id="bio">
<path id="Vector_8" d="M361.335 147.613C361.335 108.072 329.382 76.0004 289.955 76.0004C250.528 76.0004 218.576 108.054 218.576 147.613C218.55 162.311 223.066 176.661 231.512 188.715C239.958 200.769 251.924 209.944 265.786 214.993V196.555C265.781 190.155 268.32 184.012 272.849 179.47C277.378 174.928 283.528 172.356 289.955 172.315C296.383 172.356 302.533 174.928 307.061 179.47C311.59 184.012 314.129 190.155 314.125 196.555V215.002C327.988 209.952 339.955 200.776 348.401 188.721C356.847 176.665 361.362 162.313 361.335 147.613V147.613Z" fill="#F3AC30"/>
<path id="Vector_9" d="M290.001 165.29C305.154 165.29 317.438 152.968 317.438 137.769C317.438 122.569 305.154 110.248 290.001 110.248C274.847 110.248 262.563 122.569 262.563 137.769C262.563 152.968 274.847 165.29 290.001 165.29Z" fill="white" stroke="white" stroke-miterlimit="10"/>
<path id="Vector_10" d="M289.955 172.315C283.528 172.356 277.378 174.928 272.849 179.47C268.32 184.012 265.781 190.155 265.786 196.555V215.002C281.405 220.619 298.505 220.619 314.125 215.002V196.555C314.13 190.155 311.59 184.012 307.061 179.47C302.533 174.928 296.383 172.356 289.955 172.315V172.315Z" fill="white" stroke="white" stroke-miterlimit="10"/>
<g id="Vector_11">
<path d="M262.326 136.246C260.123 131.967 259.114 127.177 259.404 122.377C259.717 117.564 261.898 113.061 265.485 109.822C269.482 106.404 274.898 105.199 280.133 104.782C285.367 104.365 290.674 104.618 295.827 103.594C300.093 102.723 304.141 101.014 307.736 98.5676C311.331 96.1209 314.4 92.9853 316.765 89.344C317.092 93.3779 317.42 97.5024 316.646 101.455C315.872 105.407 313.833 109.341 310.392 111.426C314.562 109.495 314.106 114.028 313.205 116.738C315.272 119.24 320.288 119.657 320.543 122.893C320.797 126.13 320.752 129.474 319.496 132.457C318.239 135.439 319.587 140.706 316.364 140.933" fill="white"/>
<path d="M262.326 136.246C260.123 131.967 259.114 127.177 259.404 122.377C259.717 117.564 261.898 113.061 265.485 109.822C269.482 106.404 274.898 105.199 280.133 104.782C285.367 104.365 290.674 104.618 295.827 103.594C300.093 102.723 304.141 101.014 307.736 98.5676C311.331 96.1209 314.4 92.9853 316.765 89.344C317.092 93.3779 317.42 97.5024 316.646 101.455C315.872 105.407 313.833 109.341 310.392 111.426C314.562 109.495 314.106 114.028 313.205 116.738C315.272 119.24 320.288 119.657 320.543 122.893C320.797 126.13 320.752 129.474 319.496 132.457C318.239 135.439 319.587 140.706 316.364 140.933" stroke="white" stroke-miterlimit="10"/>
</g>
<path id="Vector_12" d="M311.922 110.828C311.922 110.828 331.039 112.505 317.438 141.005Z" fill="white"/>
</g>
<g id="boxleft">
<path id="Vector_13" d="M171.793 520.327H112.685V579.612H171.793V520.327Z" fill="url(#paint4_linear)"/>
<path id="Vector_14" d="M166.686 525.44H117.774V574.499H166.686V525.44Z" fill="#F3AC30"/>
</g>
<path id="bar1" d="M361.335 275.012H218.667V285.237H361.335V275.012Z" fill="#69F0AE"/>
<path id="bar2" d="M459.169 289.326H218.667V299.551H459.169V289.326Z" fill="#E0E0E0"/>
<path id="bar3" d="M459.169 303.63H218.667V313.855H459.169V303.63Z" fill="#E0E0E0"/>
<path id="bar4" d="M361.335 402.782H218.667V413.007H361.335V402.782Z" fill="#69F0AE"/>
<path id="bar5" d="M459.169 417.087H218.667V427.312H459.169V417.087Z" fill="#E0E0E0"/>
<path id="bar6" d="M459.169 431.4H218.667V441.625H459.169V431.4Z" fill="#E0E0E0"/>
<path id="bar7" d="M361.335 530.543H218.667V540.769H361.335V530.543Z" fill="#F3AC30"/>
<path id="bar8" d="M459.169 544.857H218.667V555.082H459.169V544.857Z" fill="#E0E0E0"/>
<path id="bar9" d="M459.169 559.171H218.667V569.396H459.169V559.171Z" fill="#E0E0E0"/>
</g>
<defs>
<linearGradient id="paint0_linear" x1="322.9" y1="679.863" x2="371.934" y2="74.4511" gradientUnits="userSpaceOnUse">
<stop stop-color="#808080" stop-opacity="0.25"/>
<stop offset="0.54" stop-color="#808080" stop-opacity="0.12"/>
<stop offset="1" stop-color="#808080" stop-opacity="0.1"/>
</linearGradient>
<linearGradient id="paint1_linear" x1="475356" y1="461771" x2="389634" y2="13472.2" gradientUnits="userSpaceOnUse">
<stop stop-color="#808080" stop-opacity="0.25"/>
<stop offset="0.54" stop-color="#808080" stop-opacity="0.12"/>
<stop offset="1" stop-color="#808080" stop-opacity="0.1"/>
</linearGradient>
<linearGradient id="paint2_linear" x1="231681" y1="436866" x2="231681" y2="30208.3" gradientUnits="userSpaceOnUse">
<stop stop-color="#808080" stop-opacity="0.25"/>
<stop offset="0.54" stop-color="#808080" stop-opacity="0.12"/>
<stop offset="1" stop-color="#808080" stop-opacity="0.1"/>
</linearGradient>
<linearGradient id="paint3_linear" x1="294.481" y1="224.697" x2="287.267" y2="84.9528" gradientUnits="userSpaceOnUse">
<stop stop-opacity="0.12"/>
<stop offset="0.55" stop-opacity="0.09"/>
<stop offset="1" stop-opacity="0.02"/>
</linearGradient>
<linearGradient id="paint4_linear" x1="21165.3" y1="38426.9" x2="21165.3" y2="34549.7" gradientUnits="userSpaceOnUse">
<stop stop-color="#808080" stop-opacity="0.25"/>
<stop offset="0.54" stop-color="#808080" stop-opacity="0.12"/>
<stop offset="1" stop-color="#808080" stop-opacity="0.1"/>
</linearGradient>
</defs>
</svg>
