<svg width="422" height="259" viewBox="0 0 422 259" fill="none" xmlns="http://www.w3.org/2000/svg">
<g id="camera">
<path id="Vector" d="M56.0167 40.3134C62.6441 40.3134 68.0167 34.9408 68.0167 28.3134C68.0167 21.686 62.6441 16.3134 56.0167 16.3134C49.3892 16.3134 44.0167 21.686 44.0167 28.3134C44.0167 34.9408 49.3892 40.3134 56.0167 40.3134Z" fill="#F3AC30"/>
<path id="Vector_2" opacity="0.2" d="M61.0818 17.4463C63.2096 19.3731 64.5751 21.9997 64.9298 24.8482C65.2846 27.6968 64.6051 30.578 63.0149 32.9679C61.4248 35.3578 59.0296 37.0975 56.2652 37.8705C53.5007 38.6436 50.5505 38.3987 47.9514 37.1804C49.2285 38.3442 50.7421 39.2182 52.3885 39.7426C54.0349 40.2669 55.7752 40.4293 57.4902 40.2184C59.2052 40.0075 60.8543 39.4284 62.3247 38.5208C63.795 37.6133 65.0518 36.3986 66.009 34.9601C66.9662 33.5215 67.6011 31.893 67.8703 30.1862C68.1395 28.4795 68.0366 26.7346 67.5686 25.0713C67.1007 23.408 66.2788 21.8655 65.1591 20.5494C64.0395 19.2333 62.6487 18.1748 61.0818 17.4463V17.4463Z" fill="black"/>
<path id="Vector_3" d="M364.517 53.3134C380.809 53.3134 394.017 47.9408 394.017 41.3134C394.017 34.686 380.809 29.3134 364.517 29.3134C348.224 29.3134 335.017 34.686 335.017 41.3134C335.017 47.9408 348.224 53.3134 364.517 53.3134Z" fill="#3F3D56"/>
<path id="Vector_4" opacity="0.2" d="M364.517 29.3134C363.504 29.3134 362.504 29.3339 361.517 29.3749C376.4 29.9864 388.017 35.098 388.017 41.3134C388.017 47.5289 376.4 52.6404 361.517 53.252C362.503 53.2925 363.503 53.313 364.517 53.3134C380.809 53.3134 394.017 47.9408 394.017 41.3134C394.017 34.686 380.809 29.3134 364.517 29.3134Z" fill="black"/>
<path id="Vector_5" d="M403.017 41.3134H255.017V25.3134C255.017 24.5178 254.701 23.7547 254.138 23.1921C253.575 22.6295 252.812 22.3134 252.017 22.3134H170.017C169.221 22.3134 168.458 22.6295 167.895 23.1921C167.333 23.7547 167.017 24.5178 167.017 25.3134V41.3134H81.0167V31.3134C81.0167 30.5178 80.7006 29.7547 80.138 29.1921C79.5754 28.6295 78.8123 28.3134 78.0167 28.3134H34.0167C33.221 28.3134 32.458 28.6295 31.8954 29.1921C31.3328 29.7547 31.0167 30.5178 31.0167 31.3134V41.3134H19.0167C18.6226 41.3129 18.2322 41.3901 17.868 41.5407C17.5038 41.6913 17.1729 41.9122 16.8942 42.1909C16.6155 42.4696 16.3946 42.8005 16.244 43.1647C16.0934 43.5289 16.0162 43.9193 16.0167 44.3134V241.313C16.0162 241.708 16.0934 242.098 16.244 242.462C16.3946 242.826 16.6155 243.157 16.8942 243.436C17.1729 243.715 17.5038 243.936 17.868 244.086C18.2322 244.237 18.6226 244.314 19.0167 244.313H403.017C403.411 244.314 403.801 244.237 404.165 244.086C404.53 243.936 404.861 243.715 405.139 243.436C405.418 243.157 405.639 242.826 405.789 242.462C405.94 242.098 406.017 241.708 406.017 241.313V44.3134C406.017 43.9193 405.94 43.5289 405.789 43.1647C405.639 42.8005 405.418 42.4696 405.139 42.1909C404.861 41.9122 404.53 41.6913 404.165 41.5407C403.801 41.3901 403.411 41.3129 403.017 41.3134V41.3134Z" fill="#3F3D56"/>
<path id="Vector_6" opacity="0.2" d="M403 229.622H19C18.6059 229.622 18.2156 229.545 17.8513 229.394C17.4871 229.244 17.1562 229.023 16.8775 228.744C16.5988 228.465 16.3779 228.134 16.2273 227.77C16.0767 227.406 15.9995 227.016 16 226.622V240.622C15.9995 241.016 16.0767 241.406 16.2273 241.77C16.3779 242.134 16.5988 242.465 16.8775 242.744C17.1562 243.023 17.4871 243.244 17.8513 243.394C18.2156 243.545 18.6059 243.622 19 243.622H403C403.394 243.622 403.784 243.545 404.149 243.394C404.513 243.244 404.844 243.023 405.122 242.744C405.401 242.465 405.622 242.134 405.773 241.77C405.923 241.406 406.001 241.016 406 240.622V226.622C406.001 227.016 405.923 227.406 405.773 227.77C405.622 228.134 405.401 228.465 405.122 228.744C404.844 229.023 404.513 229.244 404.149 229.394C403.784 229.545 403.394 229.622 403 229.622Z" fill="black"/>
<path id="Vector_7" opacity="0.2" d="M406.017 133.313H16.0167V171.313H406.017V133.313Z" fill="black"/>
<path id="Vector_8" opacity="0.2" d="M406.017 114.313H16.0167V152.313H406.017V114.313Z" fill="black"/>
<path id="Vector_9" d="M406.017 123.313H16.0167V161.313H406.017V123.313Z" fill="#F3AC30"/>
<path id="Vector_10" d="M211.017 218.313C252.99 218.313 287.017 184.287 287.017 142.313C287.017 100.34 252.99 66.3134 211.017 66.3134C169.043 66.3134 135.017 100.34 135.017 142.313C135.017 184.287 169.043 218.313 211.017 218.313Z" fill="#F3AC30"/>
<path id="Vector_11" opacity="0.2" d="M269.557 93.8492C279.225 110.321 282.336 129.829 278.272 148.491C274.207 167.153 263.264 183.6 247.622 194.559C231.979 205.518 212.784 210.185 193.856 207.631C174.928 205.077 157.655 195.49 145.476 180.778C150.788 189.829 157.916 197.682 166.413 203.842C174.909 210.002 184.59 214.335 194.844 216.569C205.098 218.803 215.703 218.889 225.992 216.821C236.281 214.754 246.03 210.578 254.626 204.556C263.221 198.535 270.476 190.798 275.933 181.834C281.39 172.87 284.932 162.873 286.335 152.473C287.737 142.072 286.971 131.494 284.083 121.404C281.196 111.315 276.25 101.933 269.557 93.8492V93.8492Z" fill="black"/>
<path id="Vector_12" d="M211.017 198.872C242.253 198.872 267.575 173.55 267.575 142.313C267.575 111.077 242.253 85.7553 211.017 85.7553C179.78 85.7553 154.459 111.077 154.459 142.313C154.459 173.55 179.78 198.872 211.017 198.872Z" fill="#3F3D56"/>
<path id="Vector_13" d="M255.017 142.313C255.026 148.287 253.811 154.198 251.447 159.683C250.181 162.642 248.587 165.449 246.697 168.053C242.97 173.224 238.163 177.523 232.611 180.654C227.058 183.784 220.892 185.67 214.539 186.182C208.185 186.694 201.797 185.82 195.814 183.619C189.832 181.419 184.4 177.945 179.893 173.438C175.385 168.93 171.911 163.498 169.711 157.516C167.51 151.534 166.636 145.145 167.148 138.791C167.66 132.438 169.546 126.272 172.677 120.719C175.807 115.167 180.106 110.361 185.277 106.633C187.881 104.743 190.688 103.15 193.647 101.883C200.34 99.0089 207.642 97.841 214.898 98.4844C222.155 99.1278 229.137 101.562 235.22 105.57C241.304 109.577 246.297 115.032 249.752 121.445C253.207 127.858 255.016 135.029 255.017 142.313V142.313Z" fill="white"/>
<path id="shadow" opacity="0.2" d="M254.547 135.903C252.906 124.716 247.015 114.592 238.099 107.638C241.963 113.688 244.288 120.591 244.871 127.745C245.455 134.899 244.279 142.088 241.447 148.683C240.181 151.642 238.587 154.449 236.697 157.053C233.235 161.856 228.839 165.91 223.772 168.973C218.705 172.035 213.072 174.043 207.211 174.876C201.349 175.709 195.38 175.35 189.661 173.82C183.941 172.289 178.59 169.62 173.927 165.972C177.786 172.029 183.07 177.048 189.316 180.592C195.562 184.136 202.582 186.096 209.76 186.302C216.939 186.507 224.059 184.951 230.497 181.77C236.936 178.589 242.498 173.88 246.697 168.053C248.587 165.449 250.181 162.642 251.447 159.683C254.661 152.196 255.734 143.964 254.547 135.903V135.903Z" fill="black"/>
</g>
</svg>
