<svg width="100" height="93" viewBox="0 0 100 93" fill="none" xmlns="http://www.w3.org/2000/svg">
<g id="undraw_Appreciation_sjc1 1" clip-path="url(#clip0)">
<path id="Vector" d="M50.0441 13.9312C47.4266 11.4921 44.3542 9.5926 41.0025 8.34116C37.6508 7.08973 34.0853 6.51088 30.5098 6.63768C26.9343 6.76447 23.4189 7.59443 20.1642 9.08013C16.9095 10.5658 13.9794 12.6782 11.5413 15.2965C9.10317 17.9149 7.20475 20.9879 5.9545 24.3401C4.70425 27.6922 4.12665 31.2579 4.2547 34.8333C4.38275 38.4088 5.21395 41.924 6.7008 45.1781C8.18766 48.4323 10.301 51.3616 12.9202 53.7988L52.7879 90.9227L89.9118 51.055C92.3493 48.4373 94.2475 45.365 95.4977 42.0137C96.748 38.6624 97.3259 35.0977 97.1985 31.523C97.0711 27.9483 96.2409 24.4338 94.7553 21.18C93.2696 17.9262 91.1576 14.9968 88.5398 12.5592C85.9221 10.1217 82.8499 8.22354 79.4986 6.97328C76.1472 5.72301 72.5825 5.14506 69.0078 5.27246C65.4332 5.39985 61.9186 6.23009 58.6648 7.71575C55.411 9.20141 52.4817 11.3134 50.0441 13.9312V13.9312Z" fill="url(#paint0_linear)"/>
<path id="hearts" d="M50.0759 14.8253C45.0347 10.131 38.3352 7.63163 31.4512 7.87696C24.5672 8.1223 18.0626 11.0922 13.3684 16.1334C8.67414 21.1746 6.17476 27.8742 6.42009 34.7582C6.66542 41.6422 9.63537 48.1467 14.6766 52.841L52.6923 88.2404L88.0917 50.2246C90.416 47.7285 92.2259 44.799 93.4181 41.6033C94.6103 38.4077 95.1614 35.0085 95.04 31.5999C94.9185 28.1913 94.1268 24.84 92.7102 21.7373C91.2935 18.6347 89.2796 15.8414 86.7835 13.5171C84.2873 11.1927 81.3578 9.38278 78.1622 8.19059C74.9665 6.9984 71.5674 6.44731 68.1588 6.56879C64.7502 6.69026 61.3989 7.48193 58.2962 8.89857C55.1935 10.3152 52.4003 12.3291 50.0759 14.8253V14.8253Z" fill="#E53935"/>
</g>
<defs>
<linearGradient id="paint0_linear" x1="94846.3" y1="37317.9" x2="85429.9" y2="6008.29" gradientUnits="userSpaceOnUse">
<stop stop-color="#808080" stop-opacity="0.25"/>
<stop offset="0.53514" stop-color="#808080" stop-opacity="0.12"/>
<stop offset="1" stop-color="#808080" stop-opacity="0.1"/>
</linearGradient>
<clipPath id="clip0">
<rect width="100" height="92.1801" fill="white"/>
</clipPath>
</defs>
</svg>
