<svg width="889" height="744" viewBox="0 0 889 744" fill="none" xmlns="http://www.w3.org/2000/svg">
<g id="undraw_order_a_car_3tww (1) 1" clip-path="url(#clip0)">
<path id="sun" d="M249.509 168.333C285.748 168.333 315.126 138.956 315.126 102.717C315.126 66.4773 285.748 37.0996 249.509 37.0996C213.27 37.0996 183.892 66.4773 183.892 102.717C183.892 138.956 213.27 168.333 249.509 168.333Z" fill="#FF6584"/>
<path id="Vector" d="M632.671 121.848H553.963V50.296L632.671 121.848Z" fill="#3F3D56"/>
<path id="Vector_2" d="M641.868 119.506H245.916V666.535H641.868V119.506Z" fill="#E6E6E6"/>
<path id="Vector_3" d="M332.002 157.86H285.419V256.016H332.002V157.86Z" fill="white"/>
<path id="Vector_4" d="M404.055 157.86H357.472V256.016H404.055V157.86Z" fill="white"/>
<path id="Vector_5" d="M325.863 296.983H279.28V395.139H325.863V296.983Z" fill="white"/>
<path id="Vector_6" d="M404.055 296.983H357.472V395.139H404.055V296.983Z" fill="white"/>
<path id="Vector_7" d="M325.863 425.71H279.28V523.865H325.863V425.71Z" fill="white"/>
<path id="Vector_8" d="M402.3 423.955H355.718V522.111H402.3V423.955Z" fill="white"/>
<path id="Vector_9" d="M470.006 568.599H423.423V666.755H470.006V568.599Z" fill="#CCCCCC"/>
<path id="Vector_10" d="M540.384 423.955H493.802V522.111H540.384V423.955Z" fill="white"/>
<path id="Vector_11" d="M618.576 423.955H571.994V522.111H618.576V423.955Z" fill="white"/>
<path id="Vector_12" d="M542.138 295.944H495.556V394.1H542.138V295.944Z" fill="white"/>
<path id="Vector_13" d="M620.33 295.944H573.748V394.1H620.33V295.944Z" fill="white"/>
<path id="Vector_14" d="M542.138 157.86H495.556V256.016H542.138V157.86Z" fill="white"/>
<path id="Vector_15" d="M620.33 157.86H573.748V256.016H620.33V157.86Z" fill="white"/>
<path id="Vector_16" d="M641.868 245.944H245.916V260.917H641.868V245.944Z" fill="#3F3D56"/>
<path id="Vector_17" d="M641.868 362.4H245.916V370.718H641.868V362.4Z" fill="#3F3D56"/>
<path id="Vector_18" d="M641.868 335.781H245.916V344.1H641.868V335.781Z" fill="#3F3D56"/>
<path id="Vector_19" d="M285.012 530.43V463.883H276.694V530.43H285.012Z" fill="#3F3D56"/>
<path id="Vector_20" d="M331.595 530.43V463.883H323.277V530.43H331.595Z" fill="#3F3D56"/>
<path id="Vector_21" d="M378.177 530.43V463.883H369.859V530.43H378.177Z" fill="#3F3D56"/>
<path id="Vector_22" d="M424.76 530.43V463.883H416.442V530.43H424.76Z" fill="#3F3D56"/>
<path id="Vector_23" d="M471.342 530.43V463.883H463.024V530.43H471.342Z" fill="#3F3D56"/>
<path id="Vector_24" d="M517.925 530.43V463.883H509.607V530.43H517.925Z" fill="#3F3D56"/>
<path id="Vector_25" d="M564.507 530.43V463.883H556.189V530.43H564.507Z" fill="#3F3D56"/>
<path id="Vector_26" d="M611.09 530.43V463.883H602.772V530.43H611.09Z" fill="#3F3D56"/>
<path id="Vector_27" d="M285.844 403.991V337.445H277.526V403.991H285.844Z" fill="#3F3D56"/>
<path id="Vector_28" d="M332.427 403.991V337.445H324.108V403.991H332.427Z" fill="#3F3D56"/>
<path id="Vector_29" d="M379.009 403.991V337.445H370.691V403.991H379.009Z" fill="#3F3D56"/>
<path id="Vector_30" d="M425.592 403.991V337.445H417.273V403.991H425.592Z" fill="#3F3D56"/>
<path id="Vector_31" d="M472.174 403.991V337.445H463.856V403.991H472.174Z" fill="#3F3D56"/>
<path id="Vector_32" d="M518.757 403.991V337.445H510.438V403.991H518.757Z" fill="#3F3D56"/>
<path id="Vector_33" d="M565.339 403.991V337.445H557.021V403.991H565.339Z" fill="#3F3D56"/>
<path id="Vector_34" d="M611.922 403.991V337.445H603.603V403.991H611.922Z" fill="#3F3D56"/>
<path id="Vector_35" d="M285.844 255.926V189.379H277.526V255.926H285.844Z" fill="#3F3D56"/>
<path id="Vector_36" d="M332.427 255.926V189.379H324.108V255.926H332.427Z" fill="#3F3D56"/>
<path id="Vector_37" d="M379.009 255.926V189.379H370.691V255.926H379.009Z" fill="#3F3D56"/>
<path id="Vector_38" d="M425.592 255.926V189.379H417.273V255.926H425.592Z" fill="#3F3D56"/>
<path id="Vector_39" d="M472.174 255.926V189.379H463.856V255.926H472.174Z" fill="#3F3D56"/>
<path id="Vector_40" d="M518.757 255.926V189.379H510.438V255.926H518.757Z" fill="#3F3D56"/>
<path id="Vector_41" d="M565.339 255.926V189.379H557.021V255.926H565.339Z" fill="#3F3D56"/>
<path id="Vector_42" d="M611.922 255.926V189.379H603.603V255.926H611.922Z" fill="#3F3D56"/>
<path id="Vector_43" d="M641.868 212.671H245.916V220.989H641.868V212.671Z" fill="#3F3D56"/>
<path id="Vector_44" d="M641.868 186.052H245.916V194.37H641.868V186.052Z" fill="#3F3D56"/>
<path id="Vector_45" d="M641.868 390.682H245.916V405.655H641.868V390.682Z" fill="#3F3D56"/>
<path id="Vector_46" d="M660.088 113.351H227.696V135.663H660.088V113.351Z" fill="#3F3D56"/>
<path id="Vector_47" d="M332.09 589.824V568.599H306.62V589.824H329.967H332.09Z" fill="white"/>
<path id="Vector_48" d="M329.967 606.803H306.62V628.028H332.09V606.803H329.967Z" fill="white"/>
<path id="Vector_49" d="M374.539 568.599H349.07V589.824H374.539V568.599Z" fill="white"/>
<path id="Vector_50" d="M374.539 606.803H349.07V628.028H374.539V606.803Z" fill="white"/>
<path id="Vector_51" d="M539.823 589.824V568.599H514.353V589.824H537.7H539.823Z" fill="white"/>
<path id="Vector_52" d="M537.7 606.803H514.353V628.028H539.823V606.803H537.7Z" fill="white"/>
<path id="Vector_53" d="M582.272 568.599H556.802V589.824H582.272V568.599Z" fill="white"/>
<path id="Vector_54" d="M582.272 606.803H556.802V628.028H582.272V606.803Z" fill="white"/>
<path id="Vector_55" d="M641.868 517.12H245.916V532.093H641.868V517.12Z" fill="#3F3D56"/>
<path id="Vector_56" d="M641.868 490.502H245.916V498.82H641.868V490.502Z" fill="#3F3D56"/>
<path id="Vector_57" d="M641.868 463.883H245.916V472.202H641.868V463.883Z" fill="#3F3D56"/>
<path id="Vector_58" d="M365.788 659.405C365.788 658.942 365.782 658.481 365.769 658.023C365.413 645.759 353.247 642.433 346.725 648.238C344.667 646.451 342.033 645.467 339.307 645.467C336.581 645.467 333.947 646.451 331.889 648.238C325.339 642.524 313.416 645.614 313.022 657.738C313.008 658.196 313 658.657 312.999 659.12C313.018 661.67 313.174 664.217 313.467 666.75H365.326C365.608 664.311 365.762 661.86 365.788 659.405V659.405Z" fill="#F3AC30"/>
<path id="Vector_59" d="M571.897 659.405C571.898 658.942 571.892 658.481 571.878 658.023C571.523 645.759 559.357 642.433 552.835 648.238C550.777 646.451 548.143 645.467 545.417 645.467C542.691 645.467 540.057 646.451 537.999 648.238C531.449 642.524 519.526 645.614 519.132 657.738C519.117 658.196 519.109 658.657 519.108 659.12C519.128 661.67 519.284 664.217 519.577 666.75H571.436C571.717 664.311 571.872 661.86 571.897 659.405Z" fill="#F3AC30"/>
<path id="Vector_60" d="M856.314 667.579H848.294L850.967 510.911H853.641L856.314 667.579Z" fill="#E6E6E6"/>
<path id="Vector_61" d="M862.997 412.277L875.944 392.269C872.104 381.663 867.67 371.282 862.661 361.176L854.29 367.938L860.918 357.694C854.601 345.258 849.631 337.424 849.631 337.424C849.631 337.424 823.666 378.34 814.991 421.66L831.605 447.335L813.213 432.48C812.558 437.527 812.221 442.609 812.204 447.698C812.204 499.004 828.961 540.596 849.631 540.596C870.301 540.596 887.057 499.004 887.057 447.698C887.057 431.793 883.459 415.152 878.495 399.759L862.997 412.277Z" fill="#2A9E00"/>
<path id="Vector_62" d="M611.695 717.512H459.892V723.512H611.695V717.512Z" fill="#E6E6E6"/>
<path id="Vector_63" d="M888.516 717.512H735.892V723.512H888.516V717.512Z" fill="#E6E6E6"/>
<path id="Vector_64" d="M335.892 717.512H183.892V723.512H335.892V717.512Z" fill="#E6E6E6"/>
<path id="Vector_65" d="M887.892 666.619H0V668.292H887.892V666.619Z" fill="#3F3D56"/>
<g id="carright">
<path id="Vector_66" d="M683.255 628.542L691.6 640.944V633.356L688.366 628.548L683.255 628.542Z" fill="#F2F2F2"/>
<g id="Group 1">
<path id="Vector_67" d="M567.15 693.314L570.838 694.168L711.007 694.242L712.267 691.306C714.465 686.269 715.22 680.719 714.446 675.278C713.843 671.222 712.33 667.192 708.894 665.442L702.674 624.012L625.126 623.873L595.123 648.072C595.123 648.072 580.97 647.818 573.281 657.39C570.507 660.949 568.87 665.261 568.581 669.765L568.278 674.744L567.15 693.314Z" fill="#F3AC30"/>
<path id="Vector_68" d="M659.804 663.149L662.642 663.151L662.645 657.759L659.807 657.758L659.804 663.149Z" fill="#3F3D56"/>
<path id="Vector_69" d="M618.39 652.912L618.392 650.075L613.001 650.072L612.999 652.909L618.39 652.912Z" fill="#3F3D56"/>
<path id="Vector_70" d="M616.402 651.318L616.09 651.318C614.517 651.317 613.009 650.692 611.897 649.579C610.786 648.466 610.162 646.958 610.163 645.385V645.385C610.163 643.812 610.789 642.304 611.902 641.193C613.014 640.081 614.523 639.457 616.096 639.458L616.408 639.458L616.402 651.318Z" fill="#3F3D56"/>
<path id="Vector_71" d="M568.278 674.744C570.424 674.977 572.583 674.446 574.375 673.244C576.168 672.041 577.478 670.245 578.076 668.171C578.674 666.097 578.521 663.879 577.644 661.906C576.767 659.934 575.222 658.335 573.281 657.39C570.507 660.95 568.87 665.261 568.581 669.765L568.278 674.744Z" fill="#3F3D56"/>
<path id="Vector_72" d="M696.393 695.511L714.269 695.521L714.27 692.684L696.395 692.674L696.393 695.511Z" fill="#3F3D56"/>
<path id="Vector_73" d="M597.936 709.93C607.495 709.93 615.245 702.181 615.245 692.621C615.245 683.062 607.495 675.313 597.936 675.313C588.377 675.313 580.628 683.062 580.628 692.621C580.628 702.181 588.377 709.93 597.936 709.93Z" fill="#3F3D56"/>
<path id="Vector_74" d="M597.936 701.731C602.967 701.731 607.046 697.653 607.046 692.621C607.046 687.59 602.967 683.512 597.936 683.512C592.905 683.512 588.827 687.59 588.827 692.621C588.827 697.653 592.905 701.731 597.936 701.731Z" fill="#CCCCCC"/>
<path id="Vector_75" d="M683.343 709.975C692.902 709.975 700.651 702.226 700.651 692.667C700.651 683.108 692.902 675.359 683.343 675.359C673.783 675.359 666.034 683.108 666.034 692.667C666.034 702.226 673.783 709.975 683.343 709.975Z" fill="#3F3D56"/>
<path id="Vector_76" d="M683.343 701.777C688.374 701.777 692.452 697.698 692.452 692.667C692.452 687.636 688.374 683.558 683.343 683.558C678.311 683.558 674.233 687.636 674.233 692.667C674.233 697.698 678.311 701.777 683.343 701.777Z" fill="#CCCCCC"/>
<path id="Vector_77" d="M607.043 645.244L648.913 645.262H654.024L662.653 645.268V644.638L662.659 637.051L662.665 628.53H656.925L651.813 628.524L642.76 628.518H637.649L627.197 628.512L607.043 645.244Z" fill="white"/>
<path id="Vector_78" d="M669.466 645.274L691.594 645.286L691.6 640.944V633.356L691.606 628.548H688.366L683.255 628.542L669.472 628.536L669.466 645.274Z" fill="white"/>
<path id="Vector_79" d="M651.813 628.524L662.653 644.638L662.659 637.051L656.925 628.53L651.813 628.524Z" fill="#F2F2F2"/>
<path id="Vector_80" d="M637.649 628.518L648.913 645.262H654.024L642.76 628.518H637.649Z" fill="#F2F2F2"/>
</g>
</g>
<path id="Vector_81" d="M410.397 1.04816L410.281 1.11116C409.032 1.79436 407.632 2.1548 406.208 2.1598C404.785 2.16479 403.382 1.81417 402.128 1.13976C402.056 1.10078 401.984 1.06229 401.912 1.02429C400.659 0.354987 399.258 0.00721692 397.837 0.0121245C396.415 0.0170321 395.018 0.374466 393.768 1.05241L393.66 1.11116C392.411 1.79436 391.011 2.1548 389.587 2.1598C388.164 2.16479 386.761 1.81417 385.507 1.13976C385.432 1.09929 385.357 1.05935 385.283 1.01993C384.044 0.353698 382.66 0.00379546 381.253 0.00130604C379.846 -0.00118338 378.46 0.34382 377.219 1.00566C373.426 3.048 368.299 6.53991 368.322 10.4835C368.323 10.6394 368.332 10.7952 368.348 10.9503C368.789 15.0456 382.147 16.0892 389.485 14.1591C394.955 15.4072 400.636 15.4072 406.106 14.1591C413.413 16.1201 427.042 14.9966 427.441 10.8542C427.456 10.699 427.463 10.5432 427.462 10.3872C427.439 6.44154 422.267 2.98623 418.451 0.972642C417.206 0.321314 415.82 -0.0125853 414.415 0.000588875C413.01 0.0137631 411.63 0.373599 410.397 1.04816V1.04816Z" fill="#E6E6E6"/>
<path id="Vector_82" d="M778.397 136.264L778.281 136.327C777.032 137.01 775.632 137.371 774.208 137.376C772.785 137.381 771.382 137.03 770.128 136.356C770.056 136.317 769.984 136.278 769.912 136.24C768.659 135.571 767.258 135.223 765.837 135.228C764.416 135.233 763.018 135.59 761.768 136.268L761.66 136.327C760.411 137.01 759.011 137.371 757.587 137.376C756.164 137.381 754.761 137.03 753.507 136.356C753.432 136.315 753.357 136.275 753.283 136.236C752.044 135.57 750.66 135.22 749.253 135.217C747.846 135.215 746.46 135.56 745.219 136.222C741.426 138.264 736.299 141.756 736.322 145.699C736.323 145.855 736.332 146.011 736.348 146.166C736.789 150.262 750.147 151.305 757.485 149.375C762.955 150.623 768.636 150.623 774.106 149.375C781.413 151.336 795.042 150.213 795.441 146.07C795.456 145.915 795.463 145.759 795.462 145.603C795.439 141.657 790.267 138.202 786.451 136.189C785.206 135.537 783.82 135.203 782.415 135.217C781.01 135.23 779.63 135.59 778.397 136.264V136.264Z" fill="#E6E6E6"/>
<path id="Vector_83" d="M133.967 143.812L133.851 143.875C132.602 144.558 131.202 144.919 129.778 144.924C128.355 144.929 126.952 144.578 125.698 143.904C125.626 143.865 125.554 143.826 125.482 143.788C124.229 143.119 122.828 142.771 121.407 142.776C119.986 142.781 118.588 143.138 117.338 143.816L117.23 143.875C115.981 144.558 114.581 144.919 113.157 144.924C111.734 144.929 110.331 144.578 109.077 143.904C109.002 143.863 108.927 143.823 108.853 143.784C107.614 143.118 106.23 142.768 104.823 142.765C103.416 142.763 102.03 143.108 100.789 143.77C96.9963 145.812 91.8694 149.304 91.892 153.247C91.8929 153.403 91.9017 153.559 91.9185 153.714C92.3595 157.81 105.717 158.853 113.055 156.923C118.525 158.171 124.206 158.171 129.676 156.923C136.983 158.884 150.612 157.761 151.011 153.618C151.026 153.463 151.033 153.307 151.032 153.151C151.009 149.206 145.837 145.75 142.021 143.737C140.776 143.085 139.39 142.751 137.985 142.765C136.58 142.778 135.2 143.138 133.967 143.812V143.812Z" fill="#E6E6E6"/>
<g id="carleft">
<path id="Vector_84" d="M110.154 726.679H92.2784V729.517H110.154V726.679Z" fill="#3F3D56"/>
<g id="carleftt">
<path id="Vector_85" d="M239.398 727.315L235.71 728.168L95.5415 728.243L94.2811 725.306C92.0828 720.269 91.3283 714.72 92.1019 709.278C92.7056 705.223 94.2183 701.192 97.6542 699.442L103.874 658.012L181.422 657.874L211.425 682.073C211.425 682.073 225.578 681.819 233.267 691.391C236.041 694.95 237.678 699.262 237.967 703.765L238.27 708.745L239.398 727.315Z" fill="#F3AC30"/>
<path id="Vector_86" d="M199.505 679.244L157.635 679.263H152.524L143.895 679.269V678.639L143.889 671.051L143.883 662.531H149.624L154.735 662.524L163.788 662.518H168.899L179.351 662.512L199.505 679.244Z" fill="white"/>
<path id="Vector_87" d="M137.082 679.275L114.954 679.287L114.948 674.945V667.357L114.942 662.549H118.182L123.293 662.543L137.076 662.537L137.082 679.275Z" fill="white"/>
<path id="Vector_88" d="M146.739 691.756H143.901V697.147H146.739V691.756Z" fill="#3F3D56"/>
<path id="Vector_89" d="M193.552 686.906L193.551 684.069L188.16 684.072L188.161 686.909L193.552 686.906Z" fill="#3F3D56"/>
<path id="Vector_90" d="M190.143 673.457H190.455C191.234 673.457 192.005 673.61 192.725 673.908C193.444 674.206 194.098 674.643 194.649 675.194C195.199 675.745 195.636 676.398 195.934 677.118C196.232 677.837 196.386 678.608 196.386 679.387V679.387C196.386 680.96 195.761 682.468 194.649 683.58C193.537 684.693 192.028 685.317 190.455 685.317H190.143V673.457H190.143Z" fill="#3F3D56"/>
<path id="Vector_91" d="M208.612 743.93C218.171 743.93 225.92 736.181 225.92 726.622C225.92 717.063 218.171 709.314 208.612 709.314C199.053 709.314 191.304 717.063 191.304 726.622C191.304 736.181 199.053 743.93 208.612 743.93Z" fill="#3F3D56"/>
<path id="Vector_92" d="M208.612 735.732C213.643 735.732 217.721 731.653 217.721 726.622C217.721 721.591 213.643 717.512 208.612 717.512C203.581 717.512 199.502 721.591 199.502 726.622C199.502 731.653 203.581 735.732 208.612 735.732Z" fill="#CCCCCC"/>
<path id="Vector_93" d="M123.206 743.976C132.765 743.976 140.514 736.227 140.514 726.668C140.514 717.109 132.765 709.359 123.206 709.359C113.646 709.359 105.897 717.109 105.897 726.668C105.897 736.227 113.646 743.976 123.206 743.976Z" fill="#3F3D56"/>
<path id="Vector_94" d="M123.206 735.777C128.237 735.777 132.315 731.699 132.315 726.668C132.315 721.637 128.237 717.558 123.206 717.558C118.174 717.558 114.096 721.637 114.096 726.668C114.096 731.699 118.174 735.777 123.206 735.777Z" fill="#CCCCCC"/>
<path id="Vector_95" d="M238.27 708.745C236.125 708.978 233.965 708.447 232.173 707.244C230.38 706.042 229.07 704.245 228.472 702.171C227.874 700.097 228.027 697.879 228.904 695.907C229.781 693.935 231.326 692.336 233.267 691.391C236.041 694.95 237.678 699.262 237.967 703.765L238.27 708.745Z" fill="#3F3D56"/>
<path id="Vector_96" d="M154.735 662.524L143.895 678.639L143.889 671.051L149.624 662.531L154.735 662.524Z" fill="#F2F2F2"/>
<path id="Vector_97" d="M123.293 662.543L114.948 674.945V667.357L118.182 662.549L123.293 662.543Z" fill="#F2F2F2"/>
<path id="Vector_98" d="M168.899 662.518L157.635 679.263H152.524L163.788 662.518H168.899Z" fill="#F2F2F2"/>
</g>
</g>
</g>
<defs>
<clipPath id="clip0">
<rect width="888.516" height="743.976" fill="white"/>
</clipPath>
</defs>
</svg>
