<svg width="605" height="549" viewBox="0 0 605 549" fill="none" xmlns="http://www.w3.org/2000/svg">
<g id="undraw_new_ideas_jdea 1" clip-path="url(#clip0)">
<path id="bigballoon" d="M571.537 175.623C571.537 198.473 566.562 217.282 557.933 233.395C555.084 238.702 551.851 243.753 548.264 248.5C516.54 290.712 457.558 313.816 404.25 351.239C246.895 461.702 229.851 284.696 236.958 175.623C239.824 131.611 255.579 91.297 280.608 60.4294C285.865 53.9374 291.543 47.8643 297.599 42.257C326.015 15.9308 362.726 0 404.25 0C475.493 0 536.331 46.7465 560.453 112.62C567.787 132.667 571.548 154.047 571.537 175.623V175.623Z" fill="#F3AC30"/>
<path id="wedge1" d="M439.893 39.5802L280.608 60.4294C285.865 53.9374 291.543 47.8643 297.599 42.257L439.893 39.5802Z" fill="#D0CDE1"/>
<path id="wedge3" d="M557.933 233.395C555.084 238.702 551.851 243.753 548.264 248.5L411.823 230.646L557.933 233.395Z" fill="#D0CDE1"/>
<path id="wedge2" d="M566.019 130.734L334.782 98.1059L560.453 112.62C562.62 118.54 564.479 124.587 566.019 130.734V130.734Z" fill="#D0CDE1"/>
<g id="balls2">
<path id="Vector" d="M252.643 46.7804C252.643 47.2287 252.631 47.6705 252.596 48.1058C252.415 50.8039 251.683 53.4241 250.454 55.7756C249.224 58.1272 247.528 60.1508 245.489 61.699C243.45 63.2473 241.119 64.2813 238.666 64.7257C236.213 65.17 233.7 65.0136 231.31 64.2677C228.919 63.5218 226.712 62.2053 224.848 60.4141C222.985 58.6229 221.512 56.402 220.537 53.9133C219.563 51.4245 219.11 48.7306 219.214 46.0277C219.317 43.3247 219.973 40.6809 221.134 38.2887C221.494 37.5391 221.905 36.8202 222.364 36.1382C224.364 33.1208 227.166 30.8432 230.393 29.6125C233.62 28.3819 237.116 28.2575 240.41 29.256C243.704 30.2545 246.637 32.328 248.814 35.1967C250.991 38.0654 252.306 41.5914 252.584 45.2991C252.625 45.7863 252.643 46.2801 252.643 46.7804Z" fill="#F3AC30"/>
<path id="Vector_2" d="M252.643 46.7804C252.643 47.2287 252.631 47.6705 252.596 48.1058L227.56 44.8313L252.584 45.2991C252.625 45.7863 252.643 46.2801 252.643 46.7804Z" fill="#D0CDE1"/>
<path id="Vector_3" d="M246.671 55.9478L223.511 58.9819C222.854 58.1846 222.262 57.3258 221.743 56.4156L246.671 55.9478Z" fill="#D0CDE1"/>
<path id="Vector_4" d="M240.102 35.8068L221.134 38.2887C221.494 37.539 221.905 36.8201 222.364 36.1382L240.102 35.8068Z" fill="#D0CDE1"/>
</g>
<g id="balls3">
<path id="Vector_5" d="M481.816 374.315C481.623 374.711 481.422 375.095 481.202 375.461C479.88 377.752 478.105 379.694 476.005 381.144C473.906 382.594 471.536 383.517 469.068 383.844C466.599 384.172 464.095 383.897 461.737 383.038C459.378 382.18 457.226 380.76 455.436 378.882C453.646 377.004 452.263 374.716 451.389 372.183C450.515 369.651 450.171 366.938 450.382 364.242C450.594 361.547 451.355 358.937 452.611 356.602C453.867 354.267 455.586 352.266 457.642 350.745C458.283 350.266 458.956 349.841 459.655 349.473C462.722 347.828 466.179 347.245 469.559 347.803C472.94 348.362 476.082 350.035 478.561 352.597C481.04 355.158 482.738 358.486 483.425 362.13C484.111 365.774 483.754 369.56 482.401 372.976C482.228 373.428 482.031 373.873 481.816 374.315Z" fill="#F3AC30"/>
<path id="Vector_6" d="M481.816 374.315C481.622 374.711 481.422 375.095 481.202 375.461L460.499 359.802L482.401 372.976C482.228 373.428 482.031 373.873 481.816 374.315Z" fill="#D0CDE1"/>
<path id="Vector_7" d="M472.59 379.367L450.825 370.236C450.588 369.197 450.435 368.136 450.369 367.068L472.59 379.367Z" fill="#D0CDE1"/>
<path id="Vector_8" d="M475.466 358.226L457.642 350.745C458.283 350.266 458.956 349.841 459.656 349.473L475.466 358.226Z" fill="#D0CDE1"/>
</g>
<g id="balls1">
<path id="ball1" d="M600.251 60.7169C600.539 61.0378 600.814 61.3632 601.068 61.702C602.67 63.771 603.828 66.2026 604.457 68.8199C605.086 71.4372 605.17 74.1741 604.704 76.8314C604.238 79.4887 603.233 81.9995 601.762 84.1808C600.291 86.362 598.392 88.1589 596.202 89.4406C594.012 90.7222 591.587 91.4563 589.103 91.5894C586.619 91.7225 584.14 91.2513 581.845 90.21C579.549 89.1687 577.497 87.5836 575.836 85.5701C574.175 83.5567 572.948 81.1656 572.244 78.571C572.02 77.7612 571.853 76.9342 571.745 76.0969C571.24 72.4178 571.784 68.6587 573.304 65.3267C574.825 61.9947 577.248 59.2501 580.247 57.463C583.246 55.676 586.676 54.9325 590.076 55.3328C593.475 55.7331 596.68 57.258 599.258 59.7017C599.601 60.0188 599.93 60.3587 600.251 60.7169Z" fill="#F3AC30"/>
<path id="Vector_9" d="M600.252 60.7169C600.539 61.0378 600.814 61.3632 601.068 61.702L581.043 78.3738L599.258 59.7017C599.601 60.0189 599.93 60.3587 600.252 60.7169Z" fill="#D0CDE1"/>
<path id="Vector_10" d="M601.86 71.8161L587.226 91.5799C586.244 91.5084 585.269 91.343 584.314 91.0853L601.86 71.8161Z" fill="#D0CDE1"/>
<path id="Vector_11" d="M584.23 62.387L572.244 78.571C572.02 77.7612 571.853 76.9342 571.745 76.097L584.23 62.387Z" fill="#D0CDE1"/>
</g>
<path id="Vector_12" d="M286.534 395.967C286.534 395.967 323.23 397.63 323.23 407.611C323.23 417.591 281.947 407.611 281.947 407.611L286.534 395.967Z" fill="#A0616A"/>
<path id="Vector_13" d="M231.489 549L162.683 544.01L159.625 504.088L144.335 539.02L77.0582 529.039C78.5872 465.83 103.052 404.284 104.581 395.967C106.11 387.65 109.764 353.284 109.764 353.284C116.446 337.864 151.46 336.417 178.906 337.814C190.282 338.38 200.374 339.444 206.597 340.209C210.71 340.708 213.141 341.074 213.141 341.074C224.104 353.367 231.168 370.117 235.51 388.831C251.167 456.249 231.489 549 231.489 549Z" fill="#2F2E41"/>
<path id="Vector_14" d="M155.038 163.09C176.149 163.09 193.264 144.472 193.264 121.505C193.264 98.5383 176.149 79.92 155.038 79.92C133.927 79.92 116.813 98.5383 116.813 121.505C116.813 144.472 133.927 163.09 155.038 163.09Z" fill="#A0616A"/>
<path id="Vector_15" d="M129.045 131.486C129.045 131.486 118.342 183.051 101.523 198.022C84.7033 212.992 167.27 198.022 167.27 198.022C167.27 198.022 148.922 164.754 162.683 149.783C176.444 134.812 129.045 131.486 129.045 131.486Z" fill="#A0616A"/>
<path id="Vector_16" d="M207.025 344.401L181.658 347.462L110.697 356.045C110.697 356.045 110.36 355.064 109.764 353.284C104.611 337.997 79.7952 263.61 77.0582 241.27C74.0002 216.319 106.11 186.378 106.11 186.378C106.11 186.378 136.69 179.724 145.864 179.724C155.038 179.724 191.735 194.695 191.735 194.695L205.419 328.616L206.597 340.209L207.025 344.401Z" fill="#D0CDE1"/>
<path id="Vector_17" opacity="0.15" d="M235.51 388.831L184.09 356.045C184.09 356.045 183.187 352.851 181.658 347.462C180.894 344.767 179.961 341.507 178.906 337.814C172.974 317.088 163.02 282.889 155.038 257.904C142.806 219.646 202.438 326.104 202.438 326.104L205.419 328.616L206.597 340.209C210.71 340.708 213.141 341.074 213.141 341.074C224.104 353.367 231.168 370.117 235.51 388.831Z" fill="black"/>
<path id="Vector_18" d="M167.27 198.022C167.27 198.022 151.98 219.646 164.212 257.904C176.444 296.163 193.264 356.045 193.264 356.045L281.947 412.601L294.179 395.967L211.612 326.104C211.612 326.104 208.554 199.685 193.264 194.695C177.973 189.705 167.27 198.022 167.27 198.022Z" fill="#D0CDE1"/>
<path id="Vector_19" d="M91.5839 343.57C91.5839 343.57 112.99 391.808 122.164 386.818C131.338 381.828 99.229 331.926 99.229 331.926L91.5839 343.57Z" fill="#A0616A"/>
<path id="Vector_20" d="M89.2904 211.329L8.25243 284.519C8.25243 284.519 -22.3279 307.806 34.2458 324.44C90.8194 341.074 95.4064 351.055 95.4064 351.055C95.4064 351.055 101.523 329.431 109.168 332.757L43.4198 297.826L96.9355 262.894L89.2904 211.329Z" fill="#D0CDE1"/>
<path id="Vector_21" d="M56.7204 155.637C60.9736 153.345 70.3656 148.721 78.3656 143.149C77.8046 125.024 79.8563 108.57 85.862 99.8485C89.2331 91.5215 96.3121 83.1847 101.856 76.6193C115.472 60.4965 145.578 51.497 150.918 59.5525C191.305 60.4199 195.557 94.8596 195.557 94.8596C195.347 109.265 181.585 109.721 169.529 109.196C170.609 119.03 167.732 129.248 159.401 133.78C143.469 142.446 138.69 153.712 146.656 161.511C154.621 169.31 168.96 190.108 149.842 195.307C130.724 200.507 128.334 210.906 133.911 215.239C139.487 219.572 121.165 207.44 121.165 207.44C121.165 207.44 117.979 228.238 101.251 223.038C99.752 222.572 98.2537 221.378 96.7807 219.593C92.2628 224.993 88.2324 228.186 85.1948 228.204C67.7977 228.304 69.8839 207.342 69.8839 207.342C69.8839 207.342 49.2344 213.651 55.6778 211.114C62.1212 208.577 62.3972 197.862 45.2761 187.247C28.155 176.633 47.1167 160.811 56.7204 155.637Z" fill="#2F2E41"/>
<path id="Vector_22" d="M270.172 209.973L269.895 209.934L270.571 212.731C271.211 216.635 272.139 220.476 273.348 224.216L293.192 306.28C293.825 308.899 295.147 311.26 296.997 313.073C298.846 314.886 301.141 316.072 303.602 316.486L344.069 323.297C346.686 323.737 349.363 323.283 351.733 321.997C354.102 320.711 356.045 318.656 357.295 316.117L395.752 237.972C396.954 235.807 398.052 233.576 399.042 231.288L400.348 228.635L400.144 228.605C404.221 218.114 406.015 206.74 405.387 195.37C404.76 184.001 401.727 172.942 396.525 163.057C391.324 153.172 384.094 144.727 375.4 138.381C366.705 132.035 356.781 127.959 346.401 126.471C336.02 124.983 325.465 126.123 315.556 129.802C305.647 133.482 296.653 139.601 289.275 147.682C281.897 155.764 276.335 165.59 273.021 176.395C269.708 187.2 268.733 198.691 270.172 209.973H270.172Z" fill="#3F3D56"/>
<path id="Vector_23" d="M346.552 328.659C345.84 328.659 345.128 328.599 344.424 328.48L302.124 321.361C299.437 320.909 296.93 319.614 294.911 317.634C292.892 315.654 291.448 313.075 290.757 310.215L270.015 224.437C268.747 220.51 267.773 216.478 267.102 212.381L266.577 208.628C265.166 196.639 266.335 184.458 269.993 173.046C273.651 161.633 279.698 151.302 287.655 142.868C295.613 134.433 305.263 128.127 315.845 124.445C326.427 120.764 337.651 119.809 348.63 121.656L348.447 122.94C337.587 121.119 326.487 122.085 316.031 125.76C305.575 129.435 296.053 135.717 288.225 144.106C280.397 152.494 274.479 162.757 270.944 174.075C267.409 185.394 266.354 197.454 267.864 209.294L268.267 212.101C268.934 216.164 269.9 220.162 271.156 224.056L291.912 309.884C292.544 312.5 293.864 314.858 295.711 316.669C297.557 318.479 299.85 319.664 302.307 320.077L344.606 327.196C347.219 327.633 349.892 327.178 352.257 325.894C354.622 324.61 356.563 322.56 357.813 320.026L358.867 320.639C357.671 323.061 355.895 325.086 353.727 326.498C351.559 327.91 349.08 328.657 346.552 328.659V328.659Z" fill="#D0CDE1"/>
<path id="Vector_24" d="M357.282 228.626L331.544 305.078L332.995 305.655L358.733 229.204L357.282 228.626Z" fill="#D0CDE1"/>
<path id="Vector_25" d="M315.258 221.552L313.715 221.626L317 302.965L318.543 302.891L315.258 221.552Z" fill="#D0CDE1"/>
<path id="Vector_26" d="M342.977 367.547L288.775 358.425C288.372 358.354 288.011 358.113 287.77 357.754C287.53 357.395 287.43 356.947 287.493 356.508C287.555 356.069 287.775 355.675 288.103 355.412C288.432 355.149 288.843 355.037 289.247 355.103L343.449 364.225C343.65 364.258 343.844 364.333 344.018 364.447C344.193 364.562 344.345 364.712 344.466 364.891C344.586 365.069 344.674 365.272 344.722 365.487C344.771 365.702 344.78 365.926 344.748 366.144C344.717 366.363 344.647 366.573 344.541 366.763C344.435 366.952 344.295 367.116 344.131 367.247C343.966 367.377 343.779 367.471 343.581 367.522C343.383 367.574 343.178 367.582 342.977 367.547V367.547Z" fill="#3F3D56"/>
<path id="Vector_27" d="M344.366 355.025L290.164 345.903C289.963 345.87 289.769 345.795 289.595 345.681C289.421 345.566 289.269 345.416 289.148 345.237C289.027 345.059 288.94 344.856 288.891 344.641C288.843 344.426 288.834 344.202 288.865 343.984C288.896 343.765 288.967 343.554 289.073 343.365C289.179 343.176 289.318 343.012 289.483 342.881C289.647 342.751 289.834 342.657 290.032 342.606C290.23 342.554 290.436 342.546 290.637 342.581L344.839 351.703C345.04 351.736 345.234 351.811 345.408 351.926C345.583 352.04 345.735 352.19 345.855 352.369C345.976 352.547 346.063 352.75 346.112 352.965C346.16 353.18 346.169 353.404 346.138 353.623C346.107 353.842 346.037 354.052 345.931 354.241C345.824 354.43 345.685 354.594 345.52 354.725C345.356 354.855 345.169 354.949 344.971 355C344.773 355.052 344.567 355.06 344.366 355.025V355.025Z" fill="#3F3D56"/>
<path id="Vector_28" d="M345.756 342.503L291.554 333.381C291.151 333.311 290.79 333.07 290.55 332.711C290.31 332.352 290.21 331.904 290.272 331.465C290.335 331.026 290.554 330.632 290.883 330.368C291.212 330.105 291.623 329.994 292.027 330.059L346.229 339.181C346.632 339.252 346.993 339.493 347.233 339.852C347.473 340.211 347.573 340.659 347.51 341.098C347.448 341.537 347.228 341.931 346.9 342.194C346.571 342.458 346.16 342.569 345.756 342.503H345.756Z" fill="#3F3D56"/>
<path id="Vector_29" d="M314.191 374.834C324.942 376.643 334.585 371.591 335.728 363.55L296.794 356.997C295.651 365.039 303.44 373.024 314.191 374.834Z" fill="#3F3D56"/>
<path id="Vector_30" d="M333.674 212.519C331.361 212.13 329.448 210.142 328.399 208.809C328.055 208.372 327.72 207.918 327.385 207.464C326.163 205.81 325.01 204.248 323.403 203.433C319.858 201.633 315.68 204.147 312.063 206.844L311.189 205.458C315.166 202.492 319.803 199.752 324.057 201.909C325.988 202.89 327.311 204.68 328.589 206.411C328.914 206.852 329.239 207.292 329.572 207.716C330.663 209.101 332.839 211.347 335.169 210.829C336.152 210.517 337.065 209.991 337.854 209.283C338.455 208.795 339.091 208.359 339.754 207.979C341.1 207.276 342.607 207.023 344.084 207.25C345.562 207.478 346.945 208.175 348.06 209.255C348.457 209.665 348.833 210.098 349.187 210.552C349.882 211.414 350.538 212.227 351.392 212.523C352.655 212.962 353.989 212.177 355.403 211.348C356.862 210.491 358.369 209.606 360.079 209.824C360.135 209.832 360.191 209.84 360.246 209.849C363.289 210.361 364.692 214.023 365.486 216.755L364.013 217.261C362.934 213.547 361.62 211.7 359.898 211.494C358.673 211.337 357.442 212.061 356.137 212.826C354.502 213.787 352.81 214.78 350.923 214.125C349.66 213.687 348.828 212.657 348.025 211.661C347.709 211.253 347.372 210.864 347.017 210.496C346.129 209.65 345.035 209.105 343.867 208.925C342.699 208.745 341.508 208.94 340.44 209.485C339.849 209.827 339.282 210.218 338.746 210.655C337.787 211.505 336.674 212.126 335.48 212.476C334.885 212.607 334.273 212.622 333.674 212.519Z" fill="#D0CDE1"/>
</g>
<defs>
<clipPath id="clip0">
<rect width="605" height="549" fill="white"/>
</clipPath>
</defs>
</svg>
