<svg width="870" height="612" viewBox="0 0 870 612" fill="none" xmlns="http://www.w3.org/2000/svg">
<g id="undraw_interview_rmcf 1" clip-path="url(#clip0)">
<path id="Vector" opacity="0.1" d="M370.124 23.5255C334.759 10.0039 297.388 -1.29106 259.239 0.128877C203.146 2.21037 149.3 33.9411 122.931 80.5327C100.558 120.008 97.7972 166.277 88.1596 210.086C76.299 264.051 53.5409 315.354 29.2421 365.512C16.1939 392.459 2.42346 419.986 0.280855 449.522C-2.68829 490.531 18.1519 531.394 50.8366 558.672C83.5213 585.949 126.927 600.342 170.493 603.48C193.677 605.15 217.903 603.601 238.495 593.452C260.282 582.714 276.163 563.311 298.038 552.726C318.309 542.915 342.022 541.544 364.78 542.818C394.494 544.482 423.827 550.349 451.912 560.245C483.722 571.475 513.301 587.748 544.999 599.14C576.697 610.531 612.198 616.889 644.634 607.385C675.128 598.454 699.202 576.768 720.909 554.807C756.403 518.963 788.935 480.274 818.184 439.123C837.773 411.523 856.005 382.406 864.664 350.24C881.227 288.739 858.436 219.356 807.889 177.355C766.008 142.558 709.803 127.455 654.785 118.29C604.615 109.932 546.604 109.415 500.422 87.6324C456.382 66.8335 416.306 41.194 370.124 23.5255Z" fill="#F3AC30"/>
<path id="Vector_2" d="M507.628 499.398V528.708H515.917L514.312 497.243L507.628 499.398Z" fill="#AAABB0"/>
<path id="Vector_3" d="M383.108 493.484V522.794H391.406L389.801 491.33L383.108 493.484Z" fill="#AAABB0"/>
<path id="Vector_4" d="M527.954 450.458C527.954 447.486 525.56 445.077 522.606 445.077C519.652 445.077 517.257 447.486 517.257 450.458V491.87C517.257 494.842 519.652 497.252 522.606 497.252C525.56 497.252 527.954 494.842 527.954 491.87V450.458Z" fill="#AAABB0"/>
<path id="Vector_5" d="M390.732 438.889C390.732 435.917 388.337 433.508 385.383 433.508C382.429 433.508 380.035 435.917 380.035 438.889V491.862C380.035 494.834 382.429 497.243 385.383 497.243C388.337 497.243 390.732 494.834 390.732 491.862V438.889Z" fill="#AAABB0"/>
<path id="Vector_6" d="M541.604 132.853C541.604 132.853 552.301 128.278 553.906 132.853C555.511 137.427 556.314 176.959 556.314 176.959H546.146L541.604 132.853Z" fill="#AAABB0"/>
<path id="Vector_7" d="M424.443 132.853C424.443 132.853 413.738 128.278 412.134 132.853C410.529 137.427 409.726 176.959 409.726 176.959H419.893L424.443 132.853Z" fill="#AAABB0"/>
<path id="Vector_8" d="M426.04 93.5866L424.435 126.398H431.658V92.7798L426.04 93.5866Z" fill="#AAABB0"/>
<path id="Vector_9" d="M419.893 176.959L422.036 129.626C422.036 129.626 421.234 119.137 446.64 122.364C472.046 125.592 546.419 132.046 546.419 132.046V176.959H419.893Z" fill="#33323D"/>
<path id="Vector_10" d="M521.543 426.255L517.53 498.591C517.53 498.591 458.677 531.403 387.257 500.204L393.677 424.101L521.543 426.255Z" fill="#33323D"/>
<path id="Vector_11" d="M465.634 141.453L466.966 188.246H549.894L545.079 126.398L465.634 141.453Z" fill="#444053"/>
<path id="Vector_12" d="M474.06 395.323H395.948V494.823H474.06V395.323Z" fill="#4C4981"/>
<path id="Vector_13" d="M445.308 435.936C445.308 435.936 456.542 427.062 458.412 429.748C460.282 432.435 451.736 444.004 448.253 442.657C444.77 441.309 445.308 435.936 445.308 435.936Z" fill="#FFB9B9"/>
<path id="Vector_14" d="M757.116 174.265H244.361V432.435H757.116V174.265Z" fill="#504F60"/>
<path id="Vector_15" d="M420.158 91.7068C420.158 91.7068 416.146 54.0543 420.158 49.488C424.171 44.9216 491.578 1.61357 553.906 52.4408C553.906 52.4408 559.788 52.7151 558.721 66.1561C558.092 74.663 558.135 83.2067 558.849 91.7068C558.849 91.7068 424.708 101.388 420.158 91.7068Z" fill="#33323D"/>
<path id="Vector_16" opacity="0.1" d="M420.158 91.7068C420.158 91.7068 416.146 54.0543 420.158 49.488C424.171 44.9216 491.578 1.61357 553.906 52.4408C553.906 52.4408 559.788 52.7151 558.721 66.1561C558.092 74.663 558.135 83.2067 558.849 91.7068C558.849 91.7068 424.708 101.388 420.158 91.7068Z" fill="black"/>
<path id="Vector_17" d="M420.158 96.5475C420.158 96.5475 416.146 58.895 420.158 54.3287C424.171 49.7623 491.578 6.45426 553.906 57.2815C553.906 57.2815 559.788 57.5558 558.721 70.9968C558.092 79.5037 558.135 88.0474 558.849 96.5475C558.849 96.5475 424.708 106.229 420.158 96.5475Z" fill="#33323D"/>
<path id="Vector_18" d="M561.129 79.3389C561.129 79.3389 565.406 95.4745 564.074 98.1611C562.742 100.848 562.982 108.383 562.982 108.383C562.982 108.383 563.271 113.224 561.129 113.756C558.986 114.289 557.116 114.563 558.85 116.176C560.583 117.79 558.85 120.21 558.85 120.21C558.85 120.21 557.911 123.978 558.85 126.398C559.788 128.819 553.361 129.827 553.906 132.853C554.452 135.878 556.25 144.414 553.906 144.688C551.563 144.962 554.709 155.443 552.598 155.443C550.488 155.443 548.987 174.265 548.987 174.265C548.987 174.265 534.141 161.631 524.247 165.124C524.247 165.124 525.049 154.636 528.259 150.868C531.469 147.1 530.498 137.427 530.498 137.427L546.419 89.2865L561.129 79.3389Z" fill="#4C4981"/>
<path id="Vector_19" d="M481.684 301.833C478.209 305.697 474.462 285.06 474.462 285.06C474.462 285.06 464.567 298.775 458.147 289.634C453.702 283.301 457.208 265.358 459.752 254.943C460.892 250.312 461.855 247.165 461.855 247.165L476.299 244.745C476.299 244.745 476.347 247.908 476.668 251.748C477.102 256.936 478.041 263.374 480.039 264.915C483.562 267.585 485.167 297.936 481.684 301.833Z" fill="#AE6E79"/>
<path id="Vector_20" opacity="0.1" d="M474.197 60.2424C474.197 60.2424 449.047 59.9761 442.9 73.4171C436.753 86.8581 436.481 91.4406 434.073 93.5866C431.666 95.7327 460.282 107.036 460.282 107.036L461.622 153.288C461.622 153.288 467.239 147.568 476.331 150.158C485.423 152.748 496.931 150.158 496.931 150.158C496.931 150.158 496.393 149.182 503.888 150.158C511.383 151.134 535.185 138.5 535.185 138.5C535.185 138.5 535.578 118.266 535.048 113.958C534.519 109.65 552.029 77.9915 552.029 77.9915C552.029 77.9915 565.671 64.8168 551.499 60.2424C551.499 60.2424 546.483 52.6425 533.58 52.7151C520.676 52.7877 474.197 60.2424 474.197 60.2424Z" fill="black"/>
<path id="Vector_21" d="M474.197 59.4356C474.197 59.4356 449.047 59.1693 442.9 72.6103C436.753 86.0513 436.481 90.6338 434.073 92.7798C431.666 94.9259 460.282 106.229 460.282 106.229L461.622 152.482C461.622 152.482 467.239 146.762 476.331 149.351C485.423 151.941 496.931 149.351 496.931 149.351C496.931 149.351 496.393 148.375 503.888 149.351C511.383 150.328 535.185 137.693 535.185 137.693C535.185 137.693 544.541 122.364 544.012 118.064C543.482 113.764 562.733 81.2187 562.733 81.2187C562.733 81.2187 565.679 64.01 551.499 59.4356C551.499 59.4356 546.483 51.8357 533.58 51.9083C520.676 51.9809 474.197 59.4356 474.197 59.4356Z" fill="#4C4981"/>
<path id="Vector_22" opacity="0.1" d="M476.733 251.724C471.22 249.997 462.569 253.805 459.816 254.951C460.956 250.32 461.919 247.174 461.919 247.174L476.363 244.753C476.363 244.753 476.387 247.916 476.733 251.724Z" fill="black"/>
<path id="Vector_23" d="M441.825 92.7798H434.073C434.073 92.7798 432.468 109.19 434.073 114.03C435.678 118.871 436.481 118.169 435.943 121.751C435.405 125.333 439.69 130.82 439.69 130.82C439.69 130.82 440.22 144.341 442.9 149.376C445.581 154.41 439.955 176.984 439.955 176.984C441.49 180.88 443.759 184.442 446.64 187.472C451.19 192.038 453.597 208.981 452.257 215.435C450.917 221.889 456.005 224.309 456.005 224.309C456.005 224.309 458.147 254.435 458.95 254.435C459.752 254.435 475.264 246.367 480.079 253.353L476.331 225.657L476.604 172.143C476.604 172.143 471.516 165.414 474.197 159.501C476.877 153.587 472.054 139.597 472.054 139.597L465.097 108.407L441.825 92.7798Z" fill="#4C4981"/>
<path id="Vector_24" d="M393.677 517.954C393.677 517.954 382.442 515.533 382.177 517.954C381.912 520.374 368.8 545.118 385.122 552.379C401.445 559.64 445.035 575.235 515.925 555.065C515.925 555.065 520.467 556.679 519.4 546.731C518.333 536.784 518.333 525.755 518.333 525.755C518.333 525.755 507.628 522.794 499.603 523.875C491.578 524.956 421.763 539.204 393.677 517.954Z" fill="#33323D"/>
<path id="Vector_25" opacity="0.1" d="M393.677 517.954C393.677 517.954 382.442 515.533 382.177 517.954C381.912 520.374 368.8 545.118 385.122 552.379C401.445 559.64 445.035 575.235 515.925 555.065C515.925 555.065 520.467 556.679 519.4 546.731C518.333 536.784 518.333 525.755 518.333 525.755C518.333 525.755 507.628 522.794 499.603 523.875C491.578 524.956 421.763 539.204 393.677 517.954Z" fill="black"/>
<path id="Vector_26" d="M393.677 514.726C393.677 514.726 382.442 512.306 382.177 514.726C381.912 517.147 368.8 541.891 385.122 549.152C401.445 556.413 445.035 572.008 515.925 551.838C515.925 551.838 520.467 553.452 519.4 543.504C518.333 533.557 518.333 522.528 518.333 522.528C518.333 522.528 507.628 519.567 499.603 520.648C491.578 521.729 421.763 535.977 393.677 514.726Z" fill="#33323D"/>
<path id="Vector_27" d="M459.191 102.445C458.5 106.39 456.936 110.182 456.695 114.176C456.454 118.169 457.987 122.711 461.654 124.277C462.677 124.584 463.669 124.989 464.615 125.487C466.028 126.447 466.605 128.254 466.902 129.948C467.296 132.136 467.391 134.367 467.183 136.58C466.983 138.807 466.509 141.203 467.6 143.147C469.518 146.592 474.518 146.084 478.321 145.116L477.013 155.305C476.909 156.112 476.845 157.024 477.431 157.572C477.707 157.768 478.021 157.907 478.351 157.979C478.682 158.051 479.024 158.055 479.357 157.992C482.663 157.782 486.065 157.322 488.898 155.572C491.731 153.821 493.841 150.561 493.304 147.278C492.678 143.47 488.762 140.444 489.291 136.62C489.701 133.659 492.581 131.78 494.475 129.505C497.902 125.342 498.086 119.016 495.398 114.305C492.71 109.593 487.518 106.673 482.173 106.14C479.212 105.842 476.131 106.205 473.346 105.172C472.377 104.815 471.504 104.237 470.794 103.484C470.084 102.731 469.557 101.823 469.254 100.832" fill="#444053"/>
<path id="Vector_28" d="M365.863 461.213L368.664 455.081C368.664 455.081 383.782 440.922 387.257 439.93C390.732 438.937 404.911 434.613 407.054 434.613C409.197 434.613 448.253 432.459 448.253 432.459L452.795 443.221L403.78 454.04L387.257 466.142L365.863 461.213Z" fill="#767D9F"/>
<path id="Vector_29" d="M483.626 296.089L481.066 315.895L480.079 323.519L468.579 325.133C468.579 325.133 467.336 322.454 465.578 318.34C460.242 305.851 450.195 280.098 456.021 275.653C463.765 269.731 465.65 289.368 465.65 289.368L474.478 285.06L483.626 296.089Z" fill="#FFB9B9"/>
<path id="Vector_30" d="M481.708 332.934H423.633V421.14H481.708V332.934Z" fill="white"/>
<path id="Vector_31" opacity="0.1" d="M481.708 332.934H423.633V421.14H481.708V332.934Z" fill="black"/>
<path id="Vector_32" d="M507.81 337.71L450.359 329.171L437.528 416.428L494.978 424.967L507.81 337.71Z" fill="white"/>
<path id="Vector_33" d="M485.338 341.888L455.767 337.493L449.163 382.402L478.734 386.797L485.338 341.888Z" fill="#F3AC30"/>
<path id="Vector_34" d="M481.819 400.507L445.993 395.182L444.559 404.935L480.385 410.26L481.819 400.507Z" fill="#F3AC30"/>
<path id="Vector_35" opacity="0.1" d="M496.931 110.392C515.47 110.392 530.498 95.2825 530.498 76.6442C530.498 58.0059 515.47 42.8965 496.931 42.8965C478.392 42.8965 463.363 58.0059 463.363 76.6442C463.363 95.2825 478.392 110.392 496.931 110.392Z" fill="black"/>
<path id="Vector_36" d="M496.931 109.585C515.47 109.585 530.498 94.4758 530.498 75.8374C530.498 57.1991 515.47 42.0898 496.931 42.0898C478.392 42.0898 463.363 57.1991 463.363 75.8374C463.363 94.4758 478.392 109.585 496.931 109.585Z" fill="#AE6E79"/>
<path id="Vector_37" d="M469.253 100.848C469.025 99.9784 469.108 99.0562 469.486 98.2417C470.762 95.5713 474.397 95.3373 477.342 95.4745C484.268 95.7972 491.867 95.8375 497.284 91.4406C499.531 89.6334 502.042 85.0912 505.309 85.9544C508.213 86.7209 509.425 90.6822 512.451 91.5616C514.641 92.1989 516.912 91.1824 519.143 90.7548C522.353 90.1174 525.643 90.6499 528.901 90.6741C532.159 90.6983 535.698 90.0771 537.921 87.681C540.922 84.4538 540.433 79.4115 540.168 74.9903C539.839 69.2793 540.224 63.5494 541.315 57.9349C542.407 52.352 544.084 46.1075 541.019 41.3233C538.098 36.765 532.047 35.5145 527.914 32.0211C524.046 28.794 522 23.6225 517.915 20.6294C512.772 16.8617 505.782 17.4023 499.459 18.0558L485.736 19.5241C482.197 19.9033 478.514 20.3309 475.601 22.4527C470.345 26.2769 469.623 34.2237 464.647 38.4108C462.432 40.2664 459.6 41.1862 457.072 42.5738C454.544 43.9615 452.105 46.1559 451.816 49.0281C451.575 51.4484 452.875 53.6832 453.509 56.0148C455.01 61.5816 452.666 67.3097 451.166 72.9169C449.665 78.524 449.376 85.3332 453.734 89.0525C454.616 89.8109 455.644 90.3917 456.502 91.1824C459.447 93.8851 459.849 98.4434 459.166 102.381" fill="#444053"/>
<path id="Vector_38" d="M499.667 117.992C500.11 117.992 500.47 117.089 500.47 115.975C500.47 114.861 500.11 113.958 499.667 113.958C499.224 113.958 498.865 114.861 498.865 115.975C498.865 117.089 499.224 117.992 499.667 117.992Z" fill="#444053"/>
<path id="Vector_39" d="M499.667 126.398C500.11 126.398 500.47 125.495 500.47 124.381C500.47 123.268 500.11 122.365 499.667 122.365C499.224 122.365 498.865 123.268 498.865 124.381C498.865 125.495 499.224 126.398 499.667 126.398Z" fill="#444053"/>
<path id="Vector_40" d="M481.868 301.777C482.727 300.784 483.297 298.235 483.626 294.87L474.06 282.882C474.06 282.882 478.113 306.125 481.868 301.777Z" fill="#AE6E79"/>
<path id="Vector_41" opacity="0.1" d="M492.654 499.938C492.654 499.938 476.957 524.335 427.918 521.721C381.72 519.301 359.17 496.445 360.246 488.377C361.321 480.309 357.301 460.672 367.195 455.025C372.933 451.757 380.484 453.693 385.812 455.904C387.653 456.656 389.668 456.867 391.624 456.515C393.58 456.162 395.396 455.259 396.862 453.911C401.733 449.498 410.817 444.528 425.158 448.441C427.003 448.936 428.949 448.9 430.775 448.336C436.745 446.505 450.957 443.326 461.269 450.386C462.899 451.515 464.814 452.155 466.792 452.231C468.77 452.306 470.729 451.815 472.439 450.813L472.584 450.724C477.399 447.764 499.868 475.735 499.868 475.735C499.868 475.735 500.943 497.251 492.654 499.938Z" fill="black"/>
<path id="Vector_42" d="M492.654 500.745C492.654 500.745 476.957 525.142 427.918 522.528C381.72 520.108 359.17 497.251 360.246 489.184C361.321 481.116 357.301 461.479 367.195 455.831C372.933 452.564 380.484 454.5 385.812 456.711C387.653 457.462 389.668 457.674 391.624 457.321C393.58 456.969 395.396 456.066 396.862 454.718C401.733 450.305 410.817 445.335 425.158 449.248C427.003 449.743 428.949 449.706 430.775 449.143C436.745 447.312 450.957 444.133 461.269 451.192C462.899 452.322 464.814 452.962 466.792 453.037C468.77 453.113 470.729 452.621 472.439 451.62L472.584 451.531C477.399 448.57 499.868 476.541 499.868 476.541C499.868 476.541 500.943 498.058 492.654 500.745Z" fill="#767D9F"/>
<path id="Vector_43" opacity="0.1" d="M427.918 510.297C445.575 510.297 459.889 495.907 459.889 478.155C459.889 460.403 445.575 446.013 427.918 446.013C410.261 446.013 395.948 460.403 395.948 478.155C395.948 495.907 410.261 510.297 427.918 510.297Z" fill="black"/>
<path id="Vector_44" d="M427.918 511.104C445.575 511.104 459.889 496.713 459.889 478.962C459.889 461.21 445.575 446.82 427.918 446.82C410.261 446.82 395.948 461.21 395.948 478.962C395.948 496.713 410.261 511.104 427.918 511.104Z" fill="#FFB9B9"/>
<path id="Vector_45" d="M418.754 451.176C415.4 452.088 412.093 453.831 410.456 456.695C409.469 458.421 409.124 460.495 407.696 461.931C405.674 463.972 402.263 464.012 399.527 465.158C396.79 466.303 394.985 470.337 397.665 471.612C394.872 471.757 392.802 474.347 392.457 476.921C392.112 479.494 393.083 482.06 394.022 484.512C397.087 492.451 400.385 500.737 407.142 506.384C418.152 515.598 434.747 515.17 449.537 514.194C450.745 514.234 451.943 513.956 453.011 513.387C454.616 512.322 454.817 510.281 455.082 508.49C456.197 500.842 460.322 493.895 463.018 486.594C465.715 479.293 466.822 470.716 462.28 464.254C455.595 454.67 430.005 448.11 418.754 451.176Z" fill="#B96B6B"/>
<path id="Vector_46" opacity="0.1" d="M481.066 315.895L480.079 323.519L468.579 325.133C468.579 325.133 467.336 322.454 465.578 318.34L480.881 315.451L481.066 315.895Z" fill="black"/>
<path id="Vector_47" d="M493.183 484.343L499.876 476.541L498.536 433.516C499.195 430.412 499.643 427.266 499.876 424.101C500.141 419.526 496.53 409.312 496.53 409.312C497.09 407.268 497.85 405.284 498.801 403.391C500.406 400.163 496.538 392.902 496.538 392.902C496.538 392.902 490.776 374.08 493.183 364.665C495.591 355.25 492.597 349.877 492.597 349.877C492.597 349.877 490.246 339.389 490.511 335.088C490.776 330.788 485.159 326.746 485.159 326.746L480.881 316.258L463.765 319.485V355.79C463.765 355.79 464.832 390.482 463.765 397.211C462.697 403.939 465.899 410.385 465.899 410.385C465.899 410.385 464.029 420.333 465.634 424.101C467.239 427.868 470.449 437.009 470.449 437.009C469.853 440.276 470.038 443.638 470.987 446.82C472.592 451.531 470.987 454.218 470.987 454.218L493.183 484.343Z" fill="#767D9F"/>
<g id="Group" opacity="0.1">
<path id="Vector_48" opacity="0.1" d="M541.34 55.2806C540.435 60.0032 540.029 64.8087 540.128 69.6171C540.197 65.6189 540.613 61.6344 541.372 57.709C542.078 54.1269 542.977 50.2705 542.784 46.6965C542.488 49.5863 542.006 52.4538 541.34 55.2806V55.2806Z" fill="black"/>
<path id="Vector_49" opacity="0.1" d="M456.526 88.5846C455.668 87.7778 454.64 87.213 453.758 86.4466C451.415 84.4377 450.427 81.5252 450.235 78.3788C450.002 82.4127 450.821 86.3175 453.758 88.8669C454.64 89.6334 455.668 90.2143 456.526 91.0049C458.321 92.7906 459.362 95.2037 459.431 97.7415C459.664 94.3531 458.982 90.8274 456.526 88.5846Z" fill="black"/>
<path id="Vector_50" opacity="0.1" d="M453.966 58.4593C454.107 56.7553 453.96 55.0397 453.533 53.3847C453.068 51.6582 452.233 49.972 451.928 48.2374C451.928 48.423 451.864 48.6166 451.84 48.8183C451.607 51.2387 452.907 53.4734 453.533 55.805C453.764 56.6734 453.909 57.5624 453.966 58.4593V58.4593Z" fill="black"/>
<path id="Vector_51" opacity="0.1" d="M537.945 85.0266C535.722 87.447 532.183 88.044 528.925 88.0198C525.667 87.9956 522.369 87.4631 519.167 88.1085C516.936 88.5603 514.665 89.5688 512.475 88.9153C509.449 88.0359 508.238 84.0746 505.341 83.3082C502.043 82.4369 499.531 86.979 497.316 88.7862C491.899 93.1429 484.3 93.1025 477.375 92.8201C474.429 92.683 470.794 92.917 469.526 95.5955C469.14 96.4077 469.057 97.3329 469.294 98.2014L459.487 99.7504C459.45 100.562 459.362 101.37 459.223 102.171L469.294 100.557C469.057 99.6887 469.14 98.7635 469.526 97.9513C470.794 95.2728 474.429 95.0388 477.375 95.1759C484.3 95.4987 491.899 95.539 497.316 91.142C499.563 89.3348 502.075 84.7927 505.341 85.664C508.238 86.4224 509.449 90.3917 512.475 91.2711C514.665 91.9004 516.936 90.8919 519.167 90.4643C522.377 89.8189 525.667 90.3514 528.925 90.3756C532.183 90.3998 535.722 89.7786 537.945 87.3824C540.168 84.9863 540.489 81.4123 540.353 77.927C540.256 80.6297 539.703 83.1307 537.945 85.0266Z" fill="black"/>
</g>
<g id="Group_2" opacity="0.1">
<path id="Vector_52" opacity="0.1" d="M463.66 123.776C462.715 123.276 461.723 122.871 460.699 122.566C458.958 121.771 457.575 120.349 456.823 118.581C457.425 121.364 458.95 123.897 461.502 124.987C462.526 125.291 463.518 125.696 464.463 126.197C465.067 126.626 465.555 127.2 465.883 127.867C465.562 126.285 464.976 124.672 463.66 123.776Z" fill="black"/>
<path id="Vector_53" opacity="0.1" d="M477.366 143.405C473.667 144.349 468.836 144.841 466.806 141.687C466.869 142.447 467.088 143.186 467.448 143.857C469.181 146.963 473.418 146.858 477.021 146.092L477.366 143.405Z" fill="black"/>
<path id="Vector_54" opacity="0.1" d="M492.357 145.616C492.87 148.891 490.752 152.159 487.943 153.877C485.134 155.596 481.708 156.072 478.402 156.298C477.876 156.366 477.342 156.305 476.845 156.12C476.694 156.461 476.646 156.839 476.705 157.208C476.765 157.576 476.93 157.919 477.18 158.195C477.43 158.47 477.755 158.666 478.114 158.759C478.474 158.852 478.853 158.838 479.204 158.718C482.51 158.508 485.913 158.048 488.746 156.298C491.578 154.547 493.697 151.288 493.151 148.004C492.997 147.175 492.73 146.371 492.357 145.616V145.616Z" fill="black"/>
<path id="Vector_55" opacity="0.1" d="M495.92 116.41C496.41 118.372 496.447 120.42 496.03 122.399C495.613 124.377 494.752 126.233 493.512 127.826C491.618 130.134 488.738 131.981 488.328 134.942C488.192 136.303 488.472 137.674 489.131 138.871C489.058 138.371 489.058 137.863 489.131 137.363C489.54 134.402 492.421 132.522 494.315 130.247C497.428 126.463 497.862 120.888 495.92 116.41Z" fill="black"/>
</g>
<g id="Group_3" opacity="0.1">
<path id="Vector_56" opacity="0.1" d="M399.535 466.4C402.263 465.263 405.674 465.222 407.704 463.173C409.132 461.737 409.477 459.664 410.464 457.945C412.069 455.073 415.4 453.338 418.754 452.427C429.989 449.361 455.603 455.912 462.28 465.408C464.237 468.281 465.303 471.672 465.345 475.154C465.603 471.134 464.527 467.142 462.288 463.802C455.611 454.307 430.021 447.755 418.762 450.821C415.408 451.733 412.101 453.467 410.472 456.34C409.485 458.058 409.14 460.131 407.712 461.568C405.682 463.609 402.271 463.649 399.543 464.795C397.464 465.658 395.924 468.207 396.485 469.918C396.709 469.144 397.098 468.429 397.625 467.821C398.151 467.214 398.803 466.729 399.535 466.4V466.4Z" fill="black"/>
<path id="Vector_57" opacity="0.1" d="M392.473 478.123C392.81 475.541 394.88 472.959 397.681 472.814C397.387 472.691 397.124 472.503 396.912 472.264C396.699 472.025 396.543 471.742 396.453 471.434C395.388 471.832 394.451 472.515 393.744 473.41C393.037 474.304 392.586 475.376 392.441 476.509C392.365 477.166 392.365 477.829 392.441 478.486C392.473 478.365 392.473 478.244 392.473 478.123Z" fill="black"/>
</g>
<path id="Vector_58" d="M562.461 185.753H489.436V281.494H562.461V185.753Z" fill="white"/>
<path id="Vector_59" opacity="0.1" d="M562.461 185.753H489.436V281.494H562.461V185.753Z" fill="black"/>
<g id="tableresume">
<path id="Vector_60" d="M590.361 191.37L518.393 203.816L534.537 298.171L606.505 285.725L590.361 191.37Z" fill="white"/>
<path id="Vector_61" d="M552.744 265.214L535.836 268.138L539.628 290.305L556.537 287.381L552.744 265.214Z" fill="#F3AC30"/>
<path id="Vector_62" d="M576.142 261.163L559.233 264.087L563.026 286.255L579.935 283.331L576.142 261.163Z" fill="#F3AC30"/>
<path id="Vector_63" d="M592.676 228.686L533.379 238.923L537.182 261.191L596.48 250.954L592.676 228.686Z" fill="#F3AC30"/>
<path id="Vector_64" d="M587.734 202.109L528.436 212.346L529.285 217.314L588.582 207.077L587.734 202.109Z" fill="#F3AC30"/>
<path id="Vector_65" d="M589.678 211.247L530.381 221.485L531.229 226.452L590.527 216.215L589.678 211.247Z" fill="#F3AC30"/>
</g>
<path id="Vector_66" d="M530.498 159.743C530.498 159.743 496.931 193.627 513.783 202.236C530.635 210.844 541.604 173.595 541.604 173.595L544.269 165.124L530.498 159.743Z" fill="#AE6E79"/>
<path id="Vector_67" opacity="0.1" d="M527.561 156.749L523.412 165.963C523.412 165.963 543.875 168.851 548.153 175.072L545.617 158.815L542.608 151.877L527.561 156.749Z" fill="black"/>
<path id="Vector_68" d="M528.364 155.943L524.215 165.156C524.215 165.156 544.678 168.044 548.955 174.265L546.419 158.008L543.41 151.07L528.364 155.943Z" fill="#4C4981"/>
<path id="Vector_69" d="M652.233 325.343L651.792 325.649L652.402 325.923L653.06 325.867L653.14 325.407L652.233 325.343Z" fill="#464A5F"/>
<path id="Vector_70" opacity="0.1" d="M652.233 325.343L651.792 325.649L652.402 325.923L653.06 325.867L653.14 325.407L652.233 325.343Z" fill="black"/>
<path id="Vector_71" d="M652.233 325.343L651.784 325.633L651.431 325.197L651.647 324.842L651.848 324.778L652.233 325.343Z" fill="#9C9CA1"/>
<path id="Vector_72" opacity="0.1" d="M652.233 325.343L651.784 325.633L651.431 325.197L651.647 324.842L651.848 324.778L652.233 325.343Z" fill="black"/>
<path id="Vector_73" d="M731.22 269.586L698.367 221.881C698.076 221.455 697.705 221.091 697.273 220.81C696.842 220.529 696.36 220.336 695.855 220.242C695.35 220.149 694.831 220.156 694.328 220.264C693.826 220.372 693.349 220.579 692.926 220.873L619.693 271.409C618.836 272.001 618.248 272.909 618.057 273.936C617.866 274.963 618.088 276.025 618.674 276.887L651.439 325.197L731.22 269.586Z" fill="#9C9CA1"/>
<path id="Vector_74" opacity="0.1" d="M731.22 269.586L698.367 221.881C698.076 221.455 697.705 221.091 697.273 220.81C696.842 220.529 696.36 220.336 695.855 220.242C695.35 220.149 694.831 220.156 694.328 220.264C693.826 220.372 693.349 220.579 692.926 220.873L619.693 271.409C618.836 272.001 618.248 272.909 618.057 273.936C617.866 274.963 618.088 276.025 618.674 276.887L651.439 325.197L731.22 269.586Z" fill="black"/>
<path id="Vector_75" d="M759.483 279.13L732.199 270.32L652.402 325.932L680.119 335.048C680.739 335.251 681.398 335.305 682.043 335.207C682.688 335.109 683.301 334.861 683.835 334.483L759.708 280.623C759.85 280.543 759.965 280.421 760.037 280.273C760.108 280.126 760.133 279.96 760.109 279.798C760.085 279.636 760.012 279.486 759.9 279.366C759.788 279.247 759.643 279.164 759.483 279.13Z" fill="#464A5F"/>
<path id="Vector_76" opacity="0.1" d="M759.483 279.13L732.199 270.32L652.402 325.932L680.119 335.048C680.739 335.251 681.398 335.305 682.043 335.207C682.688 335.109 683.301 334.861 683.835 334.483L759.708 280.623C759.85 280.543 759.965 280.421 760.037 280.273C760.108 280.126 760.133 279.96 760.109 279.798C760.085 279.636 760.012 279.486 759.9 279.366C759.788 279.247 759.643 279.164 759.483 279.13Z" fill="black"/>
<g id="Group_4" opacity="0.1">
<path id="Vector_77" opacity="0.1" d="M719.135 267.569L717.121 264.665C717 264.496 716.819 264.381 716.616 264.344C716.412 264.306 716.202 264.349 716.03 264.463L713.036 266.472C712.868 266.591 712.752 266.77 712.712 266.973C712.672 267.176 712.71 267.386 712.82 267.561L714.674 270.425C714.79 270.597 714.967 270.717 715.169 270.76C715.37 270.804 715.581 270.767 715.757 270.659L718.911 268.666C719.082 268.548 719.201 268.368 719.243 268.163C719.285 267.959 719.246 267.746 719.135 267.569V267.569Z" fill="black"/>
<path id="Vector_78" opacity="0.1" d="M713.759 271.312L711.736 268.416C711.615 268.248 711.434 268.133 711.231 268.095C711.028 268.057 710.818 268.1 710.645 268.214L707.66 270.239C707.491 270.357 707.373 270.536 707.331 270.739C707.289 270.942 707.326 271.153 707.435 271.329L709.289 274.193C709.404 274.366 709.58 274.487 709.782 274.532C709.984 274.577 710.195 274.542 710.372 274.435L713.534 272.442C713.623 272.383 713.7 272.307 713.76 272.219C713.82 272.13 713.861 272.03 713.882 271.925C713.903 271.819 713.903 271.711 713.882 271.606C713.861 271.501 713.819 271.401 713.759 271.312Z" fill="black"/>
<path id="Vector_79" opacity="0.1" d="M708.109 275.241L706.087 272.345C705.966 272.177 705.785 272.062 705.582 272.024C705.378 271.986 705.168 272.029 704.996 272.143L702.002 274.168C701.832 274.288 701.715 274.469 701.674 274.673C701.634 274.878 701.674 275.09 701.786 275.266L703.639 278.13C703.756 278.301 703.933 278.421 704.135 278.465C704.336 278.508 704.547 278.472 704.723 278.364L707.877 276.371C707.967 276.313 708.044 276.238 708.105 276.149C708.165 276.06 708.208 275.961 708.229 275.855C708.251 275.75 708.251 275.642 708.231 275.536C708.21 275.431 708.169 275.331 708.109 275.241V275.241Z" fill="black"/>
<path id="Vector_80" opacity="0.1" d="M702.388 279.227L700.365 276.323C700.245 276.156 700.065 276.043 699.864 276.005C699.662 275.968 699.454 276.009 699.282 276.121L696.289 278.154C696.121 278.273 696.005 278.452 695.964 278.655C695.924 278.858 695.963 279.068 696.072 279.243L697.926 282.107C698.041 282.278 698.216 282.398 698.416 282.443C698.616 282.488 698.825 282.454 699.001 282.349L702.163 280.348C702.251 280.29 702.327 280.214 702.386 280.126C702.445 280.038 702.486 279.939 702.507 279.835C702.528 279.73 702.528 279.623 702.508 279.519C702.487 279.415 702.446 279.315 702.388 279.227Z" fill="black"/>
<path id="Vector_81" opacity="0.1" d="M696.674 283.204L694.652 280.308C694.531 280.14 694.35 280.025 694.146 279.987C693.943 279.949 693.733 279.992 693.561 280.106L690.575 282.131C690.406 282.249 690.288 282.428 690.246 282.631C690.205 282.834 690.242 283.045 690.351 283.221L692.204 286.085C692.319 286.258 692.496 286.379 692.698 286.424C692.899 286.469 693.111 286.434 693.288 286.327L696.449 284.326C696.538 284.267 696.613 284.192 696.673 284.103C696.732 284.015 696.773 283.916 696.794 283.812C696.815 283.708 696.815 283.601 696.794 283.496C696.774 283.392 696.733 283.293 696.674 283.204Z" fill="black"/>
<path id="Vector_82" opacity="0.1" d="M691.209 287.545L688.698 283.947C688.671 283.907 688.637 283.872 688.597 283.846C688.557 283.819 688.512 283.801 688.465 283.792C688.418 283.783 688.369 283.783 688.323 283.793C688.276 283.803 688.231 283.822 688.192 283.85L684.517 286.343C684.476 286.369 684.441 286.403 684.414 286.443C684.387 286.483 684.368 286.528 684.358 286.575C684.348 286.622 684.348 286.671 684.357 286.718C684.367 286.766 684.385 286.811 684.412 286.851L686.715 290.409C686.768 290.491 686.851 290.548 686.945 290.57C687.04 290.591 687.139 290.574 687.221 290.522L691.105 288.102C691.152 288.075 691.192 288.038 691.223 287.995C691.254 287.951 691.275 287.901 691.285 287.848C691.295 287.795 691.294 287.74 691.281 287.688C691.267 287.635 691.243 287.587 691.209 287.545V287.545Z" fill="black"/>
<path id="Vector_83" opacity="0.1" d="M685.496 291.522L682.968 287.924C682.941 287.884 682.906 287.849 682.865 287.823C682.824 287.796 682.779 287.778 682.731 287.769C682.683 287.76 682.634 287.76 682.587 287.77C682.539 287.78 682.494 287.8 682.454 287.827L678.779 290.32C678.7 290.376 678.646 290.46 678.628 290.555C678.61 290.65 678.63 290.748 678.683 290.828L680.986 294.386C681.01 294.429 681.043 294.465 681.083 294.494C681.122 294.523 681.167 294.543 681.214 294.554C681.261 294.564 681.311 294.565 681.358 294.556C681.406 294.546 681.451 294.527 681.491 294.499L685.367 292.079C685.417 292.056 685.461 292.021 685.495 291.979C685.53 291.936 685.554 291.886 685.566 291.832C685.579 291.778 685.579 291.723 685.566 291.669C685.554 291.615 685.53 291.565 685.496 291.522V291.522Z" fill="black"/>
<path id="Vector_84" opacity="0.1" d="M680.432 295.048L677.92 291.482C677.864 291.404 677.78 291.351 677.685 291.335C677.591 291.318 677.494 291.339 677.415 291.393L673.739 293.878C673.659 293.934 673.603 294.019 673.583 294.115C673.564 294.211 673.583 294.312 673.635 294.394L675.938 297.952C675.992 298.032 676.075 298.089 676.169 298.11C676.263 298.131 676.361 298.115 676.444 298.065L680.328 295.645C680.381 295.62 680.428 295.582 680.464 295.534C680.499 295.487 680.523 295.432 680.534 295.374C680.544 295.315 680.54 295.255 680.522 295.198C680.505 295.142 680.474 295.09 680.432 295.048V295.048Z" fill="black"/>
<path id="Vector_85" opacity="0.1" d="M674.767 298.985L672.255 295.387C672.198 295.309 672.114 295.256 672.02 295.24C671.926 295.223 671.829 295.244 671.749 295.298L668.074 297.783C668.033 297.81 667.998 297.845 667.971 297.885C667.944 297.926 667.925 297.971 667.915 298.019C667.905 298.067 667.905 298.117 667.914 298.165C667.924 298.213 667.943 298.259 667.97 298.299L670.273 301.857C670.327 301.937 670.409 301.994 670.503 302.015C670.597 302.036 670.696 302.02 670.778 301.97L674.662 299.55C674.709 299.522 674.749 299.485 674.781 299.44C674.812 299.396 674.833 299.345 674.843 299.291C674.853 299.238 674.851 299.183 674.838 299.13C674.825 299.077 674.8 299.028 674.767 298.985V298.985Z" fill="black"/>
<path id="Vector_86" opacity="0.1" d="M669.278 302.777L666.766 299.179C666.739 299.139 666.705 299.104 666.665 299.078C666.625 299.051 666.58 299.033 666.533 299.024C666.486 299.015 666.438 299.015 666.391 299.025C666.344 299.035 666.3 299.054 666.26 299.082L662.585 301.575C662.545 301.601 662.51 301.635 662.483 301.675C662.455 301.715 662.436 301.76 662.427 301.807C662.417 301.854 662.417 301.903 662.426 301.95C662.435 301.998 662.454 302.043 662.481 302.083L664.784 305.641C664.837 305.723 664.919 305.78 665.014 305.802C665.108 305.823 665.207 305.806 665.289 305.754L669.173 303.334C669.22 303.307 669.26 303.27 669.292 303.227C669.323 303.183 669.344 303.133 669.354 303.08C669.364 303.027 669.362 302.972 669.349 302.92C669.336 302.868 669.312 302.819 669.278 302.777V302.777Z" fill="black"/>
<path id="Vector_87" opacity="0.1" d="M663.789 306.633L661.301 303.027C661.245 302.949 661.16 302.896 661.066 302.88C660.972 302.863 660.875 302.884 660.796 302.938L657.12 305.423C657.079 305.45 657.044 305.485 657.017 305.525C656.99 305.566 656.971 305.611 656.961 305.659C656.951 305.707 656.951 305.757 656.961 305.805C656.97 305.853 656.989 305.899 657.016 305.939L659.319 309.497C659.373 309.577 659.455 309.634 659.549 309.655C659.643 309.676 659.742 309.66 659.825 309.61L663.709 307.19C663.753 307.161 663.791 307.123 663.82 307.078C663.849 307.034 663.868 306.983 663.876 306.93C663.883 306.877 663.879 306.823 663.864 306.772C663.849 306.721 663.824 306.674 663.789 306.633Z" fill="black"/>
<path id="Vector_88" opacity="0.1" d="M658.3 310.449L655.788 306.851C655.762 306.811 655.727 306.777 655.687 306.75C655.647 306.724 655.603 306.705 655.556 306.696C655.509 306.687 655.46 306.688 655.413 306.698C655.366 306.708 655.322 306.727 655.283 306.754L651.607 309.231C651.567 309.257 651.532 309.291 651.505 309.331C651.478 309.371 651.459 309.416 651.449 309.463C651.439 309.511 651.439 309.559 651.448 309.607C651.457 309.654 651.476 309.699 651.503 309.739L653.806 313.297C653.859 313.379 653.941 313.437 654.036 313.458C654.13 313.479 654.229 313.462 654.312 313.41L658.196 310.99C658.24 310.963 658.278 310.927 658.307 310.885C658.337 310.842 658.357 310.794 658.367 310.743C658.377 310.692 658.376 310.64 658.364 310.589C658.353 310.538 658.331 310.491 658.3 310.449V310.449Z" fill="black"/>
<path id="Vector_89" opacity="0.1" d="M715.524 262.317L713.502 259.412C713.381 259.244 713.2 259.129 712.996 259.091C712.793 259.054 712.583 259.097 712.41 259.211L709.449 261.244C709.28 261.362 709.162 261.541 709.12 261.743C709.079 261.946 709.116 262.157 709.225 262.333L711.078 265.197C711.194 265.369 711.372 265.489 711.573 265.532C711.775 265.576 711.986 265.54 712.162 265.431L715.323 263.438C715.498 263.316 715.617 263.129 715.654 262.919C715.692 262.709 715.645 262.492 715.524 262.317Z" fill="black"/>
<path id="Vector_90" opacity="0.1" d="M707.62 250.836L705.598 247.916C705.477 247.75 705.297 247.636 705.096 247.598C704.894 247.561 704.686 247.602 704.514 247.714L701.521 249.739C701.352 249.857 701.234 250.036 701.192 250.239C701.15 250.441 701.188 250.652 701.296 250.828L703.15 253.692C703.265 253.865 703.442 253.987 703.643 254.032C703.845 254.077 704.057 254.042 704.233 253.934L707.395 251.942C707.569 251.823 707.69 251.642 707.732 251.435C707.774 251.228 707.733 251.014 707.62 250.836V250.836Z" fill="black"/>
<path id="Vector_91" opacity="0.1" d="M710.14 266.06L708.117 263.164C707.996 262.998 707.817 262.884 707.615 262.847C707.414 262.809 707.206 262.851 707.034 262.962L704.041 264.987C703.873 265.106 703.757 265.286 703.716 265.488C703.676 265.691 703.715 265.902 703.824 266.076L705.67 268.941C705.785 269.113 705.961 269.235 706.163 269.28C706.365 269.325 706.576 269.29 706.753 269.183L709.915 267.19C710.004 267.131 710.081 267.055 710.141 266.966C710.201 266.878 710.242 266.778 710.263 266.672C710.284 266.567 710.284 266.459 710.263 266.354C710.241 266.249 710.2 266.149 710.14 266.06Z" fill="black"/>
<path id="Vector_92" opacity="0.1" d="M704.49 269.989L702.468 267.093C702.347 266.924 702.166 266.809 701.962 266.772C701.759 266.734 701.549 266.777 701.376 266.891L698.391 268.892C698.22 269.01 698.101 269.19 698.059 269.395C698.017 269.6 698.055 269.813 698.167 269.989L700.02 272.853C700.136 273.025 700.314 273.145 700.515 273.189C700.717 273.232 700.928 273.196 701.104 273.087L704.265 271.095C704.439 270.976 704.56 270.795 704.602 270.588C704.644 270.381 704.604 270.167 704.49 269.989V269.989Z" fill="black"/>
<path id="Vector_93" opacity="0.1" d="M698.769 273.975L696.754 271.07C696.633 270.902 696.452 270.787 696.249 270.749C696.046 270.712 695.836 270.755 695.663 270.869L692.67 272.926C692.502 273.045 692.386 273.224 692.345 273.427C692.305 273.63 692.344 273.84 692.453 274.015L694.307 276.879C694.423 277.051 694.6 277.171 694.802 277.214C695.004 277.258 695.214 277.222 695.39 277.113L698.544 275.12C698.635 275.062 698.714 274.985 698.775 274.895C698.837 274.805 698.879 274.703 698.9 274.596C698.921 274.489 698.92 274.379 698.898 274.272C698.875 274.165 698.831 274.064 698.769 273.975Z" fill="black"/>
<path id="Vector_94" opacity="0.1" d="M702.364 254.765L700.341 251.869C700.221 251.703 700.041 251.589 699.84 251.552C699.638 251.514 699.43 251.556 699.258 251.667L696.265 253.692C696.096 253.81 695.978 253.989 695.936 254.192C695.894 254.394 695.931 254.606 696.04 254.782L697.894 257.646C698.009 257.818 698.185 257.94 698.387 257.985C698.589 258.03 698.8 257.995 698.977 257.888L702.139 255.895C702.228 255.836 702.305 255.76 702.365 255.671C702.425 255.583 702.466 255.483 702.487 255.378C702.508 255.272 702.508 255.164 702.487 255.059C702.465 254.954 702.424 254.854 702.364 254.765Z" fill="black"/>
<path id="Vector_95" opacity="0.1" d="M696.714 258.702L694.692 255.798C694.571 255.63 694.39 255.515 694.187 255.477C693.983 255.439 693.773 255.482 693.601 255.596L690.615 257.597C690.446 257.715 690.328 257.894 690.287 258.097C690.245 258.299 690.282 258.51 690.391 258.686L692.244 261.55C692.36 261.722 692.538 261.842 692.74 261.886C692.941 261.929 693.152 261.893 693.328 261.784L696.49 259.792C696.659 259.674 696.777 259.495 696.818 259.292C696.86 259.089 696.823 258.878 696.714 258.702Z" fill="black"/>
<path id="Vector_96" opacity="0.1" d="M690.993 262.68L688.97 259.784C688.851 259.616 688.672 259.501 688.47 259.462C688.269 259.423 688.06 259.463 687.887 259.574L684.894 261.631C684.726 261.75 684.61 261.93 684.569 262.132C684.529 262.335 684.568 262.545 684.677 262.72L686.531 265.584C686.646 265.757 686.822 265.879 687.024 265.924C687.226 265.969 687.437 265.934 687.614 265.826L690.768 263.826C690.86 263.767 690.938 263.69 691 263.6C691.061 263.51 691.103 263.408 691.124 263.301C691.145 263.194 691.144 263.084 691.122 262.977C691.099 262.87 691.055 262.769 690.993 262.68Z" fill="black"/>
<path id="Vector_97" opacity="0.1" d="M693.055 277.952L691.033 275.056C690.913 274.888 690.734 274.773 690.533 274.734C690.331 274.695 690.122 274.735 689.949 274.846L686.98 276.879C686.812 276.998 686.696 277.178 686.656 277.38C686.616 277.583 686.654 277.794 686.764 277.968L688.585 280.832C688.7 281.003 688.875 281.123 689.075 281.168C689.275 281.213 689.484 281.18 689.661 281.075L692.822 279.074C692.911 279.016 692.988 278.941 693.048 278.853C693.107 278.765 693.149 278.666 693.171 278.562C693.193 278.457 693.193 278.35 693.174 278.245C693.154 278.141 693.113 278.041 693.055 277.952Z" fill="black"/>
<path id="Vector_98" opacity="0.1" d="M687.341 281.93L685.319 279.033C685.198 278.865 685.017 278.75 684.814 278.712C684.61 278.675 684.4 278.717 684.228 278.832L681.242 280.857C681.073 280.975 680.955 281.153 680.914 281.356C680.872 281.559 680.909 281.77 681.018 281.946L682.872 284.81C682.986 284.983 683.163 285.104 683.365 285.15C683.567 285.195 683.778 285.16 683.955 285.052L687.117 283.059C687.206 283.001 687.283 282.925 687.343 282.836C687.402 282.747 687.444 282.647 687.465 282.542C687.486 282.437 687.486 282.328 687.464 282.223C687.443 282.118 687.401 282.018 687.341 281.93Z" fill="black"/>
<path id="Vector_99" opacity="0.1" d="M681.877 286.27L679.365 282.672C679.338 282.632 679.304 282.598 679.264 282.571C679.224 282.544 679.179 282.526 679.132 282.517C679.085 282.508 679.037 282.509 678.99 282.519C678.943 282.528 678.899 282.548 678.859 282.575L675.184 285.068C675.143 285.094 675.109 285.128 675.081 285.168C675.054 285.208 675.035 285.253 675.025 285.3C675.016 285.347 675.015 285.396 675.025 285.444C675.034 285.491 675.053 285.536 675.08 285.576L677.383 289.134C677.408 289.176 677.441 289.211 677.481 289.239C677.52 289.268 677.565 289.288 677.612 289.298C677.659 289.309 677.708 289.31 677.755 289.301C677.803 289.292 677.848 289.274 677.888 289.247L681.772 286.827C681.819 286.8 681.859 286.764 681.89 286.72C681.921 286.676 681.943 286.626 681.953 286.573C681.963 286.52 681.961 286.465 681.948 286.413C681.935 286.361 681.91 286.312 681.877 286.27V286.27Z" fill="black"/>
<path id="Vector_100" opacity="0.1" d="M676.813 289.796L674.301 286.189C674.245 286.112 674.161 286.059 674.066 286.042C673.972 286.026 673.875 286.047 673.796 286.101L670.128 288.586C670.048 288.641 669.992 288.726 669.972 288.823C669.953 288.919 669.971 289.019 670.024 289.102L672.327 292.66C672.381 292.74 672.463 292.796 672.557 292.817C672.651 292.838 672.75 292.822 672.833 292.773L676.717 290.352C676.765 290.327 676.807 290.291 676.839 290.247C676.871 290.203 676.893 290.152 676.902 290.098C676.911 290.044 676.908 289.989 676.893 289.936C676.877 289.884 676.85 289.836 676.813 289.796V289.796Z" fill="black"/>
<path id="Vector_101" opacity="0.1" d="M671.147 293.733L668.636 290.135C668.579 290.057 668.495 290.004 668.401 289.987C668.306 289.971 668.209 289.992 668.13 290.046L664.455 292.531C664.414 292.557 664.38 292.591 664.352 292.631C664.325 292.671 664.306 292.716 664.296 292.763C664.287 292.81 664.286 292.859 664.296 292.906C664.305 292.954 664.324 292.999 664.35 293.039L666.654 296.605C666.708 296.685 666.79 296.742 666.884 296.763C666.978 296.784 667.076 296.768 667.159 296.718L671.043 294.298C671.09 294.27 671.13 294.233 671.162 294.188C671.193 294.144 671.214 294.093 671.224 294.039C671.234 293.986 671.232 293.931 671.219 293.878C671.206 293.825 671.181 293.775 671.147 293.733V293.733Z" fill="black"/>
<path id="Vector_102" opacity="0.1" d="M665.658 297.557L663.147 293.959C663.12 293.919 663.086 293.884 663.046 293.858C663.006 293.831 662.961 293.813 662.914 293.804C662.867 293.795 662.819 293.795 662.772 293.805C662.725 293.815 662.681 293.835 662.641 293.862L658.966 296.323C658.925 296.349 658.891 296.383 658.863 296.423C658.836 296.462 658.817 296.507 658.807 296.555C658.798 296.602 658.798 296.651 658.807 296.698C658.816 296.746 658.835 296.791 658.862 296.831L661.165 300.389C661.217 300.471 661.3 300.528 661.394 300.549C661.489 300.571 661.588 300.553 661.67 300.502L665.554 298.081C665.596 298.055 665.632 298.019 665.66 297.978C665.688 297.937 665.708 297.891 665.717 297.842C665.727 297.793 665.727 297.742 665.717 297.693C665.707 297.644 665.687 297.598 665.658 297.557V297.557Z" fill="black"/>
<path id="Vector_103" opacity="0.1" d="M700.727 264.527L698.704 261.631C698.583 261.465 698.404 261.351 698.203 261.314C698.001 261.276 697.793 261.318 697.621 261.429L694.628 263.462C694.46 263.582 694.344 263.761 694.303 263.964C694.263 264.166 694.302 264.377 694.411 264.552L696.265 267.416C696.381 267.585 696.556 267.704 696.756 267.747C696.956 267.791 697.165 267.756 697.34 267.65L700.502 265.657C700.591 265.598 700.668 265.522 700.728 265.434C700.788 265.345 700.829 265.245 700.85 265.14C700.871 265.034 700.871 264.926 700.85 264.821C700.828 264.716 700.787 264.616 700.727 264.527Z" fill="black"/>
<path id="Vector_104" opacity="0.1" d="M695.005 268.513L692.983 265.608C692.862 265.44 692.681 265.325 692.477 265.287C692.274 265.25 692.064 265.293 691.891 265.407L688.906 267.44C688.737 267.558 688.619 267.737 688.577 267.939C688.536 268.142 688.573 268.353 688.682 268.529L690.535 271.393C690.65 271.566 690.827 271.688 691.029 271.733C691.23 271.778 691.442 271.743 691.619 271.635L694.78 269.634C694.868 269.576 694.944 269.5 695.003 269.412C695.062 269.324 695.104 269.225 695.124 269.121C695.145 269.016 695.146 268.909 695.125 268.805C695.105 268.7 695.064 268.601 695.005 268.513Z" fill="black"/>
<path id="Vector_105" opacity="0.1" d="M689.299 272.49L687.277 269.594C687.156 269.426 686.975 269.311 686.772 269.273C686.568 269.235 686.358 269.278 686.186 269.392L683.193 271.417C683.025 271.536 682.908 271.716 682.868 271.918C682.828 272.121 682.866 272.332 682.976 272.507L684.83 275.371C684.944 275.543 685.121 275.665 685.323 275.71C685.525 275.755 685.736 275.72 685.913 275.613L689.067 273.612C689.155 273.554 689.232 273.479 689.292 273.391C689.352 273.303 689.394 273.204 689.415 273.1C689.437 272.996 689.438 272.888 689.418 272.783C689.398 272.679 689.358 272.579 689.299 272.49V272.49Z" fill="black"/>
<path id="Vector_106" opacity="0.1" d="M683.578 276.468L681.556 273.571C681.435 273.405 681.255 273.292 681.054 273.254C680.852 273.217 680.644 273.258 680.472 273.37L677.479 275.395C677.311 275.514 677.195 275.693 677.154 275.896C677.114 276.099 677.153 276.309 677.262 276.484L679.116 279.38C679.231 279.551 679.406 279.671 679.606 279.716C679.806 279.761 680.015 279.728 680.191 279.622L683.353 277.63C683.447 277.571 683.528 277.494 683.591 277.402C683.653 277.311 683.697 277.207 683.718 277.098C683.739 276.989 683.737 276.877 683.713 276.768C683.689 276.66 683.643 276.557 683.578 276.468Z" fill="black"/>
<path id="Vector_107" opacity="0.1" d="M678.153 280.808L675.641 277.21C675.615 277.17 675.58 277.136 675.54 277.109C675.501 277.083 675.456 277.064 675.409 277.055C675.362 277.046 675.313 277.047 675.266 277.057C675.22 277.067 675.175 277.086 675.136 277.113L671.46 279.606C671.38 279.66 671.325 279.744 671.305 279.839C671.286 279.934 671.304 280.033 671.356 280.114L673.659 283.68C673.685 283.721 673.719 283.756 673.759 283.784C673.798 283.811 673.843 283.83 673.89 283.84C673.937 283.85 673.986 283.85 674.033 283.84C674.08 283.831 674.125 283.812 674.165 283.785L678.049 281.365C678.095 281.338 678.136 281.302 678.167 281.258C678.198 281.214 678.219 281.164 678.229 281.111C678.239 281.058 678.238 281.003 678.224 280.951C678.211 280.899 678.187 280.85 678.153 280.808Z" fill="black"/>
<path id="Vector_108" opacity="0.1" d="M673.057 284.334L670.546 280.728C670.488 280.649 670.402 280.596 670.306 280.58C670.211 280.563 670.113 280.584 670.032 280.639L666.365 283.124C666.284 283.179 666.228 283.264 666.209 283.361C666.189 283.457 666.208 283.557 666.26 283.64L668.563 287.198C668.616 287.28 668.699 287.337 668.793 287.359C668.888 287.38 668.987 287.363 669.069 287.311L672.953 284.891C673 284.864 673.04 284.827 673.071 284.784C673.102 284.74 673.124 284.69 673.134 284.637C673.143 284.584 673.142 284.529 673.129 284.477C673.115 284.425 673.091 284.376 673.057 284.334Z" fill="black"/>
<path id="Vector_109" opacity="0.1" d="M667.392 288.255L664.88 284.649C664.822 284.57 664.737 284.517 664.641 284.501C664.545 284.484 664.447 284.505 664.367 284.56L660.691 287.045C660.612 287.102 660.558 287.187 660.538 287.282C660.519 287.378 660.536 287.478 660.587 287.561L662.898 291.119C662.951 291.201 663.033 291.258 663.128 291.279C663.222 291.301 663.321 291.284 663.404 291.232L667.28 288.812C667.328 288.787 667.37 288.751 667.403 288.708C667.436 288.664 667.458 288.614 667.469 288.56C667.48 288.507 667.479 288.452 667.465 288.399C667.452 288.346 667.427 288.297 667.392 288.255V288.255Z" fill="black"/>
<path id="Vector_110" opacity="0.1" d="M661.903 292.095L659.391 288.497C659.364 288.457 659.329 288.422 659.288 288.395C659.248 288.369 659.202 288.35 659.154 288.341C659.107 288.332 659.058 288.333 659.01 288.343C658.963 288.353 658.918 288.372 658.878 288.4L655.202 290.893C655.124 290.948 655.07 291.033 655.052 291.127C655.034 291.222 655.053 291.321 655.106 291.401L657.409 294.959C657.434 295.001 657.467 295.038 657.506 295.067C657.545 295.096 657.59 295.116 657.637 295.127C657.685 295.137 657.734 295.138 657.782 295.128C657.829 295.119 657.875 295.1 657.915 295.072L661.791 292.652C661.839 292.627 661.881 292.591 661.914 292.548C661.947 292.505 661.969 292.454 661.98 292.401C661.991 292.347 661.99 292.292 661.976 292.239C661.963 292.186 661.938 292.137 661.903 292.095V292.095Z" fill="black"/>
<path id="Vector_111" opacity="0.1" d="M660.17 301.373L657.658 297.775C657.602 297.697 657.517 297.644 657.423 297.628C657.329 297.611 657.232 297.632 657.152 297.686L653.477 300.171C653.437 300.197 653.402 300.231 653.374 300.271C653.347 300.311 653.328 300.356 653.318 300.403C653.309 300.45 653.309 300.499 653.318 300.547C653.327 300.594 653.346 300.639 653.373 300.679L655.676 304.245C655.73 304.325 655.812 304.382 655.906 304.403C656 304.424 656.099 304.408 656.181 304.358L660.065 301.938C660.112 301.91 660.153 301.873 660.184 301.829C660.215 301.784 660.236 301.733 660.246 301.68C660.256 301.626 660.254 301.571 660.241 301.518C660.228 301.465 660.204 301.416 660.17 301.373V301.373Z" fill="black"/>
<path id="Vector_112" opacity="0.1" d="M654.681 305.197L652.169 301.599C652.142 301.559 652.108 301.525 652.068 301.498C652.028 301.472 651.983 301.453 651.936 301.444C651.889 301.435 651.841 301.436 651.794 301.446C651.747 301.456 651.703 301.475 651.663 301.502L647.988 303.995C647.948 304.021 647.913 304.055 647.886 304.095C647.858 304.135 647.839 304.18 647.83 304.227C647.82 304.275 647.82 304.323 647.829 304.371C647.838 304.418 647.857 304.463 647.884 304.503L650.187 308.061C650.24 308.143 650.322 308.201 650.417 308.222C650.511 308.243 650.61 308.226 650.692 308.174L654.576 305.754C654.623 305.727 654.663 305.691 654.695 305.647C654.726 305.603 654.747 305.553 654.757 305.5C654.767 305.447 654.765 305.392 654.752 305.34C654.739 305.288 654.715 305.239 654.681 305.197Z" fill="black"/>
<path id="Vector_113" opacity="0.1" d="M663.299 282.333L660.892 278.945C660.816 278.839 660.702 278.768 660.575 278.745C660.448 278.723 660.317 278.751 660.21 278.824L656.743 281.171C656.689 281.207 656.643 281.253 656.607 281.307C656.57 281.361 656.545 281.422 656.533 281.486C656.52 281.549 656.52 281.615 656.533 281.679C656.545 281.743 656.57 281.803 656.607 281.857L658.773 285.205C658.807 285.261 658.851 285.308 658.904 285.346C658.956 285.384 659.015 285.411 659.078 285.425C659.141 285.439 659.206 285.441 659.269 285.43C659.333 285.418 659.393 285.394 659.447 285.359L663.115 283.043C663.175 283.011 663.228 282.966 663.271 282.912C663.313 282.858 663.344 282.795 663.361 282.729C663.378 282.662 663.382 282.592 663.371 282.524C663.361 282.456 663.336 282.391 663.299 282.333V282.333Z" fill="black"/>
<path id="Vector_114" opacity="0.1" d="M657.81 286.157L655.443 282.769C655.407 282.715 655.36 282.669 655.306 282.634C655.252 282.598 655.192 282.574 655.129 282.562C655.065 282.55 655 282.55 654.937 282.564C654.874 282.577 654.814 282.603 654.761 282.64L651.294 285.028C651.241 285.063 651.194 285.108 651.158 285.161C651.122 285.215 651.097 285.275 651.085 285.338C651.072 285.401 651.072 285.466 651.084 285.529C651.097 285.592 651.122 285.652 651.158 285.705L653.325 289.062C653.395 289.17 653.505 289.247 653.631 289.275C653.757 289.304 653.888 289.282 653.999 289.215L657.666 286.899C657.728 286.864 657.781 286.815 657.823 286.757C657.864 286.699 657.893 286.632 657.907 286.561C657.921 286.491 657.919 286.419 657.902 286.349C657.886 286.279 657.854 286.214 657.81 286.157V286.157Z" fill="black"/>
<path id="Vector_115" opacity="0.1" d="M652.321 289.981L649.954 286.585C649.878 286.48 649.765 286.408 649.637 286.385C649.51 286.363 649.379 286.391 649.272 286.464L645.805 288.812C645.751 288.847 645.705 288.894 645.669 288.947C645.633 289.001 645.608 289.062 645.595 289.126C645.582 289.19 645.582 289.255 645.595 289.319C645.608 289.383 645.633 289.443 645.669 289.497L647.836 292.845C647.869 292.901 647.913 292.949 647.966 292.987C648.018 293.024 648.078 293.051 648.14 293.065C648.203 293.08 648.268 293.081 648.332 293.07C648.395 293.058 648.456 293.034 648.51 292.999L652.177 290.683C652.234 290.648 652.283 290.602 652.321 290.547C652.36 290.492 652.386 290.429 652.4 290.364C652.414 290.298 652.414 290.23 652.4 290.164C652.386 290.099 652.36 290.036 652.321 289.981V289.981Z" fill="black"/>
<path id="Vector_116" opacity="0.1" d="M646.905 293.902L644.393 290.296C644.337 290.218 644.252 290.165 644.158 290.149C644.064 290.132 643.967 290.153 643.888 290.207L640.212 292.692C640.132 292.748 640.076 292.833 640.056 292.929C640.037 293.025 640.055 293.126 640.108 293.208L642.411 296.766C642.465 296.847 642.547 296.903 642.641 296.924C642.735 296.945 642.834 296.929 642.917 296.879L646.8 294.459C646.849 294.435 646.892 294.399 646.925 294.355C646.958 294.312 646.98 294.261 646.99 294.207C647.001 294.153 646.998 294.097 646.983 294.044C646.968 293.992 646.942 293.943 646.905 293.902V293.902Z" fill="black"/>
<path id="Vector_117" opacity="0.1" d="M711.857 256.669L709.682 253.563C709.56 253.396 709.378 253.283 709.175 253.247C708.972 253.211 708.763 253.255 708.591 253.37L700.101 259.348C699.936 259.468 699.823 259.646 699.784 259.847C699.746 260.048 699.784 260.256 699.892 260.429L701.938 263.608C701.997 263.696 702.073 263.771 702.161 263.83C702.249 263.888 702.347 263.929 702.451 263.949C702.555 263.97 702.661 263.969 702.765 263.948C702.868 263.927 702.966 263.885 703.054 263.826L711.672 257.767C711.837 257.642 711.948 257.459 711.983 257.255C712.017 257.051 711.972 256.841 711.857 256.669V256.669Z" fill="black"/>
<path id="Vector_118" opacity="0.1" d="M656.398 295.798L653.734 292.014C653.707 291.974 653.671 291.939 653.631 291.913C653.59 291.886 653.544 291.868 653.496 291.86C653.448 291.852 653.399 291.853 653.351 291.865C653.304 291.876 653.259 291.897 653.22 291.926L644.056 298.38C643.978 298.434 643.924 298.517 643.906 298.61C643.888 298.704 643.907 298.801 643.96 298.88L646.463 302.777C646.49 302.819 646.525 302.855 646.566 302.883C646.607 302.912 646.653 302.931 646.702 302.941C646.751 302.951 646.801 302.951 646.85 302.94C646.898 302.93 646.944 302.91 646.985 302.882L656.302 296.323C656.383 296.266 656.439 296.179 656.457 296.08C656.475 295.982 656.454 295.881 656.398 295.798V295.798Z" fill="black"/>
<path id="Vector_119" opacity="0.1" d="M685.552 266.859L683.096 263.245C683.041 263.166 682.957 263.111 682.863 263.093C682.769 263.075 682.671 263.095 682.591 263.148L662.24 276.96C662.16 277.014 662.104 277.098 662.085 277.193C662.065 277.288 662.084 277.387 662.136 277.468L664.647 281.341C664.674 281.383 664.709 281.419 664.75 281.447C664.791 281.475 664.837 281.495 664.886 281.505C664.935 281.515 664.985 281.514 665.034 281.504C665.082 281.494 665.128 281.474 665.169 281.446L685.456 267.375C685.496 267.348 685.53 267.313 685.556 267.272C685.583 267.231 685.601 267.185 685.61 267.137C685.619 267.089 685.619 267.04 685.609 266.992C685.599 266.945 685.579 266.899 685.552 266.859V266.859Z" fill="black"/>
</g>
<path id="Vector_120" d="M719.673 267.666L717.651 264.761C717.53 264.593 717.349 264.478 717.145 264.44C716.942 264.403 716.732 264.446 716.559 264.56L713.574 266.593C713.405 266.711 713.287 266.889 713.245 267.092C713.203 267.295 713.241 267.506 713.349 267.682L715.203 270.546C715.318 270.719 715.495 270.841 715.697 270.886C715.898 270.931 716.11 270.896 716.287 270.788L719.448 268.787C719.536 268.729 719.612 268.653 719.671 268.565C719.73 268.477 719.772 268.378 719.792 268.273C719.813 268.169 719.814 268.062 719.793 267.958C719.773 267.853 719.732 267.754 719.673 267.666Z" fill="#464A5F"/>
<path id="Vector_121" d="M714.264 271.409L712.242 268.513C712.121 268.347 711.942 268.233 711.74 268.196C711.539 268.158 711.331 268.199 711.159 268.311L708.166 270.336C707.996 270.454 707.878 270.633 707.837 270.836C707.795 271.038 707.832 271.25 707.941 271.425L709.794 274.289C709.909 274.462 710.086 274.584 710.288 274.629C710.49 274.674 710.701 274.639 710.878 274.531L714.039 272.539C714.129 272.48 714.206 272.404 714.265 272.315C714.325 272.226 714.367 272.127 714.388 272.021C714.409 271.916 714.408 271.808 714.387 271.703C714.366 271.598 714.324 271.498 714.264 271.409Z" fill="#464A5F"/>
<path id="Vector_122" d="M708.647 275.346L706.625 272.45C706.504 272.282 706.323 272.167 706.119 272.129C705.916 272.091 705.706 272.134 705.533 272.248L702.548 274.281C702.379 274.399 702.261 274.578 702.219 274.781C702.177 274.984 702.215 275.195 702.323 275.371L704.177 278.235C704.293 278.406 704.471 278.526 704.672 278.57C704.874 278.613 705.085 278.577 705.261 278.469L708.422 276.476C708.512 276.417 708.588 276.341 708.648 276.252C708.708 276.164 708.749 276.064 708.77 275.959C708.791 275.853 708.791 275.745 708.77 275.64C708.749 275.535 708.707 275.435 708.647 275.346Z" fill="#464A5F"/>
<path id="Vector_123" d="M702.917 279.324L700.895 276.419C700.774 276.253 700.595 276.14 700.393 276.102C700.192 276.065 699.984 276.106 699.812 276.218L696.819 278.251C696.73 278.311 696.655 278.388 696.597 278.477C696.539 278.566 696.499 278.667 696.479 278.772C696.46 278.877 696.461 278.985 696.484 279.089C696.506 279.194 696.549 279.293 696.61 279.38L698.464 282.244C698.578 282.417 698.755 282.539 698.957 282.584C699.159 282.629 699.37 282.594 699.547 282.486L702.701 280.486C702.794 280.426 702.874 280.348 702.936 280.257C702.998 280.165 703.04 280.061 703.061 279.952C703.081 279.843 703.079 279.731 703.054 279.623C703.029 279.515 702.983 279.413 702.917 279.324Z" fill="#464A5F"/>
<path id="Vector_124" d="M697.204 283.301L695.182 280.405C695.061 280.239 694.881 280.125 694.68 280.088C694.478 280.05 694.27 280.091 694.098 280.203L691.105 282.228C690.937 282.347 690.821 282.527 690.781 282.729C690.74 282.932 690.779 283.142 690.888 283.317L692.734 286.181C692.849 286.354 693.026 286.476 693.227 286.521C693.429 286.566 693.641 286.531 693.817 286.423L696.979 284.423C697.067 284.364 697.143 284.288 697.202 284.2C697.261 284.112 697.302 284.013 697.323 283.909C697.344 283.805 697.344 283.697 697.324 283.593C697.303 283.489 697.263 283.39 697.204 283.301Z" fill="#464A5F"/>
<path id="Vector_125" d="M691.739 287.642L689.227 284.043C689.201 284.003 689.166 283.969 689.126 283.943C689.086 283.916 689.042 283.898 688.995 283.889C688.948 283.88 688.899 283.88 688.852 283.89C688.805 283.9 688.761 283.919 688.722 283.947L685.046 286.44C685.006 286.466 684.971 286.5 684.944 286.54C684.916 286.579 684.897 286.624 684.888 286.672C684.878 286.719 684.878 286.768 684.887 286.815C684.896 286.863 684.915 286.908 684.942 286.948L687.245 290.506C687.298 290.588 687.38 290.645 687.475 290.666C687.569 290.687 687.668 290.67 687.751 290.619L691.635 288.198C691.681 288.172 691.722 288.135 691.753 288.091C691.784 288.047 691.805 287.997 691.815 287.944C691.825 287.891 691.823 287.837 691.81 287.785C691.797 287.732 691.773 287.684 691.739 287.642V287.642Z" fill="#464A5F"/>
<path id="Vector_126" d="M686.025 291.619L683.514 288.021C683.486 287.981 683.451 287.946 683.411 287.919C683.37 287.893 683.324 287.874 683.277 287.865C683.229 287.856 683.18 287.857 683.133 287.867C683.085 287.877 683.04 287.896 683 287.924L679.333 290.417C679.292 290.443 679.257 290.477 679.23 290.517C679.203 290.557 679.184 290.602 679.174 290.649C679.164 290.696 679.164 290.745 679.174 290.793C679.183 290.84 679.202 290.885 679.228 290.925L681.531 294.491C681.557 294.532 681.591 294.567 681.631 294.594C681.671 294.622 681.715 294.641 681.762 294.651C681.809 294.66 681.858 294.661 681.905 294.651C681.952 294.642 681.997 294.623 682.037 294.596L685.921 292.176C685.967 292.148 686.006 292.111 686.036 292.067C686.067 292.023 686.087 291.974 686.097 291.921C686.107 291.868 686.106 291.814 686.093 291.762C686.081 291.71 686.058 291.661 686.025 291.619V291.619Z" fill="#464A5F"/>
<path id="Vector_127" d="M680.962 295.145L678.45 291.538C678.394 291.461 678.309 291.408 678.215 291.391C678.121 291.375 678.024 291.396 677.944 291.45L674.269 293.902C674.188 293.958 674.133 294.043 674.113 294.139C674.094 294.236 674.112 294.336 674.165 294.419L676.468 297.977C676.522 298.057 676.604 298.113 676.698 298.134C676.792 298.155 676.891 298.139 676.973 298.089L680.857 295.669C680.899 295.642 680.935 295.607 680.963 295.566C680.991 295.525 681.011 295.478 681.02 295.429C681.03 295.38 681.03 295.33 681.02 295.281C681.01 295.232 680.99 295.186 680.962 295.145V295.145Z" fill="#464A5F"/>
<path id="Vector_128" d="M675.296 299.09L672.784 295.516C672.728 295.438 672.644 295.385 672.55 295.369C672.455 295.352 672.358 295.373 672.279 295.427L668.604 297.912C668.563 297.939 668.528 297.974 668.501 298.014C668.473 298.055 668.454 298.1 668.445 298.148C668.435 298.196 668.435 298.246 668.444 298.294C668.453 298.342 668.472 298.388 668.499 298.428L670.802 301.986C670.856 302.066 670.939 302.123 671.033 302.144C671.127 302.165 671.225 302.149 671.308 302.099L675.192 299.679C675.244 299.653 675.289 299.615 675.324 299.569C675.359 299.522 675.382 299.468 675.392 299.411C675.403 299.354 675.399 299.295 675.382 299.239C675.366 299.183 675.336 299.132 675.296 299.09V299.09Z" fill="#464A5F"/>
<path id="Vector_129" d="M669.807 302.906L667.296 299.308C667.269 299.268 667.235 299.233 667.195 299.207C667.155 299.18 667.11 299.162 667.063 299.153C667.016 299.144 666.968 299.144 666.921 299.154C666.874 299.164 666.829 299.184 666.79 299.211L663.115 301.704C663.074 301.73 663.039 301.764 663.012 301.804C662.985 301.844 662.966 301.889 662.956 301.936C662.947 301.983 662.946 302.032 662.956 302.08C662.965 302.127 662.984 302.172 663.01 302.212L665.314 305.77C665.339 305.811 665.372 305.847 665.412 305.875C665.451 305.903 665.495 305.923 665.543 305.934C665.59 305.944 665.638 305.945 665.686 305.937C665.733 305.928 665.779 305.91 665.819 305.883L669.703 303.463C669.75 303.436 669.79 303.4 669.821 303.356C669.852 303.312 669.874 303.262 669.884 303.209C669.893 303.156 669.892 303.101 669.879 303.049C669.866 302.997 669.841 302.948 669.807 302.906V302.906Z" fill="#464A5F"/>
<path id="Vector_130" d="M664.319 306.73L661.807 303.124C661.75 303.046 661.666 302.993 661.572 302.977C661.477 302.96 661.38 302.981 661.301 303.035L657.626 305.52C657.545 305.576 657.489 305.661 657.47 305.757C657.45 305.853 657.469 305.953 657.521 306.036L659.825 309.594C659.879 309.674 659.961 309.731 660.055 309.752C660.149 309.773 660.247 309.757 660.33 309.707L664.214 307.287C664.261 307.26 664.301 307.224 664.332 307.18C664.364 307.136 664.385 307.086 664.395 307.033C664.405 306.98 664.403 306.925 664.39 306.873C664.377 306.821 664.352 306.772 664.319 306.73V306.73Z" fill="#464A5F"/>
<path id="Vector_131" d="M658.83 310.546L656.318 306.948C656.291 306.908 656.257 306.874 656.217 306.847C656.177 306.82 656.132 306.802 656.085 306.793C656.038 306.784 655.99 306.785 655.943 306.795C655.896 306.805 655.852 306.824 655.812 306.851L652.137 309.344C652.096 309.37 652.062 309.404 652.034 309.444C652.007 309.484 651.988 309.529 651.978 309.576C651.969 309.624 651.968 309.672 651.978 309.72C651.987 309.767 652.006 309.812 652.033 309.852L654.336 313.41C654.361 313.452 654.394 313.487 654.434 313.516C654.473 313.544 654.518 313.564 654.565 313.574C654.612 313.585 654.661 313.586 654.708 313.577C654.756 313.568 654.801 313.55 654.841 313.523L658.725 311.103C658.772 311.076 658.812 311.04 658.843 310.996C658.875 310.952 658.896 310.902 658.906 310.849C658.916 310.796 658.914 310.741 658.901 310.689C658.888 310.637 658.863 310.588 658.83 310.546V310.546Z" fill="#464A5F"/>
<path id="Vector_132" d="M716.054 262.438L714.032 259.533C713.911 259.367 713.731 259.254 713.53 259.216C713.328 259.179 713.12 259.22 712.948 259.332L709.955 261.365C709.787 261.484 709.671 261.663 709.631 261.866C709.59 262.069 709.629 262.279 709.738 262.454L711.584 265.318C711.699 265.491 711.876 265.613 712.077 265.658C712.279 265.703 712.491 265.668 712.667 265.56L715.829 263.559C715.917 263.501 715.993 263.425 716.052 263.337C716.111 263.249 716.152 263.15 716.173 263.046C716.194 262.941 716.194 262.834 716.174 262.73C716.153 262.625 716.112 262.526 716.054 262.438Z" fill="#464A5F"/>
<path id="Vector_133" d="M708.149 250.933L706.127 248.037C706.006 247.871 705.827 247.757 705.625 247.72C705.424 247.682 705.216 247.723 705.044 247.835L702.051 249.86C701.883 249.979 701.767 250.159 701.726 250.361C701.686 250.564 701.725 250.774 701.834 250.949L703.688 253.813C703.802 253.984 703.978 254.104 704.178 254.149C704.377 254.194 704.587 254.161 704.763 254.055L707.925 252.063C708.014 252.004 708.091 251.928 708.151 251.839C708.211 251.75 708.252 251.65 708.273 251.545C708.294 251.44 708.294 251.332 708.273 251.227C708.251 251.122 708.21 251.022 708.149 250.933Z" fill="#464A5F"/>
<path id="Vector_134" d="M710.669 266.157L708.647 263.245C708.526 263.078 708.347 262.965 708.145 262.927C707.944 262.89 707.736 262.931 707.564 263.043L704.57 265.068C704.402 265.187 704.286 265.366 704.246 265.569C704.206 265.772 704.244 265.982 704.354 266.157L706.207 269.021C706.322 269.192 706.497 269.312 706.697 269.357C706.897 269.402 707.107 269.369 707.283 269.263L710.445 267.27C710.62 267.152 710.743 266.969 710.785 266.76C710.827 266.552 710.785 266.335 710.669 266.157Z" fill="#464A5F"/>
<path id="Vector_135" d="M705.02 270.086L703.03 267.19C702.909 267.024 702.729 266.91 702.528 266.872C702.326 266.835 702.118 266.876 701.946 266.988L698.953 269.013C698.783 269.132 698.665 269.313 698.625 269.518C698.585 269.722 698.624 269.935 698.736 270.11L700.582 272.974C700.698 273.146 700.875 273.266 701.077 273.31C701.279 273.353 701.49 273.317 701.665 273.208L704.827 271.216C704.914 271.154 704.988 271.077 705.045 270.987C705.101 270.897 705.14 270.796 705.158 270.691C705.176 270.586 705.173 270.479 705.149 270.375C705.125 270.271 705.081 270.173 705.02 270.086Z" fill="#464A5F"/>
<path id="Vector_136" d="M699.306 274.072L697.284 271.167C697.163 270.999 696.982 270.884 696.778 270.846C696.575 270.809 696.365 270.851 696.193 270.966L693.207 272.999C693.038 273.116 692.92 273.295 692.878 273.498C692.837 273.701 692.874 273.912 692.983 274.088L694.836 276.952C694.951 277.125 695.128 277.246 695.33 277.291C695.532 277.337 695.743 277.302 695.92 277.194L699.081 275.193C699.17 275.134 699.245 275.059 699.305 274.971C699.364 274.883 699.405 274.784 699.426 274.679C699.447 274.575 699.447 274.468 699.426 274.363C699.406 274.259 699.365 274.16 699.306 274.072Z" fill="#464A5F"/>
<path id="Vector_137" d="M702.893 254.862L700.871 251.95C700.75 251.783 700.571 251.67 700.369 251.632C700.168 251.595 699.96 251.636 699.788 251.748L696.794 253.773C696.626 253.892 696.51 254.071 696.47 254.274C696.43 254.477 696.468 254.687 696.578 254.862L698.431 257.726C698.546 257.897 698.721 258.017 698.921 258.062C699.121 258.107 699.331 258.074 699.507 257.968L702.669 255.976C702.844 255.857 702.967 255.674 703.009 255.465C703.051 255.257 703.009 255.04 702.893 254.862V254.862Z" fill="#464A5F"/>
<path id="Vector_138" d="M697.244 258.799L695.222 255.895C695.101 255.729 694.921 255.615 694.72 255.578C694.518 255.54 694.31 255.581 694.138 255.693L691.145 257.726C690.976 257.844 690.858 258.023 690.816 258.226C690.774 258.428 690.812 258.64 690.92 258.815L692.774 261.679C692.889 261.852 693.066 261.974 693.267 262.019C693.469 262.064 693.681 262.029 693.857 261.921L697.019 259.921C697.107 259.862 697.183 259.787 697.242 259.698C697.301 259.61 697.342 259.511 697.363 259.407C697.384 259.303 697.384 259.195 697.364 259.091C697.343 258.987 697.303 258.888 697.244 258.799Z" fill="#464A5F"/>
<path id="Vector_139" d="M691.53 262.777L689.508 259.88C689.387 259.712 689.206 259.597 689.003 259.559C688.799 259.522 688.589 259.564 688.417 259.679L685.431 261.704C685.262 261.822 685.144 262 685.103 262.203C685.061 262.406 685.098 262.617 685.207 262.793L687.06 265.665C687.175 265.838 687.352 265.96 687.554 266.005C687.756 266.05 687.967 266.015 688.144 265.907L691.297 263.906C691.387 263.848 691.465 263.773 691.526 263.684C691.586 263.596 691.628 263.496 691.65 263.391C691.672 263.285 691.672 263.177 691.652 263.072C691.631 262.966 691.59 262.866 691.53 262.777V262.777Z" fill="#464A5F"/>
<path id="Vector_140" d="M693.585 278.049L691.562 275.153C691.442 274.986 691.262 274.873 691.061 274.835C690.859 274.798 690.651 274.839 690.479 274.951L687.486 276.96C687.318 277.079 687.202 277.258 687.161 277.461C687.121 277.664 687.16 277.874 687.269 278.049L689.123 280.913C689.237 281.084 689.413 281.204 689.613 281.249C689.813 281.294 690.022 281.26 690.198 281.155L693.36 279.154C693.534 279.036 693.654 278.854 693.696 278.648C693.738 278.441 693.698 278.226 693.585 278.049V278.049Z" fill="#464A5F"/>
<path id="Vector_141" d="M687.871 282.027L685.849 279.13C685.728 278.964 685.548 278.85 685.347 278.813C685.145 278.775 684.937 278.817 684.765 278.928L681.772 280.994C681.603 281.112 681.485 281.29 681.443 281.493C681.401 281.696 681.439 281.907 681.547 282.083L683.401 284.947C683.516 285.12 683.693 285.242 683.895 285.287C684.096 285.332 684.308 285.297 684.485 285.189L687.646 283.196C687.741 283.138 687.823 283.06 687.887 282.968C687.95 282.876 687.994 282.771 688.015 282.661C688.036 282.551 688.034 282.438 688.01 282.329C687.985 282.219 687.938 282.116 687.871 282.027Z" fill="#464A5F"/>
<path id="Vector_142" d="M682.406 286.367L679.894 282.769C679.868 282.729 679.834 282.694 679.794 282.668C679.754 282.641 679.709 282.623 679.662 282.614C679.615 282.605 679.566 282.605 679.52 282.615C679.473 282.625 679.428 282.645 679.389 282.672L675.746 285.165C675.705 285.191 675.67 285.225 675.643 285.265C675.616 285.305 675.597 285.35 675.587 285.397C675.577 285.444 675.577 285.493 675.586 285.541C675.596 285.588 675.614 285.633 675.641 285.673L677.944 289.231C677.97 289.272 678.003 289.308 678.042 289.336C678.082 289.364 678.126 289.384 678.173 289.395C678.221 289.405 678.269 289.406 678.317 289.398C678.364 289.389 678.41 289.371 678.45 289.344L682.334 286.924C682.377 286.893 682.414 286.855 682.441 286.809C682.468 286.764 682.486 286.714 682.493 286.661C682.499 286.609 682.495 286.556 682.48 286.505C682.465 286.454 682.44 286.407 682.406 286.367V286.367Z" fill="#464A5F"/>
<path id="Vector_143" d="M677.351 289.868L674.839 286.262C674.781 286.184 674.695 286.131 674.6 286.114C674.504 286.098 674.406 286.119 674.325 286.173L670.65 288.658C670.571 288.715 670.516 288.8 670.497 288.896C670.478 288.992 670.495 289.091 670.546 289.175L672.857 292.732C672.909 292.814 672.992 292.872 673.086 292.893C673.181 292.914 673.28 292.897 673.362 292.845L677.238 290.425C677.287 290.4 677.329 290.365 677.362 290.321C677.394 290.278 677.417 290.227 677.428 290.174C677.439 290.12 677.437 290.065 677.424 290.012C677.411 289.959 677.385 289.91 677.351 289.868V289.868Z" fill="#464A5F"/>
<path id="Vector_144" d="M671.677 293.838L669.165 290.231C669.109 290.154 669.025 290.101 668.931 290.084C668.836 290.068 668.739 290.089 668.66 290.143L664.985 292.628C664.904 292.683 664.848 292.768 664.829 292.865C664.809 292.961 664.828 293.061 664.88 293.144L667.183 296.702C667.237 296.782 667.32 296.838 667.414 296.859C667.508 296.88 667.606 296.864 667.689 296.815L671.573 294.394C671.622 294.37 671.664 294.335 671.697 294.291C671.73 294.247 671.753 294.196 671.763 294.142C671.773 294.088 671.77 294.033 671.756 293.98C671.741 293.927 671.714 293.878 671.677 293.838V293.838Z" fill="#464A5F"/>
<path id="Vector_145" d="M666.196 297.654L663.708 294.056C663.682 294.016 663.648 293.981 663.608 293.955C663.568 293.928 663.523 293.91 663.476 293.901C663.429 293.892 663.38 293.892 663.334 293.902C663.287 293.912 663.242 293.931 663.203 293.959L659.528 296.452C659.448 296.506 659.392 296.589 659.372 296.684C659.353 296.779 659.371 296.878 659.423 296.96L661.726 300.518C661.779 300.6 661.862 300.657 661.956 300.679C662.051 300.7 662.15 300.683 662.232 300.631L666.116 298.211C666.162 298.183 666.201 298.145 666.231 298.1C666.26 298.056 666.28 298.005 666.287 297.951C666.295 297.898 666.291 297.844 666.275 297.792C666.259 297.741 666.232 297.694 666.196 297.654V297.654Z" fill="#464A5F"/>
<path id="Vector_146" d="M701.256 264.632L699.242 261.728C699.121 261.559 698.94 261.444 698.737 261.407C698.533 261.369 698.323 261.412 698.151 261.526L695.157 263.559C694.989 263.678 694.873 263.858 694.833 264.06C694.793 264.263 694.831 264.474 694.941 264.648L696.794 267.513C696.91 267.684 697.088 267.804 697.29 267.848C697.491 267.891 697.702 267.855 697.878 267.746L701.032 265.754C701.12 265.695 701.196 265.62 701.255 265.531C701.314 265.443 701.355 265.344 701.376 265.24C701.397 265.136 701.397 265.028 701.376 264.924C701.356 264.82 701.315 264.721 701.256 264.632V264.632Z" fill="#464A5F"/>
<path id="Vector_147" d="M695.543 268.61L693.52 265.713C693.401 265.546 693.222 265.431 693.02 265.392C692.819 265.353 692.61 265.393 692.437 265.504L689.444 267.537C689.276 267.656 689.16 267.835 689.119 268.038C689.079 268.24 689.118 268.451 689.227 268.626L691.081 271.49C691.195 271.661 691.371 271.781 691.571 271.826C691.771 271.871 691.98 271.837 692.156 271.732L695.318 269.731C695.406 269.673 695.482 269.597 695.541 269.509C695.6 269.421 695.641 269.322 695.662 269.217C695.683 269.113 695.683 269.006 695.663 268.902C695.642 268.797 695.601 268.698 695.543 268.61Z" fill="#464A5F"/>
<path id="Vector_148" d="M689.829 272.587L687.783 269.699C687.662 269.53 687.481 269.415 687.277 269.378C687.074 269.34 686.864 269.383 686.691 269.497L683.77 271.514C683.601 271.632 683.483 271.811 683.441 272.014C683.4 272.216 683.437 272.427 683.546 272.603L685.399 275.467C685.514 275.64 685.691 275.762 685.893 275.807C686.094 275.852 686.306 275.817 686.483 275.709L689.644 273.717C689.731 273.655 689.804 273.577 689.86 273.486C689.916 273.396 689.953 273.295 689.97 273.191C689.988 273.086 689.984 272.978 689.96 272.875C689.935 272.771 689.891 272.673 689.829 272.587V272.587Z" fill="#464A5F"/>
<path id="Vector_149" d="M684.107 276.565L682.085 273.668C681.964 273.502 681.785 273.388 681.583 273.351C681.382 273.313 681.174 273.355 681.002 273.467L678.009 275.492C677.841 275.611 677.724 275.79 677.684 275.993C677.644 276.195 677.682 276.406 677.792 276.581L679.646 279.445C679.76 279.616 679.935 279.736 680.135 279.781C680.335 279.826 680.545 279.792 680.721 279.687L683.883 277.694C683.972 277.635 684.049 277.56 684.109 277.471C684.168 277.382 684.21 277.282 684.231 277.177C684.252 277.072 684.252 276.963 684.23 276.858C684.209 276.753 684.167 276.653 684.107 276.565Z" fill="#464A5F"/>
<path id="Vector_150" d="M678.651 280.905L676.139 277.307C676.111 277.267 676.076 277.232 676.036 277.205C675.995 277.179 675.95 277.16 675.902 277.151C675.854 277.142 675.805 277.143 675.758 277.153C675.71 277.163 675.665 277.182 675.625 277.21L671.95 279.703C671.87 279.757 671.814 279.841 671.795 279.936C671.775 280.031 671.793 280.13 671.846 280.211L674.149 283.777C674.175 283.818 674.21 283.853 674.25 283.881C674.291 283.908 674.336 283.927 674.384 283.937C674.432 283.947 674.481 283.947 674.528 283.938C674.576 283.928 674.622 283.909 674.662 283.882L678.538 281.462C678.586 281.436 678.627 281.4 678.659 281.356C678.691 281.313 678.713 281.263 678.723 281.21C678.734 281.157 678.733 281.102 678.721 281.049C678.708 280.997 678.684 280.947 678.651 280.905Z" fill="#464A5F"/>
<path id="Vector_151" d="M673.587 284.431L671.075 280.832C671.049 280.792 671.014 280.758 670.974 280.732C670.934 280.705 670.89 280.687 670.843 280.678C670.796 280.669 670.747 280.669 670.7 280.679C670.653 280.689 670.609 280.708 670.57 280.736L666.918 283.221C666.838 283.276 666.782 283.361 666.762 283.458C666.743 283.554 666.762 283.654 666.814 283.737L669.117 287.295C669.171 287.375 669.254 287.431 669.348 287.452C669.442 287.473 669.54 287.457 669.623 287.408L673.507 284.987C673.552 284.959 673.59 284.921 673.618 284.876C673.647 284.831 673.666 284.78 673.674 284.728C673.681 284.675 673.678 284.621 673.663 284.57C673.648 284.518 673.622 284.471 673.587 284.431V284.431Z" fill="#464A5F"/>
<path id="Vector_152" d="M667.921 288.376L665.41 284.77C665.352 284.691 665.266 284.638 665.171 284.622C665.075 284.605 664.977 284.626 664.896 284.681L661.229 287.166C661.148 287.221 661.092 287.306 661.073 287.403C661.054 287.499 661.072 287.599 661.125 287.682L663.428 291.24C663.48 291.322 663.563 291.379 663.657 291.401C663.752 291.422 663.851 291.405 663.933 291.353L667.817 288.933C667.864 288.906 667.904 288.869 667.935 288.826C667.966 288.782 667.988 288.732 667.998 288.679C668.008 288.626 668.006 288.571 667.993 288.519C667.98 288.466 667.955 288.418 667.921 288.376V288.376Z" fill="#464A5F"/>
<path id="Vector_153" d="M662.433 292.192L659.921 288.594C659.894 288.553 659.858 288.519 659.818 288.492C659.777 288.466 659.732 288.447 659.684 288.438C659.636 288.429 659.587 288.43 659.54 288.44C659.492 288.45 659.447 288.469 659.407 288.497L655.74 290.99C655.7 291.016 655.665 291.05 655.637 291.09C655.61 291.13 655.591 291.175 655.581 291.222C655.572 291.269 655.572 291.318 655.581 291.366C655.59 291.413 655.609 291.458 655.636 291.498L657.939 295.064C657.965 295.105 657.999 295.14 658.038 295.167C658.078 295.195 658.122 295.214 658.17 295.223C658.217 295.233 658.265 295.233 658.312 295.224C658.36 295.215 658.404 295.196 658.444 295.169L662.328 292.749C662.374 292.721 662.413 292.684 662.444 292.64C662.474 292.596 662.495 292.546 662.505 292.494C662.515 292.441 662.513 292.387 662.501 292.335C662.488 292.283 662.465 292.234 662.433 292.192V292.192Z" fill="#464A5F"/>
<path id="Vector_154" d="M660.707 301.478L658.196 297.872C658.138 297.793 658.052 297.74 657.956 297.724C657.861 297.707 657.763 297.728 657.682 297.783L654.007 300.268C653.926 300.324 653.87 300.408 653.851 300.505C653.831 300.601 653.85 300.701 653.902 300.784L656.205 304.342C656.259 304.422 656.342 304.479 656.436 304.5C656.53 304.521 656.628 304.505 656.711 304.455L660.595 302.035C660.643 302.01 660.685 301.974 660.718 301.931C660.751 301.887 660.774 301.837 660.785 301.784C660.795 301.73 660.794 301.675 660.781 301.622C660.767 301.569 660.742 301.52 660.707 301.478V301.478Z" fill="#464A5F"/>
<path id="Vector_155" d="M655.218 305.294L652.707 301.696C652.679 301.656 652.644 301.621 652.604 301.594C652.563 301.568 652.517 301.549 652.47 301.54C652.422 301.531 652.373 301.532 652.326 301.542C652.278 301.552 652.233 301.571 652.193 301.599L648.518 304.092C648.438 304.146 648.382 304.23 648.362 304.325C648.343 304.42 648.361 304.519 648.413 304.6L650.716 308.158C650.743 308.2 650.777 308.236 650.817 308.264C650.857 308.292 650.902 308.312 650.95 308.323C650.998 308.333 651.047 308.334 651.095 308.325C651.143 308.316 651.189 308.298 651.23 308.271L655.106 305.851C655.154 305.826 655.197 305.79 655.229 305.747C655.262 305.704 655.285 305.653 655.296 305.6C655.306 305.546 655.305 305.491 655.292 305.438C655.278 305.385 655.253 305.336 655.218 305.294V305.294Z" fill="#464A5F"/>
<path id="Vector_156" d="M663.829 282.438L661.462 279.041C661.386 278.936 661.272 278.865 661.145 278.842C661.018 278.819 660.887 278.847 660.78 278.92L657.289 281.268C657.182 281.342 657.107 281.455 657.082 281.583C657.056 281.711 657.082 281.844 657.152 281.954L659.319 285.31C659.391 285.419 659.503 285.496 659.631 285.523C659.758 285.55 659.891 285.526 660.001 285.455L663.66 283.14C663.719 283.107 663.771 283.062 663.811 283.008C663.852 282.954 663.881 282.892 663.897 282.826C663.913 282.76 663.915 282.692 663.903 282.625C663.892 282.558 663.866 282.494 663.829 282.438V282.438Z" fill="#464A5F"/>
<path id="Vector_157" d="M658.34 286.254L655.973 282.866C655.936 282.812 655.89 282.766 655.836 282.73C655.782 282.695 655.722 282.67 655.658 282.658C655.595 282.646 655.53 282.647 655.467 282.661C655.404 282.674 655.344 282.7 655.291 282.736L651.824 285.092C651.717 285.164 651.643 285.276 651.617 285.403C651.592 285.53 651.617 285.662 651.687 285.77L653.854 289.126C653.926 289.235 654.038 289.312 654.165 289.34C654.292 289.369 654.425 289.347 654.536 289.279L658.204 286.964C658.259 286.927 658.307 286.879 658.344 286.823C658.381 286.767 658.407 286.704 658.419 286.638C658.432 286.572 658.431 286.504 658.418 286.438C658.404 286.372 658.378 286.31 658.34 286.254V286.254Z" fill="#464A5F"/>
<path id="Vector_158" d="M652.851 290.078L650.444 286.682C650.369 286.577 650.257 286.506 650.131 286.483C650.005 286.46 649.875 286.488 649.77 286.561L646.295 288.908C646.188 288.982 646.113 289.095 646.088 289.223C646.062 289.351 646.088 289.485 646.158 289.594L648.325 292.95C648.397 293.06 648.509 293.136 648.637 293.163C648.764 293.19 648.897 293.166 649.007 293.096L652.675 290.78C652.734 290.748 652.786 290.703 652.828 290.65C652.869 290.596 652.899 290.534 652.916 290.468C652.932 290.402 652.935 290.333 652.924 290.266C652.913 290.199 652.888 290.135 652.851 290.078V290.078Z" fill="#464A5F"/>
<path id="Vector_159" d="M647.442 294.007L644.931 290.401C644.873 290.322 644.787 290.27 644.692 290.253C644.596 290.236 644.498 290.258 644.417 290.312L640.742 292.797C640.663 292.854 640.608 292.939 640.59 293.036C640.572 293.132 640.592 293.231 640.646 293.313L642.949 296.871C643.001 296.953 643.084 297.011 643.178 297.032C643.273 297.053 643.372 297.036 643.454 296.984L647.338 294.564C647.385 294.537 647.425 294.501 647.456 294.457C647.487 294.413 647.509 294.363 647.519 294.31C647.529 294.257 647.527 294.202 647.514 294.15C647.501 294.098 647.476 294.049 647.442 294.007V294.007Z" fill="#464A5F"/>
<path id="Vector_160" d="M712.394 256.79L710.252 253.676C710.13 253.509 709.948 253.396 709.745 253.36C709.542 253.324 709.332 253.368 709.161 253.483L700.622 259.461C700.458 259.581 700.345 259.759 700.306 259.96C700.267 260.161 700.306 260.369 700.414 260.542L702.468 263.721C702.527 263.809 702.603 263.884 702.69 263.943C702.778 264.001 702.877 264.042 702.981 264.062C703.084 264.082 703.191 264.082 703.294 264.061C703.398 264.039 703.496 263.998 703.583 263.938L712.194 257.88C712.359 257.758 712.472 257.578 712.509 257.375C712.547 257.173 712.506 256.963 712.394 256.79Z" fill="#464A5F"/>
<path id="Vector_161" d="M656.928 295.895L654.263 292.111C654.236 292.071 654.201 292.036 654.16 292.01C654.119 291.983 654.073 291.965 654.025 291.957C653.977 291.949 653.928 291.95 653.881 291.961C653.834 291.973 653.789 291.993 653.75 292.023L644.586 298.477C644.507 298.532 644.453 298.616 644.435 298.711C644.417 298.806 644.436 298.904 644.489 298.985L647.001 302.874C647.028 302.916 647.063 302.952 647.104 302.98C647.145 303.008 647.191 303.028 647.24 303.038C647.288 303.048 647.339 303.047 647.387 303.037C647.436 303.027 647.482 303.007 647.523 302.979L656.839 296.419C656.92 296.361 656.974 296.274 656.99 296.175C657.007 296.077 656.984 295.977 656.928 295.895V295.895Z" fill="#464A5F"/>
<path id="Vector_162" d="M686.081 266.956L683.674 263.366C683.619 263.285 683.534 263.228 683.438 263.209C683.342 263.189 683.243 263.208 683.16 263.261L662.818 277.057C662.777 277.083 662.743 277.117 662.715 277.157C662.688 277.197 662.669 277.241 662.659 277.289C662.65 277.336 662.649 277.385 662.659 277.432C662.668 277.48 662.687 277.525 662.713 277.565L665.217 281.438C665.244 281.48 665.279 281.516 665.32 281.544C665.361 281.572 665.407 281.592 665.456 281.602C665.505 281.611 665.555 281.611 665.603 281.601C665.652 281.591 665.698 281.571 665.739 281.542L686.025 267.472C686.1 267.411 686.148 267.322 686.158 267.226C686.169 267.129 686.141 267.032 686.081 266.956V266.956Z" fill="#464A5F"/>
<path id="Vector_163" opacity="0.1" d="M686.178 254.628L675.36 238.823C675.061 238.384 674.601 238.082 674.081 237.982C673.561 237.882 673.023 237.993 672.584 238.291L642.788 258.404C642.569 258.553 642.381 258.744 642.235 258.967C642.089 259.189 641.988 259.438 641.938 259.7C641.888 259.961 641.89 260.23 641.944 260.491C641.997 260.752 642.101 260.999 642.25 261.22L653.276 277.476C653.425 277.697 653.615 277.886 653.836 278.033C654.058 278.179 654.306 278.28 654.566 278.329C654.827 278.379 655.094 278.376 655.354 278.321C655.613 278.266 655.859 278.16 656.077 278.009L685.664 257.428C685.881 257.278 686.067 257.087 686.21 256.865C686.353 256.643 686.452 256.395 686.499 256.135C686.547 255.875 686.543 255.608 686.488 255.349C686.433 255.091 686.327 254.846 686.178 254.628V254.628Z" fill="black"/>
<path id="Vector_164" d="M686.675 254.725L675.858 238.92C675.557 238.483 675.098 238.182 674.578 238.082C674.059 237.982 673.521 238.092 673.081 238.388L643.326 258.517C643.105 258.665 642.915 258.855 642.768 259.077C642.621 259.299 642.519 259.548 642.468 259.81C642.417 260.072 642.419 260.341 642.472 260.603C642.526 260.864 642.63 261.112 642.78 261.333L653.774 277.573C653.922 277.794 654.113 277.983 654.334 278.129C654.555 278.276 654.803 278.377 655.064 278.426C655.324 278.476 655.592 278.473 655.851 278.418C656.11 278.363 656.356 278.257 656.575 278.106L686.178 257.525C686.394 257.374 686.578 257.182 686.719 256.959C686.861 256.737 686.958 256.489 687.004 256.229C687.05 255.968 687.045 255.702 686.989 255.444C686.932 255.186 686.826 254.942 686.675 254.725Z" fill="#939498"/>
<g id="laptop">
<path id="Vector_165" d="M732.023 269.699L699.17 221.994C698.878 221.568 698.506 221.204 698.074 220.922C697.642 220.641 697.159 220.448 696.653 220.355C696.147 220.261 695.628 220.268 695.125 220.377C694.621 220.485 694.145 220.692 693.721 220.985L620.495 271.554C619.639 272.146 619.05 273.054 618.858 274.081C618.666 275.107 618.885 276.168 619.468 277.033L652.233 325.367L732.023 269.699Z" fill="#9C9CA1"/>
<path id="Vector_166" d="M759.315 278.573L732.031 269.755L652.233 325.367L679.951 334.467C680.57 334.674 681.229 334.731 681.874 334.634C682.52 334.537 683.133 334.289 683.666 333.911L759.54 280.05C759.677 279.968 759.786 279.846 759.854 279.701C759.921 279.556 759.945 279.394 759.921 279.236C759.896 279.077 759.826 278.93 759.718 278.812C759.61 278.694 759.47 278.611 759.315 278.573V278.573Z" fill="#464A5F"/>
<path id="Vector_167" d="M753.754 280.268L730.803 272.571L657.192 323.979L679.975 331.442C680.589 331.643 681.241 331.699 681.881 331.604C682.52 331.508 683.128 331.265 683.658 330.893L753.963 281.744C754.099 281.663 754.209 281.543 754.278 281.399C754.347 281.255 754.372 281.094 754.349 280.936C754.327 280.778 754.258 280.63 754.152 280.511C754.046 280.392 753.908 280.307 753.754 280.268V280.268Z" fill="#F3AC30"/>
</g>
</g>
<defs>
<clipPath id="clip0">
<rect width="870" height="612" fill="white"/>
</clipPath>
</defs>
</svg>
