<svg width="32" height="52" viewBox="0 0 32 52" fill="none" xmlns="http://www.w3.org/2000/svg">
<g id="marker">
<path id="Vector" d="M15.7714 51.2633C18.4492 51.2633 20.6199 50.8995 20.6199 50.4508C20.6199 50.0021 18.4492 49.6383 15.7714 49.6383C13.0937 49.6383 10.923 50.0021 10.923 50.4508C10.923 50.8995 13.0937 51.2633 15.7714 51.2633Z" fill="#F3AC30"/>
<path id="Vector_2" d="M12.1676 15.2026C12.1679 13.7273 12.6854 12.2967 13.6339 11.1492C14.5824 10.0017 15.9046 9.20662 17.3801 8.8966C16.4181 8.69478 15.422 8.70585 14.4649 8.92901C13.5078 9.15218 12.6139 9.58178 11.8486 10.1864C11.0833 10.7909 10.4661 11.5552 10.042 12.4231C9.61801 13.2911 9.39793 14.2407 9.39793 15.2026C9.39793 16.1644 9.61801 17.1141 10.042 17.9821C10.4661 18.85 11.0833 19.6142 11.8486 20.2188C12.6139 20.8234 13.5078 21.253 14.4649 21.4762C15.422 21.6993 16.4181 21.7104 17.3801 21.5086C15.9046 21.1986 14.5824 20.4035 13.6339 19.256C12.6854 18.1085 12.1679 16.6779 12.1676 15.2026V15.2026Z" fill="#F3AC30"/>
<path id="Vector_3" d="M4.98715 15.2026C4.9874 11.6839 6.30389 8.28677 8.68862 5.6511C11.0733 3.01543 14.3617 1.32316 17.9342 0.893072C15.8612 0.644646 13.7578 0.829299 11.7633 1.43482C9.76872 2.04034 7.9284 3.05292 6.36404 4.40559C4.79969 5.75827 3.54695 7.42021 2.68869 9.28149C1.83043 11.1428 1.38621 13.161 1.38542 15.2026C1.38542 21.6695 11.1144 39.9059 14.7684 46.5271C14.9011 46.7681 15.0981 46.9694 15.3384 47.1097C15.5787 47.2501 15.8534 47.3242 16.1333 47.3242C16.4133 47.3242 16.688 47.2501 16.9283 47.1097C17.1686 46.9694 17.3656 46.7681 17.4983 46.5271C17.635 46.2793 17.7813 46.0134 17.9342 45.7342C14.0005 38.5555 4.98715 21.4275 4.98715 15.2026Z" fill="#F3AC30"/>
<path id="Vector_4" d="M16.1459 47.4862C15.8405 47.4886 15.5403 47.4089 15.2781 47.2557C15.0159 47.1026 14.8018 46.882 14.6592 46.618C10.6302 39.3175 1.25957 21.6446 1.25957 15.2292C1.25957 11.3697 2.82796 7.66835 5.61972 4.9393C8.41148 2.21024 12.1979 0.677078 16.1461 0.677078C20.0942 0.677078 23.8807 2.21024 26.6724 4.9393C29.4642 7.66835 31.0326 11.3697 31.0326 15.2292C31.0326 21.6452 21.6618 39.3176 17.6328 46.618C17.4902 46.882 17.2761 47.1027 17.0138 47.2558C16.7516 47.4089 16.4514 47.4886 16.1459 47.4862V47.4862ZM16.1461 0.947912C12.2727 0.952182 8.55932 2.45819 5.82046 5.13553C3.08161 7.81286 1.541 11.4429 1.53663 15.2292C1.53663 21.583 10.8842 39.207 14.903 46.4894C15.0238 46.7089 15.2032 46.8922 15.422 47.02C15.6409 47.1478 15.8911 47.2153 16.146 47.2153C16.4009 47.2153 16.6511 47.1478 16.87 47.02C17.0888 46.8922 17.2682 46.7089 17.389 46.4894C21.408 39.2072 30.7555 21.5835 30.7555 15.2292C30.7511 11.4429 29.2105 7.81286 26.4717 5.13553C23.7328 2.45819 20.0194 0.952183 16.1461 0.947912V0.947912Z" fill="#3F3D56"/>
<path id="Vector_5" d="M16.1461 21.8142C14.8138 21.8142 13.5113 21.428 12.4036 20.7044C11.2958 19.9809 10.4323 18.9525 9.92247 17.7492C9.4126 16.546 9.27918 15.2219 9.5391 13.9446C9.79901 12.6672 10.4406 11.4938 11.3827 10.5729C12.3248 9.65197 13.5251 9.0248 14.8318 8.77071C16.1385 8.51663 17.4929 8.64703 18.7239 9.14544C19.9548 9.64384 21.0068 10.4879 21.747 11.5708C22.4872 12.6537 22.8823 13.9268 22.8823 15.2292C22.8803 16.975 22.1699 18.6488 20.9071 19.8833C19.6442 21.1178 17.932 21.8122 16.1461 21.8142V21.8142ZM16.1461 8.91502C14.8686 8.915 13.6197 9.2853 12.5575 9.9791C11.4953 10.6729 10.6673 11.659 10.1784 12.8128C9.68954 13.9665 9.56161 15.2361 9.81083 16.4609C10.06 17.6858 10.6752 18.8109 11.5785 19.6939C12.4819 20.577 13.6328 21.1784 14.8858 21.422C16.1388 21.6657 17.4375 21.5406 18.6178 21.0627C19.7981 20.5848 20.8069 19.7755 21.5166 18.7372C22.2264 17.6988 22.6052 16.478 22.6052 15.2292C22.6033 13.5552 21.9222 11.9503 20.7113 10.7665C19.5004 9.5828 17.8586 8.91694 16.1461 8.91502V8.91502Z" fill="#3F3D56"/>
</g>
</svg>
