<svg width="584" height="652" viewBox="0 0 584 652" fill="none" xmlns="http://www.w3.org/2000/svg">
<g id="undraw_modern_professional_yt9h 1" clip-path="url(#clip0)">
<path id="Vector" d="M531.002 349.261C545.416 312.924 551.297 273.763 548.194 234.795C545.09 195.827 533.084 158.091 513.1 124.494L105 181L496.09 99.4943C472.296 68.5172 441.693 43.4311 406.649 26.178C371.605 8.92501 333.061 -0.0321306 294 -5.44415e-06C153.167 -5.44415e-06 39 114.167 39 255C39.0028 266.639 39.7957 278.265 41.3734 289.797L531.002 349.261Z" fill="#F2F2F2"/>
<path id="Vector_2" d="M56.0445 346.81C92.9025 442.274 185.536 510 294 510C395.778 510 483.617 450.366 524.515 364.139L56.0445 346.81Z" fill="#F2F2F2"/>
<path id="leftcircle" d="M106 124C112.627 124 118 118.627 118 112C118 105.373 112.627 100 106 100C99.3726 100 94 105.373 94 112C94 118.627 99.3726 124 106 124Z" fill="#3F3D56"/>
<path id="rightcircle" d="M538 264C544.627 264 550 258.627 550 252C550 245.373 544.627 240 538 240C531.373 240 526 245.373 526 252C526 258.627 531.373 264 538 264Z" fill="#F3AC30"/>
<path id="Vector_3" d="M125 339H105V359H125V339Z" fill="#F3AC30"/>
<path id="Vector_4" d="M268 193C268 193 301 178.621 316.5 193.81C332 209 275 204 268 193Z" fill="#3F3D56"/>
<path id="hair" d="M324.982 124.805C313.892 106.066 291.952 105.193 291.952 105.193C291.952 105.193 270.572 102.459 256.858 130.998C244.074 157.598 226.431 183.282 254.017 189.509L259 174L262.086 190.663C266.014 190.946 269.954 191.013 273.889 190.865C303.431 189.911 331.565 191.144 330.659 180.543C329.455 166.451 335.653 142.835 324.982 124.805Z" fill="#2F2E41"/>
<path id="Vector_5" d="M294.5 411C325.428 411 350.5 405.18 350.5 398C350.5 390.82 325.428 385 294.5 385C263.572 385 238.5 390.82 238.5 398C238.5 405.18 263.572 411 294.5 411Z" fill="#3F3D56"/>
<path id="Vector_6" d="M339.427 557.506L285.426 561.5L285.573 563.494L339.574 559.501L339.427 557.506Z" fill="#2F2E41"/>
<path id="Vector_7" d="M249.982 550.624L249.018 552.376L269.018 563.376L269.982 561.624L249.982 550.624Z" fill="#2F2E41"/>
<path id="Vector_8" d="M306.5 543.5H288.5V545.5H306.5V543.5Z" fill="#2F2E41"/>
<path id="Vector_9" d="M241.498 650.568L239.502 650.432L254.502 418.432L256.498 418.568L241.498 650.568Z" fill="#2F2E41"/>
<path id="Vector_10" d="M315.501 650.549L305.501 422.549L307.499 422.451L317.499 650.451L315.501 650.549Z" fill="#2F2E41"/>
<path id="Vector_11" d="M335.497 420.418L333.503 420.582L352.503 650.582L354.497 650.418L335.497 420.418Z" fill="#2F2E41"/>
<path id="Vector_12" d="M340.5 464.5C340.5 464.5 326.5 490.5 317.5 490.5C308.5 490.5 309.5 507.5 311.5 511.5C313.5 515.5 318.5 524.5 310.5 537.5C307.706 542.041 308.205 547.192 310.039 551.973C315.177 565.368 335.163 561.309 334.525 546.977C334.518 546.819 334.51 546.66 334.5 546.5C333.5 530.5 341.5 505.5 349.5 499.5C357.5 493.5 364.5 477.5 364.5 477.5L340.5 464.5Z" fill="#FFB8B8"/>
<path id="Vector_13" d="M244.5 458.5C244.5 458.5 258.5 484.5 267.5 484.5C276.5 484.5 275.5 501.5 273.5 505.5C271.5 509.5 266.5 518.5 274.5 531.5C277.294 536.041 276.795 541.192 274.961 545.973C269.823 559.368 249.837 555.309 250.474 540.977C250.482 540.819 250.49 540.66 250.5 540.5C251.5 524.5 243.5 499.5 235.5 493.5C227.5 487.5 220.5 471.5 220.5 471.5L244.5 458.5Z" fill="#FFB8B8"/>
<path id="Vector_14" d="M255.5 330.5L249.5 343.5C249.5 343.5 161.5 372.5 169.5 406.5C177.5 440.5 216.5 493.5 222.5 491.5C228.5 489.5 260.5 483.5 261.5 466.5C262.5 449.5 238.5 419.5 238.5 419.5L271.5 389.5L319.52 388.5L360.5 419.5C360.5 419.5 317.5 457.5 336.5 472.5C355.5 487.5 383.5 497.5 387.5 491.5C391.5 485.5 436.5 396.5 429.5 388.5C422.5 380.5 351.5 350.5 351.5 350.5L332.5 323.5L258.5 319.5L255.5 330.5Z" fill="#2F2E41"/>
<path id="Vector_15" d="M273.5 165.5C273.5 165.5 278.5 198.5 268.5 202.5C258.5 206.5 288.5 223.5 288.5 223.5H305.5L316.5 200.5C316.5 200.5 306.5 182.5 312.5 165.5C318.5 148.5 273.5 165.5 273.5 165.5Z" fill="#FFB8B8"/>
<path id="Vector_16" opacity="0.1" d="M273.5 165.5C273.5 165.5 278.5 198.5 268.5 202.5C258.5 206.5 288.5 223.5 288.5 223.5H305.5L316.5 200.5C316.5 200.5 306.5 182.5 312.5 165.5C318.5 148.5 273.5 165.5 273.5 165.5Z" fill="black"/>
<path id="Vector_17" d="M266.5 193.5C266.5 193.5 277.5 205.5 279.5 207.5C281.5 209.5 290.5 220.5 309.5 204.5C328.5 188.5 330.5 207.5 330.5 207.5V327.5C330.5 327.5 314.5 320.5 301.5 327.5C288.5 334.5 261.5 325.5 261.5 325.5L256.5 201.5L266.5 193.5Z" fill="#D0CDE1"/>
<path id="Vector_18" d="M273.845 193.5C273.845 193.5 264.5 189.5 256.5 193.5C248.5 197.5 220.5 217.5 222.5 226.5C224.5 235.5 250.5 298.5 232.5 328.5C214.5 358.5 211.5 366.5 211.5 366.5L255.5 343.5C255.5 343.5 289.5 322.5 286.5 309.5C283.5 296.5 273.845 193.5 273.845 193.5Z" fill="#3F3D56"/>
<path id="Vector_19" d="M313.512 193.5C313.512 193.5 334.5 195.5 335.5 197.5C336.5 199.5 367 208 365 217C363 226 335.5 306.5 347.5 321.5C359.5 336.5 379.5 357.5 372.5 359.5C365.5 361.5 353.5 356.5 341.5 359.5C329.5 362.5 301.5 337.5 304.5 310.5C307.5 283.5 304.524 200.5 313.512 193.5Z" fill="#3F3D56"/>
<path id="Vector_20" d="M263.5 384.5V394.5C263.5 394.5 258.5 417.5 274.5 416.5C290.5 415.5 280.5 388.5 280.5 388.5L279.5 379.5L263.5 384.5Z" fill="#FFB8B8"/>
<path id="Vector_21" d="M308.5 385.5C308.5 385.5 297.5 408.5 308.5 410.5C319.5 412.5 327.5 397.5 327.5 393.5C327.5 389.5 308.5 385.5 308.5 385.5Z" fill="#FFB8B8"/>
<path id="Vector_22" d="M272.5 650.524L270.5 650.476L276.5 420.476L278.5 420.524L272.5 650.524Z" fill="#2F2E41"/>
<path id="Vector_23" d="M323 156C324.105 156 325 154.209 325 152C325 149.791 324.105 148 323 148C321.895 148 321 149.791 321 152C321 154.209 321.895 156 323 156Z" fill="#FFB8B8"/>
<path id="Vector_24" d="M264 156C265.105 156 266 154.209 266 152C266 149.791 265.105 148 264 148C262.895 148 262 149.791 262 152C262 154.209 262.895 156 264 156Z" fill="#FFB8B8"/>
<path id="Vector_25" d="M340.5 206.5C340.5 206.5 365.5 206.5 364.5 216.5C363.5 226.5 330.5 398.5 330.5 398.5C330.5 398.5 316.5 385.5 304.5 388.5L340.5 206.5Z" fill="#3F3D56"/>
<path id="Vector_26" d="M243.5 209.5C243.5 209.5 218.5 214.5 218.5 229.5C218.5 244.5 254.5 388.5 259.5 388.5C264.5 388.5 283.5 385.5 283.5 380.5C283.5 375.5 243.5 209.5 243.5 209.5Z" fill="#3F3D56"/>
<path id="Vector_27" opacity="0.2" d="M249 239L271.5 326.991C271.5 326.991 261 250 249 239Z" fill="black"/>
<path id="Vector_28" opacity="0.2" d="M336.517 226.636L313.761 341.68C313.761 341.68 321.034 233.272 336.517 226.636Z" fill="black"/>
<path id="Vector_29" d="M293.5 181.5C309.516 181.5 322.5 168.516 322.5 152.5C322.5 136.484 309.516 123.5 293.5 123.5C277.484 123.5 264.5 136.484 264.5 152.5C264.5 168.516 277.484 181.5 293.5 181.5Z" fill="#FFB8B8"/>
<path id="Vector_30" d="M320.079 122.998L298.403 111.644L268.47 116.289L262.277 143.642L277.693 143.049L282 133V142.884L289.114 142.61L293.242 126.611L295.823 143.642L321.112 143.126L320.079 122.998Z" fill="#2F2E41"/>
<path id="Vector_31" d="M556 650H10V652H556V650Z" fill="#2F2E41"/>
<path id="Vector_32" d="M464.583 650.02L462.583 649.98C463.357 627.743 465.729 605.59 469.683 583.693C478.331 536.812 492.712 506.023 512.426 492.182L513.574 493.818C467.522 526.152 464.606 648.784 464.583 650.02Z" fill="#2F2E41"/>
<path id="Vector_33" d="M489.583 649.541L487.583 649.502C487.626 647.287 488.876 595.088 509.426 580.66L510.574 582.297C490.854 596.143 489.593 649.009 489.583 649.541Z" fill="#2F2E41"/>
<path id="Vector_34" d="M525 493C530.523 493 535 488.523 535 483C535 477.477 530.523 473 525 473C519.477 473 515 477.477 515 483C515 488.523 519.477 493 525 493Z" fill="#F3AC30"/>
<path id="Vector_35" d="M520 580C525.523 580 530 575.523 530 570C530 564.477 525.523 560 520 560C514.477 560 510 564.477 510 570C510 575.523 514.477 580 520 580Z" fill="#F3AC30"/>
<path id="Vector_36" d="M484.922 499.995C486.801 511.999 481.903 522.735 481.903 522.735C481.903 522.735 473.958 514.009 472.078 502.005C470.199 490.001 475.097 479.265 475.097 479.265C475.097 479.265 483.042 487.991 484.922 499.995Z" fill="#2F2E41"/>
<path id="Vector_37" d="M517.609 529.148C506.116 533.091 494.69 530.138 494.69 530.138C494.69 530.138 501.898 520.794 513.391 516.852C524.884 512.909 536.31 515.862 536.31 515.862C536.31 515.862 529.102 525.206 517.609 529.148Z" fill="#2F2E41"/>
<path id="Vector_38" d="M517.978 605.31C512.777 606.943 507.237 607.183 501.914 606.003C505.294 601.7 509.846 598.466 515.022 596.691C520.198 594.915 525.776 594.674 531.086 595.997C527.608 600.195 523.088 603.407 517.978 605.31V605.31Z" fill="#2F2E41"/>
<path id="Vector_39" d="M2 192H0V62H128V64H2V192Z" fill="#2F2E41"/>
<path id="Vector_40" d="M583.904 192H581.904V64H455.904V62H583.904V192Z" fill="#2F2E41"/>
<path id="Vector_41" d="M2 302H0V432H128V430H2V302Z" fill="#2F2E41"/>
<path id="Vector_42" d="M583.904 302H581.904V430H455.904V432H583.904V302Z" fill="#2F2E41"/>
<path id="Vector_43" d="M176 123H36V125H176V123Z" fill="#3F3D56"/>
<path id="Vector_44" d="M76 105H74V123.5H76V105Z" fill="#3F3D56"/>
<path id="Vector_45" d="M137 105H135V123.5H137V105Z" fill="#3F3D56"/>
<path id="Vector_46" d="M554 264H414V266H554V264Z" fill="#3F3D56"/>
<path id="Vector_47" d="M454 246H452V264.5H454V246Z" fill="#3F3D56"/>
<path id="Vector_48" d="M515 246H513V264.5H515V246Z" fill="#3F3D56"/>
<path id="Vector_49" d="M185 358H45V360H185V358Z" fill="#3F3D56"/>
<path id="Vector_50" d="M85 340H83V358.5H85V340Z" fill="#3F3D56"/>
<path id="Vector_51" d="M146 340H144V358.5H146V340Z" fill="#3F3D56"/>
<g id="droneleft">
<path id="Vector_52" opacity="0.4" d="M137.032 568.084C145.272 568.084 151.952 561.404 151.952 553.164C151.952 544.924 145.272 538.244 137.032 538.244C128.792 538.244 122.112 544.924 122.112 553.164C122.112 561.404 128.792 568.084 137.032 568.084Z" fill="#F3AC30"/>
<path id="Vector_53" opacity="0.4" d="M109.419 570.756C115.199 570.756 119.885 566.07 119.885 560.29C119.885 554.509 115.199 549.824 109.419 549.824C103.638 549.824 98.9521 554.509 98.9521 560.29C98.9521 566.07 103.638 570.756 109.419 570.756Z" fill="#F3AC30"/>
<path id="Vector_54" d="M92.0247 557C91.753 557 91.4924 557.121 91.3003 557.336C91.1082 557.55 91.0003 557.841 91 558.144V603.856C91.0003 604.159 91.1082 604.45 91.3003 604.664C91.4924 604.879 91.753 605 92.0247 605H98.9751C99.2467 605 99.5073 604.879 99.6994 604.664C99.8915 604.45 99.9997 604.159 100 603.856V558.144C99.9997 557.841 99.8915 557.55 99.6994 557.336C99.5073 557.121 99.2467 557 98.9751 557H92.0247Z" fill="#3F3D56"/>
<path id="Vector_55" d="M146.911 557C146.67 557 146.438 557.121 146.267 557.336C146.096 557.55 146 557.841 146 558.144V603.856C146 604.159 146.096 604.45 146.267 604.664C146.438 604.879 146.67 605 146.911 605H153.089C153.33 605 153.562 604.879 153.733 604.664C153.904 604.45 154 604.159 154 603.856V558.144C154 557.841 153.904 557.55 153.733 557.336C153.562 557.121 153.33 557 153.089 557H146.911Z" fill="#3F3D56"/>
<path id="Vector_56" d="M178 520.541L127 516L167.687 524L177.438 522.054L178 520.541Z" fill="#3F3D56"/>
<path id="Vector_57" d="M167.687 523.64L177.438 521.6L177.533 521.33L178 521.374L177.438 522.96L167.687 525L127 516L139.058 517.739L167.687 523.64Z" fill="#F3AC30"/>
<path id="Vector_58" d="M63 520.541L13 516L52.8897 524L62.4486 522.054L63 520.541Z" fill="#3F3D56"/>
<path id="Vector_59" d="M52.6875 523.64L62.4373 521.6L62.5333 521.33L63 521.374L62.4373 522.96L52.6875 525L12 516L24.0576 517.739L52.6875 523.64Z" fill="#F3AC30"/>
<path id="Vector_60" d="M186 544.304L181.734 544.522L142.656 563.848L140.42 566.043L133.329 573H111.074L104.372 566.043L101.823 563.398L64.3383 544.739L61 544.304L72.1276 538H72.1869C74.7092 535.193 96.5527 533 123.129 533C149.705 533 171.549 535.193 174.071 538H174.316L186 544.304Z" fill="#3F3D56"/>
<path id="Vector_61" d="M71.586 538.683C71.6639 538.421 71.704 538.146 71.7043 537.868V527.499C71.7043 526.848 71.4879 526.223 71.1026 525.762C70.7173 525.302 70.1945 525.043 69.6498 525.043H68.8154C69.5004 524.216 69.9655 523.166 70.152 522.024C70.3387 520.882 70.2383 519.7 69.8639 518.626C69.4893 517.552 68.8574 516.635 68.0476 515.99C67.2377 515.344 66.2863 515 65.313 515C64.3399 515 63.3883 515.344 62.5785 515.99C61.7688 516.635 61.1367 517.552 60.7623 518.626C60.3877 519.7 60.2875 520.882 60.474 522.024C60.6607 523.166 61.1256 524.216 61.8106 525.043H60.9765C60.7067 525.043 60.4394 525.106 60.1901 525.23C59.9408 525.353 59.7143 525.534 59.5237 525.762C59.3328 525.99 59.1814 526.261 59.078 526.559C58.9749 526.857 58.9218 527.177 58.9218 527.499V537.868C58.9215 538.292 59.014 538.71 59.1901 539.078C58.5699 539.208 57.9497 539.349 57.3294 539.513C56.9518 539.614 56.614 539.866 56.3724 540.227C56.1306 540.588 55.9993 541.038 56 541.5V543.964C56 544.504 56.1795 545.022 56.4988 545.404C56.8183 545.785 57.2515 546 57.7031 546H77V539.888C75.2183 539.351 73.4101 538.949 71.586 538.683Z" fill="#3F3D56"/>
<path id="Vector_62" d="M187.67 539.513C187.05 539.349 186.43 539.208 185.81 539.078C185.986 538.71 186.078 538.292 186.078 537.868V527.499C186.078 527.177 186.025 526.857 185.922 526.559C185.819 526.261 185.667 525.99 185.476 525.762C185.286 525.534 185.059 525.353 184.81 525.23C184.561 525.106 184.293 525.043 184.024 525.043H183.189C183.874 524.216 184.339 523.166 184.526 522.024C184.712 520.882 184.612 519.7 184.238 518.626C183.863 517.552 183.231 516.635 182.421 515.99C181.611 515.344 180.66 515 179.687 515C178.714 515 177.762 515.344 176.952 515.99C176.143 516.635 175.51 517.552 175.136 518.626C174.762 519.7 174.661 520.882 174.848 522.024C175.034 523.166 175.5 524.216 176.185 525.043H175.35C175.08 525.043 174.813 525.106 174.564 525.23C174.315 525.353 174.088 525.534 173.897 525.762C173.707 525.99 173.555 526.261 173.452 526.559C173.349 526.857 173.296 527.177 173.296 527.499V537.868C173.296 538.146 173.336 538.421 173.414 538.683C171.59 538.949 169.782 539.351 168 539.888V546H187.297C187.748 546 188.182 545.785 188.501 545.404C188.82 545.022 189 544.504 189 543.964V541.5C189.001 541.038 188.869 540.588 188.628 540.227C188.386 539.866 188.048 539.614 187.67 539.513Z" fill="#3F3D56"/>
<path id="Vector_63" d="M182 520.541L233 516L192.313 524L182.562 522.054L182 520.541Z" fill="#3F3D56"/>
<path id="Vector_64" d="M125.836 572H118.164C117.88 572 117.598 572.064 117.336 572.187C117.073 572.311 116.835 572.493 116.634 572.721C116.433 572.95 116.274 573.221 116.165 573.52C116.056 573.819 116 574.139 116 574.463V576.365C116 576.865 116.134 577.353 116.384 577.764C116.634 578.175 116.988 578.49 117.399 578.666C117.082 579.1 116.909 579.646 116.909 580.21V580.756C116.909 581.145 116.992 581.528 117.15 581.873C117.308 582.218 117.537 582.514 117.818 582.737V590H126.182V582.737C126.462 582.514 126.692 582.218 126.85 581.873C127.008 581.528 127.091 581.145 127.091 580.756V580.21C127.091 579.646 126.918 579.1 126.601 578.666C127.012 578.49 127.366 578.175 127.616 577.764C127.866 577.353 128 576.865 128 576.365V574.463C128 574.139 127.944 573.819 127.835 573.52C127.726 573.221 127.567 572.95 127.366 572.721C127.165 572.493 126.927 572.311 126.664 572.187C126.402 572.064 126.12 572 125.836 572Z" fill="#3F3D56"/>
<path id="Vector_65" d="M114.347 589C113.99 589.001 113.648 589.169 113.395 589.469C113.142 589.768 113.001 590.174 113 590.598V603.402C113 603.825 113.142 604.232 113.395 604.531C113.648 604.831 113.99 604.999 114.347 605H130.653C131.01 604.999 131.352 604.831 131.605 604.531C131.857 604.232 131.999 603.825 132 603.402V590.598C131.999 590.174 131.857 589.768 131.605 589.469C131.352 589.169 131.01 589.001 130.653 589H114.347Z" fill="#F3AC30"/>
<path id="Vector_66" d="M140 566.333L132.919 573H110.694L104 566.333H110.657L110.947 564.702C111.033 564.222 111.263 563.791 111.599 563.48C111.936 563.17 112.357 563 112.792 563H131.376C131.812 563 132.233 563.17 132.569 563.48C132.906 563.791 133.136 564.222 133.221 564.702L133.512 566.333H140Z" fill="#F3AC30"/>
<path id="Vector_67" d="M122 603C124.761 603 127 600.314 127 597C127 593.686 124.761 591 122 591C119.239 591 117 593.686 117 597C117 600.314 119.239 603 122 603Z" fill="#3F3D56"/>
<path id="Vector_68" d="M122 601C123.657 601 125 599.433 125 597.5C125 595.567 123.657 594 122 594C120.343 594 119 595.567 119 597.5C119 599.433 120.343 601 122 601Z" fill="#E6E6E6"/>
<path id="Vector_69" d="M123.898 594C124.307 594.749 124.507 595.681 124.462 596.622C124.417 597.562 124.13 598.449 123.654 599.115C123.178 599.782 122.545 600.184 121.873 600.247C121.201 600.31 120.536 600.03 120 599.458C120.24 599.901 120.545 600.267 120.895 600.532C121.245 600.796 121.631 600.953 122.027 600.991C122.424 601.029 122.822 600.947 123.194 600.752C123.566 600.557 123.904 600.252 124.185 599.859C124.466 599.465 124.684 598.992 124.823 598.471C124.963 597.95 125.021 597.393 124.994 596.838C124.966 596.283 124.854 595.742 124.666 595.253C124.477 594.763 124.215 594.336 123.898 594Z" fill="white"/>
<path id="Vector_70" d="M189 542H56V543H189V542Z" fill="#E6E6E6"/>
<path id="Vector_71" d="M192.313 523.64L182.562 521.6L182.467 521.33L182 521.374L182.562 522.96L192.313 525L233 516L220.942 517.739L192.313 523.64Z" fill="#F3AC30"/>
<path id="Vector_72" d="M68 520.541L118 516L78.1103 524L68.5516 522.054L68 520.541Z" fill="#3F3D56"/>
<path id="Vector_73" d="M78.3125 523.64L68.5624 521.6L68.4667 521.33L68 521.374L68.5624 522.96L78.3125 525L119 516L106.942 517.739L78.3125 523.64Z" fill="#F3AC30"/>
<path id="Vector_74" d="M130 565H115V568H130V565Z" fill="#E6E6E6"/>
</g>
<g id="droneright">
<path id="Vector_75" d="M375.821 90.2157H372.985C368.827 90.2157 365.457 93.7847 365.457 98.1874V103.337C365.457 107.74 368.827 111.309 372.985 111.309H375.821C379.978 111.309 383.348 107.74 383.348 103.337V98.1874C383.348 93.7847 379.978 90.2157 375.821 90.2157Z" fill="#FC6681"/>
<path id="Vector_76" d="M377.7 85.5677H371.44C370.185 85.5677 369.168 86.645 369.168 87.9739V88.8828C369.168 90.2116 370.185 91.289 371.44 91.289H377.7C378.955 91.289 379.973 90.2116 379.973 88.8828V87.9739C379.973 86.645 378.955 85.5677 377.7 85.5677Z" fill="white"/>
<path id="Vector_77" d="M374.873 75.9169H373.589C371.707 75.9169 370.181 77.5328 370.181 79.5262V85.1782C370.181 87.1716 371.707 88.7875 373.589 88.7875H374.873C376.755 88.7875 378.281 87.1716 378.281 85.1782V79.5262C378.281 77.5328 376.755 75.9169 374.873 75.9169Z" fill="white"/>
<path id="Vector_78" d="M353.304 85.5677C365.794 85.5677 375.919 84.1261 375.919 82.3479C375.919 80.5696 365.794 79.1281 353.304 79.1281C340.814 79.1281 330.689 80.5696 330.689 82.3479C330.689 84.1261 340.814 85.5677 353.304 85.5677Z" fill="#4A4347"/>
<g id="drone1">
<path id="Vector_79" d="M558.84 76.4276C553.02 76.3673 547.201 76.7491 541.432 77.5701C541.432 76.3959 540.991 75.2698 540.207 74.4395C539.424 73.6093 538.36 73.1428 537.251 73.1428C536.142 73.1428 535.079 73.6093 534.295 74.4395C533.511 75.2698 533.071 76.3959 533.071 77.5701C527.301 76.7491 521.483 76.3673 515.662 76.4276C502.773 76.4276 492.328 77.9509 492.328 79.8378C492.328 81.7247 502.789 83.2221 515.678 83.2221C521.499 83.2824 527.318 82.9005 533.087 82.0796C533.087 82.626 533.179 83.1681 533.357 83.6808C532.977 83.9411 532.66 84.2924 532.431 84.7066C532.203 85.1207 532.069 85.5858 532.042 86.0645C532.016 86.5431 532.096 87.0218 532.275 87.4618C532.455 87.9018 532.731 88.2907 533.079 88.5971C532.056 88.9824 531.121 89.5894 530.334 90.3794C529.545 91.1693 528.921 92.1248 528.502 93.1845C527.355 92.228 525.955 91.6742 524.497 91.6006L481.131 89.4886C479.58 87.2035 477.54 85.3405 475.177 84.0526C472.814 82.7647 470.196 82.0884 467.539 82.0796H440.2C437.523 82.0893 434.887 82.7762 432.512 84.083C430.136 85.3898 428.09 87.2787 426.543 89.5925L385.334 91.6006C383.985 91.6671 382.682 92.1449 381.583 92.9768C380.784 91.1004 379.353 89.6068 377.57 88.7876C377.961 88.5075 378.282 88.1297 378.503 87.6874C378.724 87.2451 378.838 86.7519 378.837 86.2515C378.84 85.6212 378.656 85.0057 378.311 84.4918C377.967 83.9778 377.479 83.5912 376.916 83.3865C377.033 82.9649 377.094 82.5278 377.096 82.0882C382.865 82.9093 388.683 83.2911 394.504 83.2307C407.393 83.2307 417.838 81.7074 417.838 79.8205C417.838 77.9336 407.393 76.4103 394.504 76.4103C388.683 76.3499 382.865 76.7318 377.096 77.5528C377.111 76.3628 376.68 75.2151 375.897 74.3615C375.114 73.5079 374.043 73.0182 372.919 73C371.796 73.0182 370.725 73.5079 369.942 74.3615C369.159 75.2151 368.728 76.3628 368.743 77.5528C362.973 76.7318 357.155 76.3499 351.334 76.4103C338.445 76.4103 328 77.9336 328 79.8205C328 81.7074 338.429 83.2221 351.318 83.2221C357.139 83.2824 362.957 82.9005 368.726 82.0796C368.727 82.626 368.818 83.1681 368.996 83.6808C368.607 83.9487 368.284 84.312 368.055 84.7399C367.826 85.1678 367.698 85.6479 367.681 86.1393C367.664 86.6309 367.759 87.1195 367.958 87.5638C368.157 88.0082 368.454 88.3953 368.825 88.6923C367.353 89.3133 366.092 90.3879 365.205 91.7768C364.317 93.1658 363.844 94.8052 363.847 96.4823V102.091C363.833 103.177 364.021 104.254 364.4 105.263C364.78 106.272 365.343 107.191 366.058 107.969C366.773 108.747 367.626 109.368 368.567 109.797C369.509 110.226 370.521 110.455 371.546 110.469H374.611C375.82 110.465 377.009 110.155 378.082 109.567C379.156 108.978 380.081 108.128 380.782 107.085C382.039 108.37 383.702 109.113 385.449 109.171L425.856 110.4C427.137 112.606 428.844 114.5 430.866 115.957C427 120.233 411.913 139.206 414.34 172.642C414.34 172.642 416.792 177.567 423.045 172.642C423.045 172.642 419.04 135.423 441.467 120.051C441.831 121.226 442.534 122.251 443.477 122.98C444.419 123.71 445.554 124.108 446.722 124.119H449.583C446.758 125.363 444.348 127.47 442.659 130.171C440.971 132.872 440.081 136.044 440.102 139.284C440.036 141.41 440.374 143.529 441.097 145.514C441.819 147.499 442.911 149.31 444.308 150.839C445.705 152.368 447.378 153.584 449.228 154.415C451.078 155.245 453.066 155.673 455.075 155.673C457.084 155.673 459.072 155.245 460.922 154.415C462.772 153.584 464.445 152.368 465.842 150.839C467.239 149.31 468.331 147.499 469.053 145.514C469.776 143.529 470.114 141.41 470.048 139.284C470.069 136.044 469.179 132.872 467.491 130.171C465.802 127.47 463.392 125.363 460.567 124.119H463.428C464.596 124.108 465.731 123.71 466.673 122.98C467.616 122.251 468.319 121.226 468.683 120.051C491.11 135.397 487.105 172.642 487.105 172.642C493.374 177.567 495.81 172.642 495.81 172.642C498.597 134.359 478.401 115.022 478.401 115.022H478.033C479.524 113.737 480.802 112.198 481.817 110.469L524.317 109.171C526.173 109.12 527.936 108.296 529.221 106.877C529.915 107.979 530.855 108.883 531.957 109.509C533.058 110.135 534.288 110.465 535.539 110.469H538.604C539.629 110.455 540.641 110.226 541.583 109.797C542.524 109.368 543.377 108.747 544.092 107.969C544.807 107.191 545.37 106.272 545.75 105.263C546.129 104.254 546.317 103.177 546.303 102.091V96.4823C546.311 94.8801 545.886 93.3088 545.079 91.9544C544.27 90.6 543.112 89.519 541.742 88.8395C542.214 88.5459 542.597 88.1158 542.846 87.5998C543.096 87.0837 543.2 86.5031 543.149 85.9261C543.097 85.3491 542.891 84.7995 542.556 84.3421C542.22 83.8846 541.768 83.5381 541.252 83.3433C541.37 82.9217 541.43 82.4846 541.432 82.0449C547.2 82.8775 553.019 83.2709 558.84 83.2221C571.729 83.2221 582.175 81.6987 582.175 79.8118C582.175 77.925 571.738 76.4276 558.84 76.4276Z" fill="url(#paint0_linear)"/>
<path id="Vector_80" d="M453.906 153.851C461.923 153.851 468.422 146.968 468.422 138.479C468.422 129.989 461.923 123.106 453.906 123.106C445.889 123.106 439.391 129.989 439.391 138.479C439.391 146.968 445.889 153.851 453.906 153.851Z" fill="#6C63FF"/>
<path id="Vector_81" d="M453.906 148.848C459.314 148.848 463.698 144.205 463.698 138.479C463.698 132.752 459.314 128.109 453.906 128.109C448.499 128.109 444.115 132.752 444.115 138.479C444.115 144.205 448.499 148.848 453.906 148.848Z" fill="#6C63FF"/>
<path id="Vector_82" opacity="0.2" d="M453.906 148.848C459.314 148.848 463.698 144.205 463.698 138.479C463.698 132.752 459.314 128.109 453.906 128.109C448.499 128.109 444.115 132.752 444.115 138.479C444.115 144.205 448.499 148.848 453.906 148.848Z" fill="#F5F5F5"/>
<path id="Vector_83" d="M453.906 145.273C457.449 145.273 460.322 142.231 460.322 138.479C460.322 134.726 457.449 131.684 453.906 131.684C450.363 131.684 447.49 134.726 447.49 138.479C447.49 142.231 450.363 145.273 453.906 145.273Z" fill="#6C63FF"/>
<path id="Vector_84" opacity="0.25" d="M453.906 145.273C457.449 145.273 460.322 142.231 460.322 138.479C460.322 134.726 457.449 131.684 453.906 131.684C450.363 131.684 447.49 134.726 447.49 138.479C447.49 142.231 450.363 145.273 453.906 145.273Z" fill="black"/>
<path id="Vector_85" d="M431.283 115.594C431.283 115.594 411.668 133.831 414.406 169.933C414.406 169.933 416.768 174.58 422.849 169.933C422.849 169.933 417.781 124.171 451.544 115.594H431.283Z" fill="#FCFF63"/>
<path id="Vector_86" d="M476.521 115.594C476.521 115.594 496.136 133.831 493.398 169.933C493.398 169.933 491.036 174.58 484.956 169.933C484.956 169.933 490.023 124.171 456.26 115.594H476.521Z" fill="#FCFF63"/>
<path id="Vector_87" d="M468.585 84.4944H436.874C429.223 84.4944 423.02 91.0629 423.02 99.1655V104.679C423.02 112.782 429.223 119.35 436.874 119.35H468.585C476.236 119.35 482.438 112.782 482.438 104.679V99.1655C482.438 91.0629 476.236 84.4944 468.585 84.4944Z" fill="#FC6681"/>
<path id="Vector_88" d="M432.746 111.448L386.388 110.054C384.579 110 382.861 109.201 381.599 107.828C380.337 106.454 379.631 104.613 379.629 102.697V100.81C379.63 98.9137 380.321 97.0905 381.558 95.7201C382.796 94.3496 384.485 93.5376 386.274 93.4528L432.632 91.2544C433.57 91.2099 434.507 91.3673 435.387 91.717C436.266 92.0667 437.07 92.6014 437.749 93.2889C438.428 93.9765 438.968 94.8026 439.338 95.7174C439.707 96.6321 439.898 97.6166 439.898 98.6115V104.073C439.899 105.059 439.714 106.035 439.352 106.943C438.991 107.852 438.462 108.674 437.795 109.362C437.128 110.05 436.337 110.589 435.47 110.947C434.603 111.305 433.676 111.475 432.746 111.448Z" fill="#6C63FF"/>
<path id="Vector_89" d="M474.723 111.448L521.081 110.054C522.889 110 524.607 109.201 525.869 107.828C527.132 106.454 527.838 104.613 527.84 102.697V100.81C527.84 98.9137 527.148 97.0905 525.911 95.7201C524.673 94.3496 522.984 93.5376 521.195 93.4528L474.837 91.2544C473.899 91.2099 472.962 91.3673 472.082 91.717C471.203 92.0667 470.399 92.6014 469.72 93.2889C469.041 93.9765 468.501 94.8026 468.131 95.7174C467.762 96.6321 467.572 97.6166 467.572 98.6115V104.073C467.57 105.059 467.755 106.035 468.117 106.943C468.478 107.852 469.008 108.674 469.674 109.362C470.341 110.05 471.132 110.589 471.999 110.947C472.866 111.305 473.793 111.475 474.723 111.448Z" fill="#6C63FF"/>
<path id="Vector_90" opacity="0.2" d="M432.746 111.448L386.388 110.054C384.579 110 382.861 109.201 381.599 107.828C380.337 106.454 379.631 104.613 379.629 102.697V100.81C379.63 98.9137 380.321 97.0905 381.558 95.7201C382.796 94.3496 384.485 93.5376 386.274 93.4528L432.632 91.2544C433.57 91.2099 434.507 91.3673 435.387 91.717C436.266 92.0667 437.07 92.6014 437.749 93.2889C438.428 93.9765 438.968 94.8026 439.338 95.7174C439.707 96.6321 439.898 97.6166 439.898 98.6115V104.073C439.899 105.059 439.714 106.035 439.352 106.943C438.991 107.852 438.462 108.674 437.795 109.362C437.128 110.05 436.337 110.589 435.47 110.947C434.603 111.305 433.676 111.475 432.746 111.448Z" fill="#F5F5F5"/>
<path id="Vector_91" opacity="0.2" d="M474.723 111.448L521.081 110.054C522.889 110 524.607 109.201 525.869 107.828C527.132 106.454 527.838 104.613 527.84 102.697V100.81C527.84 98.9137 527.148 97.0905 525.911 95.7201C524.673 94.3496 522.984 93.5376 521.195 93.4528L474.837 91.2544C473.899 91.2099 472.962 91.3673 472.082 91.717C471.203 92.0667 470.399 92.6014 469.72 93.2889C469.041 93.9765 468.501 94.8026 468.131 95.7174C467.762 96.6321 467.572 97.6166 467.572 98.6115V104.073C467.57 105.059 467.755 106.035 468.117 106.943C468.478 107.852 469.008 108.674 469.674 109.362C470.341 110.05 471.132 110.589 471.999 110.947C472.866 111.305 473.793 111.475 474.723 111.448Z" fill="#F5F5F5"/>
<path id="Vector_92" d="M534.828 90.2157H531.992C527.834 90.2157 524.464 93.7847 524.464 98.1874V103.337C524.464 107.74 527.834 111.309 531.992 111.309H534.828C538.985 111.309 542.355 107.74 542.355 103.337V98.1874C542.355 93.7847 538.985 90.2157 534.828 90.2157Z" fill="#FC6681"/>
<path id="Vector_93" d="M395.166 85.5677C407.656 85.5677 417.781 84.1261 417.781 82.3479C417.781 80.5696 407.656 79.1281 395.166 79.1281C382.676 79.1281 372.551 80.5696 372.551 82.3479C372.551 84.1261 382.676 85.5677 395.166 85.5677Z" fill="#4A4347"/>
<path id="Vector_94" d="M537.051 85.5677H530.79C529.536 85.5677 528.518 86.645 528.518 87.9739V88.8828C528.518 90.2116 529.536 91.289 530.79 91.289H537.051C538.305 91.289 539.323 90.2116 539.323 88.8828V87.9739C539.323 86.645 538.305 85.5677 537.051 85.5677Z" fill="white"/>
<path id="Vector_95" d="M534.223 75.9169H532.94C531.058 75.9169 529.532 77.5328 529.532 79.5262V85.1782C529.532 87.1716 531.058 88.7875 532.94 88.7875H534.223C536.105 88.7875 537.631 87.1716 537.631 85.1782V79.5262C537.631 77.5328 536.105 75.9169 534.223 75.9169Z" fill="white"/>
<path id="Vector_96" d="M512.646 85.5677C525.136 85.5677 535.261 84.1261 535.261 82.3479C535.261 80.5696 525.136 79.1281 512.646 79.1281C500.156 79.1281 490.031 80.5696 490.031 82.3479C490.031 84.1261 500.156 85.5677 512.646 85.5677Z" fill="#4A4347"/>
<path id="Vector_97" d="M554.509 85.5677C566.999 85.5677 577.123 84.1261 577.123 82.3479C577.123 80.5696 566.999 79.1281 554.509 79.1281C542.018 79.1281 531.894 80.5696 531.894 82.3479C531.894 84.1261 542.018 85.5677 554.509 85.5677Z" fill="#4A4347"/>
<path id="Vector_98" d="M462.864 112.737H444.949C442.439 112.737 440.404 114.892 440.404 117.55V119.367C440.404 122.025 442.439 124.18 444.949 124.18H462.864C465.374 124.18 467.408 122.025 467.408 119.367V117.55C467.408 114.892 465.374 112.737 462.864 112.737Z" fill="#6C63FF"/>
<path id="Vector_99" opacity="0.2" d="M462.864 112.737H444.949C442.439 112.737 440.404 114.892 440.404 117.55V119.367C440.404 122.025 442.439 124.18 444.949 124.18H462.864C465.374 124.18 467.408 122.025 467.408 119.367V117.55C467.408 114.892 465.374 112.737 462.864 112.737Z" fill="#F5F5F5"/>
</g>
</g>
</g>
<defs>
<linearGradient id="paint0_linear" x1="455.083" y1="174.901" x2="455.083" y2="73.0173" gradientUnits="userSpaceOnUse">
<stop stop-color="#808080" stop-opacity="0.25"/>
<stop offset="0.54" stop-color="#808080" stop-opacity="0.12"/>
<stop offset="1" stop-color="#808080" stop-opacity="0.1"/>
</linearGradient>
<clipPath id="clip0">
<rect width="583.904" height="652" fill="white"/>
</clipPath>
</defs>
</svg>
