<svg width="634" height="550" viewBox="0 0 634 550" fill="none" xmlns="http://www.w3.org/2000/svg">
<g id="undraw_processing_qj6a 1" clip-path="url(#clip0)">
<path id="Vector" d="M279.244 0H0V390.78H279.244V0Z" fill="url(#paint0_linear)"/>
<path id="Vector_2" d="M274.207 5.96609H16.5532V383.322H274.207V5.96609Z" fill="white"/>
<path id="Vector_3" d="M16.5531 5.96609H4.31821V383.322H16.5531V5.96609Z" fill="#F5F5F5"/>
<path id="Vector_4" d="M231.744 285.627H59.0156V290.102H231.744V285.627Z" fill="#E0E0E0"/>
<path id="Vector_5" opacity="0.4" d="M231.744 302.78H59.0156V307.254H231.744V302.78Z" fill="#69F0AE"/>
<path id="Vector_6" opacity="0.4" d="M231.744 319.932H59.0156V324.407H231.744V319.932Z" fill="#FFFF00"/>
<path id="Vector_7" d="M231.744 337.085H59.0156V341.559H231.744V337.085Z" fill="#E0E0E0"/>
<path id="Vector_8" d="M231.744 354.237H59.0156V358.712H231.744V354.237Z" fill="#E0E0E0"/>
<path id="gear4" d="M116.268 66.7831C116.34 65.9553 116.383 65.12 116.383 64.2773C116.383 61.6789 116.032 59.0934 115.339 56.5959L112.209 56.7525L110.769 52.6658L112.792 50.3763C111.134 47.3971 108.963 44.7582 106.386 42.5905L103.918 44.5742L100.478 42.0834L100.873 39.0034C97.8715 37.5395 94.6329 36.667 91.323 36.4305L90.3946 39.5254H86.1987L84.8169 36.7661C79.9819 37.6363 75.4692 39.8621 71.7687 43.202L73.2081 46.0658L70.2429 49.1383L67.3641 48.2061C65.4469 51.0127 64.0486 54.1634 63.2402 57.4983L66.0327 58.9898L65.313 63.2705L62.4341 64.2027C62.4341 64.2027 62.4341 64.2475 62.4341 64.2698C62.4333 67.6868 63.0408 71.0745 64.2262 74.2631L67.3353 73.8231L69.1058 77.7607L67.2849 80.2217C69.1831 83.0424 71.5638 85.479 74.3092 87.4109L76.6051 85.1736L80.2396 87.3512L80.11 90.4685C83.0832 91.6012 86.2264 92.1794 89.3942 92.1763H89.8476L90.5097 89.0068L94.6912 88.6264L96.3033 91.2515C99.5101 90.3678 102.531 88.8759 105.213 86.8515L104.004 83.8685L107.221 81.0719L109.985 82.2576C112.128 79.6315 113.785 76.6178 114.872 73.3681L112.223 71.638L113.31 67.4393L116.268 66.7831ZM89.423 85.1885C85.4374 85.1885 81.5412 83.9638 78.2273 81.6693C74.9134 79.3749 72.3305 76.1136 70.8053 72.2981C69.28 68.4825 68.881 64.284 69.6585 60.2334C70.4361 56.1828 72.3553 52.4621 75.1736 49.5418C77.9918 46.6215 81.5825 44.6327 85.4916 43.827C89.4006 43.0213 93.4524 43.4348 97.1347 45.0153C100.817 46.5957 103.964 49.2721 106.178 52.7061C108.393 56.14 109.575 60.1772 109.575 64.3071C109.561 69.841 107.434 75.1442 103.658 79.0572C99.8814 82.9703 94.7634 85.1747 89.423 85.1885Z" fill="#F3AC30"/>
<path id="gear2" opacity="0.6" d="M149.374 118.241C149.446 117.413 149.489 116.578 149.489 115.735C149.489 113.137 149.138 110.551 148.446 108.054L145.315 108.21L143.876 104.123L145.898 101.834C144.24 98.8548 142.069 96.2159 139.493 94.0481L137.024 96.0319L133.584 93.541L133.98 90.461C130.978 88.9971 127.739 88.1247 124.429 87.8881L123.501 90.983H119.305L117.923 88.2237C113.088 89.0939 108.576 91.3198 104.875 94.6597L106.314 97.5234L103.349 100.596L100.47 99.6637C98.5532 102.47 97.1549 105.621 96.3465 108.956L99.139 110.447L98.4193 114.728L95.5405 115.66C95.5405 115.66 95.5405 115.705 95.5405 115.727C95.5396 119.144 96.1471 122.532 97.3325 125.721L100.442 125.281L102.212 129.218L100.391 131.679C102.289 134.5 104.67 136.937 107.416 138.868L109.711 136.631L113.346 138.809L113.216 141.926C116.19 143.059 119.333 143.637 122.5 143.634H122.954L123.616 140.464L127.797 140.084L129.41 142.709C132.616 141.825 135.637 140.334 138.32 138.309L137.11 135.326L140.328 132.529L143.091 133.715C145.234 131.089 146.891 128.075 147.978 124.826L145.329 123.096L146.416 118.897L149.374 118.241ZM122.529 136.646C118.544 136.646 114.648 135.421 111.334 133.127C108.02 130.832 105.437 127.571 103.912 123.756C102.386 119.94 101.987 115.742 102.765 111.691C103.542 107.64 105.462 103.92 108.28 100.999C111.098 98.0791 114.689 96.0903 118.598 95.2846C122.507 94.4789 126.559 94.8924 130.241 96.4729C133.923 98.0533 137.07 100.73 139.285 104.164C141.499 107.598 142.681 111.635 142.681 115.765C142.668 121.299 140.54 126.602 136.764 130.515C132.988 134.428 127.87 136.632 122.529 136.646Z" fill="#F3AC30"/>
<path id="gear3" opacity="0.4" d="M183.2 66.7831C183.272 65.9553 183.315 65.12 183.315 64.2773C183.315 61.6789 182.964 59.0934 182.272 56.5959L179.141 56.7525L177.702 52.6658L179.724 50.3763C178.066 47.3971 175.895 44.7582 173.319 42.5905L170.85 44.5742L167.41 42.0834L167.806 39.0034C164.804 37.5395 161.565 36.667 158.255 36.4305L157.327 39.5254H153.131L151.749 36.7661C146.914 37.6363 142.402 39.8621 138.701 43.202L140.14 46.0658L137.175 49.1383L134.296 48.2061C132.379 51.0127 130.981 54.1634 130.173 57.4983L132.965 58.9898L132.245 63.2705L129.366 64.2027C129.366 64.2027 129.366 64.2475 129.366 64.2698C129.366 67.6868 129.973 71.0745 131.159 74.2631L134.268 73.8231L136.038 77.7607L134.217 80.2217C136.115 83.0424 138.496 85.479 141.242 87.4109L143.537 85.1736L147.172 87.3512L147.042 90.4685C150.016 91.6012 153.159 92.1794 156.327 92.1763H156.78L157.442 89.0068L161.624 88.6264L163.236 91.2515C166.442 90.3678 169.463 88.8759 172.146 86.8515L170.936 83.8685L174.154 81.0719L176.917 82.2576C179.06 79.6315 180.717 76.6178 181.804 73.3681L179.155 71.638L180.242 67.4393L183.2 66.7831ZM156.355 85.1885C152.37 85.1885 148.474 83.9638 145.16 81.6693C141.846 79.3749 139.263 76.1136 137.738 72.2981C136.212 68.4825 135.813 64.284 136.591 60.2334C137.368 56.1828 139.288 52.4621 142.106 49.5418C144.924 46.6215 148.515 44.6327 152.424 43.827C156.333 43.0213 160.385 43.4348 164.067 45.0153C167.749 46.5957 170.896 49.2721 173.111 52.7061C175.325 56.14 176.507 60.1772 176.507 64.3071C176.494 69.841 174.366 75.1442 170.59 79.0572C166.814 82.9703 161.696 85.1747 156.355 85.1885Z" fill="#F3AC30"/>
<path id="gear1" d="M224.223 118.241C224.295 117.413 224.338 116.578 224.338 115.735C224.338 113.137 223.987 110.551 223.295 108.054L220.164 108.21L218.725 104.123L220.747 101.834C219.089 98.8548 216.918 96.2159 214.342 94.0481L211.873 96.0319L208.433 93.541L208.829 90.461C205.827 88.9971 202.588 88.1247 199.278 87.8881L198.35 90.983H194.154L192.772 88.2237C187.937 89.0939 183.425 91.3198 179.724 94.6597L181.163 97.5234L178.198 100.596L175.319 99.6637C173.402 102.47 172.004 105.621 171.196 108.956L173.988 110.447L173.268 114.728L170.389 115.66C170.389 115.66 170.389 115.705 170.389 115.727C170.389 119.144 170.996 122.532 172.182 125.721L175.291 125.281L177.061 129.218L175.24 131.679C177.138 134.5 179.519 136.937 182.265 138.868L184.56 136.631L188.195 138.809L188.065 141.926C191.039 143.059 194.182 143.637 197.35 143.634H197.803L198.465 140.464L202.647 140.084L204.259 142.709C207.465 141.825 210.486 140.334 213.169 138.309L211.959 135.326L215.177 132.529L217.94 133.715C220.083 131.089 221.74 128.075 222.827 124.826L220.178 123.096L221.265 118.897L224.223 118.241ZM197.378 136.646C193.393 136.646 189.497 135.421 186.183 133.127C182.869 130.832 180.286 127.571 178.761 123.756C177.235 119.94 176.836 115.742 177.614 111.691C178.391 107.64 180.311 103.92 183.129 100.999C185.947 98.0791 189.538 96.0903 193.447 95.2846C197.356 94.4789 201.408 94.8924 205.09 96.4729C208.772 98.0533 211.92 100.73 214.134 104.164C216.348 107.598 217.53 111.635 217.53 115.765C217.517 121.299 215.389 126.602 211.613 130.515C207.837 134.428 202.719 136.632 197.378 136.646Z" fill="#F3AC30"/>
<path id="Vector_9" d="M116.052 16.4068H111.734" stroke="#F3AC30" stroke-miterlimit="10"/>
<path id="Vector_10" d="M102.586 16.4068H52.2576" stroke="#F3AC30" stroke-miterlimit="10" stroke-dasharray="12.71 12.71"/>
<path id="Vector_11" d="M47.6803 16.4068H43.3621V20.8814" stroke="#F3AC30" stroke-miterlimit="10"/>
<path id="Vector_12" d="M43.3621 29.3309V92.7207" stroke="#F3AC30" stroke-miterlimit="10" stroke-dasharray="11.33 11.33"/>
<path id="Vector_13" d="M43.3621 96.9491V101.424" stroke="#F3AC30" stroke-miterlimit="10"/>
<path id="triangleright" d="M149.518 165.932H247.398V77.1864" stroke="#F3AC30" stroke-miterlimit="10" stroke-dasharray="12 12"/>
<g id="section1">
<path id="Vector_14" d="M295.078 194.644H74.1293V254.305H295.078V194.644Z" fill="url(#paint1_linear)"/>
<path id="Vector_15" d="M292.199 198.373H76.2884V251.322H292.199V198.373Z" fill="#F3AC30"/>
</g>
<path id="Vector_16" d="M197.198 211.051H133.865V214.034H197.198V211.051Z" fill="#F3AC30"/>
<path id="Vector_17" opacity="0.2" d="M197.198 217.763H133.865V220.746H197.198V217.763Z" fill="black"/>
<path id="Vector_18" d="M257.653 228.949H133.865V231.932H257.653V228.949Z" fill="white"/>
<path id="Vector_19" d="M100.758 238.644C108.31 238.644 114.433 232.3 114.433 224.475C114.433 216.649 108.31 210.305 100.758 210.305C93.2062 210.305 87.084 216.649 87.084 224.475C87.084 232.3 93.2062 238.644 100.758 238.644Z" fill="#F3AC30"/>
<path id="Vector_20" opacity="0.2" d="M100.758 238.644C108.31 238.644 114.433 232.3 114.433 224.475C114.433 216.649 108.31 210.305 100.758 210.305C93.2062 210.305 87.084 216.649 87.084 224.475C87.084 232.3 93.2062 238.644 100.758 238.644Z" fill="black"/>
<path id="Vector_21" d="M434.786 359.458C434.92 359.304 435.005 359.11 435.028 358.905C435.051 358.699 435.012 358.491 434.916 358.309C431.821 351.888 428.719 353.499 419.565 335.146C409.82 315.629 412.245 309.089 408.597 305.36C407.157 303.868 405.674 298.887 403.717 298.014L402.45 292.749C403.597 292.881 404.756 292.696 405.811 292.212C407.826 291.287 409.359 289.527 410.72 287.738C412.82 285.075 414.519 282.098 415.758 278.908C416.595 276.58 417.08 274.133 417.197 271.652C417.266 270.409 417.244 269.162 417.132 267.923C419.386 267.538 421.519 266.605 423.358 265.201C425.544 263.376 426.959 260.742 427.302 257.855C427.302 257.564 427.366 257.281 427.381 256.99C427.4 256.647 427.4 256.303 427.381 255.961C427.276 254.201 426.772 252.493 425.909 250.974C425.046 249.455 423.849 248.169 422.415 247.22C419.802 245.659 416.775 245.008 413.778 245.363C410.788 245.741 407.852 246.489 405.034 247.593C404.314 247.832 403.278 248.138 402.335 248.563C400.302 247.859 398.174 247.499 396.03 247.496C392.533 247.496 389.107 248.451 385.732 249.391L374.367 252.545C371.849 253.246 369.222 254.037 367.343 255.879C367.177 256.046 367.021 256.222 366.875 256.408L366.789 256.52C366.641 256.713 366.504 256.915 366.379 257.124C365.256 259.003 365.011 261.494 366.379 263.15C367.061 263.907 367.893 264.503 368.819 264.895C369.932 265.427 371.079 265.88 372.252 266.252C370.141 269.473 369.015 273.277 369.02 277.17C369.02 277.394 369.02 277.61 369.02 277.834C369.02 278.058 369.02 278.274 369.02 278.498C369.02 283.658 370.998 288.607 374.52 292.256C378.041 295.905 382.817 297.955 387.797 297.955H388.107L388.654 302.519C386.101 305.285 383.942 308.413 382.241 311.811C381.189 312.834 380.363 314.081 379.82 315.466C379.277 316.851 379.03 318.342 379.096 319.835C379.06 323.072 379.909 327.032 380.737 332.513L354.043 320.76L337.375 357.959L350.2 362.858C344.176 363.142 340.844 367.706 340.894 372.352C340.85 373.623 341.062 374.89 341.515 376.073C341.969 377.255 342.654 378.327 343.528 379.22C348.17 384.03 353.806 434.131 353.806 434.131H356.152V439.388C346.645 439.985 337 441.201 337 443.669C337.037 444.859 337.329 446.026 337.854 447.085C338.379 448.144 339.125 449.068 340.038 449.792C339.901 449.62 339.764 449.434 339.635 449.24C340.349 450.001 341.169 450.647 342.067 451.157H393.706V440.104H393.792V438.769C393.792 438.769 391.921 438.769 389.013 438.822V434.094H391.36C393.454 414.54 384.321 389.169 382.342 383.978C385.559 383.978 388.941 383.934 392.295 383.74C406.538 384.403 431.03 384.239 435.96 375.723C441.437 366.311 437.054 361.277 434.786 359.458ZM363.226 383.024C363.226 383.024 364.299 383.136 366.105 383.277C368.041 388.997 369.473 398.394 370.488 407.567C368.701 399.199 366.272 390.992 363.226 383.024ZM383.832 296.187C385.144 296.483 386.483 296.633 387.826 296.635H387.97L388.085 297.612C386.617 297.313 385.189 296.832 383.832 296.18V296.187ZM374.965 438.963H374.576V438.769C374.576 438.769 372.899 438.769 370.258 438.814V434.094H374.95L374.965 438.963Z" fill="url(#paint2_linear)"/>
<path id="Vector_22" d="M386.502 381.831L374.965 501.153L388.661 501.898L405.912 381.831H386.502Z" fill="url(#paint3_linear)"/>
<path id="Vector_23" d="M387.2 381.831L378.563 499.661H387.2L399.435 381.831H387.2Z" fill="#F3AC30"/>
<path id="Vector_24" d="M622.657 377.356L634 497.424H620.498L609.645 377.356H622.657Z" fill="url(#paint4_linear)"/>
<path id="Vector_25" d="M622.542 378.102L631.179 495.932H622.542L610.307 378.102H622.542Z" fill="#F3AC30"/>
<path id="Vector_26" d="M420.234 376.61L409.51 496.678H423.833L435.42 376.61H420.234Z" fill="url(#paint5_linear)"/>
<path id="Vector_27" d="M421.026 376.61L412.389 494.441H421.026L433.261 376.61H421.026Z" fill="#F3AC30"/>
<path id="Vector_28" d="M591.372 378.102L602.391 501.153H589.213L575.762 378.102H591.372Z" fill="url(#paint6_linear)"/>
<path id="Vector_29" d="M590.875 381.831L599.512 499.661H590.875L578.641 381.831H590.875Z" fill="#F3AC30"/>
<path id="Vector_30" d="M627.58 375.119H369.207V387.797H627.58V375.119Z" fill="url(#paint7_linear)"/>
<path id="Vector_31" d="M578.641 375.119H371.366V386.305H578.641V375.119Z" fill="#F3AC30"/>
<path id="Vector_32" d="M626.141 375.119H578.641V386.305H626.141V375.119Z" fill="#F3AC30"/>
<path id="Vector_33" opacity="0.2" d="M626.472 375.119H578.972V386.305H626.472V375.119Z" fill="black"/>
<path id="Vector_34" d="M549.852 303.525H452.693V366.915H549.852V303.525Z" fill="url(#paint8_linear)"/>
<path id="Vector_35" d="M545.534 305.763H454.852V364.678H545.534V305.763Z" fill="white"/>
<path id="Vector_36" d="M516.026 359.458H486.519V375.119H516.026V359.458Z" fill="url(#paint9_linear)"/>
<path id="Vector_37" d="M512.788 359.458H487.598V375.119H512.788V359.458Z" fill="white"/>
<path id="Vector_38" d="M548.413 305.763H545.534V364.678H548.413V305.763Z" fill="#F5F5F5"/>
<path id="Vector_39" d="M514.587 359.458H512.428V375.119H514.587V359.458Z" fill="#F5F5F5"/>
<path id="Vector_40" d="M503.791 326.644H496.594V334.102H503.791V326.644Z" fill="url(#paint10_linear)"/>
<path id="Vector_41" d="M503.072 327.39H497.314V333.356H503.072V327.39Z" fill="#F5F5F5"/>
<path id="Vector_42" d="M359.736 320.753L406.797 341.477L390.957 372.658L344.435 354.894L359.736 320.753Z" fill="#F3AC30"/>
<path id="Vector_43" d="M374.591 420.327H361.665V431.483H374.591V420.327Z" fill="#F8C198"/>
<path id="Vector_44" d="M391.827 420.327H378.902V431.483H391.827V420.327Z" fill="#F8C198"/>
<path id="Vector_45" d="M390.705 298.633C400.22 298.633 407.934 290.64 407.934 280.78C407.934 270.919 400.22 262.926 390.705 262.926C381.189 262.926 373.475 270.919 373.475 280.78C373.475 290.64 381.189 298.633 390.705 298.633Z" fill="#F8C198"/>
<path id="Vector_46" d="M406.855 306.449H391.777L389.625 288.595H402.551L406.855 306.449Z" fill="#F8C198"/>
<path id="Vector_47" d="M415.52 355.602C415.52 355.602 424.156 360.077 417.679 371.263C411.202 382.449 368.135 377.975 368.135 377.975C368.135 377.975 378.93 404.755 376.771 424.846H359.513C359.513 424.846 354.345 378.847 350.106 374.373C344.615 368.683 348.768 357.802 359.542 360.032C370.315 362.262 415.52 355.602 415.52 355.602Z" fill="#263238"/>
<g id="Group" opacity="0.2">
<path id="Vector_48" opacity="0.2" d="M371.661 377.52C371.661 377.52 379.233 378.266 388.495 378.393C381.773 378.467 375.541 378.109 371.784 377.833L371.661 377.52Z" fill="white"/>
<path id="Vector_49" opacity="0.2" d="M367.89 360.092C384.71 359.756 415.52 355.199 415.52 355.199C415.744 355.323 415.96 355.46 416.168 355.61C407.395 356.847 380.766 360.405 367.89 360.092Z" fill="white"/>
<path id="Vector_50" opacity="0.2" d="M358.563 359.495C351.229 360.651 348.962 369.19 353.611 374C357.872 378.415 363.047 424.391 363.047 424.391H359.52C359.52 424.391 354.345 378.415 350.106 374C344.752 368.481 348.509 358.078 358.563 359.495Z" fill="white"/>
</g>
<path id="Vector_51" d="M378.894 429.254C378.894 429.254 344.428 429.254 344.428 433.728C344.428 438.203 348.746 440.44 348.746 440.44H378.894V429.254Z" fill="#263238"/>
<path id="Vector_52" opacity="0.2" d="M378.563 429.082V430.305C372.561 430.35 345.277 430.79 345.277 434.78C345.293 436.398 345.864 437.958 346.889 439.18C346.051 438.516 345.366 437.668 344.883 436.697C344.401 435.726 344.132 434.656 344.097 433.564C344.097 429.082 378.563 429.082 378.563 429.082Z" fill="white"/>
<path id="Vector_53" d="M432.75 355.602C432.75 355.602 441.386 360.077 434.909 371.263C428.432 382.449 385.365 377.975 385.365 377.975C385.365 377.975 396.16 404.755 394.001 424.846H376.735C376.735 424.846 374.576 377.975 368.099 373.508C361.622 369.041 365.94 357.847 376.735 360.084C387.531 362.321 432.75 355.602 432.75 355.602Z" fill="#263238"/>
<path id="Vector_54" d="M396.167 429.254C396.167 429.254 361.701 429.254 361.701 433.728C361.701 438.203 366.019 440.44 366.019 440.44H396.167V429.254Z" fill="#263238"/>
<path id="Vector_55" d="M403.825 299.797H409.064C411.13 299.797 412.605 305.166 414.102 306.673C417.456 310.096 415.225 316.092 424.178 334.005C432.584 350.844 435.427 349.375 438.27 355.259C441.113 361.143 387.531 360.875 387.531 360.875C387.531 360.875 390.258 349.599 389.69 341.328C388.51 324.332 384.249 318.448 389.935 312.557C389.92 312.557 396.016 299.797 403.825 299.797Z" fill="#FF5252"/>
<path id="Vector_56" d="M360.909 329.284L353.849 345.139L358.556 347.578L365.616 331.723L360.909 329.284Z" fill="white"/>
<path id="Vector_57" opacity="0.2" d="M390.705 264.149C391.294 264.148 391.882 264.178 392.468 264.239C388.218 264.681 384.278 266.744 381.413 270.026C378.548 273.309 376.961 277.577 376.961 282.003C376.961 286.429 378.548 290.697 381.413 293.979C384.278 297.262 388.218 299.324 392.468 299.767C391.882 299.827 391.294 299.857 390.705 299.856C386.134 299.856 381.751 297.975 378.519 294.626C375.287 291.277 373.471 286.735 373.471 281.999C373.471 277.263 375.287 272.721 378.519 269.372C381.751 266.023 386.134 264.142 390.705 264.142V264.149Z" fill="white"/>
<path id="Vector_58" d="M371.906 261.248C373.633 259.533 376.044 258.832 378.383 258.191L388.812 255.297C391.914 254.439 395.052 253.567 398.262 253.559C400.219 253.565 402.163 253.894 404.019 254.536C404.883 254.148 405.854 253.865 406.495 253.649C409.074 252.654 411.758 251.983 414.491 251.65C417.238 251.33 420.012 251.928 422.408 253.358C423.732 254.218 424.837 255.396 425.63 256.791C426.423 258.187 426.88 259.759 426.964 261.376C427.048 262.993 426.756 264.607 426.112 266.083C425.468 267.558 424.491 268.852 423.264 269.854C421.579 271.142 419.623 271.998 417.557 272.353C417.889 275.755 417.465 279.191 416.319 282.398C415.19 285.325 413.64 288.059 411.72 290.504C410.475 292.153 409.064 293.763 407.215 294.614C405.365 295.464 402.983 295.359 401.558 293.868C400.507 292.772 400.118 291.161 399.881 289.639C398.794 283.614 397.722 276.685 392.684 273.471C389.524 271.458 386.005 271.652 382.479 271.674C379.311 271.665 376.186 270.924 373.331 269.504C372.465 269.152 371.683 268.607 371.043 267.908C369.459 266.028 370.179 262.963 371.906 261.248Z" fill="#FCCC63"/>
<g id="Group_2" opacity="0.2">
<path id="Vector_59" opacity="0.2" d="M422.429 255.797C420.034 254.367 417.26 253.768 414.513 254.089C411.78 254.422 409.095 255.093 406.517 256.087C405.876 256.311 404.904 256.587 404.041 256.975C402.184 256.333 400.24 256.003 398.283 255.998C395.073 255.998 391.935 256.871 388.834 257.736L378.405 260.629C376.095 261.271 373.684 261.972 371.928 263.687C371.155 264.476 370.609 265.473 370.352 266.565C370.147 265.614 370.184 264.623 370.461 263.691C370.737 262.758 371.243 261.917 371.928 261.248C373.655 259.533 376.066 258.832 378.405 258.191L388.834 255.297C391.935 254.439 395.073 253.567 398.283 253.559C400.24 253.565 402.184 253.894 404.041 254.536C404.904 254.148 405.876 253.865 406.517 253.649C409.095 252.654 411.78 251.983 414.513 251.65C417.26 251.33 420.034 251.928 422.429 253.358C423.743 254.229 424.84 255.409 425.632 256.802C426.424 258.195 426.887 259.762 426.985 261.375C427.009 261.955 426.982 262.537 426.906 263.113C426.718 261.629 426.22 260.206 425.447 258.942C424.674 257.679 423.644 256.605 422.429 255.797Z" fill="white"/>
<path id="Vector_60" opacity="0.2" d="M417.672 274.769C417.672 275.097 417.672 275.418 417.672 275.746C417.672 275.425 417.672 275.112 417.607 274.791L417.672 274.769Z" fill="white"/>
</g>
<path id="Vector_61" opacity="0.2" d="M389.69 341.559C388.51 324.563 384.249 318.679 389.935 312.788C389.935 312.788 396.023 300.028 403.839 300.028H409.079C409.436 300.082 409.778 300.22 410.077 300.43C410.376 300.641 410.625 300.919 410.806 301.243H407.373C399.557 301.243 393.468 314.003 393.468 314.003C387.783 319.895 392.029 325.779 393.224 342.775C393.684 349.405 392.022 357.966 391.345 361.098C388.97 361.098 387.538 361.098 387.538 361.098C387.538 361.098 390.251 349.822 389.69 341.559Z" fill="white"/>
<path id="Vector_62" d="M391.504 330.507H410.331V317.098H391.504V330.507Z" fill="#FF5252"/>
<g id="Group_3" opacity="0.2">
<path id="Vector_63" opacity="0.2" d="M385.127 360.092C401.946 359.756 432.757 355.199 432.757 355.199C432.98 355.323 433.197 355.46 433.405 355.61C424.624 356.847 398.002 360.405 385.127 360.092Z" fill="white"/>
<path id="Vector_64" opacity="0.2" d="M375.836 359.502C368.452 360.666 366.177 369.264 371.661 373.053C378.139 377.527 380.298 424.391 380.298 424.391H376.735C376.735 424.391 374.576 377.52 368.099 373.053C361.852 368.72 365.738 358.07 375.836 359.502Z" fill="white"/>
<path id="Vector_65" opacity="0.2" d="M388.891 377.52C388.891 377.52 396.462 378.266 405.725 378.393C399.003 378.467 392.77 378.109 389.013 377.833L388.891 377.52Z" fill="white"/>
</g>
<path id="Vector_66" d="M409.057 326.584V347.936C409.058 349.772 408.702 351.59 408.008 353.28C407.315 354.97 406.299 356.497 405.022 357.77C403.745 359.043 402.233 360.036 400.577 360.689C398.92 361.341 397.154 361.64 395.383 361.568C386.279 361.203 375.778 361.061 374.576 362.314C373.576 363.35 371.194 365.342 368.919 367.176C368.405 367.591 367.784 367.841 367.134 367.895C366.484 367.949 365.833 367.805 365.261 367.48C364.689 367.154 364.222 366.663 363.916 366.065C363.611 365.468 363.481 364.791 363.543 364.119C363.831 360.531 364.918 356.713 368.106 355.617C370.675 354.729 375.303 354.193 379.895 353.872C383.717 353.594 387.295 351.822 389.904 348.915C392.514 346.007 393.96 342.181 393.951 338.211V326.584H409.057Z" fill="#F8C198"/>
<path id="Vector_67" opacity="0.2" d="M363.565 364.104C363.853 360.517 364.939 356.698 368.128 355.602C370.697 354.715 375.325 354.178 379.916 353.857C383.739 353.579 387.316 351.807 389.926 348.9C392.535 345.992 393.982 342.166 393.972 338.196V326.584H409.086V327.8H396.333V339.412C396.342 343.382 394.896 347.208 392.286 350.115C389.677 353.023 386.099 354.795 382.277 355.073C377.656 355.393 373.05 355.93 370.488 356.818C367.3 357.921 366.206 361.74 365.925 365.319C365.885 365.781 365.935 366.246 366.073 366.686C366.21 367.127 366.431 367.535 366.724 367.885C366.275 367.859 365.835 367.739 365.431 367.533C365.027 367.328 364.667 367.04 364.372 366.687C364.077 366.335 363.854 365.924 363.715 365.48C363.577 365.037 363.525 364.568 363.565 364.104Z" fill="white"/>
<path id="Vector_68" opacity="0.2" d="M396.21 429.082V430.305C390.208 430.35 362.924 430.79 362.924 434.78C362.94 436.398 363.511 437.958 364.536 439.18C363.699 438.516 363.013 437.668 362.531 436.697C362.048 435.726 361.779 434.656 361.744 433.564C361.744 429.082 396.21 429.082 396.21 429.082Z" fill="white"/>
<path id="Vector_69" opacity="0.5" d="M167.691 386.305V548.881H444.776V337.085H452.693" stroke="#F3AC30" stroke-width="3" stroke-miterlimit="10"/>
</g>
<defs>
<linearGradient id="paint0_linear" x1="139.622" y1="390.78" x2="139.622" y2="0" gradientUnits="userSpaceOnUse">
<stop stop-color="#808080" stop-opacity="0.25"/>
<stop offset="0.54" stop-color="#808080" stop-opacity="0.12"/>
<stop offset="1" stop-color="#808080" stop-opacity="0.1"/>
</linearGradient>
<linearGradient id="paint1_linear" x1="56747.4" y1="20539" x2="56747.4" y2="15766.2" gradientUnits="userSpaceOnUse">
<stop stop-color="#808080" stop-opacity="0.25"/>
<stop offset="0.54" stop-color="#808080" stop-opacity="0.12"/>
<stop offset="1" stop-color="#808080" stop-opacity="0.1"/>
</linearGradient>
<linearGradient id="paint2_linear" x1="71295.5" y1="141672" x2="71295.5" y2="84865.1" gradientUnits="userSpaceOnUse">
<stop stop-color="#808080" stop-opacity="0.25"/>
<stop offset="0.54" stop-color="#808080" stop-opacity="0.12"/>
<stop offset="1" stop-color="#808080" stop-opacity="0.1"/>
</linearGradient>
<linearGradient id="paint3_linear" x1="16498.5" y1="71522" x2="17829.2" y2="71522" gradientUnits="userSpaceOnUse">
<stop stop-color="#808080" stop-opacity="0.25"/>
<stop offset="0.54" stop-color="#808080" stop-opacity="0.12"/>
<stop offset="1" stop-color="#808080" stop-opacity="0.1"/>
</linearGradient>
<linearGradient id="paint4_linear" x1="21652.1" y1="80462.6" x2="21652.1" y2="61131.7" gradientUnits="userSpaceOnUse">
<stop stop-color="#808080" stop-opacity="0.25"/>
<stop offset="0.54" stop-color="#808080" stop-opacity="0.12"/>
<stop offset="1" stop-color="#808080" stop-opacity="0.1"/>
</linearGradient>
<linearGradient id="paint5_linear" x1="15618.3" y1="80341.7" x2="15618.3" y2="61010.8" gradientUnits="userSpaceOnUse">
<stop stop-color="#808080" stop-opacity="0.25"/>
<stop offset="0.54" stop-color="#808080" stop-opacity="0.12"/>
<stop offset="1" stop-color="#808080" stop-opacity="0.1"/>
</linearGradient>
<linearGradient id="paint6_linear" x1="22371.6" y1="83068.3" x2="22371.6" y2="62764.9" gradientUnits="userSpaceOnUse">
<stop stop-color="#808080" stop-opacity="0.25"/>
<stop offset="0.54" stop-color="#808080" stop-opacity="0.12"/>
<stop offset="1" stop-color="#808080" stop-opacity="0.1"/>
</linearGradient>
<linearGradient id="paint7_linear" x1="179293" y1="6967.65" x2="179293" y2="6752.13" gradientUnits="userSpaceOnUse">
<stop stop-color="#808080" stop-opacity="0.25"/>
<stop offset="0.54" stop-color="#808080" stop-opacity="0.12"/>
<stop offset="1" stop-color="#808080" stop-opacity="0.1"/>
</linearGradient>
<linearGradient id="paint8_linear" x1="68124.5" y1="31491.3" x2="68124.5" y2="26103.2" gradientUnits="userSpaceOnUse">
<stop stop-color="#808080" stop-opacity="0.25"/>
<stop offset="0.54" stop-color="#808080" stop-opacity="0.12"/>
<stop offset="1" stop-color="#808080" stop-opacity="0.1"/>
</linearGradient>
<linearGradient id="paint9_linear" x1="21038.7" y1="8236.95" x2="21038.7" y2="7908.06" gradientUnits="userSpaceOnUse">
<stop stop-color="#808080" stop-opacity="0.25"/>
<stop offset="0.54" stop-color="#808080" stop-opacity="0.12"/>
<stop offset="1" stop-color="#808080" stop-opacity="0.1"/>
</linearGradient>
<linearGradient id="paint10_linear" x1="5498.52" y1="3667.67" x2="5498.52" y2="3593.09" gradientUnits="userSpaceOnUse">
<stop stop-color="#808080" stop-opacity="0.25"/>
<stop offset="0.54" stop-color="#808080" stop-opacity="0.12"/>
<stop offset="1" stop-color="#808080" stop-opacity="0.1"/>
</linearGradient>
<clipPath id="clip0">
<rect width="634" height="550" fill="white"/>
</clipPath>
</defs>
</svg>
