<svg width="611" height="601" viewBox="0 0 611 601" fill="none" xmlns="http://www.w3.org/2000/svg">
<g id="undraw_agreement_aajr 1" clip-path="url(#clip0)">
<g id="Group" opacity="0.5">
<path id="Vector" opacity="0.5" d="M373.791 0.00823984L51.8663 149.176L254.761 601.012L576.685 451.844L373.791 0.00823984Z" fill="url(#paint0_linear)"/>
</g>
<path id="Vector_2" d="M171.507 184.212L104.335 215.337L134.975 283.573L202.148 252.447L171.507 184.212Z" fill="url(#paint1_linear)"/>
<path id="Vector_3" d="M232.456 319.327L165.283 350.452L195.924 418.687L263.096 387.562L232.456 319.327Z" fill="url(#paint2_linear)"/>
<path id="Vector_4" d="M170.165 187.848L107.911 216.694L136.308 279.933L198.562 251.087L170.165 187.848Z" fill="#69F0AE"/>
<path id="Vector_5" d="M305.221 148.854L219.889 188.393L222.605 194.442L307.937 154.903L305.221 148.854Z" fill="#E0E0E0"/>
<path id="Vector_6" d="M364.864 132.179L223.968 197.466L226.684 203.515L367.581 138.228L364.864 132.179Z" fill="#E0E0E0"/>
<path id="Vector_7" d="M359.007 145.85L228.035 206.537L230.751 212.586L361.723 151.898L359.007 145.85Z" fill="#E0E0E0"/>
<path id="Vector_8" d="M365.382 282.825L280.05 322.365L282.767 328.413L368.099 288.874L365.382 282.825Z" fill="#E0E0E0"/>
<path id="Vector_9" d="M425.023 266.144L284.127 331.43L286.843 337.479L427.739 272.193L425.023 266.144Z" fill="#E0E0E0"/>
<path id="Vector_10" d="M419.169 279.821L288.197 340.508L290.913 346.557L421.885 285.87L419.169 279.821Z" fill="#E0E0E0"/>
<path id="Vector_11" d="M137.416 236.666L153.447 241.954L158.722 210.612L166.523 212.779L157.748 251.527L133.571 240.762L137.416 236.666Z" fill="url(#paint3_linear)"/>
<path id="Vector_12" d="M139.46 236.252L153.399 240.846L157.983 213.593L164.763 215.479L157.134 249.171L136.111 239.815L139.46 236.252Z" fill="white"/>
<g id="paper">
<path id="Vector_13" d="M287.313 29.9977L131.674 102.115L148.871 140.412L304.51 68.2946L287.313 29.9977Z" fill="url(#paint4_linear)"/>
<path id="Vector_14" d="M192.682 28.6277C180.67 34.1962 175.478 48.8397 181.091 61.3371C186.704 73.8346 200.995 79.4521 213.008 73.8837C225.021 68.3152 230.212 53.6717 224.599 41.1743C218.987 28.6768 204.695 23.0593 192.682 28.6277ZM208.707 64.3107C206.179 65.5564 203.343 66.0085 200.561 65.6094C197.779 65.2102 195.178 63.9778 193.089 62.0695C190.999 60.1613 189.518 57.6639 188.832 54.8961C188.147 52.1284 188.289 49.216 189.241 46.5308C190.193 43.8457 191.911 41.5097 194.176 39.8211C196.441 38.1325 199.15 37.168 201.957 37.0507C204.764 36.9335 207.542 37.6688 209.936 39.1628C212.33 40.6567 214.231 42.8416 215.396 45.4383C216.178 47.1241 216.624 48.9498 216.711 50.8109C216.797 52.6721 216.522 54.5324 215.901 56.2855C215.28 58.0387 214.325 59.6503 213.09 61.0285C211.856 62.4067 210.366 63.5244 208.707 64.3177V64.3107Z" fill="url(#paint5_linear)"/>
<path id="Vector_15" d="M371.186 5.23487L57.4525 150.608L255.863 592.458L569.597 447.085L371.186 5.23487Z" fill="white"/>
<path id="Vector_16" d="M285.681 30.7858L133.321 101.384L149.761 137.996L302.121 67.3982L285.681 30.7858Z" fill="#F3AC30"/>
<path id="Vector_17" d="M193.428 30.2969C189.215 32.2483 185.666 35.4252 183.23 39.4256C180.795 43.4259 179.581 48.0702 179.744 52.7711C179.907 57.4719 181.438 62.0181 184.145 65.8348C186.851 69.6515 190.611 72.5672 194.949 74.2132C199.286 75.8592 204.007 76.1616 208.514 75.0821C213.021 74.0025 217.111 71.5896 220.268 68.1484C223.425 64.7073 225.506 60.3924 226.249 55.7496C226.992 51.1067 226.362 46.3444 224.441 42.0649C221.864 36.3272 217.149 31.8641 211.333 29.6572C205.518 27.4503 199.077 27.6804 193.428 30.2969V30.2969ZM208.748 64.4159C206.318 65.5412 203.614 65.9094 200.978 65.4739C198.342 65.0383 195.893 63.8186 193.939 61.969C191.985 60.1194 190.615 57.7228 190.003 55.0824C189.39 52.442 189.561 49.6762 190.495 47.1348C191.43 44.5934 193.085 42.3905 195.252 40.8046C197.418 39.2187 199.999 38.3209 202.668 38.2249C205.337 38.1289 207.974 38.8389 210.246 40.2652C212.518 41.6914 214.322 43.7699 215.431 46.2378C216.916 49.5477 217.047 53.3215 215.794 56.7291C214.54 60.1368 212.006 62.8992 208.748 64.4089V64.4159Z" fill="#F3AC30"/>
<path id="Vector_18" d="M230.324 321.813L168.07 350.659L196.467 413.898L258.721 385.052L230.324 321.813Z" fill="#F3AC30"/>
<path id="Vector_19" d="M199.994 371.052L213.933 375.646L218.517 348.393L225.297 350.279L217.668 383.971L196.645 374.615L199.994 371.052Z" fill="white"/>
<path id="Vector_20" d="M467.61 374.214L268.555 466.449L298.82 533.848L497.875 441.613L467.61 374.214Z" fill="#E0E0E0"/>
<path id="Vector_21" d="M438.753 427.929C431.104 425.713 423.275 426.134 420.837 435.02C420.016 438.014 419.919 442.664 416.757 444.207C412.104 446.479 406.491 441.934 402.452 440.083C394.927 436.633 387.201 438.982 382.845 446.234C380.636 449.908 379.69 454.137 378.937 458.324C378.613 460.141 378.571 462.385 377.819 464.096C376.376 467.371 371.861 467.077 368.899 466.95C368.25 466.95 367.587 466.873 366.924 466.803C369.266 463.526 370.435 459.535 370.238 455.491C370.045 448.849 365.799 441.584 358.377 442.397C351.729 443.099 347.048 449.621 347.794 456.22C348.429 461.831 352.026 466.179 356.638 468.844C354.373 469.861 351.957 470.653 349.816 471.705C348.817 472.197 347.846 472.747 346.91 473.353C340.441 470.184 331.942 469.587 326.122 472.82C323.305 474.384 325.363 479.034 328.193 477.456C332.626 474.995 337.514 475.612 342.146 477.176L342.533 477.316C342.075 477.912 341.671 478.548 341.325 479.216C338.708 484.378 341.325 492.541 347.69 493.103C356.665 493.881 357.086 481.832 352.212 477.035C352.005 476.832 351.798 476.636 351.577 476.446C353.593 475.457 355.775 474.714 357.701 473.879C359.379 473.157 360.976 472.255 362.465 471.186L362.81 471.278C369.665 472.856 380.366 473.346 382.831 464.91C384.944 457.588 385.144 442.04 396.536 443.477C401.182 444.06 404.993 447.685 409.411 448.997C413.367 450.196 417.945 450.245 421.19 447.286C423.868 444.845 424.469 441.24 425.291 437.874C425.712 436.135 426.126 434.059 427.52 432.817C430.04 430.58 434.204 431.899 437.013 432.712C440.086 433.596 441.867 428.827 438.753 427.929ZM349.692 487.254C348.18 488.775 346.579 487.569 345.771 485.977C344.79 484.042 345.212 482.134 346.461 480.43C346.665 480.151 346.884 479.885 347.117 479.63C350.106 481.594 352.55 484.406 349.72 487.254H349.692ZM354.994 449.382C358.101 446.451 362.43 447.096 364.28 451.122C366.131 455.147 365.316 460.828 362.72 464.377C362.376 464.842 361.995 465.278 361.581 465.681C359.772 465.067 358.099 464.097 356.658 462.827C352.985 459.46 350.907 453.24 355.022 449.361L354.994 449.382Z" fill="#F3AC30"/>
</g>
<path id="Vector_22" d="M480.156 155.489L424.428 177.559C413.947 176.767 391.896 173.877 370.011 163.393C345.646 151.723 317.734 151.751 294.067 163.975C239.526 165.3 209.507 158.203 193.49 151.484L197.715 142.676L141.227 120.304L0 56.0071V319.534L49.4254 341.906L75.9366 277.3L134.158 304.652L145.335 275.8L183.562 304.617L186.165 306.84L182.582 310.62C179.297 314.145 177.466 318.814 177.466 323.668C177.466 328.522 179.297 333.191 182.582 336.716C184.172 338.423 186.088 339.783 188.213 340.712C190.337 341.642 192.627 342.121 194.94 342.121C197.254 342.121 199.543 341.642 201.668 340.712C203.792 339.783 205.708 338.423 207.298 336.716L205.337 338.82C202.052 342.345 200.221 347.014 200.221 351.868C200.221 356.722 202.052 361.391 205.337 364.916V364.916C206.927 366.623 208.843 367.983 210.968 368.912C213.093 369.842 215.382 370.321 217.696 370.321C220.009 370.321 222.298 369.842 224.423 368.912C226.548 367.983 228.464 366.623 230.054 364.916L241.376 352.958L233.602 361.164C230.317 364.688 228.486 369.358 228.486 374.212C228.486 379.066 230.317 383.735 233.602 387.26V387.26C235.192 388.967 237.108 390.327 239.233 391.256C241.358 392.186 243.647 392.665 245.96 392.665C248.274 392.665 250.563 392.186 252.688 391.256C254.813 390.327 256.729 388.967 258.318 387.26L269.496 375.457L264.794 380.422C262.497 382.884 261.217 386.147 261.217 389.539C261.217 392.931 262.497 396.194 264.794 398.656C265.905 399.848 267.243 400.797 268.726 401.446C270.21 402.095 271.809 402.43 273.424 402.43C275.04 402.43 276.638 402.095 278.122 401.446C279.606 400.797 280.944 399.848 282.054 398.656L289.51 390.787C302.317 400.29 312.68 407.226 317.755 409.022C338.901 416.47 338.901 401.553 338.901 401.553C367.145 416.463 381.271 386.643 381.271 386.643C416.578 401.553 416.578 364.271 416.578 364.271C425.401 370.484 431.766 367.637 436.213 362.167C442.267 354.747 443.006 344.276 438.85 335.874L472.596 304.196L487.191 334.507L545.412 307.155L571.924 366.859L610.965 349.15V88.3799L480.156 155.489Z" fill="url(#paint6_linear)"/>
<path id="Vector_23" d="M470.781 293.487L409.322 348.975L361.526 258.8L470.781 231.056V293.487Z" fill="#BE7C5E"/>
<path id="Vector_24" d="M177.156 147.816C177.156 147.816 196.88 175.56 313.723 168.624L382.01 272.672L427.769 324.969C434.956 333.188 435.363 345.651 428.308 353.982C424.02 359.039 417.855 361.697 409.322 355.911C409.322 355.911 409.322 390.591 375.182 376.719C375.182 376.719 361.526 404.463 334.214 390.591C334.214 390.591 334.214 404.463 313.73 397.527C293.246 390.591 183.984 300.423 183.984 300.423L136.187 265.743L177.156 147.816Z" fill="#FDA57D"/>
<path id="Vector_25" d="M422.978 182.504C422.978 182.504 393.47 182.504 364.294 169.045C337.762 156.821 306.867 158.378 282.386 174.424C262.433 187.504 245.146 209.161 245.47 244.928C245.47 244.928 272.023 272.672 300.094 217.184H320.578C320.578 217.184 340.303 286.551 395.693 279.601C451.084 272.651 463.98 265.729 463.98 265.729L422.978 182.504Z" fill="#BE7C5E"/>
<path id="Vector_26" d="M243.709 319.468L241.493 317.217C235.505 311.134 225.796 311.134 219.808 317.217L203.937 333.338C197.949 339.421 197.949 349.284 203.937 355.366L206.153 357.618C212.141 363.701 221.85 363.701 227.838 357.618L243.709 341.496C249.697 335.413 249.697 325.551 243.709 319.468Z" fill="#BE7C5E"/>
<path id="Vector_27" d="M221.701 293.265L219.484 291.013C213.496 284.93 203.787 284.93 197.799 291.013L181.928 307.135C175.94 313.218 175.94 323.08 181.928 329.163L184.145 331.415C190.133 337.498 199.842 337.498 205.83 331.415L221.701 315.293C227.689 309.21 227.689 299.348 221.701 293.265Z" fill="#BE7C5E"/>
<path id="Vector_28" d="M274.433 336.803L272.216 334.552C266.228 328.469 256.519 328.469 250.531 334.552L231.248 354.14C225.26 360.223 225.26 370.085 231.248 376.168L233.464 378.42C239.452 384.502 249.161 384.502 255.149 378.42L274.433 358.831C280.421 352.748 280.421 342.886 274.433 336.803Z" fill="#BE7C5E"/>
<path id="Vector_29" d="M290.603 360.937L289.056 359.365C284.874 355.117 278.094 355.117 273.912 359.365L261.742 371.728C257.56 375.976 257.56 382.863 261.742 387.111L263.289 388.683C267.471 392.931 274.251 392.931 278.433 388.683L290.603 376.32C294.785 372.072 294.785 365.185 290.603 360.937Z" fill="#BE7C5E"/>
<path id="Vector_30" d="M539.061 307.359L477.609 335.103L416.15 182.504L470.781 161.695L539.061 307.359Z" fill="white"/>
<path id="Vector_31" d="M74.7353 272.679L136.187 300.423L197.646 147.823L143.015 127.008L74.7353 272.679Z" fill="white"/>
<path id="Vector_32" d="M6.4483 64.5842L143.015 127.008L54.2513 335.103L6.4483 314.295V64.5842Z" fill="#333333"/>
<path id="Vector_33" d="M607.348 99.2643L470.781 161.695L559.552 369.783L607.348 348.975V99.2643Z" fill="#4D8AF0"/>
</g>
<defs>
<linearGradient id="paint0_linear" x1="415.726" y1="526.427" x2="207.506" y2="77.0587" gradientUnits="userSpaceOnUse">
<stop stop-color="#808080" stop-opacity="0.25"/>
<stop offset="0.54" stop-color="#808080" stop-opacity="0.12"/>
<stop offset="1" stop-color="#808080" stop-opacity="0.1"/>
</linearGradient>
<linearGradient id="paint1_linear" x1="39778.4" y1="9084.09" x2="36416" y2="1827.57" gradientUnits="userSpaceOnUse">
<stop stop-color="#808080" stop-opacity="0.25"/>
<stop offset="0.54" stop-color="#808080" stop-opacity="0.12"/>
<stop offset="1" stop-color="#808080" stop-opacity="0.1"/>
</linearGradient>
<linearGradient id="paint2_linear" x1="46406.6" y1="23630.5" x2="43043.9" y2="16373.3" gradientUnits="userSpaceOnUse">
<stop stop-color="#808080" stop-opacity="0.25"/>
<stop offset="0.54" stop-color="#808080" stop-opacity="0.12"/>
<stop offset="1" stop-color="#808080" stop-opacity="0.1"/>
</linearGradient>
<linearGradient id="paint3_linear" x1="18256.7" y1="5444.91" x2="17356.2" y2="3501.64" gradientUnits="userSpaceOnUse">
<stop stop-color="#808080" stop-opacity="0.25"/>
<stop offset="0.54" stop-color="#808080" stop-opacity="0.12"/>
<stop offset="1" stop-color="#808080" stop-opacity="0.1"/>
</linearGradient>
<linearGradient id="paint4_linear" x1="98209.2" y1="-38271.7" x2="97149.9" y2="-40557.7" gradientUnits="userSpaceOnUse">
<stop stop-color="#808080" stop-opacity="0.25"/>
<stop offset="0.54" stop-color="#808080" stop-opacity="0.12"/>
<stop offset="1" stop-color="#808080" stop-opacity="0.1"/>
</linearGradient>
<linearGradient id="paint5_linear" x1="29022.7" y1="-7603.69" x2="27548.7" y2="-10784.8" gradientUnits="userSpaceOnUse">
<stop stop-color="#808080" stop-opacity="0.25"/>
<stop offset="0.54" stop-color="#808080" stop-opacity="0.12"/>
<stop offset="1" stop-color="#808080" stop-opacity="0.1"/>
</linearGradient>
<linearGradient id="paint6_linear" x1="366347" y1="215636" x2="366347" y2="35842.8" gradientUnits="userSpaceOnUse">
<stop stop-color="#808080" stop-opacity="0.25"/>
<stop offset="0.54" stop-color="#808080" stop-opacity="0.12"/>
<stop offset="1" stop-color="#808080" stop-opacity="0.1"/>
</linearGradient>
<clipPath id="clip0">
<rect width="611" height="601" fill="white"/>
</clipPath>
</defs>
</svg>
