<svg width="820" height="553" viewBox="0 0 820 553" fill="none" xmlns="http://www.w3.org/2000/svg">
<g id="undraw_Working_oh83 1" clip-path="url(#clip0)">
<g id="notebook3">
<path id="Vector" d="M256.932 4.48084L80.2975 44.4563C73.0604 46.0942 68.5213 53.2888 70.1592 60.526L130.892 328.879C132.53 336.116 139.725 340.655 146.962 339.017L323.596 299.042C330.833 297.404 335.372 290.209 333.735 282.972L273.002 14.6192C271.364 7.38203 264.169 2.84295 256.932 4.48084Z" fill="#3F3D56"/>
<path id="Vector_2" d="M87.5974 93C90.9111 93 93.5974 90.3137 93.5974 87C93.5974 83.6863 90.9111 81 87.5974 81C84.2836 81 81.5974 83.6863 81.5974 87C81.5974 90.3137 84.2836 93 87.5974 93Z" fill="white"/>
<path id="Vector_3" d="M93.5974 115C96.9111 115 99.5974 112.314 99.5974 109C99.5974 105.686 96.9111 103 93.5974 103C90.2836 103 87.5974 105.686 87.5974 109C87.5974 112.314 90.2836 115 93.5974 115Z" fill="white"/>
<path id="Vector_4" d="M132.597 276C135.911 276 138.597 273.314 138.597 270C138.597 266.686 135.911 264 132.597 264C129.284 264 126.597 266.686 126.597 270C126.597 273.314 129.284 276 132.597 276Z" fill="white"/>
<path id="Vector_5" d="M138.597 298C141.911 298 144.597 295.314 144.597 292C144.597 288.686 141.911 286 138.597 286C135.284 286 132.597 288.686 132.597 292C132.597 295.314 135.284 298 138.597 298Z" fill="white"/>
<path id="Vector_6" d="M256.186 116.084L134.39 143.649L138.984 163.948L260.78 136.383L256.186 116.084Z" fill="#F5F5F5"/>
</g>
<g id="notebook2">
<path id="Vector_7" d="M417.822 107.046L214.98 152.953L281.644 447.514L484.486 401.607L417.822 107.046Z" fill="#F3AC30"/>
<path id="Vector_8" d="M380.186 149.084L258.39 176.649L262.984 196.948L384.78 169.383L380.186 149.084Z" fill="#F5F5F5"/>
<path id="Vector_9" d="M411.588 193.547L249.193 230.299L250.342 235.374L412.736 198.622L411.588 193.547Z" fill="#F5F5F5"/>
<path id="Vector_10" d="M414.268 205.388L251.873 242.141L253.022 247.216L415.416 210.463L414.268 205.388Z" fill="#F5F5F5"/>
<path id="Vector_11" d="M416.948 217.229L254.553 253.982L255.702 259.057L418.096 222.304L416.948 217.229Z" fill="#F5F5F5"/>
<path id="Vector_12" d="M335.047 248.213L257.233 265.823L258.382 270.898L336.196 253.287L335.047 248.213Z" fill="#F5F5F5"/>
<path id="Vector_13" d="M349.568 257.374L259.913 277.665L261.061 282.739L350.717 262.449L349.568 257.374Z" fill="#F5F5F5"/>
<path id="Vector_14" d="M424.987 252.753L262.593 289.506L263.741 294.581L426.136 257.828L424.987 252.753Z" fill="#F5F5F5"/>
<path id="Vector_15" d="M427.667 264.594L265.273 301.347L266.421 306.422L428.816 269.669L427.667 264.594Z" fill="#F5F5F5"/>
<path id="Vector_16" d="M418.506 279.116L267.953 313.188L269.101 318.263L419.654 284.19L418.506 279.116Z" fill="#F5F5F5"/>
<path id="Vector_17" d="M433.027 288.277L270.632 325.03L271.781 330.104L434.176 293.352L433.027 288.277Z" fill="#F5F5F5"/>
<path id="Vector_18" d="M357.893 317.729L273.312 336.871L274.461 341.946L359.041 322.804L357.893 317.729Z" fill="#F5F5F5"/>
<path id="Vector_19" d="M436.918 321.183L338.804 343.388L354.118 411.052L452.231 388.848L436.918 321.183Z" fill="#F5F5F5"/>
</g>
<g id="notebook4">
<path id="Vector_20" d="M631.729 58.6351L428.886 104.542L495.551 399.103L698.393 353.196L631.729 58.6351Z" fill="#3F3D56"/>
<path id="Vector_21" opacity="0.3" d="M585.94 280.344L496.284 300.634L497.433 305.709L587.088 285.419L585.94 280.344Z" fill="#F3AC30"/>
<path id="Vector_22" opacity="0.3" d="M661.359 275.723L498.964 312.476L500.113 317.551L662.507 280.798L661.359 275.723Z" fill="#F3AC30"/>
<path id="Vector_23" opacity="0.3" d="M664.039 287.564L501.644 324.317L502.793 329.392L665.187 292.639L664.039 287.564Z" fill="#F3AC30"/>
<path id="Vector_24" opacity="0.3" d="M654.877 302.086L504.324 336.158L505.473 341.233L656.026 307.16L654.877 302.086Z" fill="#F3AC30"/>
<path id="Vector_25" opacity="0.3" d="M669.399 311.247L507.004 348L508.153 353.074L670.547 316.322L669.399 311.247Z" fill="#F3AC30"/>
<path id="Vector_26" opacity="0.3" d="M553.051 95.7358L454.938 117.941L470.251 185.605L568.365 163.4L553.051 95.7358Z" fill="#F3AC30"/>
</g>
<path id="Vector_27" opacity="0.3" d="M649.081 166.472L550.968 188.676L566.281 256.341L664.395 234.136L649.081 166.472Z" fill="#F3AC30"/>
<g id="Group" opacity="0.5">
<path id="Vector_28" opacity="0.5" d="M188.597 510.286H185.597V527.286H188.597V510.286Z" fill="#47E6B1"/>
<path id="Vector_29" opacity="0.5" d="M195.597 520.286V517.286H178.597V520.286H195.597Z" fill="#47E6B1"/>
</g>
<g id="Group_2" opacity="0.5">
<path id="Vector_30" opacity="0.5" d="M515.597 0H512.597V17H515.597V0Z" fill="#47E6B1"/>
<path id="Vector_31" opacity="0.5" d="M522.597 10V7.00003L505.597 7.00003V10H522.597Z" fill="#47E6B1"/>
</g>
<path id="Vector_32" opacity="0.5" d="M360.29 508.592C359.463 508.232 358.797 507.58 358.42 506.761C358.042 505.942 357.979 505.013 358.242 504.151C358.285 504.019 358.312 503.882 358.322 503.743V503.743C358.346 503.348 358.242 502.956 358.026 502.624C357.809 502.293 357.492 502.04 357.121 501.903C356.749 501.766 356.344 501.752 355.964 501.863C355.584 501.975 355.25 502.206 355.012 502.522V502.522C354.93 502.634 354.861 502.756 354.808 502.884C354.448 503.711 353.796 504.376 352.977 504.754C352.158 505.131 351.229 505.194 350.367 504.931C350.235 504.889 350.098 504.862 349.959 504.851V504.851C349.564 504.827 349.172 504.931 348.84 505.148C348.509 505.364 348.256 505.681 348.119 506.053C347.982 506.424 347.968 506.83 348.079 507.21C348.191 507.59 348.422 507.924 348.738 508.162C348.85 508.244 348.972 508.312 349.1 508.366C349.927 508.726 350.592 509.377 350.97 510.196C351.347 511.015 351.41 511.944 351.147 512.807C351.105 512.939 351.078 513.076 351.067 513.214V513.214C351.043 513.61 351.147 514.002 351.364 514.333C351.58 514.665 351.897 514.918 352.269 515.055C352.64 515.192 353.046 515.206 353.426 515.094C353.806 514.983 354.14 514.752 354.378 514.436V514.436C354.46 514.323 354.528 514.202 354.582 514.074C354.942 513.247 355.593 512.582 356.412 512.204C357.231 511.826 358.16 511.763 359.023 512.026C359.155 512.069 359.292 512.096 359.43 512.106V512.106C359.825 512.13 360.218 512.026 360.549 511.81C360.881 511.594 361.134 511.276 361.271 510.905C361.408 510.533 361.422 510.128 361.31 509.748C361.199 509.368 360.968 509.034 360.651 508.796V508.796C360.539 508.714 360.418 508.645 360.29 508.592V508.592Z" fill="#4D8AF0"/>
<path id="Vector_33" opacity="0.5" d="M411.285 514.803C410.458 514.443 409.793 513.791 409.415 512.973C409.038 512.154 408.974 511.224 409.237 510.362C409.28 510.23 409.307 510.093 409.317 509.954V509.954C409.341 509.559 409.238 509.167 409.021 508.835C408.805 508.504 408.487 508.251 408.116 508.114C407.745 507.977 407.339 507.963 406.959 508.075C406.579 508.186 406.245 508.417 406.007 508.733V508.733C405.925 508.845 405.857 508.967 405.803 509.095C405.443 509.922 404.792 510.587 403.973 510.965C403.154 511.342 402.225 511.406 401.362 511.143C401.23 511.1 401.093 511.073 400.955 511.063V511.063C400.559 511.039 400.167 511.142 399.835 511.359C399.504 511.575 399.251 511.893 399.114 512.264C398.977 512.636 398.963 513.041 399.075 513.421C399.186 513.801 399.417 514.135 399.733 514.373C399.845 514.455 399.967 514.524 400.095 514.577C400.922 514.937 401.587 515.589 401.965 516.407C402.342 517.226 402.406 518.155 402.143 519.018C402.1 519.15 402.073 519.287 402.063 519.426C402.039 519.821 402.143 520.213 402.359 520.545C402.575 520.876 402.893 521.129 403.264 521.266C403.636 521.403 404.041 521.417 404.421 521.305C404.801 521.194 405.135 520.963 405.373 520.647C405.455 520.535 405.524 520.413 405.577 520.285C405.937 519.458 406.589 518.793 407.408 518.415C408.226 518.038 409.156 517.974 410.018 518.237C410.15 518.28 410.287 518.307 410.426 518.317C410.821 518.341 411.213 518.238 411.545 518.021C411.876 517.805 412.129 517.487 412.266 517.116C412.403 516.744 412.417 516.339 412.305 515.959C412.194 515.579 411.963 515.245 411.647 515.007C411.535 514.925 411.413 514.857 411.285 514.803V514.803Z" fill="#4D8AF0"/>
<path id="Vector_34" opacity="0.5" d="M12.2897 211.305C11.463 210.945 10.7975 210.294 10.4199 209.475C10.0424 208.656 9.97914 207.727 10.2422 206.864C10.2848 206.732 10.3116 206.595 10.3221 206.457C10.3462 206.062 10.2423 205.669 10.0259 205.338C9.80952 205.006 9.4921 204.753 9.12066 204.616C8.74923 204.479 8.34353 204.466 7.96368 204.577C7.58382 204.689 7.25 204.92 7.01167 205.236V205.236C6.92971 205.348 6.86126 205.469 6.80776 205.598C6.4477 206.424 5.79622 207.09 4.97732 207.467C4.15842 207.845 3.22928 207.908 2.36677 207.645C2.23454 207.602 2.09774 207.576 1.95922 207.565V207.565C1.56405 207.541 1.17165 207.645 0.840128 207.861C0.508602 208.078 0.255589 208.395 0.118571 208.767C-0.018448 209.138 -0.0321888 209.544 0.079386 209.924C0.190961 210.303 0.421921 210.637 0.738047 210.876V210.876C0.850212 210.957 0.971652 211.026 1.09985 211.079C1.92659 211.44 2.59207 212.091 2.96961 212.91C3.34716 213.729 3.41042 214.658 3.14733 215.52C3.10476 215.653 3.07793 215.789 3.06742 215.928C3.04337 216.323 3.14724 216.716 3.36364 217.047C3.58004 217.379 3.89747 217.632 4.2689 217.769C4.64033 217.906 5.04602 217.919 5.42587 217.808C5.80572 217.696 6.13953 217.465 6.37786 217.149C6.45982 217.037 6.52826 216.916 6.58177 216.787C6.94183 215.961 7.59331 215.295 8.41221 214.918C9.23111 214.54 10.1603 214.477 11.0228 214.74C11.155 214.782 11.2918 214.809 11.4303 214.82V214.82C11.8255 214.844 12.2179 214.74 12.5494 214.524C12.8809 214.307 13.1339 213.99 13.2709 213.618C13.408 213.247 13.4217 212.841 13.3101 212.461C13.1986 212.082 12.9676 211.748 12.6515 211.509V211.509C12.5393 211.427 12.4179 211.359 12.2897 211.305V211.305Z" fill="#4D8AF0"/>
<path id="Vector_35" opacity="0.5" d="M782.285 244.803C781.458 244.443 780.793 243.792 780.415 242.973C780.038 242.154 779.974 241.225 780.238 240.362C780.28 240.23 780.307 240.093 780.317 239.955C780.341 239.559 780.238 239.167 780.021 238.835C779.805 238.504 779.487 238.251 779.116 238.114C778.745 237.977 778.339 237.963 777.959 238.075C777.579 238.186 777.245 238.417 777.007 238.733C776.925 238.846 776.857 238.967 776.803 239.095C776.443 239.922 775.792 240.587 774.973 240.965C774.154 241.342 773.225 241.406 772.362 241.143C772.23 241.1 772.093 241.073 771.955 241.063C771.559 241.039 771.167 241.143 770.835 241.359C770.504 241.575 770.251 241.893 770.114 242.264C769.977 242.636 769.963 243.041 770.075 243.421C770.186 243.801 770.417 244.135 770.733 244.373C770.845 244.455 770.967 244.524 771.095 244.577C771.922 244.937 772.587 245.589 772.965 246.408C773.342 247.226 773.406 248.156 773.143 249.018C773.1 249.15 773.073 249.287 773.063 249.426C773.039 249.821 773.143 250.213 773.359 250.545C773.575 250.876 773.893 251.129 774.264 251.266C774.636 251.403 775.041 251.417 775.421 251.305C775.801 251.194 776.135 250.963 776.373 250.647C776.455 250.535 776.524 250.413 776.577 250.285C776.937 249.458 777.589 248.793 778.407 248.415C779.226 248.038 780.156 247.974 781.018 248.237C781.15 248.28 781.287 248.307 781.426 248.317C781.821 248.341 782.213 248.238 782.545 248.021C782.876 247.805 783.129 247.487 783.266 247.116C783.403 246.745 783.417 246.339 783.305 245.959C783.194 245.579 782.963 245.245 782.647 245.007C782.535 244.925 782.413 244.857 782.285 244.803Z" fill="#4D8AF0"/>
<path id="Vector_36" opacity="0.5" d="M107.597 461.286C110.911 461.286 113.597 458.6 113.597 455.286C113.597 451.973 110.911 449.286 107.597 449.286C104.284 449.286 101.597 451.973 101.597 455.286C101.597 458.6 104.284 461.286 107.597 461.286Z" fill="#F55F44"/>
<path id="Vector_37" opacity="0.5" d="M321.597 12C324.911 12 327.597 9.31371 327.597 6C327.597 2.68629 324.911 0 321.597 0C318.284 0 315.597 2.68629 315.597 6C315.597 9.31371 318.284 12 321.597 12Z" fill="#4D8AF0"/>
<path id="Vector_38" opacity="0.5" d="M463.796 463.937C467.109 463.937 469.796 461.251 469.796 457.937C469.796 454.624 467.109 451.937 463.796 451.937C460.482 451.937 457.796 454.624 457.796 457.937C457.796 461.251 460.482 463.937 463.796 463.937Z" fill="#47E6B1"/>
<path id="Vector_39" opacity="0.5" d="M714.593 495.498C717.906 495.498 720.593 492.811 720.593 489.498C720.593 486.184 717.906 483.498 714.593 483.498C711.279 483.498 708.593 486.184 708.593 489.498C708.593 492.811 711.279 495.498 714.593 495.498Z" fill="#F55F44"/>
<g id="notebook1">
<path id="book1" d="M694.932 131.481L518.298 171.456C511.06 173.094 506.521 180.289 508.159 187.526L568.892 455.879C570.53 463.116 577.725 467.655 584.962 466.017L761.596 426.042C768.833 424.404 773.372 417.209 771.735 409.972L711.002 141.619C709.364 134.382 702.169 129.843 694.932 131.481Z" fill="#F3AC30"/>
<path id="Vector_40" d="M525.597 220C528.911 220 531.597 217.314 531.597 214C531.597 210.686 528.911 208 525.597 208C522.284 208 519.597 210.686 519.597 214C519.597 217.314 522.284 220 525.597 220Z" fill="white"/>
<path id="Vector_41" d="M531.597 242C534.911 242 537.597 239.314 537.597 236C537.597 232.686 534.911 230 531.597 230C528.284 230 525.597 232.686 525.597 236C525.597 239.314 528.284 242 531.597 242Z" fill="white"/>
<path id="Vector_42" d="M570.597 403C573.911 403 576.597 400.314 576.597 397C576.597 393.686 573.911 391 570.597 391C567.284 391 564.597 393.686 564.597 397C564.597 400.314 567.284 403 570.597 403Z" fill="white"/>
<path id="Vector_43" d="M576.597 425C579.911 425 582.597 422.314 582.597 419C582.597 415.686 579.911 413 576.597 413C573.284 413 570.597 415.686 570.597 419C570.597 422.314 573.284 425 576.597 425Z" fill="white"/>
<path id="Vector_44" d="M694.186 243.084L572.39 270.649L576.984 290.948L698.78 263.383L694.186 243.084Z" fill="#F5F5F5"/>
</g>
</g>
<defs>
<clipPath id="clip0">
<rect width="820" height="553" fill="white"/>
</clipPath>
</defs>
</svg>
