<svg width="451" height="338" viewBox="0 0 451 338" fill="none" xmlns="http://www.w3.org/2000/svg">
<g id="undraw_Online_learning_re_qw08 1" clip-path="url(#clip0)">
<path id="Vector" d="M450.348 335.408H0.651734C0.478883 335.408 0.313112 335.337 0.190888 335.21C0.0686642 335.083 0 334.911 0 334.732C0 334.552 0.0686642 334.38 0.190888 334.254C0.313112 334.127 0.478883 334.056 0.651734 334.056H450.348C450.521 334.056 450.687 334.127 450.809 334.254C450.931 334.38 451 334.552 451 334.732C451 334.911 450.931 335.083 450.809 335.21C450.687 335.337 450.521 335.408 450.348 335.408Z" fill="#CCCCCC"/>
<path id="Vector_2" d="M405.838 217.483H141.234C140.11 217.483 139.033 217.946 138.238 218.77C137.444 219.595 136.997 220.713 136.997 221.878C136.997 223.044 137.444 224.162 138.238 224.986C139.033 225.81 140.11 226.273 141.234 226.273H148.729V331.417C148.729 332.583 149.175 333.701 149.969 334.525C150.764 335.349 151.841 335.812 152.965 335.812C154.088 335.812 155.166 335.349 155.96 334.525C156.755 333.701 157.201 332.583 157.201 331.417L157.266 226.273H389.218V331.417C389.218 332.583 389.665 333.701 390.459 334.525C391.254 335.349 392.331 335.812 393.455 335.812C394.578 335.812 395.656 335.349 396.45 334.525C397.245 333.701 397.691 332.583 397.691 331.417V228.591L398.924 226.273H405.838C406.961 226.273 408.039 225.81 408.833 224.986C409.628 224.162 410.074 223.044 410.074 221.878C410.074 220.713 409.628 219.595 408.833 218.77C408.039 217.946 406.961 217.483 405.838 217.483V217.483Z" fill="#CCCCCC"/>
<path id="Vector_3" d="M287.932 219.783H207.781C206.229 219.781 204.741 219.141 203.644 218.003C202.546 216.864 201.929 215.32 201.927 213.71V167.927C201.929 166.317 202.546 164.774 203.644 163.635C204.741 162.497 206.229 161.856 207.781 161.854H287.932C289.484 161.856 290.972 162.497 292.07 163.635C293.167 164.774 293.784 166.317 293.786 167.927V213.71C293.784 215.32 293.167 216.864 292.07 218.003C290.972 219.141 289.484 219.781 287.932 219.783V219.783Z" fill="#3F3D56"/>
<path id="Vector_4" d="M287.932 166.528H207.781C207.424 166.529 207.081 166.677 206.828 166.939C206.575 167.202 206.433 167.557 206.432 167.928V213.711C206.433 214.082 206.575 214.438 206.828 214.7C207.081 214.962 207.424 215.11 207.781 215.111H287.932C288.289 215.11 288.632 214.962 288.885 214.7C289.138 214.438 289.28 214.082 289.281 213.711V167.928C289.28 167.557 289.138 167.202 288.885 166.939C288.632 166.677 288.289 166.529 287.932 166.528V166.528Z" fill="white"/>
<path id="Vector_5" d="M254.692 198.943C254.692 198.943 245.097 196.649 239.82 200.854C234.543 205.059 246.537 214.617 246.537 214.617L254.692 198.943Z" fill="#2F2E41"/>
<path id="Vector_6" d="M248.326 194.608C253.325 194.608 257.377 190.404 257.377 185.218C257.377 180.033 253.325 175.829 248.326 175.829C243.328 175.829 239.276 180.033 239.276 185.218C239.276 190.404 243.328 194.608 248.326 194.608Z" fill="#A0616A"/>
<path id="Vector_7" d="M241.328 172.037C241.931 170.974 242.806 170.105 243.856 169.526C244.906 168.947 246.089 168.679 247.276 168.754C248.517 168.915 249.729 169.267 250.87 169.798L256.787 172.192C258.318 172.812 259.995 173.571 260.659 175.13C261.276 176.578 260.816 178.249 260.35 179.756L258.136 186.919C257.891 185.298 257.47 183.711 256.882 182.187C256.284 180.654 255.203 179.376 253.816 178.56C252.279 177.742 250.468 177.759 248.742 177.846C246.299 177.968 243.642 178.29 241.906 180.078C240.985 181.094 240.36 182.36 240.104 183.729C239.853 185.091 239.727 186.475 239.727 187.861C238.725 186.075 237.881 184.197 237.205 182.252C236.649 180.804 236.332 179.269 236.268 177.712C236.21 176.141 236.712 174.604 237.679 173.393C238.169 172.802 238.809 172.364 239.527 172.13C240.244 171.896 241.011 171.874 241.739 172.067L241.328 172.037Z" fill="#2F2E41"/>
<path id="Vector_8" d="M269.937 207.085C269.852 206.768 269.679 206.484 269.439 206.268C269.199 206.053 268.903 205.916 268.588 205.875C268.567 205.86 268.546 205.846 268.523 205.834L255.012 197.978C254.626 197.754 254.171 197.692 253.743 197.807C253.315 197.921 252.946 198.203 252.712 198.592L249.017 204.799L243.451 199.025L243.362 198.933C243.077 198.637 242.7 198.454 242.297 198.418C241.895 198.381 241.493 198.493 241.162 198.734L230.058 206.801C230.038 206.801 230.019 206.808 229.999 206.808C229.468 206.9 228.982 207.177 228.623 207.594C228.264 208.01 228.053 208.542 228.024 209.1L227.737 215.111H272.081L269.937 207.085Z" fill="#F3AC30"/>
<path id="Vector_9" d="M294.687 214.177H286.131C286.131 213.929 286.036 213.692 285.867 213.517C285.698 213.341 285.469 213.243 285.231 213.243H282.529C282.29 213.243 282.061 213.341 281.892 213.517C281.723 213.692 281.628 213.929 281.628 214.177H278.926C278.926 213.929 278.832 213.692 278.663 213.517C278.494 213.341 278.265 213.243 278.026 213.243H275.324C275.085 213.243 274.856 213.341 274.687 213.517C274.518 213.692 274.424 213.929 274.424 214.177H271.722C271.722 213.929 271.627 213.692 271.458 213.517C271.289 213.341 271.06 213.243 270.821 213.243H268.12C267.881 213.243 267.652 213.341 267.483 213.517C267.314 213.692 267.219 213.929 267.219 214.177H264.517C264.517 213.929 264.422 213.692 264.253 213.517C264.085 213.341 263.855 213.243 263.617 213.243H260.915C260.676 213.243 260.447 213.341 260.278 213.517C260.109 213.692 260.014 213.929 260.014 214.177H257.313C257.313 213.929 257.218 213.692 257.049 213.517C256.88 213.341 256.651 213.243 256.412 213.243H253.71C253.471 213.243 253.242 213.341 253.073 213.517C252.905 213.692 252.81 213.929 252.81 214.177H250.108C250.108 213.929 250.013 213.692 249.844 213.517C249.675 213.341 249.446 213.243 249.207 213.243H246.506C246.267 213.243 246.038 213.341 245.869 213.517C245.7 213.692 245.605 213.929 245.605 214.177H242.903C242.903 213.929 242.808 213.692 242.64 213.517C242.471 213.341 242.242 213.243 242.003 213.243H239.301C239.062 213.243 238.833 213.341 238.664 213.517C238.495 213.692 238.4 213.929 238.4 214.177H235.699C235.699 213.929 235.604 213.692 235.435 213.517C235.266 213.341 235.037 213.243 234.798 213.243H232.096C231.858 213.243 231.628 213.341 231.46 213.517C231.291 213.692 231.196 213.929 231.196 214.177H228.494C228.494 213.929 228.399 213.692 228.23 213.517C228.061 213.341 227.832 213.243 227.594 213.243H224.892C224.653 213.243 224.424 213.341 224.255 213.517C224.086 213.692 223.991 213.929 223.991 214.177H221.289C221.289 213.929 221.195 213.692 221.026 213.517C220.857 213.341 220.628 213.243 220.389 213.243H217.687C217.448 213.243 217.219 213.341 217.05 213.517C216.881 213.692 216.787 213.929 216.787 214.177H214.085C214.085 213.929 213.99 213.692 213.821 213.517C213.652 213.341 213.423 213.243 213.184 213.243H210.483C210.244 213.243 210.015 213.341 209.846 213.517C209.677 213.692 209.582 213.929 209.582 214.177H201.026C200.311 214.178 199.625 214.474 199.119 215C198.613 215.525 198.329 216.238 198.329 216.98C198.329 217.723 198.613 218.435 199.119 218.961C199.625 219.486 200.311 219.782 201.026 219.783H294.687C295.403 219.783 296.09 219.488 296.597 218.962C297.104 218.437 297.388 217.724 297.388 216.98C297.388 216.237 297.104 215.524 296.597 214.998C296.09 214.473 295.403 214.177 294.687 214.177V214.177Z" fill="#3F3D56"/>
<path id="Vector_10" d="M187.099 197.899V216.511H142.154C140.95 216.555 139.75 216.346 138.625 215.898C137.5 215.45 136.474 214.772 135.607 213.903C134.74 213.035 134.051 211.994 133.58 210.843C133.109 209.693 132.867 208.455 132.867 207.205C132.867 205.955 133.109 204.718 133.58 203.567C134.051 202.417 134.74 201.376 135.607 200.507C136.474 199.639 137.5 198.961 138.625 198.512C139.75 198.064 140.95 197.856 142.154 197.899H187.099Z" fill="#F2F2F2"/>
<path id="Vector_11" d="M188.203 216.368C188.203 216.558 188.13 216.74 188.001 216.874C187.872 217.008 187.696 217.084 187.513 217.084H141.354C138.847 217.084 136.442 216.051 134.67 214.212C132.897 212.372 131.901 209.878 131.901 207.277C131.901 204.676 132.897 202.181 134.67 200.342C136.442 198.503 138.847 197.47 141.354 197.47H187.513C187.696 197.47 187.872 197.545 188.001 197.679C188.13 197.814 188.203 197.996 188.203 198.186C188.203 198.376 188.13 198.558 188.001 198.692C187.872 198.826 187.696 198.901 187.513 198.901H141.354C139.214 198.903 137.162 199.787 135.65 201.357C134.138 202.928 133.288 205.057 133.288 207.277C133.288 209.497 134.138 211.626 135.65 213.197C137.162 214.767 139.214 215.65 141.354 215.652H187.513C187.696 215.652 187.872 215.728 188.001 215.862C188.13 215.996 188.203 216.178 188.203 216.368V216.368Z" fill="#F3AC30"/>
<path id="Vector_12" d="M187.099 202.194H138.801C138.783 202.195 138.764 202.191 138.748 202.184C138.731 202.177 138.715 202.166 138.703 202.153C138.69 202.139 138.679 202.124 138.672 202.106C138.665 202.089 138.662 202.07 138.662 202.051C138.662 202.032 138.665 202.014 138.672 201.996C138.679 201.979 138.69 201.963 138.703 201.95C138.715 201.936 138.731 201.926 138.748 201.919C138.764 201.912 138.783 201.908 138.801 201.908H187.099C187.136 201.908 187.17 201.923 187.196 201.95C187.222 201.977 187.236 202.013 187.236 202.051C187.236 202.089 187.222 202.125 187.196 202.152C187.17 202.179 187.136 202.194 187.099 202.194V202.194Z" fill="#CCCCCC"/>
<path id="Vector_13" d="M187.099 205.63H138.801C138.783 205.631 138.764 205.627 138.748 205.62C138.731 205.613 138.715 205.602 138.703 205.589C138.69 205.576 138.679 205.56 138.672 205.542C138.665 205.525 138.662 205.506 138.662 205.487C138.662 205.468 138.665 205.45 138.672 205.432C138.679 205.415 138.69 205.399 138.703 205.386C138.715 205.372 138.731 205.362 138.748 205.355C138.764 205.348 138.783 205.344 138.801 205.344H187.099C187.136 205.344 187.17 205.36 187.196 205.386C187.222 205.413 187.236 205.449 187.236 205.487C187.236 205.525 187.222 205.561 187.196 205.588C187.17 205.615 187.136 205.63 187.099 205.63V205.63Z" fill="#CCCCCC"/>
<path id="Vector_14" d="M187.099 209.067H138.801C138.783 209.067 138.764 209.063 138.748 209.056C138.731 209.049 138.715 209.038 138.703 209.025C138.69 209.012 138.679 208.996 138.672 208.978C138.665 208.961 138.662 208.942 138.662 208.923C138.662 208.904 138.665 208.886 138.672 208.868C138.679 208.851 138.69 208.835 138.703 208.822C138.715 208.808 138.731 208.798 138.748 208.791C138.764 208.784 138.783 208.78 138.801 208.78H187.099C187.136 208.78 187.17 208.796 187.196 208.822C187.222 208.849 187.236 208.886 187.236 208.923C187.236 208.961 187.222 208.997 187.196 209.024C187.17 209.051 187.136 209.066 187.099 209.067V209.067Z" fill="#CCCCCC"/>
<path id="Vector_15" d="M187.099 212.503H138.801C138.783 212.503 138.764 212.499 138.748 212.492C138.731 212.485 138.715 212.474 138.703 212.461C138.69 212.448 138.679 212.432 138.672 212.414C138.665 212.397 138.662 212.378 138.662 212.359C138.662 212.34 138.665 212.322 138.672 212.304C138.679 212.287 138.69 212.271 138.703 212.258C138.715 212.244 138.731 212.234 138.748 212.227C138.764 212.22 138.783 212.216 138.801 212.216H187.099C187.136 212.216 187.17 212.232 187.196 212.259C187.222 212.285 187.236 212.322 187.236 212.359C187.236 212.397 187.222 212.433 187.196 212.46C187.17 212.487 187.136 212.502 187.099 212.503Z" fill="#CCCCCC"/>
<path id="Vector_16" d="M178.627 178.29V196.902H133.682C132.477 196.946 131.277 196.737 130.152 196.289C129.027 195.841 128.001 195.163 127.134 194.294C126.268 193.426 125.578 192.385 125.108 191.235C124.637 190.084 124.394 188.847 124.394 187.596C124.394 186.346 124.637 185.109 125.108 183.958C125.578 182.808 126.268 181.767 127.134 180.899C128.001 180.03 129.027 179.352 130.152 178.904C131.277 178.456 132.477 178.247 133.682 178.29H178.627Z" fill="#F2F2F2"/>
<g id="book1">
<path id="Vector_17" d="M179.731 196.759C179.731 196.949 179.658 197.131 179.529 197.265C179.399 197.4 179.224 197.475 179.041 197.475H132.881C131.64 197.475 130.411 197.221 129.264 196.729C128.117 196.236 127.075 195.513 126.197 194.603C125.319 193.692 124.623 192.611 124.148 191.421C123.673 190.231 123.428 188.956 123.428 187.668C123.428 186.38 123.673 185.105 124.148 183.915C124.623 182.725 125.319 181.644 126.197 180.733C127.075 179.823 128.117 179.1 129.264 178.607C130.411 178.115 131.64 177.861 132.881 177.861H179.041C179.224 177.861 179.399 177.936 179.529 178.071C179.658 178.205 179.731 178.387 179.731 178.577C179.731 178.767 179.658 178.949 179.529 179.083C179.399 179.217 179.224 179.293 179.041 179.293H132.881C130.741 179.295 128.69 180.178 127.177 181.748C125.665 183.319 124.816 185.448 124.816 187.668C124.816 189.888 125.665 192.017 127.177 193.588C128.69 195.158 130.741 196.041 132.881 196.043H179.041C179.224 196.044 179.399 196.119 179.528 196.253C179.658 196.387 179.731 196.569 179.731 196.759V196.759Z" fill="#3F3D56"/>
<path id="Vector_18" d="M178.627 182.586H130.328C130.31 182.586 130.292 182.582 130.275 182.575C130.258 182.568 130.243 182.557 130.23 182.544C130.217 182.531 130.207 182.515 130.2 182.497C130.193 182.48 130.189 182.461 130.189 182.442C130.189 182.424 130.193 182.405 130.2 182.387C130.207 182.37 130.217 182.354 130.23 182.341C130.243 182.328 130.258 182.317 130.275 182.31C130.292 182.303 130.31 182.299 130.328 182.299H178.627C178.663 182.299 178.698 182.315 178.724 182.341C178.749 182.368 178.764 182.405 178.764 182.442C178.764 182.48 178.749 182.516 178.724 182.543C178.698 182.57 178.663 182.585 178.627 182.586V182.586Z" fill="#CCCCCC"/>
<path id="Vector_19" d="M178.627 186.022H130.328C130.31 186.022 130.292 186.018 130.275 186.011C130.258 186.004 130.243 185.993 130.23 185.98C130.217 185.967 130.207 185.951 130.2 185.933C130.193 185.916 130.189 185.897 130.189 185.878C130.189 185.86 130.193 185.841 130.2 185.823C130.207 185.806 130.217 185.79 130.23 185.777C130.243 185.764 130.258 185.753 130.275 185.746C130.292 185.739 130.31 185.735 130.328 185.735H178.627C178.663 185.736 178.698 185.751 178.724 185.778C178.749 185.804 178.764 185.841 178.764 185.878C178.764 185.916 178.749 185.953 178.724 185.979C178.698 186.006 178.663 186.021 178.627 186.022V186.022Z" fill="#CCCCCC"/>
<path id="Vector_20" d="M178.627 189.458H130.328C130.31 189.458 130.292 189.454 130.275 189.447C130.258 189.44 130.243 189.429 130.23 189.416C130.217 189.403 130.207 189.387 130.2 189.37C130.193 189.352 130.189 189.333 130.189 189.315C130.189 189.296 130.193 189.277 130.2 189.26C130.207 189.242 130.217 189.226 130.23 189.213C130.243 189.2 130.258 189.189 130.275 189.182C130.292 189.175 130.31 189.171 130.328 189.171H178.627C178.663 189.172 178.698 189.187 178.724 189.214C178.749 189.24 178.764 189.277 178.764 189.315C178.764 189.352 178.749 189.389 178.724 189.415C178.698 189.442 178.663 189.457 178.627 189.458V189.458Z" fill="#CCCCCC"/>
<path id="Vector_21" d="M178.627 192.894H130.328C130.31 192.894 130.292 192.89 130.275 192.883C130.258 192.876 130.243 192.865 130.23 192.852C130.217 192.839 130.207 192.823 130.2 192.806C130.193 192.788 130.189 192.769 130.189 192.751C130.189 192.732 130.193 192.713 130.2 192.696C130.207 192.678 130.217 192.662 130.23 192.649C130.243 192.636 130.258 192.625 130.275 192.618C130.292 192.611 130.31 192.607 130.328 192.607H178.627C178.663 192.608 178.698 192.623 178.724 192.65C178.749 192.676 178.764 192.713 178.764 192.751C178.764 192.788 178.749 192.825 178.724 192.851C178.698 192.878 178.663 192.893 178.627 192.894Z" fill="#CCCCCC"/>
</g>
<path id="Vector_22" d="M230.911 282.667V266.439C230.911 265.722 230.637 265.034 230.148 264.526C229.659 264.019 228.996 263.734 228.305 263.734H168.997C168.305 263.734 167.642 264.019 167.153 264.526C166.664 265.034 166.39 265.722 166.39 266.439V282.667H230.911Z" fill="#583E23"/>
<path id="Vector_23" d="M230.911 288.752H166.39V309.714H230.911V288.752Z" fill="#583E23"/>
<path id="Vector_24" d="M166.39 315.799V332.027C166.39 332.744 166.664 333.432 167.153 333.939C167.642 334.447 168.305 334.732 168.997 334.732H228.305C228.996 334.732 229.659 334.447 230.148 333.939C230.637 333.432 230.911 332.744 230.911 332.027V315.799H166.39Z" fill="#583E23"/>
<path id="Vector_25" d="M198.325 275.905C199.405 275.905 200.28 274.997 200.28 273.877C200.28 272.756 199.405 271.848 198.325 271.848C197.245 271.848 196.37 272.756 196.37 273.877C196.37 274.997 197.245 275.905 198.325 275.905Z" fill="white"/>
<path id="Vector_26" d="M198.325 302.952C199.405 302.952 200.28 302.044 200.28 300.923C200.28 299.803 199.405 298.895 198.325 298.895C197.245 298.895 196.37 299.803 196.37 300.923C196.37 302.044 197.245 302.952 198.325 302.952Z" fill="white"/>
<path id="Vector_27" d="M198.43 329.426C199.509 329.426 200.385 328.518 200.385 327.397C200.385 326.277 199.509 325.369 198.43 325.369C197.35 325.369 196.474 326.277 196.474 327.397C196.474 328.518 197.35 329.426 198.43 329.426Z" fill="white"/>
<path id="Vector_28" d="M223.596 245.231V263.843H178.651C177.447 263.886 176.247 263.678 175.122 263.23C173.997 262.782 172.971 262.103 172.104 261.235C171.237 260.366 170.548 259.326 170.077 258.175C169.607 257.024 169.364 255.787 169.364 254.537C169.364 253.287 169.607 252.05 170.077 250.899C170.548 249.748 171.237 248.708 172.104 247.839C172.971 246.971 173.997 246.292 175.122 245.844C176.247 245.396 177.447 245.188 178.651 245.231H223.596Z" fill="#F2F2F2"/>
<path id="Vector_29" d="M224.7 263.7C224.7 263.89 224.628 264.072 224.498 264.206C224.369 264.34 224.193 264.416 224.01 264.416H177.851C176.609 264.417 175.379 264.164 174.231 263.671C173.083 263.179 172.04 262.457 171.162 261.546C170.283 260.635 169.586 259.554 169.11 258.363C168.635 257.173 168.39 255.897 168.39 254.609C168.39 253.32 168.635 252.044 169.11 250.854C169.586 249.663 170.283 248.582 171.162 247.671C172.04 246.76 173.083 246.038 174.231 245.546C175.379 245.053 176.609 244.8 177.851 244.802H224.01C224.193 244.802 224.369 244.877 224.498 245.011C224.628 245.145 224.7 245.327 224.7 245.517C224.7 245.707 224.628 245.889 224.498 246.024C224.369 246.158 224.193 246.233 224.01 246.233H177.851C175.711 246.235 173.66 247.118 172.147 248.689C170.635 250.259 169.785 252.389 169.785 254.609C169.785 256.829 170.635 258.958 172.147 260.528C173.66 262.099 175.711 262.982 177.851 262.984H224.01C224.193 262.984 224.369 263.059 224.498 263.194C224.628 263.328 224.7 263.51 224.7 263.7V263.7Z" fill="#3F3D56"/>
<path id="Vector_30" d="M223.596 249.526H175.298C175.28 249.526 175.262 249.523 175.245 249.515C175.228 249.508 175.213 249.498 175.2 249.484C175.187 249.471 175.176 249.455 175.169 249.438C175.162 249.42 175.159 249.402 175.159 249.383C175.159 249.364 175.162 249.345 175.169 249.328C175.176 249.31 175.187 249.295 175.2 249.281C175.213 249.268 175.228 249.257 175.245 249.25C175.262 249.243 175.28 249.24 175.298 249.24H223.596C223.633 249.24 223.668 249.255 223.693 249.282C223.719 249.309 223.733 249.345 223.733 249.383C223.733 249.421 223.719 249.457 223.693 249.484C223.668 249.511 223.633 249.526 223.596 249.526V249.526Z" fill="#CCCCCC"/>
<path id="Vector_31" d="M223.596 252.962H175.298C175.28 252.962 175.262 252.959 175.245 252.952C175.228 252.944 175.213 252.934 175.2 252.921C175.187 252.907 175.176 252.891 175.169 252.874C175.162 252.857 175.159 252.838 175.159 252.819C175.159 252.8 175.162 252.781 175.169 252.764C175.176 252.747 175.187 252.731 175.2 252.717C175.213 252.704 175.228 252.694 175.245 252.686C175.262 252.679 175.28 252.676 175.298 252.676H223.596C223.633 252.676 223.668 252.691 223.693 252.718C223.719 252.745 223.733 252.781 223.733 252.819C223.733 252.857 223.719 252.893 223.693 252.92C223.668 252.947 223.633 252.962 223.596 252.962V252.962Z" fill="#CCCCCC"/>
<path id="Vector_32" d="M223.596 256.398H175.298C175.28 256.398 175.262 256.395 175.245 256.388C175.228 256.38 175.213 256.37 175.2 256.357C175.187 256.343 175.176 256.327 175.169 256.31C175.162 256.293 175.159 256.274 175.159 256.255C175.159 256.236 175.162 256.217 175.169 256.2C175.176 256.183 175.187 256.167 175.2 256.153C175.213 256.14 175.228 256.13 175.245 256.122C175.262 256.115 175.28 256.112 175.298 256.112H223.596C223.633 256.112 223.668 256.127 223.693 256.154C223.719 256.181 223.733 256.217 223.733 256.255C223.733 256.293 223.719 256.329 223.693 256.356C223.668 256.383 223.633 256.398 223.596 256.398V256.398Z" fill="#CCCCCC"/>
<path id="Vector_33" d="M223.596 259.834H175.298C175.28 259.834 175.262 259.831 175.245 259.824C175.228 259.816 175.213 259.806 175.2 259.793C175.187 259.779 175.176 259.763 175.169 259.746C175.162 259.729 175.159 259.71 175.159 259.691C175.159 259.672 175.162 259.653 175.169 259.636C175.176 259.619 175.187 259.603 175.2 259.589C175.213 259.576 175.228 259.566 175.245 259.558C175.262 259.551 175.28 259.548 175.298 259.548H223.596C223.633 259.548 223.668 259.563 223.693 259.59C223.719 259.617 223.733 259.653 223.733 259.691C223.733 259.729 223.719 259.765 223.693 259.792C223.668 259.819 223.633 259.834 223.596 259.834V259.834Z" fill="#CCCCCC"/>
<path id="Vector_34" d="M163.005 123.753V5.08575C163.007 3.73739 163.524 2.44471 164.443 1.49128C165.362 0.53785 166.608 0.00153371 167.907 0H258.322C259.621 0.00154264 260.867 0.537862 261.786 1.49129C262.705 2.44472 263.222 3.7374 263.224 5.08575V123.753C263.222 125.101 262.705 126.394 261.786 127.347C260.867 128.301 259.621 128.837 258.322 128.839H167.907C166.608 128.837 165.362 128.301 164.443 127.347C163.524 126.394 163.007 125.101 163.005 123.753V123.753ZM167.907 1.13017C166.897 1.13134 165.927 1.54847 165.213 2.29003C164.498 3.03159 164.096 4.03702 164.095 5.08575V123.753C164.096 124.802 164.498 125.807 165.213 126.549C165.927 127.29 166.897 127.707 167.907 127.709H258.322C259.332 127.707 260.301 127.29 261.016 126.549C261.731 125.807 262.133 124.802 262.134 123.753V5.08575C262.133 4.03702 261.731 3.03159 261.016 2.29003C260.301 1.54847 259.332 1.13134 258.322 1.13017H167.907Z" fill="#E6E6E6"/>
<path id="yellowblock" d="M218.185 54.4975V30.1314C218.185 29.4572 218.444 28.8108 218.903 28.3341C219.363 27.8574 219.986 27.5892 220.636 27.5885H240.538C241.187 27.5892 241.81 27.8574 242.27 28.3341C242.729 28.8108 242.988 29.4572 242.989 30.1314V54.4975C242.988 55.1717 242.729 55.818 242.27 56.2947C241.81 56.7715 241.187 57.0396 240.538 57.0404H220.636C219.986 57.0396 219.363 56.7715 218.903 56.2947C218.444 55.818 218.185 55.1717 218.185 54.4975V54.4975Z" fill="#F3AC30"/>
<path id="greyblock" d="M179.513 65.7991V41.433C179.514 40.7589 179.773 40.1125 180.232 39.6358C180.692 39.1591 181.315 38.8909 181.964 38.8902H201.866C202.516 38.8909 203.139 39.1591 203.599 39.6358C204.058 40.1125 204.317 40.7589 204.317 41.433V65.7992C204.317 66.4733 204.058 67.1197 203.599 67.5964C203.139 68.0731 202.516 68.3413 201.866 68.342H181.964C181.315 68.3413 180.692 68.0731 180.232 67.5964C179.773 67.1197 179.514 66.4733 179.513 65.7991V65.7991Z" fill="#CCCCCC"/>
<path id="pinkblock" d="M210.559 100.269V75.903C210.56 75.2288 210.818 74.5825 211.278 74.1057C211.737 73.629 212.36 73.3609 213.01 73.3601H232.912C233.562 73.3609 234.185 73.629 234.645 74.1057C235.104 74.5825 235.363 75.2288 235.363 75.903V100.269C235.363 100.943 235.104 101.59 234.645 102.066C234.185 102.543 233.562 102.811 232.912 102.812H213.01C212.36 102.811 211.737 102.543 211.278 102.066C210.818 101.59 210.56 100.943 210.559 100.269V100.269Z" fill="#FF6584"/>
<path id="Vector_35" d="M329.493 211.669H309.015C308.821 211.669 308.629 211.715 308.455 211.805L303.286 214.489C303.116 214.564 302.971 214.689 302.869 214.849C302.767 215.009 302.713 215.197 302.713 215.388C302.713 215.58 302.767 215.768 302.869 215.927C302.971 216.087 303.116 216.213 303.286 216.288L308.455 218.972C308.629 219.061 308.821 219.107 309.015 219.107H329.493C329.775 219.124 330.052 219.025 330.264 218.831C330.477 218.638 330.607 218.365 330.627 218.073V212.704C330.607 212.411 330.477 212.139 330.264 211.945C330.052 211.751 329.775 211.652 329.493 211.669Z" fill="#3F3D56"/>
<path id="Vector_36" d="M330.627 212.704V218.073C330.607 218.365 330.477 218.638 330.264 218.831C330.052 219.025 329.775 219.124 329.493 219.107H325.413V211.669H329.493C329.775 211.652 330.052 211.751 330.264 211.945C330.477 212.139 330.607 212.411 330.627 212.704V212.704Z" fill="#F3AC30"/>
<path id="Vector_37" d="M329.339 171.505C330.266 171.09 331.268 170.882 332.278 170.897C333.288 170.911 334.284 171.147 335.2 171.588C336.116 172.029 336.932 172.667 337.595 173.458C338.257 174.25 338.751 175.177 339.043 176.18C339.134 176.498 339.204 176.823 339.252 177.151L367.888 191.883L374.515 187.327L382.76 197.175L372.642 205.702C371.425 206.719 369.924 207.302 368.363 207.365C366.801 207.427 365.261 206.966 363.973 206.048L334.919 185.203C334.703 185.299 334.482 185.382 334.258 185.454C333.29 185.757 332.273 185.845 331.27 185.712C330.268 185.579 329.305 185.227 328.443 184.681C327.58 184.134 326.839 183.405 326.268 182.541C325.696 181.676 325.307 180.696 325.126 179.665C325.073 179.366 325.037 179.063 325.02 178.759C324.94 177.237 325.311 175.726 326.082 174.429C326.854 173.132 327.991 172.112 329.339 171.505V171.505Z" fill="#FFB8B8"/>
<path id="Vector_38" d="M388.982 262.212H357.692C357.692 263.145 325.444 263.902 325.444 263.902C324.938 264.298 324.477 264.751 324.069 265.255C322.844 266.77 322.175 268.686 322.179 270.664V272.016C322.18 274.258 323.038 276.407 324.566 277.992C326.094 279.577 328.165 280.467 330.326 280.468H388.982C391.142 280.466 393.213 279.575 394.74 277.991C396.268 276.406 397.126 274.257 397.128 272.016V270.664C397.125 268.423 396.266 266.275 394.739 264.691C393.212 263.106 391.141 262.215 388.982 262.212V262.212Z" fill="#3F3D56"/>
<path id="Vector_39" d="M354.946 336.931H363.418V280.133H354.946V336.931Z" fill="#3F3D56"/>
<path id="Vector_40" d="M330.832 336.622C330.832 337.572 343.67 336.989 359.508 336.989C375.345 336.989 388.184 337.572 388.184 336.622C388.184 335.672 375.345 328.14 359.508 328.14C343.67 328.14 330.832 335.672 330.832 336.622Z" fill="#3F3D56"/>
<path id="Vector_41" d="M338.48 329.965L330.49 329.964L326.689 308.464L338.481 308.465L338.48 329.965Z" fill="#FFB8B8"/>
<path id="Vector_42" d="M340.518 338L314.755 337.999V337.661C314.755 336.295 315.014 334.942 315.518 333.68C316.022 332.417 316.76 331.27 317.692 330.304C318.623 329.338 319.728 328.572 320.945 328.049C322.162 327.526 323.466 327.257 324.782 327.257H324.783L340.518 327.258L340.518 338Z" fill="#2F2E41"/>
<path id="Vector_43" d="M326.53 316.632L310.601 279.573C309.271 276.449 309.124 272.921 310.189 269.69C311.254 266.459 313.453 263.763 316.348 262.138L350.899 242.917L366.665 241.525L381.208 240.154L381.313 240.338C381.447 240.573 384.574 246.177 382.46 252.321C380.857 256.981 376.687 260.622 370.065 263.141C354.61 269.02 336.756 274.045 329.797 275.933C329.489 276.014 329.202 276.162 328.954 276.367C328.705 276.573 328.501 276.83 328.356 277.122C328.21 277.412 328.123 277.729 328.101 278.055C328.079 278.38 328.122 278.707 328.228 279.015L343.026 313.509C343.181 313.947 343.237 314.415 343.189 314.879C343.142 315.342 342.992 315.788 342.752 316.182C342.512 316.576 342.188 316.907 341.806 317.151C341.423 317.394 340.991 317.543 340.544 317.586L329.486 318.421C329.392 318.431 329.299 318.435 329.206 318.435C328.639 318.435 328.085 318.265 327.61 317.945C327.135 317.625 326.76 317.169 326.53 316.632V316.632Z" fill="#2F2E41"/>
<path id="Vector_44" d="M342.391 329.965L334.401 329.964L330.599 308.464L342.392 308.465L342.391 329.965Z" fill="#FFB8B8"/>
<path id="Vector_45" d="M344.428 338L318.665 337.999V337.661C318.665 336.295 318.924 334.942 319.428 333.68C319.932 332.417 320.671 331.27 321.602 330.304C322.533 329.338 323.639 328.572 324.855 328.049C326.072 327.526 327.376 327.257 328.693 327.257H328.693L344.429 327.258L344.428 338Z" fill="#2F2E41"/>
<path id="Vector_46" d="M331.092 318.66L315.163 281.601C313.833 278.478 313.686 274.949 314.751 271.718C315.816 268.487 318.015 265.791 320.91 264.167L355.461 244.945L371.227 243.554L385.77 242.182L385.875 242.367C386.009 242.602 389.136 248.205 387.023 254.349C385.419 259.01 381.249 262.65 374.627 265.169C359.172 271.049 341.318 276.074 334.359 277.961C334.051 278.043 333.764 278.191 333.516 278.396C333.267 278.601 333.064 278.858 332.918 279.151C332.772 279.44 332.685 279.758 332.663 280.083C332.641 280.409 332.684 280.736 332.79 281.043L347.589 315.538C347.743 315.975 347.799 316.444 347.751 316.907C347.704 317.37 347.554 317.816 347.314 318.21C347.075 318.604 346.751 318.936 346.368 319.179C345.985 319.423 345.553 319.572 345.106 319.615L334.048 320.45C333.954 320.459 333.861 320.464 333.768 320.464C333.202 320.464 332.647 320.293 332.173 319.973C331.698 319.653 331.322 319.197 331.092 318.66V318.66Z" fill="#2F2E41"/>
<path id="Vector_47" d="M323.152 205.449C316.459 196.212 311.167 185.966 307.462 175.068C307.247 174.416 307.262 173.706 307.505 173.065C307.747 172.424 308.201 171.892 308.786 171.566L331.691 158.833C332.062 158.625 332.473 158.508 332.894 158.49C333.314 158.473 333.734 158.555 334.119 158.73C334.512 158.907 334.86 159.175 335.138 159.513C335.416 159.851 335.616 160.25 335.723 160.68C338.389 171.182 343.401 180.886 350.352 189.006C350.638 189.336 350.848 189.73 350.965 190.157C351.082 190.584 351.104 191.034 351.029 191.471C350.956 191.902 350.79 192.309 350.542 192.663C350.295 193.016 349.973 193.307 349.602 193.512L326.696 206.245C326.11 206.569 325.433 206.667 324.784 206.522C324.135 206.376 323.557 205.996 323.152 205.449V205.449Z" fill="#CCCCCC"/>
<path id="Vector_48" d="M324.715 204.231C324.839 204.39 325.012 204.5 325.205 204.542C325.398 204.583 325.598 204.553 325.772 204.457L348.678 191.724C348.789 191.664 348.886 191.578 348.959 191.472C349.033 191.367 349.082 191.246 349.103 191.117C349.127 190.982 349.12 190.842 349.084 190.71C349.047 190.578 348.981 190.456 348.891 190.355C341.735 181.996 336.576 172.006 333.832 161.195C333.8 161.061 333.739 160.937 333.653 160.832C333.568 160.727 333.46 160.644 333.338 160.59C333.223 160.536 333.098 160.512 332.973 160.517C332.847 160.522 332.724 160.558 332.614 160.621L309.709 173.354C309.536 173.451 309.4 173.608 309.327 173.798C309.253 173.988 309.245 174.198 309.305 174.393C312.945 185.097 318.142 195.159 324.715 204.231V204.231Z" fill="white"/>
<path id="Vector_49" d="M399.247 202.053L381.309 209.125L376.929 196.503C376.347 194.827 376.356 192.992 376.952 191.322C377.549 189.651 378.695 188.254 380.189 187.375V187.375C381.7 186.487 383.468 186.188 385.172 186.534C386.877 186.879 388.406 187.845 389.484 189.258L399.247 202.053Z" fill="#F3AC30"/>
<path id="Vector_50" d="M353.62 252.062C353.242 251.785 352.926 251.428 352.692 251.014C352.458 250.6 352.311 250.139 352.262 249.662C349.964 227.41 351.565 209.996 357.154 196.425C358.138 194.084 359.621 192.005 361.491 190.344C363.361 188.684 365.57 187.485 367.951 186.837L382.452 186.077L382.527 186.115C385.799 187.778 388.467 190.49 390.137 193.851C391.806 197.211 392.387 201.04 391.794 204.769C387.13 217.524 383.225 230.804 386.203 241.516C386.328 241.964 386.364 242.434 386.31 242.897C386.256 243.359 386.112 243.806 385.888 244.21C385.67 244.6 385.377 244.94 385.028 245.209C384.679 245.477 384.28 245.669 383.857 245.771L356.237 252.588C355.79 252.698 355.325 252.708 354.874 252.618C354.423 252.527 353.995 252.338 353.62 252.062Z" fill="#F3AC30"/>
<path id="Vector_51" d="M377.612 180.458C386.453 180.458 393.619 173.023 393.619 163.851C393.619 154.679 386.453 147.244 377.612 147.244C368.772 147.244 361.605 154.679 361.605 163.851C361.605 173.023 368.772 180.458 377.612 180.458Z" fill="#FFB8B8"/>
<path id="Vector_52" d="M333.195 177.004L320.72 182.718C320.245 182.934 319.707 182.947 319.224 182.753C318.74 182.558 318.351 182.173 318.141 181.681L317.833 180.956C317.624 180.464 317.612 179.906 317.799 179.404C317.986 178.903 318.358 178.499 318.832 178.281L331.307 172.568C331.781 172.351 332.319 172.339 332.803 172.533C333.286 172.727 333.675 173.112 333.885 173.604L334.194 174.329C334.403 174.822 334.415 175.38 334.227 175.881C334.04 176.383 333.669 176.787 333.195 177.004V177.004Z" fill="#CCCCCC"/>
<path id="Vector_53" d="M337.757 185.795L325.282 191.508C324.807 191.725 324.269 191.737 323.786 191.543C323.303 191.348 322.913 190.963 322.703 190.471L322.395 189.746C322.186 189.254 322.174 188.696 322.361 188.194C322.549 187.693 322.92 187.289 323.394 187.071L335.869 181.358C336.344 181.141 336.882 181.129 337.365 181.323C337.848 181.517 338.238 181.903 338.447 182.394L338.756 183.12C338.965 183.612 338.977 184.17 338.79 184.671C338.602 185.173 338.231 185.577 337.757 185.795V185.795Z" fill="#CCCCCC"/>
<path id="Vector_54" d="M347.378 220.128L319.565 197.365C319.344 197.445 319.118 197.514 318.89 197.571C317.908 197.809 316.889 197.831 315.899 197.634C314.909 197.437 313.97 197.026 313.143 196.428C312.311 195.829 311.611 195.053 311.091 194.151C310.571 193.249 310.243 192.243 310.128 191.198C309.941 189.529 310.304 187.844 311.157 186.415C312.01 184.987 313.303 183.899 314.826 183.329C315.777 182.975 316.789 182.834 317.797 182.914C318.804 182.994 319.783 183.294 320.671 183.795C321.559 184.295 322.334 184.984 322.947 185.817C323.56 186.65 323.997 187.608 324.228 188.629C324.3 188.952 324.35 189.28 324.378 189.61L352.064 206.181L358.954 202.066L366.586 212.433L355.889 220.344C354.636 221.262 353.132 221.737 351.599 221.698C350.066 221.66 348.585 221.109 347.378 220.128V220.128Z" fill="#FFB8B8"/>
<path id="Vector_55" d="M369.98 215.661L354.111 204.466L361.569 193.507C362.559 192.052 364.014 191.007 365.675 190.557C367.336 190.106 369.097 190.28 370.647 191.046V191.046C372.215 191.821 373.464 193.153 374.168 194.8C374.873 196.447 374.986 198.301 374.489 200.027L369.98 215.661Z" fill="#F3AC30"/>
<path id="Vector_56" d="M371.743 161.377C367.629 164.299 362.227 167.302 358.025 164.191C355.266 162.148 354.397 158.365 355.516 155.046C357.528 149.076 363.056 146.448 368.342 144.433C375.214 141.815 382.697 139.731 389.791 141.607C396.886 143.482 403.156 150.608 401.875 158.087C400.845 164.101 395.377 169.105 396.153 175.16C396.935 181.254 403.54 184.461 409.371 185.55C415.203 186.639 421.729 186.989 425.919 191.335C431.266 196.879 429.931 206.788 424.9 212.641C419.869 218.494 412.278 221.147 404.922 222.951C395.176 225.34 384.634 226.596 375.377 222.63C366.121 218.664 358.917 207.988 361.599 197.977C362.732 193.749 365.4 190.175 367.978 186.696C370.557 183.217 373.168 179.578 374.152 175.31C374.972 171.753 374.365 167.623 372.091 164.955C371.678 164.488 371.417 163.897 371.348 163.266C371.278 162.636 371.403 162 371.704 161.448L371.743 161.377Z" fill="#2F2E41"/>
<path id="Vector_57" d="M71.0861 242.067C66.9613 243.571 62.5327 243.948 58.2268 243.161C53.9209 242.374 49.883 240.45 46.5019 237.574C37.8912 230.076 35.1915 217.722 32.9948 206.284C30.8291 195.007 28.6633 183.729 26.4975 172.452L40.1003 182.169C49.8826 189.157 59.8853 196.369 66.6585 206.492C73.4317 216.614 76.3883 230.431 70.9462 241.384" fill="#2A9E00"/>
<path id="Vector_58" d="M69.9233 283.028C71.3001 272.623 72.7158 262.085 71.75 251.569C70.8924 242.23 68.146 233.108 62.5548 225.629C59.587 221.666 55.9758 218.271 51.8834 215.596C50.8163 214.897 49.8341 216.652 50.8966 217.348C57.9775 221.99 63.4544 228.846 66.5375 236.927C69.9427 245.913 70.4896 255.708 69.9028 265.254C69.5479 271.026 68.7958 276.761 68.0379 282.489C67.9782 282.748 68.0154 283.02 68.1422 283.252C68.2689 283.484 68.4757 283.657 68.7207 283.736C68.9707 283.806 69.2371 283.771 69.4622 283.638C69.6874 283.506 69.853 283.286 69.9233 283.028H69.9233Z" fill="#583E23"/>
<path id="Vector_59" d="M56.6624 264.617C54.8934 267.406 52.4617 269.676 49.6017 271.208C46.7417 272.739 43.5498 273.48 40.3334 273.361C32.0674 272.953 25.1761 266.968 18.9727 261.286L0.624252 244.478L12.7679 243.875C21.5009 243.441 30.4592 243.037 38.777 245.831C47.0949 248.625 54.7661 255.349 56.287 264.282" fill="#2A9E00"/>
<path id="Vector_60" d="M73.8142 289.009C67.1875 276.844 59.5012 263.324 45.767 259.003C41.9482 257.805 37.944 257.376 33.9699 257.739C32.7174 257.851 33.0302 259.854 34.2804 259.742C40.9418 259.168 47.5903 260.993 53.1067 264.91C58.415 268.658 62.5481 273.87 66.0463 279.397C68.1891 282.782 70.1084 286.311 72.0281 289.835C72.6416 290.961 74.4348 290.148 73.8142 289.009V289.009Z" fill="#583E23"/>
<path id="Vector_61" d="M84.432 301.813C84.2087 299.129 83.2798 296.56 81.7465 294.386C80.2132 292.212 78.1343 290.516 75.7361 289.482V282.449H64.3666V289.704C62.0865 290.788 60.1242 292.48 58.6797 294.607C57.2353 296.734 56.3604 299.221 56.1443 301.813L53.4708 334.056H87.1055L84.432 301.813Z" fill="black"/>
</g>
<defs>
<clipPath id="clip0">
<rect width="451" height="338" fill="white"/>
</clipPath>
</defs>
</svg>
