<svg width="550" height="549" viewBox="0 0 550 549" fill="none" xmlns="http://www.w3.org/2000/svg">
<g id="undraw_education_f8ru 1" clip-path="url(#clip0)">
<path id="Vector" d="M409 404.286V534.286H83.3012C46.1922 534.286 16 505.126 16 469.286C16 433.446 46.1922 404.286 83.3012 404.286H409Z" fill="#F2F2F2"/>
<path id="Vector_2" d="M417 533.286C417 534.612 416.473 535.883 415.535 536.821C414.597 537.758 413.326 538.285 412 538.286H77.5C59.3327 538.286 41.9094 531.069 29.0632 518.223C16.217 505.377 9 487.953 9 469.786C9 451.619 16.217 434.195 29.0632 421.349C41.9094 408.503 59.3327 401.286 77.5 401.286H412C413.326 401.286 414.598 401.813 415.536 402.75C416.473 403.688 417 404.96 417 406.286C417 407.612 416.473 408.884 415.536 409.821C414.598 410.759 413.326 411.286 412 411.286H77.5C61.9848 411.286 47.1051 417.449 36.1342 428.42C25.1634 439.391 19 454.271 19 469.786C19 485.301 25.1634 500.181 36.1342 511.152C47.1051 522.123 61.9848 528.286 77.5 528.286H412C413.326 528.286 414.597 528.813 415.535 529.751C416.473 530.689 417 531.96 417 533.286Z" fill="#F3AC30"/>
<path id="Vector_3" d="M409 434.286H59C58.7348 434.286 58.4804 434.181 58.2929 433.993C58.1054 433.806 58 433.551 58 433.286C58 433.021 58.1054 432.766 58.2929 432.579C58.4804 432.391 58.7348 432.286 59 432.286H409C409.265 432.286 409.52 432.391 409.707 432.579C409.895 432.766 410 433.021 410 433.286C410 433.551 409.895 433.806 409.707 433.993C409.52 434.181 409.265 434.286 409 434.286Z" fill="#CCCCCC"/>
<path id="Vector_4" d="M427.114 458.286H77.1142C76.8489 458.286 76.5946 458.181 76.4071 457.993C76.2195 457.806 76.1142 457.551 76.1142 457.286C76.1142 457.021 76.2195 456.766 76.4071 456.579C76.5946 456.391 76.8489 456.286 77.1142 456.286H427.114C427.379 456.286 427.634 456.391 427.821 456.579C428.009 456.766 428.114 457.021 428.114 457.286C428.114 457.551 428.009 457.806 427.821 457.993C427.634 458.181 427.379 458.286 427.114 458.286Z" fill="#CCCCCC"/>
<path id="Vector_5" d="M427.114 482.286H77.1142C76.8489 482.286 76.5946 482.181 76.4071 481.993C76.2195 481.806 76.1142 481.551 76.1142 481.286C76.1142 481.021 76.2195 480.766 76.4071 480.579C76.5946 480.391 76.8489 480.286 77.1142 480.286H427.114C427.379 480.286 427.634 480.391 427.821 480.579C428.009 480.766 428.114 481.021 428.114 481.286C428.114 481.551 428.009 481.806 427.821 481.993C427.634 482.181 427.379 482.286 427.114 482.286Z" fill="#CCCCCC"/>
<path id="Vector_6" d="M427.114 506.286H77.1142C76.8489 506.286 76.5946 506.181 76.4071 505.993C76.2195 505.806 76.1142 505.551 76.1142 505.286C76.1142 505.021 76.2195 504.766 76.4071 504.579C76.5946 504.391 76.8489 504.286 77.1142 504.286H427.114C427.379 504.286 427.634 504.391 427.821 504.579C428.009 504.766 428.114 505.021 428.114 505.286C428.114 505.551 428.009 505.806 427.821 505.993C427.634 506.181 427.379 506.286 427.114 506.286Z" fill="#CCCCCC"/>
<path id="Vector_7" d="M547.946 547.319L417.947 547.76L416.844 222.063C416.718 184.954 445.775 154.663 481.615 154.542C517.455 154.42 546.717 184.513 546.843 221.622L547.946 547.319Z" fill="#F2F2F2"/>
<path id="Vector_8" d="M418.974 555.756C417.648 555.76 416.375 555.237 415.434 554.303C414.493 553.369 413.962 552.099 413.957 550.773L412.824 216.275C412.762 198.108 419.92 180.66 432.723 167.771C445.525 154.881 462.924 147.605 481.091 147.543C499.259 147.482 516.706 154.64 529.596 167.442C542.486 180.245 549.762 197.644 549.823 215.811L550.956 550.309C550.959 550.966 550.832 551.617 550.583 552.225C550.334 552.832 549.968 553.385 549.505 553.851C549.042 554.318 548.492 554.688 547.886 554.942C547.28 555.195 546.63 555.327 545.973 555.329C545.316 555.331 544.665 555.204 544.058 554.954C543.45 554.705 542.898 554.338 542.432 553.875C541.966 553.412 541.596 552.862 541.343 552.256C541.089 551.65 540.958 551 540.956 550.343L539.823 215.845C539.8 208.161 538.263 200.556 535.301 193.466C532.338 186.376 528.008 179.939 522.557 174.522C517.106 169.106 510.641 164.817 503.532 161.9C496.424 158.982 488.809 157.494 481.125 157.52C473.441 157.546 465.837 159.086 458.748 162.051C451.659 165.017 445.224 169.35 439.81 174.803C434.396 180.256 430.109 186.722 427.194 193.832C424.28 200.942 422.795 208.557 422.824 216.241L423.957 550.739C423.961 552.065 423.438 553.338 422.504 554.279C421.57 555.22 420.3 555.751 418.974 555.756V555.756Z" fill="#CCCCCC"/>
<path id="Vector_9" d="M517.946 547.421L516.761 197.423C516.76 197.292 516.786 197.161 516.835 197.04C516.885 196.918 516.959 196.808 517.051 196.715C517.144 196.622 517.254 196.548 517.375 196.497C517.496 196.446 517.626 196.42 517.757 196.419C517.889 196.419 518.019 196.444 518.14 196.494C518.262 196.544 518.372 196.617 518.465 196.71C518.558 196.803 518.633 196.913 518.683 197.034C518.734 197.155 518.76 197.285 518.761 197.416L519.946 547.414C519.947 547.546 519.922 547.676 519.872 547.797C519.822 547.919 519.749 548.03 519.656 548.123C519.564 548.216 519.454 548.291 519.332 548.341C519.211 548.392 519.081 548.418 518.95 548.419C518.818 548.419 518.688 548.394 518.566 548.344C518.445 548.294 518.334 548.221 518.241 548.128C518.148 548.035 518.074 547.925 518.023 547.804C517.973 547.682 517.947 547.552 517.946 547.421L517.946 547.421Z" fill="#CCCCCC"/>
<path id="Vector_10" d="M493.946 547.502L492.761 197.504C492.76 197.239 492.865 196.985 493.052 196.797C493.239 196.609 493.492 196.503 493.757 196.502C494.022 196.501 494.277 196.606 494.465 196.792C494.653 196.979 494.759 197.232 494.761 197.497L495.946 547.495C495.947 547.627 495.922 547.757 495.872 547.879C495.822 548 495.749 548.111 495.656 548.204C495.564 548.298 495.454 548.372 495.333 548.423C495.211 548.473 495.081 548.5 494.95 548.5C494.818 548.501 494.688 548.475 494.567 548.425C494.445 548.375 494.334 548.302 494.241 548.209C494.148 548.116 494.074 548.006 494.024 547.885C493.973 547.764 493.947 547.634 493.946 547.502V547.502Z" fill="#CCCCCC"/>
<path id="Vector_11" d="M469.947 547.584L468.761 197.586C468.76 197.32 468.864 197.066 469.051 196.877C469.238 196.689 469.492 196.583 469.757 196.582C470.023 196.581 470.277 196.686 470.466 196.873C470.654 197.06 470.76 197.314 470.761 197.579L471.947 547.577C471.947 547.708 471.922 547.838 471.872 547.96C471.822 548.081 471.749 548.192 471.656 548.285C471.563 548.378 471.454 548.452 471.332 548.503C471.211 548.553 471.081 548.58 470.95 548.58C470.819 548.581 470.688 548.555 470.567 548.505C470.445 548.455 470.335 548.382 470.242 548.29C470.149 548.197 470.075 548.087 470.024 547.966C469.973 547.845 469.947 547.715 469.947 547.583L469.947 547.584Z" fill="#CCCCCC"/>
<path id="Vector_12" d="M445.947 547.665L444.761 197.667C444.761 197.536 444.786 197.405 444.836 197.284C444.886 197.162 444.959 197.052 445.051 196.959C445.144 196.866 445.254 196.792 445.375 196.741C445.496 196.69 445.626 196.664 445.758 196.663C445.889 196.663 446.019 196.688 446.141 196.738C446.262 196.788 446.373 196.861 446.466 196.954C446.559 197.046 446.633 197.156 446.684 197.278C446.734 197.399 446.761 197.529 446.761 197.66L447.947 547.658C447.947 547.789 447.922 547.92 447.872 548.041C447.822 548.163 447.749 548.274 447.657 548.367C447.564 548.46 447.454 548.534 447.333 548.585C447.212 548.636 447.081 548.662 446.95 548.663C446.819 548.663 446.688 548.638 446.567 548.588C446.445 548.538 446.335 548.464 446.242 548.372C446.148 548.279 446.074 548.169 446.024 548.048C445.973 547.926 445.947 547.796 445.947 547.665V547.665Z" fill="#CCCCCC"/>
<path id="Vector_13" d="M549.198 551H-46.1976C-46.4104 551 -46.6145 550.262 -46.765 548.95C-46.9155 547.637 -47 545.857 -47 544C-47 542.143 -46.9155 540.363 -46.765 539.05C-46.6145 537.738 -46.4104 537 -46.1976 537H549.198C549.41 537 549.614 537.738 549.765 539.05C549.915 540.363 550 542.143 550 544C550 545.857 549.915 547.637 549.765 548.95C549.614 550.262 549.41 551 549.198 551Z" fill="#CCCCCC"/>
<path id="Vector_14" d="M272.967 390.622L261.535 390.621L256.098 346.525L272.971 346.527L272.967 390.622Z" fill="#FFB8B8"/>
<path id="Vector_15" d="M253.368 387.355H275.416V401.236H239.486C239.486 399.413 239.845 397.608 240.543 395.924C241.241 394.24 242.263 392.709 243.552 391.42C244.841 390.131 246.372 389.109 248.056 388.411C249.74 387.714 251.545 387.355 253.368 387.355V387.355Z" fill="#2F2E41"/>
<path id="Vector_16" d="M156.172 390.622L144.74 390.621L139.303 346.525L156.176 346.527L156.172 390.622Z" fill="#FFB8B8"/>
<path id="Vector_17" d="M136.574 387.355H158.622V401.236H122.692C122.692 399.413 123.051 397.608 123.748 395.924C124.446 394.24 125.469 392.709 126.758 391.42C128.047 390.131 129.577 389.109 131.261 388.411C132.946 387.714 134.751 387.355 136.574 387.355Z" fill="#2F2E41"/>
<path id="Vector_18" d="M194.357 63.533V58.533C194.357 49.9797 197.754 41.7768 203.802 35.7288C209.851 29.6807 218.053 26.283 226.607 26.283H226.607C235.16 26.283 243.363 29.6807 249.411 35.7288C255.459 41.7768 258.857 49.9797 258.857 58.533V63.533C258.857 69.6993 256.407 75.6131 252.047 79.9733C247.687 84.3335 241.773 86.783 235.607 86.783H217.607C214.554 86.783 211.53 86.1817 208.709 85.0133C205.889 83.8448 203.325 82.1322 201.166 79.9733C199.008 77.8143 197.295 75.2513 196.126 72.4304C194.958 69.6096 194.357 66.5863 194.357 63.533V63.533Z" fill="#2F2E41"/>
<path id="Vector_19" d="M226.607 88.5035C240.171 88.5035 251.168 77.5071 251.168 63.9425C251.168 50.3778 240.171 39.3814 226.607 39.3814C213.042 39.3814 202.046 50.3778 202.046 63.9425C202.046 77.5071 213.042 88.5035 226.607 88.5035Z" fill="#FFB8B8"/>
<path id="Vector_20" d="M93.0104 148.356C94.0071 147.414 95.1981 146.703 96.4994 146.272C97.8007 145.841 99.1807 145.7 100.542 145.86C101.904 146.02 103.214 146.477 104.379 147.198C105.545 147.919 106.539 148.886 107.291 150.033L128.345 146.05L133.886 158.255L104.074 163.462C102.064 164.596 99.7081 164.954 97.4519 164.468C95.1957 163.982 93.1963 162.685 91.8326 160.823C90.4689 158.961 89.8356 156.663 90.0526 154.365C90.2697 152.067 91.3221 149.929 93.0104 148.355V148.356Z" fill="#FFB8B8"/>
<path id="Vector_21" d="M207.458 103.971L207.734 104.388L173.208 127.133L114.95 145.736C114.177 145.984 113.515 146.492 113.075 147.174C112.635 147.856 112.445 148.668 112.538 149.474L113.809 160.421C113.865 160.905 114.022 161.373 114.269 161.793C114.517 162.213 114.85 162.577 115.246 162.861C115.642 163.146 116.094 163.344 116.571 163.443C117.049 163.543 117.542 163.542 118.019 163.439L172.848 151.687C175.502 151.121 178.011 150.016 180.22 148.441L219.008 120.844C220.414 119.838 221.536 118.486 222.265 116.918C222.993 115.35 223.304 113.62 223.166 111.897C223.024 110.171 222.435 108.512 221.457 107.083C220.479 105.654 219.146 104.504 217.589 103.746C216.032 102.989 214.304 102.65 212.576 102.762C210.848 102.875 209.179 103.435 207.734 104.388L207.458 103.971Z" fill="#CCCCCC"/>
<path id="Vector_22" d="M261.739 378.109C260.862 378.109 260.003 377.853 259.268 377.374C258.533 376.894 257.954 376.211 257.601 375.407L205.191 245.906C205.069 245.626 204.864 245.389 204.603 245.228C204.342 245.068 204.038 244.991 203.732 245.008C203.426 245.025 203.133 245.136 202.892 245.325C202.65 245.514 202.473 245.772 202.383 246.065L159.625 372.138C159.444 372.725 159.145 373.269 158.747 373.736C158.349 374.203 157.859 374.583 157.308 374.854C156.757 375.125 156.157 375.28 155.544 375.31C154.931 375.341 154.318 375.245 153.743 375.03L139.405 369.653C138.626 369.363 137.944 368.864 137.432 368.21C136.921 367.556 136.601 366.773 136.508 365.948C130.057 309.756 186.308 167.918 186.877 166.492L187.034 166.097L238.311 177.44L238.418 177.556C258.876 199.874 275.691 340.638 278.855 368.63C278.973 369.641 278.743 370.662 278.202 371.525C277.662 372.388 276.844 373.041 275.884 373.377L263.227 377.853C262.749 378.022 262.246 378.109 261.739 378.109Z" fill="#2F2E41"/>
<path id="Vector_23" d="M217.558 182.006C205.135 182.006 191.284 179.529 187.02 169.305L186.922 169.07L187.055 168.852C190.42 163.331 194.868 153.912 192.477 152.144C187.768 148.662 185.483 142.934 185.686 135.118C186.126 118.153 197.686 103.09 214.452 97.636H214.452C219.132 96.1384 223.894 94.9122 228.715 93.9636C232.229 93.2544 235.858 93.3324 239.339 94.1921C242.82 95.0517 246.067 96.6715 248.847 98.9353C251.663 101.214 253.939 104.088 255.511 107.351C257.084 110.613 257.915 114.184 257.943 117.806C258.119 135.937 255.328 161.189 241.031 178.526C240.361 179.331 239.429 179.873 238.398 180.057C231.52 181.302 224.548 181.953 217.558 182.006Z" fill="#CCCCCC"/>
<path id="Vector_24" d="M212.937 181.327C213.613 178.901 215.219 176.841 217.406 175.593C219.593 174.345 222.183 174.011 224.615 174.663C225.112 174.801 225.596 174.981 226.063 175.199L242.05 160.65L253.168 168.14L230.306 188.371C229.274 190.232 227.649 191.695 225.689 192.526C223.73 193.357 221.549 193.509 219.493 192.958C218.295 192.63 217.175 192.068 216.196 191.305C215.217 190.541 214.399 189.591 213.789 188.51C213.179 187.428 212.79 186.236 212.644 185.003C212.498 183.771 212.597 182.521 212.937 181.327V181.327Z" fill="#FFB8B8"/>
<path id="Vector_25" d="M239.518 181.511C238.48 181.512 237.475 181.153 236.672 180.496L230.368 175.344C229.842 174.915 229.421 174.372 229.135 173.757C228.848 173.141 228.705 172.469 228.716 171.791C228.726 171.112 228.89 170.444 229.195 169.838C229.5 169.232 229.938 168.702 230.477 168.289L256.918 148.01C257.232 147.768 257.437 147.413 257.49 147.02C257.544 146.628 257.44 146.231 257.202 145.915L240.882 124.339C238.985 121.84 238.034 118.752 238.197 115.619C238.359 112.487 239.625 109.513 241.769 107.224V107.224C244.027 104.785 247.12 103.284 250.434 103.019C253.747 102.754 257.039 103.745 259.657 105.794L259.76 105.903L276.802 130.305C278.645 131.75 280.129 133.601 281.138 135.714C282.147 137.828 282.654 140.146 282.619 142.487C282.584 144.829 282.008 147.13 280.937 149.212C279.865 151.295 278.327 153.101 276.442 154.49L242.196 180.629C241.421 181.202 240.482 181.511 239.518 181.511Z" fill="#CCCCCC"/>
<path id="Vector_26" d="M204.851 57.033V44.8469L226.607 35.3469L247.351 44.8469V57.033C247.351 57.5634 247.14 58.0721 246.765 58.4472C246.39 58.8223 245.881 59.033 245.351 59.033H206.851C206.321 59.033 205.812 58.8223 205.437 58.4472C205.062 58.0721 204.851 57.5634 204.851 57.033Z" fill="#2F2E41"/>
<path id="ponytail" d="M225.608 27.8996C222.409 17.6611 229.127 5.92728 239.059 1.87461C248.99 -2.17806 260.872 0.654881 269.252 7.3505C277.633 14.0461 282.832 24.0749 285.587 34.4417C288.342 44.8084 288.865 55.6185 289.374 66.333C301.576 68.5744 309.876 83.0473 305.649 94.7114C301.422 106.375 285.777 112.17 274.972 106.074C264.166 99.9772 261.037 83.5891 268.835 73.94C272.525 69.3743 274.586 63.7079 274.692 57.8385C274.798 51.9691 272.943 46.232 269.42 41.536C265.898 36.84 260.909 33.4535 255.245 31.9128C249.58 30.3721 243.563 30.7654 238.147 33.0303C232.134 35.5452 224.588 29.0109 225.608 27.8996Z" fill="#2F2E41"/>
<g id="hatty">
<g id="hatdeg">
<path id="Vector_27" d="M103.864 121.886C93.9044 121.824 84.0692 119.791 74.9939 115.919C74.4537 115.691 73.9951 115.321 73.6741 114.852C73.3531 114.383 73.1835 113.836 73.186 113.278V89.8467C73.1869 89.0791 73.5104 88.3431 74.0856 87.8003C74.6607 87.2575 75.4405 86.9522 76.2538 86.9514H131.474C132.288 86.9522 133.068 87.2576 133.643 87.8003C134.218 88.3431 134.541 89.0791 134.542 89.8467V113.278C134.545 113.836 134.375 114.383 134.054 114.852C133.733 115.321 133.275 115.691 132.734 115.919C123.659 119.791 113.824 121.824 103.864 121.886V121.886Z" fill="#F3AC30"/>
<path id="Vector_28" d="M103.857 102.904C103.447 102.904 103.042 102.827 102.664 102.678L58.8753 85.2417C58.3106 85.0169 57.8302 84.6375 57.496 84.1526C57.1619 83.6678 56.9893 83.0995 57.0005 82.5212C57.0117 81.9429 57.2063 81.381 57.559 80.908C57.9118 80.4349 58.4066 80.0725 58.9796 79.8674L102.769 64.1891C103.475 63.9354 104.254 63.937 104.959 64.1935L148.162 79.8717C148.731 80.0785 149.223 80.4411 149.573 80.9129C149.923 81.3848 150.116 81.9446 150.128 82.5206C150.139 83.0967 149.968 83.6628 149.636 84.1466C149.305 84.6304 148.828 85.0098 148.267 85.2363L105.063 102.672C104.682 102.825 104.271 102.904 103.857 102.904V102.904Z" fill="#F3AC30"/>
<path id="Vector_29" opacity="0.2" d="M148.416 82.7614L105.212 100.197C104.875 100.333 104.513 100.403 104.147 100.404C103.78 100.405 103.418 100.336 103.08 100.202L59.291 82.7665C58.7411 82.5528 58.2823 82.1722 57.9871 81.6849C57.794 82.0009 57.6744 82.352 57.6361 82.715C57.5979 83.078 57.6418 83.4445 57.7652 83.7902C57.8885 84.1359 58.0883 84.4529 58.3514 84.7201C58.6145 84.9873 58.9348 85.1987 59.291 85.3401L103.08 102.776C103.418 102.91 103.78 102.979 104.147 102.978C104.513 102.977 104.875 102.907 105.212 102.771L148.416 85.335C148.77 85.1923 149.089 84.9803 149.35 84.713C149.611 84.4456 149.809 84.129 149.931 83.7841C150.054 83.4391 150.097 83.0736 150.058 82.7118C150.019 82.3499 149.9 81.9999 149.707 81.6849C149.414 82.1683 148.96 82.5467 148.416 82.7614V82.7614Z" fill="black"/>
<path id="Vector_30" d="M78.6428 113.637C78.8236 113.637 78.997 113.57 79.1248 113.449C79.2527 113.328 79.3245 113.165 79.3245 112.994V91.4649L101.809 83.7343C101.99 83.7369 102.164 83.6715 102.294 83.5527C102.424 83.4338 102.498 83.2712 102.501 83.1005C102.504 82.9299 102.434 82.7652 102.308 82.6428C102.182 82.5203 102.01 82.4501 101.829 82.4475L79.3448 90.1781C79.1639 90.1742 78.984 90.2049 78.816 90.2685C78.648 90.3322 78.4955 90.4273 78.3676 90.5482C78.2384 90.6676 78.1359 90.8102 78.066 90.9677C77.9962 91.1251 77.9605 91.2942 77.961 91.4649V112.994C77.961 113.165 78.0329 113.328 78.1607 113.449C78.2886 113.57 78.462 113.637 78.6428 113.637V113.637Z" fill="#3F3D56"/>
</g>
<path id="Vector_31" d="M78.2354 121.886C80.571 121.886 82.4644 119.837 82.4644 117.309C82.4644 114.781 80.571 112.732 78.2354 112.732C75.8998 112.732 74.0064 114.781 74.0064 117.309C74.0064 119.837 75.8998 121.886 78.2354 121.886Z" fill="#3F3D56"/>
</g>
</g>
<defs>
<clipPath id="clip0">
<rect width="550" height="549" fill="white"/>
</clipPath>
</defs>
</svg>
