<svg xmlns="http://www.w3.org/2000/svg" xmlns:xlink="http://www.w3.org/1999/xlink" viewBox="0 0 1366 758.54"><defs><style>.cls-1{fill:url(#linear-gradient);}</style><linearGradient id="linear-gradient" x1="1172.22" y1="49.44" x2="-13.67" y2="718.52" gradientUnits="userSpaceOnUse"><stop offset="0.05" stop-color="#eb53d9"/><stop offset="1" stop-color="#fff"/><stop offset="1" stop-color="#fef9fe"/><stop offset="1"/></linearGradient></defs><g id="Layer_2" data-name="Layer 2"><g id="bgm"><path class="cls-1" d="M206.62,580c44.21-.59,85.66,16.07,121.23,45.51,35-28.94,75.6-45.53,119-45.53s84,16.59,119,45.53c35-28.94,75.6-45.53,119-45.53,43.8,0,84.81,16.93,120,46.41C839.94,596.93,881,580,924.75,580c56.09,0,107.61,27.75,148.18,74.09,40.39-46.13,91.63-73.83,147.41-74.09,54.67-.25,105.3,26.3,145.66,70.92V255s-18-165-245-79C982.59,228.44,683,0,683,0H0V758.54C39.7,653.37,117.51,581.2,206.62,580Z"/></g></g></svg>